<?xml version="1.0" standalone="no"?>
<!DOCTYPE svg PUBLIC "-//W3C//DTD SVG 20010904//EN"
 "http://www.w3.org/TR/2001/REC-SVG-20010904/DTD/svg10.dtd">
<svg version="1.0" xmlns="http://www.w3.org/2000/svg"
 width="296.000000pt" height="296.000000pt" viewBox="0 0 296.000000 296.000000"
 preserveAspectRatio="xMidYMid meet">
<metadata>
Created by potrace 1.11, written by Peter Selinger 2001-2013
</metadata>
<g transform="translate(0.000000,296.000000) scale(0.100000,-0.100000)"
fill="#000000" stroke="none">
<path d="M1453 2870 c-17 -4 -156 -80 -310 -170 -153 -90 -381 -224 -508 -298
-295 -172 -305 -179 -334 -232 l-25 -44 -1 -626 c-1 -677 0 -690 52 -747 22
-24 422 -266 698 -423 17 -9 113 -66 215 -126 184 -109 185 -109 250 -109 65
0 66 1 240 104 96 57 189 112 205 121 158 91 676 397 697 411 14 11 36 39 48
64 22 45 22 49 22 685 0 639 0 639 -22 685 -13 28 -38 56 -63 74 -37 24 -205
125 -262 157 -23 12 -123 71 -145 84 -79 49 -152 90 -160 90 -6 0 -10 4 -10 8
0 4 -12 13 -27 20 -16 6 -41 20 -58 30 -143 90 -400 233 -431 240 -22 4 -53 5
-71 2z"/>
</g>
</svg>
