<svg width="13" height="12" viewBox="0 0 13 12" fill="none" xmlns="http://www.w3.org/2000/svg">
<path d="M4.50011 0.750042C4.50011 0.421224 4.28592 0.130752 3.97179 0.0335641C3.65766 -0.0636236 3.31685 0.0551404 3.13115 0.326507C3.06785 0.419013 3.0056 0.512692 2.94255 0.607566C2.44134 1.36177 1.88997 2.19146 0.364242 3.10688C0.0090563 3.31998 -0.106117 3.78067 0.106994 4.13585C0.320105 4.49103 0.7808 4.6062 1.13599 4.39309C1.95392 3.90234 2.54705 3.4168 3.00011 2.95878L3.00001 11.25C3 11.6643 3.33589 12.0001 3.75018 12C4.16432 11.9999 4.5 11.6642 4.50001 11.25L4.50011 0.750042ZM8.28033 6.21961C7.98744 5.92673 7.51256 5.92673 7.21967 6.21961C6.92678 6.5125 6.92678 6.98736 7.21967 7.28025L8.93934 8.99989L7.21967 10.7195C6.92678 11.0124 6.92678 11.4873 7.21967 11.7802C7.51256 12.0731 7.98744 12.0731 8.28033 11.7802L10 10.0605L11.7197 11.7802C12.0126 12.0731 12.4874 12.0731 12.7803 11.7802C13.0732 11.4873 13.0732 11.0124 12.7803 10.7195L11.0607 8.99989L12.7803 7.28025C13.0732 6.98736 13.0732 6.5125 12.7803 6.21961C12.4874 5.92673 12.0126 5.92673 11.7197 6.21961L10 7.93925L8.28033 6.21961Z" fill="#594E90"/>
</svg>
