<svg width="54" height="54" viewBox="0 0 54 54" fill="none" xmlns="http://www.w3.org/2000/svg">
<path d="M54 27C54 12.0883 41.9117 0 27 0C12.0883 0 0 12.0883 0 27C0 41.9117 12.0883 54 27 54C41.9117 54 54 41.9117 54 27ZM2.97 27C2.97 13.7286 13.7286 2.97 27 2.97C40.2714 2.97 51.03 13.7286 51.03 27C51.03 40.2714 40.2714 51.03 27 51.03C13.7286 51.03 2.97 40.2714 2.97 27Z" fill="#F5F5F5"/>
<path d="M27 0.999997C27 0.447713 27.4479 -0.00193671 27.9998 0.01851C33.1734 0.21016 38.1907 1.88594 42.4482 4.85609C46.7057 7.82624 50.0108 11.9564 51.977 16.7456C52.1867 17.2565 51.9194 17.8322 51.401 18.0229L50.4907 18.3578C49.9724 18.5485 49.3996 18.2819 49.1875 17.7719C47.4327 13.5528 44.5079 9.91431 40.7489 7.29192C36.9899 4.66953 32.5654 3.18086 27.9998 2.9908C27.448 2.96783 27 2.52228 27 1.97L27 0.999997Z" fill="#ED6F6F"/>
<path d="M17.0653 33.613C18.674 32.321 19.9343 31.2633 20.8463 30.44C21.7583 29.604 22.5246 28.7363 23.1453 27.837C23.7786 26.925 24.0953 26.032 24.0953 25.158C24.0953 24.3347 23.8926 23.6887 23.4873 23.22C23.0946 22.7387 22.455 22.498 21.5683 22.498C20.707 22.498 20.0356 22.7703 19.5543 23.315C19.0856 23.847 18.8323 24.5627 18.7943 25.462H17.1223C17.173 24.0433 17.6036 22.9477 18.4143 22.175C19.225 21.4023 20.27 21.016 21.5493 21.016C22.854 21.016 23.8863 21.377 24.6463 22.099C25.419 22.821 25.8053 23.8153 25.8053 25.082C25.8053 26.1333 25.4886 27.1593 24.8553 28.16C24.2346 29.148 23.5253 30.022 22.7273 30.782C21.9293 31.5293 20.9096 32.4033 19.6683 33.404H26.2043V34.848H17.0653V33.613ZM28.944 33.613C30.5527 32.321 31.813 31.2633 32.725 30.44C33.637 29.604 34.4033 28.7363 35.024 27.837C35.6573 26.925 35.974 26.032 35.974 25.158C35.974 24.3347 35.7713 23.6887 35.366 23.22C34.9733 22.7387 34.3337 22.498 33.447 22.498C32.5857 22.498 31.9143 22.7703 31.433 23.315C30.9643 23.847 30.711 24.5627 30.673 25.462H29.001C29.0517 24.0433 29.4823 22.9477 30.293 22.175C31.1037 21.4023 32.1487 21.016 33.428 21.016C34.7327 21.016 35.765 21.377 36.525 22.099C37.2977 22.821 37.684 23.8153 37.684 25.082C37.684 26.1333 37.3673 27.1593 36.734 28.16C36.1133 29.148 35.404 30.022 34.606 30.782C33.808 31.5293 32.7883 32.4033 31.547 33.404H38.083V34.848H28.944V33.613Z" fill="#2B2A29"/>
</svg>
