<svg width="56" height="56" viewBox="0 0 56 56" fill="none" xmlns="http://www.w3.org/2000/svg">
<path d="M56 28C56 12.536 43.464 0 28 0C12.536 0 0 12.536 0 28C0 43.464 12.536 56 28 56C43.464 56 56 43.464 56 28ZM3.08 28C3.08 14.2371 14.2371 3.08 28 3.08C41.7629 3.08 52.92 14.2371 52.92 28C52.92 41.7629 41.7629 52.92 28 52.92C14.2371 52.92 3.08 41.7629 3.08 28Z" fill="#F0F0F0"/>
<path d="M28 0.999994C28 0.447709 28.4479 -0.00187181 28.9998 0.0178463C33.9652 0.195222 38.8006 1.69121 43.0056 4.36036C47.4923 7.20837 51.0759 11.2744 53.3376 16.0834C55.5993 20.8924 56.4458 26.2458 55.7781 31.5179C55.1524 36.459 53.2209 41.1376 50.1909 45.0753C49.854 45.513 49.2221 45.5713 48.7967 45.219L47.9649 44.5303C47.5395 44.1781 47.4819 43.5488 47.8168 43.1097C50.475 39.6234 52.1702 35.4921 52.7225 31.131C53.3168 26.4387 52.5634 21.6742 50.5505 17.3942C48.5375 13.1142 45.3482 9.49545 41.355 6.96072C37.6436 4.60489 33.3804 3.27591 28.9998 3.10005C28.4479 3.0779 28 2.63228 28 2.07999L28 0.999994Z" fill="#F16063"/>
<path d="M17.5434 32.3153H23.7053V35H25.2139V32.3153H27.0036V30.9091H25.2139V21.9091H23.2963L17.5434 31.0114V32.3153ZM23.7053 30.9091H19.2565V30.8068L23.6031 23.929H23.7053V30.9091ZM33.8224 35.179C36.36 35.179 38.2457 33.5874 38.2457 31.446C38.2457 29.7841 37.2613 28.576 35.6121 28.3011V28.1989C36.9353 27.7962 37.7599 26.7095 37.7599 25.233C37.7599 23.3793 36.2961 21.7301 33.8735 21.7301C31.6107 21.7301 29.7314 23.1236 29.6547 25.1818H31.1888C31.2464 23.8778 32.4864 23.1108 33.8479 23.1108C35.2925 23.1108 36.2258 23.9865 36.2258 25.3097C36.2258 26.6903 35.1455 27.5852 33.5922 27.5852H32.5439V28.9915H33.5922C35.5802 28.9915 36.686 30.0014 36.686 31.446C36.686 32.8331 35.4779 33.7727 33.7968 33.7727C32.2819 33.7727 31.0802 32.9929 30.9843 31.7273H29.3735C29.4694 33.7855 31.2847 35.179 33.8224 35.179Z" fill="#2B2A29"/>
</svg>
