<svg width="57" height="56" viewBox="0 0 57 56" fill="none" xmlns="http://www.w3.org/2000/svg">
<path d="M56.5715 28C56.5715 12.536 44.0355 0 28.5715 0C13.1076 0 0.571533 12.536 0.571533 28C0.571533 43.464 13.1076 56 28.5715 56C44.0355 56 56.5715 43.464 56.5715 28ZM3.65153 28C3.65153 14.2371 14.8086 3.08 28.5715 3.08C42.3345 3.08 53.4915 14.2371 53.4915 28C53.4915 41.7629 42.3345 52.92 28.5715 52.92C14.8086 52.92 3.65153 41.7629 3.65153 28Z" fill="#F0F0F0"/>
<path d="M28.5715 0.999994C28.5715 0.447709 29.0194 -0.00187181 29.5714 0.0178501C33.6813 0.164689 37.7129 1.21537 41.3774 3.10001C45.3387 5.13727 48.7568 8.09023 51.3477 11.7136C53.9387 15.337 55.6278 19.5263 56.2747 23.9335C56.9216 28.3408 56.5077 32.8387 55.0673 37.0539C53.627 41.269 51.2017 45.0797 47.993 48.1694C44.7843 51.2592 40.8847 53.5387 36.6182 54.8189C32.3517 56.099 27.8413 56.3427 23.4616 55.5298C19.4101 54.7778 15.5786 53.1415 12.2382 50.7425C11.7896 50.4204 11.7105 49.7907 12.0485 49.3539L12.7094 48.4997C13.0474 48.0629 13.6744 47.9846 14.1244 48.3048C17.0761 50.4051 20.4539 51.8389 24.0237 52.5015C27.9216 53.225 31.9358 53.0081 35.7331 51.8688C39.5303 50.7295 43.0009 48.7006 45.8566 45.9508C48.7124 43.201 50.8709 39.8095 52.1528 36.058C53.4347 32.3065 53.8031 28.3033 53.2273 24.3809C52.6516 20.4584 51.1483 16.73 48.8423 13.5051C46.5364 10.2803 43.4943 7.65217 39.9688 5.83901C36.74 4.17848 33.1911 3.24538 29.5713 3.10005C29.0195 3.0779 28.5715 2.63228 28.5715 2.07999L28.5715 0.999994Z" fill="#66CB9F"/>
<path d="M24.4734 35.179C27.1197 35.2109 28.8456 33.2166 28.8456 30.7812C28.8456 28.25 26.9727 26.4347 24.7291 26.4347C23.3804 26.4347 22.2234 27.093 21.5075 28.1733H21.4053C21.4116 24.9837 22.6517 23.1364 24.678 23.1364C26.0587 23.1364 26.8896 24.0057 27.1837 25.1818H28.7433C28.4237 23.1491 26.8768 21.7301 24.678 21.7301C21.7312 21.7301 19.9223 24.3381 19.9223 28.9659C19.9223 33.8047 22.3257 35.1534 24.4734 35.179ZM24.4734 33.7727C22.8307 33.7727 21.629 32.3729 21.6354 30.8068C21.6418 29.2408 22.901 27.8409 24.5246 27.8409C26.129 27.8409 27.3115 29.1577 27.3115 30.7812C27.3115 32.4432 26.0778 33.7727 24.4734 33.7727ZM35.9615 21.9091H34.3763L31.1036 24.0824V25.6932L34.2996 23.571H34.3763V35H35.9615V21.9091Z" fill="#2B2A29"/>
</svg>
