<svg width="32" height="32" viewBox="0 0 32 32" fill="none" xmlns="http://www.w3.org/2000/svg">
<path d="M32 16C32 7.16344 24.8366 0 16 0C7.16344 0 0 7.16344 0 16C0 24.8366 7.16344 32 16 32C24.8366 32 32 24.8366 32 16ZM1.6 16C1.6 8.0471 8.0471 1.6 16 1.6C23.9529 1.6 30.4 8.0471 30.4 16C30.4 23.9529 23.9529 30.4 16 30.4C8.0471 30.4 1.6 23.9529 1.6 16Z" fill="#E8EAED"/>
<path d="M16 1C16 0.447716 16.4482 -0.00325707 16.9994 0.0312354C19.9009 0.212796 22.7051 1.18223 25.1059 2.84393C27.7814 4.69577 29.8287 7.31934 30.9748 10.3647C32.1208 13.4101 32.3111 16.7325 31.5202 19.8888C30.7294 23.0451 28.995 25.8852 26.5484 28.0304C24.1018 30.1756 21.0593 31.5239 17.8267 31.8954C14.5941 32.2669 11.3251 31.6439 8.45564 30.1097C5.5862 28.5754 3.25275 26.2027 1.76652 23.3081C0.432903 20.7107 -0.16166 17.8038 0.0376103 14.9035C0.0754654 14.3525 0.581153 13.9671 1.1287 14.0393L1.84252 14.1334C2.39007 14.2056 2.77145 14.7081 2.74065 15.2595C2.60935 17.6104 3.10531 19.9605 4.18622 22.0657C5.41978 24.4682 7.35654 26.4376 9.73818 27.711C12.1198 28.9845 14.8331 29.5015 17.5162 29.1932C20.1992 28.8848 22.7245 27.7658 24.7552 25.9853C26.7858 24.2048 28.2254 21.8474 28.8818 19.2277C29.5382 16.608 29.3803 13.8504 28.4291 11.3227C27.4778 8.79505 25.7786 6.61749 23.5579 5.08046C21.6121 3.73365 19.3469 2.93474 16.9991 2.75763C16.4484 2.71608 16 2.27229 16 1.72L16 1Z" fill="#429E55"/>
<path d="M10.4035 20H11.5114L15.3978 12.2614V11.2727H9.80689V12.2102H14.3069V12.2784L10.4035 20ZM18.0933 20H19.2013L23.0876 12.2614V11.2727H17.4967V12.2102H21.9967V12.2784L18.0933 20Z" fill="#585556"/>
</svg>
