<svg width="55" height="54" viewBox="0 0 55 54" fill="none" xmlns="http://www.w3.org/2000/svg">
<path d="M54.167 27C54.167 12.0883 42.0787 0 27.167 0C12.2553 0 0.166992 12.0883 0.166992 27C0.166992 41.9117 12.2553 54 27.167 54C42.0787 54 54.167 41.9117 54.167 27ZM3.13699 27C3.13699 13.7286 13.8956 2.97 27.167 2.97C40.4384 2.97 51.197 13.7286 51.197 27C51.197 40.2714 40.4384 51.03 27.167 51.03C13.8956 51.03 3.13699 40.2714 3.13699 27Z" fill="#F5F5F5"/>
<path d="M27.167 0.999997C27.167 0.447713 27.615 -0.00193671 28.1669 0.0185062C34.3791 0.248582 40.3337 2.61686 45.0137 6.73936C49.9444 11.0826 53.1221 17.0748 53.9512 23.5931C54.7803 30.1113 53.204 36.7083 49.5176 42.1476C45.8313 47.5869 40.2879 51.4952 33.9264 53.1402C27.5648 54.7852 20.8217 54.0539 14.9608 51.0834C9.09977 48.1128 4.52318 43.1069 2.08863 37.0038C-0.345914 30.9007 -0.471315 24.1192 1.73593 17.9302C3.831 12.0558 7.89114 7.09789 13.2131 3.88529C13.6859 3.59988 14.2957 3.77598 14.5635 4.25904L15.0337 5.10745C15.3014 5.59051 15.1255 6.19738 14.654 6.48495C9.96367 9.34563 6.3856 13.7343 4.53335 18.9279C2.5689 24.4361 2.68051 30.4716 4.84725 35.9034C7.014 41.3352 11.0872 45.7904 16.3034 48.4342C21.5197 51.078 27.5211 51.7288 33.1828 50.2648C38.8446 48.8008 43.7782 45.3223 47.0591 40.4813C50.3399 35.6404 51.7428 29.7691 51.0049 23.9678C50.267 18.1666 47.4389 12.8335 43.0506 8.96803C38.9129 5.32332 33.6559 3.21924 28.1668 2.99079C27.615 2.96783 27.167 2.52228 27.167 1.97L27.167 0.999997Z" fill="#6AE66E"/>
<path d="M18.6438 31.314C18.7704 32.036 19.0618 32.5933 19.5178 32.986C19.9864 33.3787 20.6134 33.575 21.3988 33.575C22.4501 33.575 23.2228 33.1633 23.7168 32.34C24.2234 31.5167 24.4641 30.1297 24.4388 28.179C24.1728 28.749 23.7294 29.1987 23.1088 29.528C22.4881 29.8447 21.7978 30.003 21.0378 30.003C20.1891 30.003 19.4291 29.832 18.7578 29.49C18.0991 29.1353 17.5798 28.6223 17.1998 27.951C16.8198 27.2797 16.6298 26.469 16.6298 25.519C16.6298 24.1637 17.0224 23.0743 17.8078 22.251C18.5931 21.415 19.7078 20.997 21.1518 20.997C22.9251 20.997 24.1664 21.5733 24.8758 22.726C25.5978 23.8787 25.9588 25.595 25.9588 27.875C25.9588 29.471 25.8131 30.7883 25.5218 31.827C25.2431 32.8657 24.7618 33.6573 24.0778 34.202C23.4064 34.7467 22.4818 35.019 21.3038 35.019C20.0118 35.019 19.0048 34.6707 18.2828 33.974C17.5608 33.2773 17.1491 32.3907 17.0478 31.314H18.6438ZM21.3228 28.54C22.1714 28.54 22.8681 28.2803 23.4128 27.761C23.9574 27.229 24.2298 26.5133 24.2298 25.614C24.2298 24.664 23.9638 23.8977 23.4318 23.315C22.8998 22.7323 22.1524 22.441 21.1898 22.441C20.3031 22.441 19.5938 22.7197 19.0618 23.277C18.5424 23.8343 18.2828 24.569 18.2828 25.481C18.2828 26.4057 18.5424 27.1467 19.0618 27.704C19.5811 28.2613 20.3348 28.54 21.3228 28.54ZM38.0975 22.764H31.4285V27.096C31.7199 26.6907 32.1505 26.3613 32.7205 26.108C33.2905 25.842 33.9049 25.709 34.5635 25.709C35.6149 25.709 36.4699 25.9307 37.1285 26.374C37.7872 26.8047 38.2559 27.3683 38.5345 28.065C38.8259 28.749 38.9715 29.4773 38.9715 30.25C38.9715 31.162 38.8005 31.979 38.4585 32.701C38.1165 33.423 37.5909 33.993 36.8815 34.411C36.1849 34.829 35.3172 35.038 34.2785 35.038C32.9485 35.038 31.8719 34.696 31.0485 34.012C30.2252 33.328 29.7249 32.416 29.5475 31.276H31.2385C31.4032 31.998 31.7515 32.5617 32.2835 32.967C32.8155 33.3723 33.4869 33.575 34.2975 33.575C35.2982 33.575 36.0519 33.2773 36.5585 32.682C37.0652 32.074 37.3185 31.276 37.3185 30.288C37.3185 29.3 37.0652 28.54 36.5585 28.008C36.0519 27.4633 35.3045 27.191 34.3165 27.191C33.6452 27.191 33.0562 27.3557 32.5495 27.685C32.0555 28.0017 31.6945 28.4387 31.4665 28.996H29.8325V21.244H38.0975V22.764Z" fill="#2B2A29"/>
</svg>
