<svg width="19" height="19" viewBox="0 0 19 19" fill="none" xmlns="http://www.w3.org/2000/svg">
<path d="M7.89346 0C5.40235 0 3.38291 2.04833 3.38291 4.57507C3.38291 7.10181 5.40235 9.15013 7.89346 9.15013C10.3846 9.15013 12.404 7.10181 12.404 4.57507C12.404 2.04833 10.3846 0 7.89346 0ZM4.51055 4.57507C4.51055 2.68001 6.02513 1.14377 7.89346 1.14377C9.76179 1.14377 11.2764 2.68001 11.2764 4.57507C11.2764 6.47012 9.76179 8.00637 7.89346 8.00637C6.02513 8.00637 4.51055 6.47012 4.51055 4.57507ZM2.26511 10.2939C1.01843 10.2939 0 11.3083 0 12.5814C0 14.5158 0.939107 15.9742 2.4075 16.9238C3.8531 17.8588 5.80198 18.3003 7.89346 18.3003C8.35675 18.3003 8.81305 18.2786 9.25843 18.2347C8.99063 17.8967 8.75655 17.53 8.56139 17.1399C8.34223 17.1509 8.11945 17.1565 7.89346 17.1565C5.93688 17.1565 4.22095 16.7402 3.01374 15.9594C1.82933 15.1934 1.12764 14.0784 1.12764 12.5814C1.12764 11.9486 1.63266 11.4377 2.26511 11.4377L8.56971 11.4377C8.77595 11.0285 9.02508 10.6452 9.31108 10.2939L2.26511 10.2939ZM9.73722 13.6336C10.964 13.3157 11.6925 12.036 11.3505 10.7994L11.1744 10.1626C11.4609 9.93919 11.7714 9.74784 12.1012 9.59356L12.4816 10.003C13.3712 10.9605 14.8718 10.9613 15.7625 10.0047L16.1286 9.61153C16.4644 9.77225 16.7799 9.97157 17.0699 10.2041L16.9276 10.6871C16.5563 11.9477 17.3073 13.2654 18.5696 13.5682L18.9631 13.6626C18.9875 13.8704 19 14.0821 19 14.2969C19 14.4753 18.9914 14.6516 18.9745 14.8254L18.4551 14.9599C17.2283 15.2778 16.4999 16.5576 16.8419 17.7942L17.018 18.4308C16.7315 18.6543 16.4209 18.8457 16.0912 19L15.7108 18.5906C14.8211 17.6331 13.3205 17.6323 12.4299 18.5888L12.0634 18.9824C11.7277 18.8217 11.4123 18.6225 11.1222 18.3901L11.2647 17.9065C11.6361 16.6459 10.8851 15.3281 9.62278 15.0254L9.22861 14.9309C9.2043 14.7231 9.19178 14.5116 9.19178 14.2969C9.19178 14.1185 9.20043 13.9421 9.21733 13.7683L9.73722 13.6336ZM15.2235 14.2969C15.2235 13.6652 14.7187 13.1532 14.0959 13.1532C13.4731 13.1532 12.9683 13.6652 12.9683 14.2969C12.9683 14.9286 13.4731 15.4407 14.0959 15.4407C14.7187 15.4407 15.2235 14.9286 15.2235 14.2969Z" fill="#594E90"/>
</svg>
