<svg width="26" height="26" viewBox="0 0 26 26" fill="none" xmlns="http://www.w3.org/2000/svg">
<path d="M13.0003 7.99805C14.2278 7.99805 15.2232 8.99346 15.2232 10.221C15.2232 11.4485 14.2278 12.4439 13.0003 12.4439C11.7728 12.4439 10.7773 11.4495 10.7773 10.221C10.7773 8.99246 11.7728 7.99805 13.0003 7.99805" stroke="#707070" stroke-width="1.5" stroke-linecap="round" stroke-linejoin="round"/>
<path fill-rule="evenodd" clip-rule="evenodd" d="M21.0035 12.2418C21.0035 16.6116 17.8452 20.7073 13.5204 21.9318C13.1822 22.0278 12.8181 22.0278 12.4799 21.9318C8.15514 20.7083 4.99683 16.6116 4.99683 12.2418V8.21209C4.99683 7.39975 5.48803 6.66744 6.24034 6.36032L11.1064 4.36949C12.3209 3.87228 13.6814 3.87228 14.8949 4.36949L19.761 6.36032C20.5123 6.66744 21.0035 7.39975 21.0035 8.21209V12.2418Z" stroke="#707070" stroke-width="1.5" stroke-linecap="round" stroke-linejoin="round"/>
<path d="M17.0019 16.0015C16.8858 15.7084 16.7047 15.4463 16.4736 15.2322V15.2322C16.0825 14.8701 15.5723 14.668 15.0391 14.668C14.1497 14.668 11.8517 14.668 10.9624 14.668C10.4291 14.668 9.91792 14.8701 9.52676 15.2322V15.2322C9.29566 15.4463 9.11558 15.7084 8.99854 16.0015" stroke="#707070" stroke-width="1.5" stroke-linecap="round" stroke-linejoin="round"/>
</svg>
