<svg width="28" height="28" viewBox="0 0 28 28" fill="none" xmlns="http://www.w3.org/2000/svg">
<path d="M19.8318 6.5C18.2217 5.24608 16.1983 4.5 14 4.5C8.7533 4.5 4.5 8.75329 4.5 14C4.5 19.2467 8.7533 23.5 14 23.5C19.2467 23.5 23.5 19.2467 23.5 14C23.5 13.5479 23.4697 13.3411 23.3993 12.861L23.399 12.8588C23.3389 12.449 23.6224 12.068 24.0322 12.0079C24.442 11.9478 24.823 12.2314 24.8831 12.6412L24.8849 12.6534C24.9568 13.1436 25 13.4384 25 14C25 20.0751 20.0751 25 14 25C7.92487 25 3 20.0751 3 14C3 7.92487 7.92487 3 14 3C16.6592 3 19.0985 3.94423 21 5.5144V3.75C21 3.33579 21.3358 3 21.75 3C22.1642 3 22.5 3.33579 22.5 3.75V7.25C22.5 7.66421 22.1642 8 21.75 8H18.25C17.8358 8 17.5 7.66421 17.5 7.25C17.5 6.83579 17.8358 6.5 18.25 6.5H19.8318Z" fill="#594E90"/>
<path d="M17.4091 17.947C16.9673 17.9579 16.529 17.8654 16.1292 17.677C15.7741 17.4968 15.4685 17.2325 15.2391 16.907C14.9877 16.5273 14.8112 16.1031 14.7192 15.657C14.601 15.105 14.544 14.5416 14.5492 13.977C14.5451 13.4125 14.6021 12.8493 14.7192 12.297C14.813 11.8516 14.9894 11.4276 15.2391 11.047C15.4685 10.7216 15.7741 10.4572 16.1292 10.277C16.529 10.0887 16.9673 9.9962 17.4091 10.007C17.8246 9.97542 18.2412 10.0507 18.6194 10.2258C18.9975 10.4008 19.3245 10.6698 19.5692 11.007C20.0848 11.8939 20.3282 12.9129 20.2692 13.937C20.3282 14.9612 20.0848 15.9802 19.5692 16.867C19.3338 17.219 19.0108 17.5036 18.6321 17.693C18.2534 17.8824 17.8319 17.9699 17.4091 17.947ZM17.4091 16.727C17.6107 16.7391 17.8116 16.6938 17.9886 16.5965C18.1656 16.4992 18.3114 16.3537 18.4091 16.177C18.6481 15.7093 18.7748 15.1923 18.7792 14.667V13.287C18.8008 12.7713 18.7015 12.2576 18.4891 11.787C18.3774 11.6158 18.2246 11.4751 18.0448 11.3777C17.865 11.2803 17.6637 11.2293 17.4592 11.2293C17.2546 11.2293 17.0533 11.2803 16.8735 11.3777C16.6937 11.4751 16.5409 11.6158 16.4292 11.787C16.2168 12.2576 16.1175 12.7713 16.1392 13.287V14.667C16.1185 15.186 16.2178 15.7027 16.4292 16.177C16.5245 16.3513 16.667 16.4953 16.8403 16.5926C17.0135 16.6898 17.2107 16.7364 17.4091 16.727Z" fill="#594E90"/>
<path d="M8.41 17.8169V16.6369H10.41V11.4469L8.55 12.4469L8 11.3869L10.32 10.0869H11.78V16.5869H13.56V17.8169H8.41Z" fill="#594E90"/>
</svg>
