<svg width="528" height="341" viewBox="0 0 528 341" fill="none" xmlns="http://www.w3.org/2000/svg">
<path d="M0.495483 293.501C2.09482 345.901 62.8285 340.001 92.9955 330.501L414.496 340.501C414.663 337.168 414.096 320.601 410.496 281.001C405.996 231.501 530.996 230.501 526.996 156.501C522.996 82.501 450.996 35.0011 402.496 11.0011C353.996 -12.9989 299.996 9.0011 257.996 44.0011C215.996 79.0011 150.996 35.001 92.9955 24.001C34.9949 13.001 44.4961 97.001 61.4955 114.501C78.4949 132.001 82.9955 195.501 61.4955 221.501C39.9955 247.501 -1.50369 228.001 0.495483 293.501Z" fill="url(#paint0_linear_1193_8582)"/>
<defs>
<linearGradient id="paint0_linear_1193_8582" x1="263.758" y1="0.921875" x2="263.758" y2="340.501" gradientUnits="userSpaceOnUse">
<stop stop-color="#ABE5FF"/>
<stop offset="1" stop-color="white" stop-opacity="0"/>
</linearGradient>
</defs>
</svg>
