<svg width="16" height="18" viewBox="0 0 16 18" fill="none" xmlns="http://www.w3.org/2000/svg">
<path d="M15.5 4.41669C15.5 6.02502 14.1917 7.33335 12.5833 7.33335C10.975 7.33335 9.66667 6.02502 9.66667 4.41669C9.66667 2.80835 10.975 1.50002 12.5833 1.50002C14.1917 1.50002 15.5 2.80835 15.5 4.41669ZM7.58333 17.3334C8.50833 17.3334 9.25 16.5917 9.25 15.6667H5.91667C5.91667 16.1087 6.09226 16.5326 6.40482 16.8452C6.71738 17.1578 7.14131 17.3334 7.58333 17.3334ZM13 9.00002H12.5833C12.1667 9.00002 11.75 8.93335 11.3333 8.82502V13.1667H3.83333V7.75002C3.83333 5.66669 5.5 4.00002 7.58333 4.00002C7.73333 4.00002 7.875 4.02502 8 4.04169C8.08333 3.21669 8.375 2.45002 8.83333 1.80835C8.76667 1.16669 8.23333 0.666687 7.58333 0.666687C6.89167 0.666687 6.33333 1.22502 6.33333 1.91669V2.48335C3.94167 3.05002 2.16667 5.19169 2.16667 7.75002V12.3334L0.5 14V14.8334H14.6667V14L13 12.3334V9.00002Z" fill="#333131"/>
</svg>
