<svg width="217" height="107" viewBox="0 0 217 107" fill="none" xmlns="http://www.w3.org/2000/svg">
<path d="M53.108 93.454V94.786H49.688V106H48.05V94.786H44.612V93.454H53.108ZM59.4263 106.162C58.5023 106.162 57.6623 105.952 56.9063 105.532C56.1623 105.112 55.5743 104.518 55.1423 103.75C54.7223 102.97 54.5123 102.07 54.5123 101.05C54.5123 100.042 54.7283 99.154 55.1603 98.386C55.6043 97.606 56.2043 97.012 56.9603 96.604C57.7163 96.184 58.5623 95.974 59.4983 95.974C60.4343 95.974 61.2803 96.184 62.0363 96.604C62.7923 97.012 63.3863 97.6 63.8183 98.368C64.2623 99.136 64.4843 100.03 64.4843 101.05C64.4843 102.07 64.2563 102.97 63.8003 103.75C63.3563 104.518 62.7503 105.112 61.9823 105.532C61.2143 105.952 60.3623 106.162 59.4263 106.162ZM59.4263 104.722C60.0143 104.722 60.5663 104.584 61.0823 104.308C61.5983 104.032 62.0123 103.618 62.3243 103.066C62.6483 102.514 62.8103 101.842 62.8103 101.05C62.8103 100.258 62.6543 99.586 62.3423 99.034C62.0303 98.482 61.6223 98.074 61.1183 97.81C60.6143 97.534 60.0683 97.396 59.4803 97.396C58.8803 97.396 58.3283 97.534 57.8243 97.81C57.3323 98.074 56.9363 98.482 56.6363 99.034C56.3363 99.586 56.1863 100.258 56.1863 101.05C56.1863 101.854 56.3303 102.532 56.6183 103.084C56.9183 103.636 57.3143 104.05 57.8063 104.326C58.2983 104.59 58.8383 104.722 59.4263 104.722ZM68.636 97.486V103.3C68.636 103.78 68.738 104.122 68.942 104.326C69.146 104.518 69.5 104.614 70.004 104.614H71.21V106H69.734C68.822 106 68.138 105.79 67.682 105.37C67.226 104.95 66.998 104.26 66.998 103.3V97.486H65.72V96.136H66.998V93.652H68.636V96.136H71.21V97.486H68.636ZM72.5826 101.032C72.5826 100.024 72.7866 99.142 73.1946 98.386C73.6026 97.618 74.1606 97.024 74.8686 96.604C75.5886 96.184 76.3866 95.974 77.2626 95.974C78.1266 95.974 78.8766 96.16 79.5126 96.532C80.1486 96.904 80.6226 97.372 80.9346 97.936V96.136H82.5906V106H80.9346V104.164C80.6106 104.74 80.1246 105.22 79.4766 105.604C78.8406 105.976 78.0966 106.162 77.2446 106.162C76.3686 106.162 75.5766 105.946 74.8686 105.514C74.1606 105.082 73.6026 104.476 73.1946 103.696C72.7866 102.916 72.5826 102.028 72.5826 101.032ZM80.9346 101.05C80.9346 100.306 80.7846 99.658 80.4846 99.106C80.1846 98.554 79.7766 98.134 79.2606 97.846C78.7566 97.546 78.1986 97.396 77.5866 97.396C76.9746 97.396 76.4166 97.54 75.9126 97.828C75.4086 98.116 75.0066 98.536 74.7066 99.088C74.4066 99.64 74.2566 100.288 74.2566 101.032C74.2566 101.788 74.4066 102.448 74.7066 103.012C75.0066 103.564 75.4086 103.99 75.9126 104.29C76.4166 104.578 76.9746 104.722 77.5866 104.722C78.1986 104.722 78.7566 104.578 79.2606 104.29C79.7766 103.99 80.1846 103.564 80.4846 103.012C80.7846 102.448 80.9346 101.794 80.9346 101.05ZM86.9967 92.68V106H85.3587V92.68H86.9967ZM98.0792 106.162C97.3232 106.162 96.6452 106.036 96.0452 105.784C95.4452 105.52 94.9712 105.16 94.6232 104.704C94.2752 104.236 94.0832 103.702 94.0472 103.102H95.7392C95.7872 103.594 96.0152 103.996 96.4232 104.308C96.8432 104.62 97.3892 104.776 98.0612 104.776C98.6852 104.776 99.1772 104.638 99.5372 104.362C99.8972 104.086 100.077 103.738 100.077 103.318C100.077 102.886 99.8852 102.568 99.5012 102.364C99.1172 102.148 98.5232 101.938 97.7192 101.734C96.9872 101.542 96.3872 101.35 95.9192 101.158C95.4632 100.954 95.0672 100.66 94.7312 100.276C94.4072 99.88 94.2452 99.364 94.2452 98.728C94.2452 98.224 94.3952 97.762 94.6952 97.342C94.9952 96.922 95.4212 96.592 95.9732 96.352C96.5252 96.1 97.1552 95.974 97.8632 95.974C98.9552 95.974 99.8372 96.25 100.509 96.802C101.181 97.354 101.541 98.11 101.589 99.07H99.9512C99.9152 98.554 99.7052 98.14 99.3212 97.828C98.9492 97.516 98.4452 97.36 97.8092 97.36C97.2212 97.36 96.7532 97.486 96.4052 97.738C96.0572 97.99 95.8832 98.32 95.8832 98.728C95.8832 99.052 95.9852 99.322 96.1892 99.538C96.4052 99.742 96.6692 99.91 96.9812 100.042C97.3052 100.162 97.7492 100.3 98.3132 100.456C99.0212 100.648 99.5972 100.84 100.041 101.032C100.485 101.212 100.863 101.488 101.175 101.86C101.499 102.232 101.667 102.718 101.679 103.318C101.679 103.858 101.529 104.344 101.229 104.776C100.929 105.208 100.503 105.55 99.9512 105.802C99.4112 106.042 98.7872 106.162 98.0792 106.162ZM103.379 101.05C103.379 100.03 103.583 99.142 103.991 98.386C104.399 97.618 104.963 97.024 105.683 96.604C106.415 96.184 107.249 95.974 108.185 95.974C109.397 95.974 110.393 96.268 111.173 96.856C111.965 97.444 112.487 98.26 112.739 99.304H110.975C110.807 98.704 110.477 98.23 109.985 97.882C109.505 97.534 108.905 97.36 108.185 97.36C107.249 97.36 106.493 97.684 105.917 98.332C105.341 98.968 105.053 99.874 105.053 101.05C105.053 102.238 105.341 103.156 105.917 103.804C106.493 104.452 107.249 104.776 108.185 104.776C108.905 104.776 109.505 104.608 109.985 104.272C110.465 103.936 110.795 103.456 110.975 102.832H112.739C112.475 103.84 111.947 104.65 111.155 105.262C110.363 105.862 109.373 106.162 108.185 106.162C107.249 106.162 106.415 105.952 105.683 105.532C104.963 105.112 104.399 104.518 103.991 103.75C103.583 102.982 103.379 102.082 103.379 101.05ZM119.227 106.162C118.303 106.162 117.463 105.952 116.707 105.532C115.963 105.112 115.375 104.518 114.943 103.75C114.523 102.97 114.313 102.07 114.313 101.05C114.313 100.042 114.529 99.154 114.961 98.386C115.405 97.606 116.005 97.012 116.761 96.604C117.517 96.184 118.363 95.974 119.299 95.974C120.235 95.974 121.081 96.184 121.837 96.604C122.593 97.012 123.187 97.6 123.619 98.368C124.063 99.136 124.285 100.03 124.285 101.05C124.285 102.07 124.057 102.97 123.601 103.75C123.157 104.518 122.551 105.112 121.783 105.532C121.015 105.952 120.163 106.162 119.227 106.162ZM119.227 104.722C119.815 104.722 120.367 104.584 120.883 104.308C121.399 104.032 121.813 103.618 122.125 103.066C122.449 102.514 122.611 101.842 122.611 101.05C122.611 100.258 122.455 99.586 122.143 99.034C121.831 98.482 121.423 98.074 120.919 97.81C120.415 97.534 119.869 97.396 119.281 97.396C118.681 97.396 118.129 97.534 117.625 97.81C117.133 98.074 116.737 98.482 116.437 99.034C116.137 99.586 115.987 100.258 115.987 101.05C115.987 101.854 116.131 102.532 116.419 103.084C116.719 103.636 117.115 104.05 117.607 104.326C118.099 104.59 118.639 104.722 119.227 104.722ZM128.077 97.738C128.365 97.174 128.773 96.736 129.301 96.424C129.841 96.112 130.495 95.956 131.263 95.956V97.648H130.831C128.995 97.648 128.077 98.644 128.077 100.636V106H126.439V96.136H128.077V97.738ZM142.154 100.69C142.154 101.002 142.136 101.332 142.1 101.68H134.216C134.276 102.652 134.606 103.414 135.206 103.966C135.818 104.506 136.556 104.776 137.42 104.776C138.128 104.776 138.716 104.614 139.184 104.29C139.664 103.954 140 103.51 140.192 102.958H141.956C141.692 103.906 141.164 104.68 140.372 105.28C139.58 105.868 138.596 106.162 137.42 106.162C136.484 106.162 135.644 105.952 134.9 105.532C134.168 105.112 133.592 104.518 133.172 103.75C132.752 102.97 132.542 102.07 132.542 101.05C132.542 100.03 132.746 99.136 133.154 98.368C133.562 97.6 134.132 97.012 134.864 96.604C135.608 96.184 136.46 95.974 137.42 95.974C138.356 95.974 139.184 96.178 139.904 96.586C140.624 96.994 141.176 97.558 141.56 98.278C141.956 98.986 142.154 99.79 142.154 100.69ZM140.462 100.348C140.462 99.724 140.324 99.19 140.048 98.746C139.772 98.29 139.394 97.948 138.914 97.72C138.446 97.48 137.924 97.36 137.348 97.36C136.52 97.36 135.812 97.624 135.224 98.152C134.648 98.68 134.318 99.412 134.234 100.348H140.462Z" fill="#4C4C4C"/>
<path d="M152.339 5.048L145.111 22H142.719L150.051 5.282H140.015V3.254H152.339V5.048ZM167.832 5.048L160.604 22H158.212L165.544 5.282H155.508V3.254H167.832V5.048Z" fill="#2B2A29"/>
<path d="M27 81C25.8954 81 24.997 80.1043 25.0286 79.0002C25.2718 70.4895 27.0659 62.0886 30.3284 54.2122C33.8463 45.7194 39.0024 38.0026 45.5025 31.5025C52.0026 25.0024 59.7194 19.8463 68.2122 16.3284C76.705 12.8106 85.8075 11 95 11C104.193 11 113.295 12.8106 121.788 16.3284C130.281 19.8463 137.997 25.0024 144.497 31.5025C150.998 38.0026 156.154 45.7194 159.672 54.2122C162.934 62.0886 164.728 70.4895 164.971 79.0002C165.003 80.1043 164.105 81 163 81L159.3 81C158.195 81 157.303 80.1043 157.268 79.0003C157.027 71.501 155.433 64.101 152.558 57.1588C149.427 49.6002 144.838 42.7323 139.053 36.9473C133.268 31.1622 126.4 26.5732 118.841 23.4423C111.283 20.3114 103.181 18.7 95 18.7C86.8187 18.7 78.7174 20.3114 71.1588 23.4423C63.6002 26.5732 56.7323 31.1622 50.9473 36.9472C45.1622 42.7323 40.5732 49.6002 37.4423 57.1588C34.5668 64.101 32.9729 71.5009 32.7321 79.0003C32.6966 80.1043 31.8046 81 30.7 81H27Z" fill="#F5F5F5"/>
<path d="M27 81C25.8954 81 24.997 80.1042 25.0286 79.0001C25.3814 66.6527 28.9963 54.6052 35.5222 44.0894C42.4 33.0065 52.2376 24.0657 63.9256 18.2754C75.6135 12.4851 88.6867 10.0755 101.671 11.3186C113.991 12.498 125.766 16.9213 135.802 24.1215C136.7 24.7654 136.868 26.0229 136.199 26.9016L133.957 29.8452C133.288 30.724 132.035 30.8909 131.135 30.2503C122.241 23.9176 111.829 20.0263 100.937 18.9835C89.3812 17.8772 77.746 20.0217 67.3437 25.1751C56.9415 30.3285 48.186 38.2858 42.0648 48.1495C36.2955 57.4462 33.0825 68.0879 32.7321 79.0002C32.6966 80.1042 31.8046 81 30.7 81H27Z" fill="#6AE66E"/>
<path d="M25 81C25 67.9564 28.6444 55.1723 35.5222 44.0894C42.4 33.0065 52.2376 24.0657 63.9256 18.2754C75.6135 12.4851 88.6867 10.0755 101.671 11.3186C114.655 12.5616 127.034 17.4078 137.411 25.3105L95 81L25 81Z" fill="url(#paint0_angular_352_4754)"/>
<path d="M91.5321 83.3101C93.4828 84.8501 96.4682 84.32 98.2001 82.1261L98.6797 81.4154L128.212 37.6524C128.558 37.1396 127.848 36.5788 127.429 37.0345L91.7161 75.9179L91.1361 76.5494C89.4042 78.7432 89.5814 81.7701 91.5321 83.3101Z" fill="black" fill-opacity="0.5"/>
<circle cx="94.3208" cy="79.78" r="4.5" transform="rotate(38.2896 94.3208 79.78)" fill="black"/>
<defs>
<radialGradient id="paint0_angular_352_4754" cx="0" cy="0" r="1" gradientUnits="userSpaceOnUse" gradientTransform="translate(95 81) rotate(-51.6942) scale(75.8238)">
<stop offset="0.661458" stop-color="#6AE66E" stop-opacity="0"/>
<stop offset="1" stop-color="#6AE66E" stop-opacity="0.3"/>
</radialGradient>
</defs>
</svg>
