<svg width="260" height="120" viewBox="0 0 260 120" fill="none" xmlns="http://www.w3.org/2000/svg">
<rect width="258.032" height="117.44" rx="10" transform="matrix(0.999985 -0.00549281 -0.00539025 0.999985 1.41016 1.41846)" fill="white"/>
<path d="M24.4657 100.109L20.5048 100.13L20.5439 92.8824L19.2314 92.8896L19.1858 101.345L24.4592 101.316L24.4657 100.109ZM28.0678 100.341C27.3822 100.345 26.886 100.013 26.8891 99.4391C26.8921 98.8766 27.2922 98.5756 28.1714 98.5122L29.7305 98.404L29.7276 98.9372C29.7233 99.7282 29.017 100.336 28.0678 100.341ZM27.7398 101.403C28.5777 101.398 29.2769 101.031 29.6612 100.391L29.7608 100.39L29.756 101.287L30.9688 101.28L30.9923 96.9206C30.9996 95.5729 30.1016 94.781 28.502 94.7898C27.0547 94.7978 26.0197 95.5065 25.8849 96.6029L27.1036 96.5962C27.2467 96.1443 27.7344 95.8838 28.4375 95.88C29.2988 95.8752 29.7421 96.2536 29.7384 96.9275L29.7355 97.4782L28.0064 97.5873C26.4884 97.6894 25.6294 98.3562 25.6232 99.5046C25.6169 100.671 26.5093 101.41 27.7398 101.403ZM32.64 96.6947C32.6348 97.6439 33.1944 98.1858 34.4057 98.4662L35.5176 98.7179C36.1554 98.8667 36.4529 99.1112 36.4509 99.492C36.4481 100.002 35.8896 100.356 35.1045 100.361C34.3428 100.365 33.8757 100.063 33.7201 99.5715L32.4604 99.5784C32.5656 100.709 33.5521 101.389 35.0697 101.38C36.5931 101.372 37.7165 100.563 37.723 99.362C37.7281 98.4245 37.1625 97.9062 35.9512 97.6316L34.892 97.3913C34.2014 97.2369 33.8805 96.9984 33.8825 96.6176C33.8852 96.1196 34.4202 95.7826 35.1233 95.7788C35.8381 95.7749 36.2935 96.0712 36.4082 96.5393L37.6152 96.5326C37.4982 95.4083 36.5644 94.7455 35.1288 94.7534C33.6874 94.7613 32.6461 95.5639 32.64 96.6947ZM39.6718 93.2637L39.6631 94.8808L38.6494 94.8864L38.6437 95.9469L39.6574 95.9414L39.638 99.5448C39.6313 100.775 40.1853 101.264 41.5857 101.257C41.8318 101.255 42.0663 101.225 42.2716 101.188L42.2772 100.14C42.1013 100.158 41.9899 100.171 41.7966 100.172C41.1696 100.175 40.8958 99.8836 40.8994 99.2157L40.9171 95.9345L42.2999 95.9269L42.3056 94.8663L40.9228 94.8739L40.9316 93.2568L39.6718 93.2637ZM52.4482 94.7813L51.1885 94.7882L51.1684 98.5206C51.1629 99.5225 50.6031 100.129 49.5835 100.135C48.6578 100.14 48.2444 99.6499 48.25 98.6187L48.2705 94.8043L47.0108 94.8112L46.9885 98.9537C46.9804 100.454 47.7609 101.311 49.173 101.303C50.1398 101.298 50.7923 100.884 51.1068 100.156L51.2064 100.155L51.2009 101.169L52.4138 101.162L52.4482 94.7813ZM57.5874 94.6476C56.7202 94.6524 55.9679 95.0901 55.5772 95.8188L55.4835 95.8193L55.4892 94.7646L54.2763 94.7713L54.2305 103.273L55.4902 103.266L55.5069 100.178L55.6065 100.178C55.9368 100.85 56.6554 101.244 57.5636 101.239C59.1749 101.23 60.2071 99.9533 60.218 97.926C60.229 95.8987 59.2104 94.6387 57.5874 94.6476ZM57.2005 100.11C56.1459 100.116 55.4882 99.2879 55.4954 97.9578C55.5026 96.6219 56.1692 95.7862 57.2297 95.7804C58.2961 95.7745 58.9304 96.5855 58.9231 97.9331C58.9158 99.2866 58.2728 100.105 57.2005 100.11ZM64.0498 101.204C64.9287 101.199 65.6751 100.779 66.0597 100.079L66.1593 100.079L66.1538 101.087L67.3609 101.08L67.4087 92.209L66.1489 92.2159L66.13 95.7198L66.0363 95.7203C65.6944 95.0191 64.9584 94.6071 64.0853 94.6119C62.474 94.6208 61.43 95.9038 61.4192 97.9194C61.4083 99.9409 62.4268 101.213 64.0498 101.204ZM64.4366 95.7408C65.4913 95.735 66.1489 96.5693 66.1417 97.8993C66.1345 99.2352 65.4738 100.065 64.4133 100.071C63.3469 100.077 62.7126 99.2657 62.7199 97.9123C62.7272 96.5705 63.3761 95.7466 64.4366 95.7408ZM71.3445 100.103C70.6589 100.107 70.1627 99.7756 70.1658 99.2014C70.1688 98.6389 70.5689 98.3379 71.4481 98.2744L73.0072 98.1663L73.0043 98.6995C73 99.4905 72.2937 100.098 71.3445 100.103ZM71.0165 101.165C71.8544 101.161 72.5536 100.794 72.9379 100.153L73.0375 100.152L73.0326 101.049L74.2455 101.042L74.269 96.6829C74.2763 95.3352 73.3782 94.5433 71.7787 94.5521C70.3314 94.56 69.2964 95.2688 69.1616 96.3652L70.3803 96.3585C70.5234 95.9066 71.0111 95.6461 71.7142 95.6422C72.5755 95.6375 73.0188 96.0159 73.0151 96.6897L73.0122 97.2405L71.2831 97.3496C69.7651 97.4517 68.9061 98.1185 68.8999 99.2669C68.8936 100.433 69.786 101.172 71.0165 101.165ZM76.5267 93.0612L76.518 94.6784L75.5043 94.684L75.4986 95.7445L76.5123 95.7389L76.4929 99.3424C76.4862 100.573 77.0402 101.062 78.4406 101.054C78.6867 101.053 78.9212 101.022 79.1265 100.986L79.1321 99.9372C78.9562 99.9558 78.8449 99.9681 78.6515 99.9692C78.0246 99.9726 77.7507 99.6812 77.7543 99.0132L77.772 95.732L79.1548 95.7244L79.1605 94.6639L77.7778 94.6715L77.7865 93.0543L76.5267 93.0612ZM83.1868 95.5616C84.1184 95.5565 84.7243 96.2036 84.7482 97.2053L81.5255 97.223C81.6012 96.2266 82.2551 95.5668 83.1868 95.5616ZM84.7312 99.262C84.4942 99.7613 83.9712 100.04 83.2095 100.044C82.2017 100.049 81.5551 99.3439 81.5201 98.225L81.5205 98.1547L86.0263 98.1299L86.0287 97.6905C86.0395 95.6866 84.9738 94.4796 83.1984 94.4894C81.3996 94.4992 80.2501 95.8004 80.2391 97.8395C80.2281 99.8785 81.3405 101.126 83.1686 101.116C84.6275 101.108 85.6508 100.399 85.9441 99.2553L84.7312 99.262ZM91.4242 103.262C92.725 103.255 93.3311 102.754 93.8844 101.198L96.2991 94.5404L94.9632 94.5478L93.3422 99.6248L93.2425 99.6254L91.6703 94.5659L90.2992 94.5734L92.5732 100.965L92.4778 101.276C92.2576 101.922 91.9164 102.17 91.3187 102.173C91.2016 102.174 91.0082 102.169 90.9087 102.152L90.9029 103.236C91.02 103.253 91.3187 103.263 91.4242 103.262ZM99.9561 95.4695C100.888 95.4644 101.494 96.1115 101.517 97.1132L98.2948 97.1309C98.3705 96.1345 99.0244 95.4747 99.9561 95.4695ZM101.5 99.1699C101.263 99.6692 100.74 99.9475 99.9788 99.9516C98.971 99.9572 98.3244 99.2518 98.2894 98.1329L98.2898 98.0626L102.796 98.0378L102.798 97.5984C102.809 95.5945 101.743 94.3875 99.9677 94.3973C98.1689 94.4071 97.0193 95.7083 97.0084 97.7473C96.9974 99.7864 98.1097 101.034 99.9378 101.024C101.397 101.016 102.42 100.307 102.713 99.1632L101.5 99.1699ZM104.17 96.3018C104.165 97.251 104.725 97.7929 105.936 98.0733L107.048 98.325C107.686 98.4738 107.983 98.7183 107.981 99.0991C107.978 99.6089 107.42 99.9635 106.635 99.9678C105.873 99.972 105.406 99.6699 105.25 99.1786L103.991 99.1855C104.096 100.316 105.082 100.996 106.6 100.987C108.123 100.979 109.247 100.17 109.253 98.9691C109.258 98.0316 108.693 97.5133 107.481 97.2387L106.422 96.9984C105.732 96.844 105.411 96.6055 105.413 96.2247C105.415 95.7266 105.95 95.3897 106.653 95.3859C107.368 95.3819 107.824 95.6783 107.938 96.1464L109.145 96.1397C109.028 95.0154 108.095 94.3526 106.659 94.3605C105.218 94.3684 104.176 95.171 104.17 96.3018ZM111.202 92.8708L111.193 94.4879L110.18 94.4935L110.174 95.554L111.188 95.5485L111.168 99.1519C111.161 100.382 111.715 100.871 113.116 100.864C113.362 100.862 113.596 100.832 113.802 100.796L113.807 99.7468C113.632 99.7653 113.52 99.7777 113.327 99.7787C112.7 99.7822 112.426 99.4907 112.43 98.8227L112.447 95.5415L113.83 95.5339L113.836 94.4734L112.453 94.481L112.462 92.8638L111.202 92.8708ZM117.862 95.3712C118.794 95.3661 119.4 96.0131 119.423 97.0149L116.201 97.0326C116.276 96.0361 116.93 95.3763 117.862 95.3712ZM119.406 99.0715C119.169 99.5708 118.646 99.8491 117.885 99.8533C116.877 99.8588 116.23 99.1534 116.195 98.0345L116.196 97.9642L120.702 97.9395L120.704 97.5C120.715 95.4961 119.649 94.2891 117.874 94.2989C116.075 94.3088 114.925 95.61 114.914 97.649C114.903 99.688 116.016 100.936 117.844 100.926C119.303 100.918 120.326 100.209 120.619 99.0649L119.406 99.0715ZM122.198 100.779L123.458 100.772L123.478 97.0043C123.483 96.1079 124.16 95.5006 125.115 95.4954C125.338 95.4942 125.712 95.5331 125.818 95.5677L125.824 94.3255C125.69 94.2911 125.45 94.2749 125.262 94.2759C124.43 94.2805 123.719 94.7414 123.534 95.3693L123.44 95.3698L123.445 94.3913L122.232 94.398L122.198 100.779ZM129.17 100.846C130.049 100.841 130.795 100.421 131.18 99.7217L131.279 99.7211L131.274 100.729L132.481 100.722L132.529 91.8513L131.269 91.8582L131.25 95.3621L131.156 95.3626C130.814 94.6614 130.078 94.2494 129.205 94.2542C127.594 94.2631 126.55 95.5461 126.539 97.5617C126.528 99.5832 127.547 100.855 129.17 100.846ZM129.557 95.3831C130.611 95.3773 131.269 96.2116 131.262 97.5416C131.255 98.8775 130.594 99.7073 129.533 99.7131C128.467 99.719 127.833 98.9081 127.84 97.5546C127.847 96.2128 128.496 95.3889 129.557 95.3831ZM136.465 99.7454C135.779 99.7491 135.283 99.4179 135.286 98.8437C135.289 98.2812 135.689 97.9802 136.568 97.9168L138.127 97.8086L138.124 98.3418C138.12 99.1328 137.414 99.7402 136.465 99.7454ZM136.137 100.808C136.974 100.803 137.674 100.436 138.058 99.7952L138.158 99.7947L138.153 100.691L139.366 100.684L139.389 96.3252C139.396 94.9775 138.498 94.1856 136.899 94.1944C135.452 94.2023 134.417 94.9111 134.282 96.0075L135.5 96.0008C135.643 95.5489 136.131 95.2884 136.834 95.2845C137.696 95.2798 138.139 95.6582 138.135 96.332L138.132 96.8828L136.403 96.9919C134.885 97.094 134.026 97.7608 134.02 98.9092C134.014 100.075 134.906 100.814 136.137 100.808ZM141.568 102.987C142.869 102.98 143.475 102.478 144.028 100.923L146.443 94.265L145.107 94.2724L143.486 99.3494L143.386 99.3499L141.814 94.2904L140.443 94.298L142.717 100.689L142.622 101.001C142.401 101.646 142.06 101.894 141.463 101.898C141.345 101.898 141.152 101.893 141.052 101.876L141.047 102.96C141.164 102.977 141.462 102.987 141.568 102.987Z" fill="#999999"/>
<path d="M171.194 100.758L174.093 92.9921L173.078 92.9976L170.766 99.5091L170.68 99.5096L168.438 93.0231L167.422 93.0287L170.238 100.763L171.194 100.758ZM175.314 100.736L176.237 100.73L176.269 94.9405L175.345 94.9456L175.314 100.736ZM175.813 93.7668C176.168 93.7648 176.459 93.4732 176.461 93.1187C176.463 92.7642 176.175 92.4758 175.82 92.4777C175.466 92.4797 175.174 92.7713 175.172 93.1258C175.17 93.4803 175.459 93.7687 175.813 93.7668ZM180.336 95.6325C181.255 95.6274 181.863 96.3008 181.879 97.3265L178.689 97.3441C178.764 96.3178 179.412 95.6375 180.336 95.6325ZM181.842 99.2012C181.598 99.7128 181.091 99.9894 180.345 99.9935C179.362 99.9989 178.727 99.2774 178.684 98.1336L178.685 98.0906L182.847 98.0678L182.849 97.7133C182.859 95.914 181.914 94.8074 180.351 94.816C178.761 94.8247 177.735 96.012 177.725 97.8327C177.715 99.6643 178.713 100.819 180.319 100.81C181.586 100.803 182.481 100.191 182.766 99.1961L181.842 99.2012ZM191.598 94.8563L190.668 94.8614L189.505 99.4975L189.419 99.4979L188.149 94.8752L187.263 94.8801L185.944 99.517L185.858 99.5175L184.744 94.8939L183.81 94.8991L185.4 100.68L186.335 100.675L187.648 96.1885L187.734 96.188L189.004 100.66L189.944 100.655L191.598 94.8563ZM192.529 96.4356C192.524 97.2734 193.016 97.738 194.1 97.9952L195.092 98.2315C195.709 98.3785 196.008 98.6454 196.006 99.0428C196.003 99.5745 195.442 99.9482 194.664 99.9525C193.923 99.9566 193.462 99.6476 193.309 99.1597L192.358 99.1649C192.455 100.126 193.338 100.739 194.627 100.731C195.943 100.724 196.951 100.004 196.957 98.9678C196.961 98.1353 196.438 97.6655 195.349 97.4083L194.458 97.1984C193.777 97.0356 193.456 96.7903 193.458 96.3929C193.461 95.8772 194 95.5252 194.688 95.5214C195.386 95.5176 195.835 95.8212 195.956 96.2825L196.869 96.2775C196.751 95.3275 195.911 94.7305 194.697 94.7372C193.467 94.744 192.534 95.4742 192.529 96.4356Z" fill="#999999"/>
<path d="M204.053 100.76C205.659 100.751 206.766 99.6712 206.774 98.0975C206.782 96.5721 205.757 95.5089 204.285 95.517C203.571 95.5209 203.022 95.7442 202.644 96.1867L202.558 96.1871L202.791 93.6991L206.358 93.6795L206.362 92.8148L202.039 92.8386L201.591 97.2344L202.498 97.2294C202.818 96.6744 203.4 96.3544 204.104 96.3505C205.119 96.3449 205.813 97.0662 205.807 98.1296C205.802 99.1931 205.105 99.9059 204.068 99.9116C203.155 99.9166 202.492 99.3617 202.411 98.5243L201.46 98.5295C201.539 99.8664 202.587 100.768 204.053 100.76ZM209.911 96.9738L210.894 96.9684C211.995 96.9624 212.675 97.5172 212.67 98.4142C212.665 99.2628 211.937 99.8737 210.916 99.8793C209.917 99.8848 209.222 99.3569 209.14 98.5303L208.206 98.5354C208.269 99.8617 209.349 100.731 210.922 100.723C212.453 100.714 213.656 99.7139 213.663 98.4356C213.669 97.3775 213.034 96.6506 211.982 96.5221L211.982 96.4361C212.832 96.2274 213.346 95.5478 213.351 94.624C213.357 93.4961 212.282 92.5997 210.929 92.6071C209.452 92.6152 208.486 93.4477 208.382 94.7909L209.322 94.7858C209.407 93.9528 209.995 93.4555 210.887 93.4506C211.778 93.4457 212.371 93.9688 212.367 94.7583C212.363 95.564 211.737 96.1367 210.856 96.1415L209.916 96.1467L209.911 96.9738ZM218.105 94.4797C218.111 93.384 217.433 92.6197 216.466 92.625C215.499 92.6304 214.807 93.4076 214.802 94.4979C214.796 95.5936 215.479 96.3632 216.446 96.3579C217.413 96.3526 218.099 95.5754 218.105 94.4797ZM216.449 95.6704C215.971 95.673 215.657 95.2075 215.661 94.4932C215.665 93.7788 215.979 93.3152 216.462 93.3125C216.946 93.3099 217.249 93.7594 217.245 94.4845C217.242 95.1934 216.922 95.6678 216.449 95.6704ZM216.337 100.51L219.016 96.8594L222.046 92.7287L221.068 92.734L218.33 96.4603L215.349 100.516L216.337 100.51ZM222.566 98.7412C222.572 97.6455 221.894 96.8812 220.928 96.8865C219.961 96.8918 219.269 97.669 219.263 98.7593C219.257 99.855 219.941 100.625 220.907 100.619C221.874 100.614 222.561 99.8369 222.566 98.7412ZM220.911 99.9318C220.433 99.9345 220.119 99.4689 220.123 98.7546C220.126 98.0402 220.44 97.5766 220.924 97.574C221.407 97.5713 221.711 98.0208 221.707 98.7459C221.703 99.4549 221.384 99.9293 220.911 99.9318Z" fill="#00C48C"/>
<path d="M18.3454 69.5347L18.4084 57.8455L18.3498 57.8458L14.6935 60.4243L14.7063 58.0513L18.4018 55.4433L20.892 55.4296L20.8161 69.5212L18.3454 69.5347ZM24.0433 59.5918C24.0503 58.2897 24.5248 57.2194 25.4668 56.381C26.4088 55.536 27.609 55.1095 29.0673 55.1015C30.467 55.0938 31.6173 55.4683 32.5181 56.2251C33.4254 56.9818 33.876 57.933 33.8698 59.0788C33.8656 59.8666 33.6402 60.6132 33.1937 61.3188C32.7538 62.0178 32.0232 62.8811 31.0021 63.9088L27.4973 67.3752L27.497 67.424L34.0399 67.3881L34.0288 69.4486L24.1266 69.503L24.1357 67.8038L29.349 62.6191C30.1542 61.7944 30.698 61.1502 30.9804 60.6864C31.2629 60.2227 31.4055 59.7271 31.4084 59.1998C31.4115 58.6138 31.1798 58.1203 30.7132 57.7193C30.2532 57.3182 29.6749 57.1195 28.9782 57.1234C28.2426 57.1274 27.6294 57.3619 27.1386 57.8268C26.6543 58.2917 26.4103 58.8724 26.4066 59.569L26.4064 59.6081L24.0431 59.6211L24.0433 59.5918ZM41.1951 69.6924C39.4764 69.7019 38.129 69.055 37.153 67.7518C36.1836 66.4421 35.7049 64.6512 35.7172 62.3791C35.7294 60.12 36.2305 58.3335 37.2206 57.0195C38.2107 55.7055 39.5619 55.0438 41.2741 55.0344C42.9863 55.025 44.3272 55.6719 45.2967 56.9751C46.2662 58.2718 46.7449 60.0497 46.7327 62.3088C46.7205 64.5744 46.2225 66.3707 45.2389 67.6976C44.2552 69.0181 42.9073 69.683 41.1951 69.6924ZM41.2062 67.6319C42.1372 67.6268 42.8623 67.1573 43.3817 66.2235C43.9075 65.2897 44.1749 63.9927 44.1839 62.3326C44.1927 60.6855 43.9393 59.4011 43.4234 58.4795C42.9076 57.5514 42.1875 57.0899 41.263 57.095C40.3385 57.1 39.6069 57.5695 39.068 58.5034C38.5357 59.4373 38.2651 60.7213 38.2563 62.3554C38.2473 64.0155 38.5007 65.3129 39.0165 66.2475C39.5388 67.1756 40.2687 67.6371 41.2062 67.6319ZM51.2941 69.3538L48.7746 69.3676L48.8506 55.276L51.3701 55.2622L51.3346 61.8539L51.4224 61.8534L57.0829 55.2308L59.9832 55.2149L54.5199 61.4946L60.3272 69.3041L57.2608 69.321L52.714 63.1939L51.3186 64.8226L51.2941 69.3538Z" fill="#151522"/>
<path d="M21.1189 81.4948L21.1459 76.4909L22.9623 76.481L22.9657 75.8482L18.6298 75.872L18.6264 76.5048L20.4428 76.4948L20.4158 81.4986L21.1189 81.4948ZM24.8841 81.5483C26.0833 81.5417 26.83 80.7095 26.8372 79.358C26.8445 78.0025 26.1068 77.1824 24.9076 77.189C23.7084 77.1956 22.9618 78.0239 22.9545 79.3793C22.9472 80.7309 23.6849 81.5549 24.8841 81.5483ZM24.8874 80.9428C24.0905 80.9472 23.6444 80.3716 23.6498 79.3755C23.6552 78.3755 24.1075 77.7988 24.9043 77.7945C25.7012 77.7901 26.1473 78.3618 26.1419 79.3618C26.1366 80.3579 25.6842 80.9385 24.8874 80.9428ZM28.1904 76.1554L28.1845 77.2452L27.5048 77.2489L27.5018 77.8114L28.1815 77.8077L28.1677 80.3623C28.1634 81.167 28.5093 81.4854 29.3765 81.4807C29.5093 81.4799 29.6383 81.4636 29.7712 81.4394L29.7743 80.873C29.6492 80.8854 29.5828 80.8897 29.4617 80.8904C29.0242 80.8928 28.8378 80.6829 28.8405 80.1868L28.8533 77.804L29.7908 77.7989L29.7939 77.2364L28.8564 77.2415L28.8622 76.1517L28.1904 76.1554ZM32.0864 80.9189C31.5981 80.9216 31.2362 80.6736 31.2385 80.2439C31.2408 79.8221 31.5232 79.5979 32.1641 79.5514L33.2973 79.4709L33.2952 79.8576C33.292 80.4592 32.7778 80.9151 32.0864 80.9189ZM31.9582 81.5094C32.5207 81.5064 32.983 81.2577 33.2588 80.807L33.3213 80.8067L33.318 81.4278L33.9586 81.4242L33.9741 78.5415C33.9788 77.6665 33.4075 77.1423 32.3802 77.1479C31.4817 77.1529 30.8153 77.6018 30.7218 78.2781L31.4015 78.2744C31.497 77.9418 31.8496 77.7485 32.3535 77.7457C32.9824 77.7423 33.3051 78.0256 33.3023 78.5452L33.3002 78.928L32.085 79.0089C31.1042 79.0728 30.5472 79.5095 30.5431 80.2634C30.539 81.0329 31.1418 81.5139 31.9582 81.5094ZM35.2398 81.4172L35.9117 81.4135L35.9434 75.5308L35.2715 75.5345L35.2398 81.4172ZM42.9343 77.1642L42.2155 77.1681L41.0445 80.6432L40.982 80.6435L39.8484 77.1811L39.1297 77.1851L40.6655 81.3874L41.353 81.3836L42.9343 77.1642ZM43.8256 81.37L44.4975 81.3664L44.5202 77.1555L43.8483 77.1592L43.8256 81.37ZM44.1889 76.3019C44.4467 76.3005 44.6588 76.0884 44.6601 75.8305C44.6615 75.5727 44.4517 75.363 44.1939 75.3644C43.9361 75.3658 43.724 75.5779 43.7227 75.8357C43.7213 76.0935 43.9311 76.3033 44.1889 76.3019ZM47.4783 77.6587C48.1462 77.6551 48.5889 78.1448 48.6005 78.8908L46.2802 78.9035C46.335 78.1572 46.8064 77.6624 47.4783 77.6587ZM48.5736 80.2542C48.3958 80.6262 48.0276 80.8275 47.4846 80.8304C46.7698 80.8344 46.3078 80.3096 46.2771 79.4778L46.2773 79.4465L49.3046 79.4299L49.306 79.1721C49.313 77.8635 48.626 77.0587 47.4893 77.065C46.3331 77.0713 45.5863 77.9347 45.5791 79.2589C45.5719 80.591 46.2978 81.4307 47.4658 81.4243C48.3877 81.4192 49.0385 80.9742 49.2455 80.2505L48.5736 80.2542ZM55.6685 77.0942L54.9927 77.098L54.1464 80.4696L54.0839 80.47L53.1607 77.108L52.5162 77.1116L51.5566 80.4839L51.4941 80.4842L50.6842 77.1216L50.0045 77.1254L51.1615 81.3297L51.8411 81.326L52.7962 78.0631L52.8587 78.0628L53.7825 81.3154L54.4661 81.3116L55.6685 77.0942ZM56.3458 78.2428C56.3426 78.8522 56.7001 79.19 57.4881 79.3771L58.2098 79.5489C58.6584 79.6558 58.8761 79.8499 58.8746 80.139C58.8725 80.5257 58.4648 80.7975 57.8984 80.8006C57.3593 80.8035 57.0246 80.5788 56.9133 80.224L56.2219 80.2278C56.2923 80.9266 56.9344 81.3723 57.8719 81.3671C58.8289 81.3618 59.5622 80.8383 59.5662 80.0844C59.5695 79.479 59.1885 79.1373 58.3966 78.9503L57.749 78.7976C57.2536 78.6792 57.0202 78.5008 57.0218 78.2118C57.0238 77.8368 57.4158 77.5807 57.9158 77.578C58.4236 77.5752 58.7505 77.796 58.8385 78.1315L59.5026 78.1278C59.4164 77.4369 58.8055 77.0028 57.9227 77.0076C57.0282 77.0126 56.3496 77.5436 56.3458 78.2428Z" fill="#999999"/>
<path d="M24.1067 20.9288C23.7139 18.6938 21.9313 17.3827 19.7367 17.3947C16.9456 17.41 14.9099 19.5731 14.8913 23.0248C14.8727 26.4764 16.8852 28.6173 19.6763 28.6019C21.8709 28.5899 23.6678 27.259 24.0847 25.0196L22.7637 25.0269C22.4359 26.5414 21.1318 27.3582 19.683 27.3662C17.7015 27.377 16.1544 25.8515 16.1697 23.0178C16.1849 20.184 17.7486 18.6414 19.7301 18.6305C21.1789 18.6225 22.4743 19.425 22.7857 20.936L24.1067 20.9288ZM27.3141 23.4892C27.3218 22.0616 28.237 21.247 29.4781 21.2402C30.6606 21.2337 31.3704 21.9755 31.3634 23.2752L31.3358 28.3888L32.5929 28.3818L32.6209 23.1831C32.6322 21.079 31.519 20.0998 29.8464 20.1089C28.5574 20.116 27.8194 20.6581 27.4313 21.5071L27.3248 21.5077L27.3464 17.5021L26.0893 17.509L26.0305 28.4179L27.2876 28.411L27.3141 23.4892ZM37.2992 28.5477C38.7268 28.5399 39.4766 27.7688 39.7352 27.2347L39.7991 27.2344L39.7931 28.3423L41.0502 28.3354L41.0793 22.9448C41.0933 20.3455 39.1134 20.058 38.0694 20.0638C36.8336 20.0706 35.4251 20.5044 34.7778 21.9994L35.9687 22.419C36.2489 21.8209 36.9075 21.1781 38.106 21.1715C39.2619 21.1651 39.8285 21.7746 39.8229 22.8239L39.8227 22.8665C39.8194 23.4738 39.2018 23.4239 37.7093 23.6238C36.1901 23.8293 34.5317 24.1739 34.5216 26.0489C34.513 27.6469 35.7439 28.5563 37.2992 28.5477ZM37.4971 27.4174C36.4957 27.423 35.7737 26.9795 35.7784 26.1059C35.7835 25.1471 36.6587 24.844 37.6395 24.7108C38.1725 24.644 39.6009 24.487 39.8153 24.2301L39.8091 25.3807C39.8036 26.4034 38.9885 27.4093 37.4971 27.4174ZM43.3447 28.3228L44.6017 28.3159L44.6297 23.1384C44.6356 22.0305 45.5136 21.216 46.7067 21.2095C47.0423 21.2076 47.3882 21.2696 47.4733 21.2905L47.4802 20.0121C47.3364 20.0022 47.0062 19.9934 46.8198 19.9944C45.8397 19.9998 44.9845 20.5584 44.6818 21.3697L44.5966 21.3702L44.6032 20.1344L43.3888 20.1411L43.3447 28.3228ZM53.0406 20.0881L51.2935 20.0977L51.304 18.1375L50.047 18.1444L50.0364 20.1046L48.8006 20.1114L48.7949 21.1767L50.0306 21.1699L50.0031 26.2835C49.9954 27.711 51.1423 28.3865 52.2076 28.3806C52.6763 28.3781 52.9751 28.2912 53.1459 28.2263L52.8963 27.0985C52.7896 27.1204 52.619 27.1639 52.342 27.1655C51.788 27.1685 51.2563 27.001 51.262 25.9357L51.2877 21.163L53.0349 21.1534L53.0406 20.0881ZM59.2766 28.2353L60.5976 28.228L60.6239 23.3488L66.4406 23.3169L66.4143 28.1961L67.7353 28.1888L67.7941 17.2799L66.4731 17.2871L66.4469 22.145L60.6302 22.177L60.6564 17.3191L59.3354 17.3263L59.2766 28.2353ZM73.6389 28.3268C75.3008 28.3177 76.5198 27.4801 76.9099 26.2422L75.6973 25.908C75.3731 26.762 74.6304 27.1922 73.645 27.1976C72.1695 27.2057 71.1573 26.2578 71.1081 24.5057L77.0473 24.4731L77.0502 23.9404C77.0666 20.8936 75.2612 19.8595 73.5567 19.8689C71.3408 19.881 69.8612 21.6362 69.8477 24.1504C69.8341 26.6646 71.2739 28.3398 73.6389 28.3268ZM71.114 23.419C71.2061 22.1455 72.1124 21.006 73.5506 20.9981C74.9142 20.9906 75.7823 22.0085 75.7748 23.3934L71.114 23.419ZM81.3464 28.3058C82.774 28.298 83.5238 27.5268 83.7824 26.9928L83.8463 26.9924L83.8403 28.1004L85.0974 28.0934L85.1265 22.7029C85.1405 20.1035 83.1606 19.8161 82.1166 19.8218C80.8808 19.8286 79.4723 20.2625 78.825 21.7574L80.0159 22.177C80.2961 21.5789 80.9547 20.9361 82.1532 20.9295C83.3091 20.9232 83.8757 21.5326 83.8701 22.582L83.8698 22.6246C83.8666 23.2318 83.249 23.1819 81.7565 23.3819C80.2373 23.5873 78.5789 23.932 78.5688 25.807C78.5602 27.405 79.7911 28.3143 81.3464 28.3058ZM81.5443 27.1755C80.5429 27.181 79.8209 26.7375 79.8256 25.864C79.8307 24.9052 80.7059 24.6021 81.6867 24.4689C82.2197 24.402 83.648 24.245 83.8625 23.9882L83.8563 25.1387C83.8508 26.1615 83.0357 27.1673 81.5443 27.1755ZM90.4804 28.2343C92.057 28.2257 92.595 27.2426 92.8744 26.7937L93.0235 26.7929L93.0168 28.0499L94.2312 28.0433L94.29 17.1343L93.0329 17.1412L93.0112 21.1682L92.9047 21.1688C92.63 20.7442 92.1453 19.7667 90.5473 19.7755C88.4805 19.7869 87.0442 21.4353 87.0303 24.0134C87.0163 26.6128 88.4349 28.2456 90.4804 28.2343ZM90.6569 27.1041C89.0802 27.1128 88.278 25.7323 88.2875 23.9852C88.2968 22.2594 89.0923 20.9127 90.6903 20.9039C92.2244 20.8955 93.0274 22.1269 93.0175 23.9592C93.0075 25.8129 92.1697 27.0958 90.6569 27.1041ZM100.138 28.1813C101.799 28.1721 103.018 27.3345 103.409 26.0966L102.196 25.7624C101.872 26.6164 101.129 27.0466 100.144 27.052C98.6681 27.0601 97.6559 26.1123 97.6068 24.3601L103.546 24.3275L103.549 23.7948C103.565 20.748 101.76 19.7139 100.055 19.7233C97.8394 19.7355 96.3599 21.4907 96.3463 24.0048C96.3327 26.519 97.7725 28.1943 100.138 28.1813ZM97.6126 23.2735C97.7047 22 98.611 20.8604 100.049 20.8525C101.413 20.8451 102.281 21.863 102.273 23.2479L97.6126 23.2735ZM105.438 27.9817L106.696 27.9748L106.723 22.7973C106.729 21.6894 107.607 20.8749 108.801 20.8684C109.136 20.8665 109.482 20.9286 109.567 20.9494L109.574 19.671C109.43 19.6611 109.1 19.6523 108.914 19.6533C107.933 19.6587 107.078 20.2174 106.776 21.0287L106.69 21.0291L106.697 19.7933L105.483 19.8L105.438 27.9817Z" fill="#171725"/>
<path fill-rule="evenodd" clip-rule="evenodd" d="M219.732 78.2177L219.94 39.6576C219.948 38.1579 221.171 36.9354 222.67 36.9271C224.17 36.9189 225.379 38.128 225.371 39.6278L225.163 78.1878L219.732 78.2177Z" fill="#EA714A"/>
<path fill-rule="evenodd" clip-rule="evenodd" d="M210.999 78.2653L211.136 52.7802C211.144 51.2804 212.367 50.0579 213.867 50.0497C215.366 50.0414 216.576 51.2506 216.568 52.7504L216.43 78.2355L210.999 78.2653Z" fill="#96C0FF"/>
<path fill-rule="evenodd" clip-rule="evenodd" d="M201.026 78.3207L201.205 45.1445C201.213 43.6447 202.435 42.4222 203.935 42.4139C205.435 42.4057 206.644 43.6148 206.636 45.1146L206.457 78.2909L201.026 78.3207Z" fill="#EA714A"/>
<path fill-rule="evenodd" clip-rule="evenodd" d="M192.292 78.3687L192.388 60.5746C192.396 59.0748 193.619 57.8523 195.119 57.8441C196.618 57.8359 197.828 59.045 197.82 60.5448L197.724 78.3388L192.292 78.3687Z" fill="#96C0FF"/>
<path fill-rule="evenodd" clip-rule="evenodd" d="M182.318 78.4233L182.469 50.3745C182.477 48.8747 183.7 47.6522 185.2 47.6439C186.699 47.6357 187.909 48.8448 187.901 50.3446L187.749 78.3934L182.318 78.4233Z" fill="#429E55"/>
<path fill-rule="evenodd" clip-rule="evenodd" d="M173.584 78.4709L173.694 58.1132C173.702 56.6134 174.924 55.3909 176.424 55.3827C177.924 55.3744 179.133 56.5836 179.125 58.0834L179.016 78.4411L173.584 78.4709Z" fill="#96C0FF"/>
<path fill-rule="evenodd" clip-rule="evenodd" d="M163.611 78.526L163.803 42.7861C163.811 41.2863 165.034 40.0638 166.534 40.0555C168.033 40.0473 169.243 41.2564 169.235 42.7562L169.042 78.4962L163.611 78.526Z" fill="#EA714A"/>
<path fill-rule="evenodd" clip-rule="evenodd" d="M154.878 78.5739L155.043 47.9614C155.051 46.4616 156.273 45.2391 157.773 45.2308C159.273 45.2226 160.482 46.4317 160.474 47.9315L160.309 78.544L154.878 78.5739Z" fill="#96C0FF"/>
<path fill-rule="evenodd" clip-rule="evenodd" d="M238.377 78.1155L238.585 39.6186C238.593 38.0839 239.844 36.833 241.378 36.8246C242.913 36.8162 244.15 38.0534 244.142 39.5881L243.935 78.0849L238.377 78.1155Z" fill="#57805F" fill-opacity="0.99"/>
<path fill-rule="evenodd" clip-rule="evenodd" d="M229.643 78.1634L229.739 60.4326C229.747 58.8979 230.998 57.647 232.533 57.6385C234.067 57.6301 235.305 58.8674 235.296 60.402L235.201 78.1329L229.643 78.1634Z" fill="#96C0FF"/>
<path fill-rule="evenodd" clip-rule="evenodd" d="M144.904 78.6291L145.069 48.0165C145.077 46.5167 146.299 45.2942 147.799 45.286C149.299 45.2778 150.508 46.4869 150.5 47.9867L150.335 78.5992L144.904 78.6291Z" fill="#EA714A"/>
<path fill-rule="evenodd" clip-rule="evenodd" d="M136.17 78.6767L136.266 60.8827C136.274 59.383 137.497 58.1605 138.997 58.1522C140.496 58.144 141.706 59.3531 141.697 60.8529L141.602 78.6469L136.17 78.6767Z" fill="#96C0FF"/>
<path d="M244.526 99.1265L239.789 94.2984L234.999 99.1788" stroke="#00C48C" stroke-width="2" stroke-linecap="round" stroke-linejoin="round"/>
</svg>
