<svg width="210" height="279" viewBox="0 0 210 279" fill="none" xmlns="http://www.w3.org/2000/svg">
<g clip-path="url(#clip0_1193_8670)">
<rect width="146.989" height="249.643" rx="10" transform="matrix(0.965926 0.258819 -0.269316 0.963052 67.2344 0)" fill="white"/>
<path d="M91.7931 112.864L94.9412 101.607L94.8846 101.592L90.6771 103.113L91.3162 100.828L95.5693 99.2882L97.9747 99.9327L94.1796 113.504L91.7931 112.864ZM99.9147 104.779C100.265 103.525 101.006 102.618 102.136 102.059C103.267 101.492 104.538 101.398 105.946 101.775C107.298 102.138 108.309 102.803 108.978 103.771C109.653 104.74 109.836 105.777 109.528 106.88C109.316 107.639 108.901 108.299 108.284 108.862C107.675 109.42 106.743 110.06 105.486 110.781L101.19 113.199L101.177 113.246L107.497 114.939L106.942 116.924L97.3773 114.361L97.8349 112.724L104.232 109.101C105.227 108.518 105.922 108.04 106.316 107.667C106.711 107.295 106.98 106.854 107.122 106.347C107.28 105.782 107.186 105.245 106.842 104.735C106.505 104.227 105.999 103.882 105.326 103.702C104.616 103.512 103.962 103.576 103.366 103.895C102.776 104.215 102.388 104.711 102.2 105.382L102.19 105.419L99.9068 104.808L99.9147 104.779ZM113.79 119.052C112.13 118.607 111.001 117.627 110.404 116.112C109.815 114.593 109.826 112.739 110.438 110.551C111.046 108.375 112.002 106.785 113.304 105.779C114.606 104.773 116.083 104.492 117.737 104.935C119.391 105.378 120.514 106.356 121.105 107.869C121.697 109.376 121.689 111.217 121.081 113.393C120.471 115.575 119.516 117.176 118.217 118.196C116.919 119.209 115.444 119.495 113.79 119.052ZM114.345 117.067C115.244 117.308 116.067 117.047 116.815 116.283C117.569 115.522 118.169 114.341 118.616 112.742C119.06 111.156 119.155 109.85 118.9 108.825C118.648 107.794 118.075 107.159 117.182 106.919C116.289 106.68 115.46 106.94 114.693 107.698C113.933 108.458 113.333 109.625 112.893 111.199C112.446 112.798 112.348 114.116 112.598 115.154C112.857 116.187 113.439 116.824 114.345 117.067ZM123.62 121.392L121.186 120.74L124.981 107.169L127.415 107.821L125.639 114.169L125.724 114.192L132.933 109.3L135.734 110.05L128.807 114.664L132.345 123.73L129.383 122.937L126.616 115.826L124.84 117.028L123.62 121.392Z" fill="#151522"/>
<path d="M87.2249 61.0274C89.5808 61.6586 91.6995 60.7175 92.5219 58.7011L90.725 58.2196C90.1578 59.296 88.9732 59.7519 87.6786 59.405C85.9382 58.9387 85.2542 57.2239 85.8973 54.9244C86.5384 52.632 88.0192 51.4972 89.7525 51.9616C91.0401 52.3066 91.8026 53.3601 91.716 54.6486L93.513 55.1301C93.8945 52.9501 92.5267 50.961 90.2062 50.3393C87.3127 49.564 84.9527 51.1228 84.0276 54.431C83.1064 57.725 84.3314 60.2521 87.2249 61.0274ZM93.5358 62.4454L95.2903 62.9155L96.5428 58.4365C96.8525 57.3291 97.7054 56.7539 98.8586 57.0629C99.8773 57.3359 100.247 58.0795 99.9199 59.2504L98.6437 63.8141L100.398 64.2842L101.791 59.3043C102.304 57.4704 101.591 56.1573 99.9355 55.7137C98.7823 55.4047 97.8086 55.7049 97.1981 56.4739L97.0708 56.4398L98.2543 52.2076L96.5281 51.7451L93.5358 62.4454ZM105.473 64.302C104.695 64.0935 104.245 63.5558 104.426 62.9068C104.602 62.2791 105.16 62.0496 106.161 62.2496L107.94 62.605L107.769 63.2186C107.518 64.1144 106.534 64.5863 105.473 64.302ZM104.572 65.5391C105.584 65.8101 106.555 65.6003 107.196 64.9682L107.316 65.0005L107.02 66.0585L108.711 66.5116L110.184 61.2425C110.642 59.6061 109.794 58.3402 107.806 57.8076C105.967 57.3147 104.444 57.8392 103.922 59.1626L105.577 59.6062C105.886 59.1278 106.517 58.9935 107.323 59.2096C108.271 59.4637 108.662 60.0234 108.451 60.7781L108.27 61.427L106.241 61.0124C104.328 60.621 103.049 61.1426 102.658 62.5393C102.264 63.95 103.079 65.1391 104.572 65.5391ZM110.826 67.0784L112.581 67.5485L113.827 63.0906C114.129 62.0114 115.119 61.5184 116.258 61.8236C116.555 61.9032 117.008 62.0777 117.129 62.1631L117.582 60.5407C117.433 60.4478 117.13 60.3361 116.875 60.2679C115.878 60.0006 114.885 60.3412 114.46 61.0461L114.34 61.0139L114.675 59.8148L112.984 59.3617L110.826 67.0784ZM120.453 59.331L119.911 61.2707L118.687 60.9428L118.296 62.3394L119.52 62.6673L118.342 66.8783C117.924 68.3737 118.464 69.1628 120.24 69.6386C120.579 69.7296 120.915 69.7816 121.183 69.8004L121.566 68.432C121.348 68.3963 121.209 68.3744 120.962 68.3081C120.226 68.1109 119.995 67.6851 120.208 66.9234L121.267 63.1356L122.923 63.5792L123.313 62.1825L121.658 61.739L122.2 59.7992L120.453 59.331ZM135.58 73.7112L138.427 63.5329L136.609 63.0457L135.431 67.2567L130.465 65.926L131.642 61.715L129.817 61.2259L126.971 71.4042L128.796 71.8933L130.025 67.4989L134.991 68.8297L133.762 73.2241L135.58 73.7112ZM142.982 68.7265C144.036 69.009 144.524 69.9283 144.24 71.0805L140.597 70.1042C140.99 68.9965 141.935 68.446 142.982 68.7265ZM143.56 73.5672C143.146 74.0703 142.456 74.2265 141.585 73.9934C140.432 73.6844 139.914 72.6812 140.231 71.3861L140.256 71.2944L145.661 72.7427L145.819 72.1784C146.5 69.7449 145.585 67.9303 143.378 67.3389C141.135 66.738 139.305 67.9234 138.611 70.4062C137.917 72.8891 138.869 74.7593 141.147 75.3697C142.972 75.8587 144.498 75.3272 145.223 74.0126L143.56 73.5672ZM149.463 76.0891C148.685 75.8806 148.235 75.3429 148.416 74.694C148.592 74.0662 149.15 73.8367 150.151 74.0367L151.93 74.3921L151.759 75.0058C151.508 75.9016 150.525 76.3735 149.463 76.0891ZM148.562 77.3262C149.574 77.5973 150.545 77.3874 151.186 76.7554L151.306 76.7876L151.01 77.8456L152.701 78.2987L154.175 73.0297C154.632 71.3932 153.785 70.1274 151.797 69.5947C149.957 69.1018 148.434 69.6263 147.912 70.9497L149.567 71.3933C149.876 70.915 150.507 70.7807 151.313 70.9968C152.261 71.2508 152.652 71.8105 152.441 72.5652L152.26 73.2142L150.231 72.7995C148.318 72.4081 147.039 72.9298 146.648 74.3264C146.254 75.7371 147.07 76.9262 148.562 77.3262ZM157.582 79.7431C158.658 80.0313 159.689 79.7693 160.365 79.0404L160.485 79.0727L160.144 80.2929L161.842 80.7479L164.834 70.0476L163.079 69.5774L161.902 73.7884L161.781 73.7562C161.608 72.7998 160.873 72.0569 159.811 71.7726C157.859 71.2494 156.198 72.4572 155.515 74.8978C154.829 77.3524 155.623 79.218 157.582 79.7431ZM159.94 73.4068C161.143 73.7291 161.617 74.8874 161.187 76.4251C160.753 77.9769 159.753 78.725 158.543 78.4008C157.341 78.0785 156.874 76.9452 157.31 75.3863C157.744 73.8345 158.744 73.0865 159.94 73.4068ZM169.116 75.7291C170.17 76.0115 170.658 76.9309 170.374 78.083L166.731 77.1068C167.124 75.999 168.069 75.4485 169.116 75.7291ZM169.694 80.5697C169.279 81.0728 168.589 81.2291 167.719 80.9959C166.566 80.6869 166.048 79.6838 166.364 78.3886L166.39 78.2969L171.795 79.7452L171.953 79.1809C172.633 76.7474 171.719 74.9328 169.512 74.3414C167.269 73.7405 165.439 74.9259 164.745 77.4087C164.051 79.8916 165.003 81.7618 167.281 82.3722C169.106 82.8613 170.631 82.3297 171.356 81.0152L169.694 80.5697ZM172.602 83.6312L174.357 84.1013L175.603 79.6434C175.905 78.5642 176.895 78.0712 178.034 78.3764C178.331 78.456 178.784 78.6305 178.904 78.7159L179.358 77.0935C179.209 77.0005 178.906 76.8889 178.651 76.8207C177.654 76.5534 176.661 76.894 176.236 77.5989L176.116 77.5667L176.451 76.3676L174.76 75.9145L172.602 83.6312Z" fill="#171725"/>
<path fill-rule="evenodd" clip-rule="evenodd" d="M106.274 239.387L119.174 193.255C119.627 191.636 121.31 190.677 122.934 191.112C124.558 191.547 125.507 193.212 125.054 194.831L112.154 240.962L106.274 239.387Z" fill="#429E55"/>
<path fill-rule="evenodd" clip-rule="evenodd" d="M96.8182 236.853L105.373 206.263C105.825 204.644 107.509 203.684 109.132 204.12C110.756 204.555 111.705 206.22 111.253 207.839L102.698 238.429L96.8182 236.853Z" fill="#96C0FF"/>
<path fill-rule="evenodd" clip-rule="evenodd" d="M89.0615 234.775L100.172 195.043C100.625 193.424 102.308 192.464 103.932 192.899C105.556 193.334 106.505 195 106.053 196.618L94.9415 236.35L89.0615 234.775Z" fill="#EA714A"/>
<path fill-rule="evenodd" clip-rule="evenodd" d="M79.6063 232.241L85.6041 210.793C86.0568 209.174 87.7401 208.215 89.3639 208.65C90.9876 209.085 91.9369 210.75 91.4841 212.369L85.4863 233.817L79.6063 232.241Z" fill="#96C0FF"/>
<path fill-rule="evenodd" clip-rule="evenodd" d="M71.8498 230.163L81.2565 196.526C81.7092 194.907 83.3925 193.947 85.0162 194.382C86.6399 194.817 87.5892 196.482 87.1365 198.101L77.7299 231.739L71.8498 230.163Z" fill="#EA714A"/>
<path fill-rule="evenodd" clip-rule="evenodd" d="M62.3947 227.629L69.2447 203.134C69.6975 201.515 71.3808 200.556 73.0045 200.991C74.6282 201.426 75.5775 203.091 75.1248 204.71L68.2747 229.205L62.3947 227.629Z" fill="#96C0FF"/>
<path fill-rule="evenodd" clip-rule="evenodd" d="M54.637 225.551L66.6002 182.772C67.0529 181.153 68.7362 180.193 70.3599 180.628C71.9837 181.063 72.933 182.729 72.4802 184.347L60.517 227.127L54.637 225.551Z" fill="#EA714A"/>
<path fill-rule="evenodd" clip-rule="evenodd" d="M45.1822 223.018L55.441 186.333C55.8938 184.714 57.577 183.754 59.2008 184.189C60.8245 184.624 61.7738 186.29 61.321 187.908L51.0622 224.593L45.1822 223.018Z" fill="#96C0FF"/>
<path fill-rule="evenodd" clip-rule="evenodd" d="M123.417 243.98L136.299 197.917C136.762 196.26 138.485 195.278 140.146 195.724C141.808 196.169 142.779 197.873 142.316 199.529L129.434 245.593L123.417 243.98Z" fill="#429E55"/>
<path fill-rule="evenodd" clip-rule="evenodd" d="M113.963 241.447L119.941 220.068C120.405 218.411 122.127 217.429 123.789 217.874C125.45 218.32 126.421 220.023 125.958 221.68L119.979 243.06L113.963 241.447Z" fill="#96C0FF"/>
<path fill-rule="evenodd" clip-rule="evenodd" d="M37.4254 220.939L47.6842 184.254C48.1369 182.635 49.8202 181.675 51.4439 182.11C53.0677 182.545 54.0169 184.21 53.5642 185.829L43.3054 222.514L37.4254 220.939Z" fill="#0066FF"/>
<path fill-rule="evenodd" clip-rule="evenodd" d="M27.9705 218.405L33.9684 196.957C34.4211 195.339 36.1044 194.379 37.7281 194.814C39.3518 195.249 40.3011 196.914 39.8484 198.533L33.8506 219.981L27.9705 218.405Z" fill="#96C0FF"/>
<path d="M63.906 143.752L68.7534 137.027L67.7728 136.764L63.8228 142.434L63.7398 142.411L63.2903 135.563L62.3098 135.3L62.9825 143.504L63.906 143.752ZM67.8852 144.818L68.7776 145.057L70.3369 139.481L69.4446 139.242L67.8852 144.818ZM70.2075 138.228C70.55 138.32 70.9082 138.116 71.0037 137.774C71.0992 137.433 70.8971 137.079 70.5547 136.987C70.2123 136.895 69.854 137.099 69.7586 137.441C69.6631 137.782 69.8651 138.137 70.2075 138.228ZM74.0771 141.222C74.9643 141.46 75.3734 142.27 75.1179 143.264L72.0362 142.438C72.3799 141.468 73.1848 140.983 74.0771 141.222ZM74.5871 145.062C74.2163 145.491 73.6548 145.624 72.9337 145.431C71.9842 145.177 71.5621 144.313 71.8236 143.199L71.8351 143.157L75.8559 144.235L75.9514 143.893C76.4359 142.16 75.8171 140.844 74.3073 140.439C72.7717 140.028 71.4677 140.901 70.9773 142.655C70.4841 144.419 71.1418 145.796 72.693 146.212C73.9174 146.54 74.9421 146.186 75.4795 145.301L74.5871 145.062ZM85.1437 143.448L84.2462 143.208L81.8994 147.372L81.8164 147.35L81.813 142.556L80.9569 142.326L78.4597 146.45L78.3767 146.428L78.5237 141.674L77.621 141.433L77.6284 147.428L78.5312 147.67L80.9827 143.69L81.0657 143.712L81.1096 148.361L82.0176 148.605L85.1437 143.448ZM85.6249 145.217C85.3992 146.024 85.7507 146.602 86.7278 147.137L87.6225 147.626C88.1786 147.931 88.3968 148.268 88.2898 148.65C88.1466 149.163 87.5072 149.375 86.7549 149.173C86.039 148.981 85.6767 148.562 85.6579 148.051L84.7396 147.805C84.5792 148.757 85.2689 149.581 86.5141 149.915C87.7852 150.256 88.9477 149.828 89.2269 148.829C89.4511 148.027 89.07 147.436 88.0877 146.9L87.2843 146.463C86.6703 146.126 86.4255 145.804 86.5326 145.422C86.6714 144.925 87.2843 144.728 87.9483 144.906C88.6228 145.087 88.9761 145.498 88.971 145.975L89.853 146.211C89.9897 145.264 89.3372 144.466 88.1647 144.152C86.9766 143.834 85.8838 144.292 85.6249 145.217Z" fill="#999999"/>
<path d="M95.5975 152.432C97.1487 152.848 98.5015 152.098 98.9254 150.583C99.3362 149.114 98.6279 147.818 97.2064 147.437C96.5164 147.252 95.9279 147.322 95.4461 147.649L95.3631 147.627L96.2456 145.289L99.6904 146.212L99.9233 145.379L95.7469 144.26L94.1538 148.381L95.0306 148.616C95.4857 148.165 96.1313 148.01 96.811 148.192C97.7915 148.455 98.2707 149.334 97.9843 150.358C97.6979 151.383 96.8377 151.886 95.8364 151.618C94.9544 151.381 94.4615 150.671 94.6042 149.842L93.6859 149.596C93.4087 150.906 94.1811 152.053 95.5975 152.432ZM102.248 150.328L103.197 150.582C104.261 150.867 104.769 151.582 104.528 152.445C104.299 153.263 103.435 153.66 102.45 153.395C101.485 153.137 100.954 152.444 101.093 151.625L100.191 151.383C99.9007 152.679 100.713 153.803 102.233 154.21C103.712 154.606 105.136 153.96 105.48 152.728C105.765 151.709 105.345 150.841 104.364 150.439L104.387 150.356C105.262 150.379 105.937 149.859 106.186 148.97C106.49 147.883 105.69 146.735 104.382 146.385C102.956 146.002 101.804 146.55 101.349 147.818L102.257 148.062C102.559 147.281 103.258 146.956 104.119 147.187C104.98 147.418 105.414 148.079 105.202 148.839C104.985 149.615 104.23 150.002 103.379 149.774L102.471 149.531L102.248 150.328ZM110.809 150.086C111.104 149.031 110.652 148.115 109.718 147.864C108.784 147.614 107.912 148.181 107.618 149.231C107.323 150.286 107.779 151.209 108.713 151.459C109.647 151.71 110.514 151.141 110.809 150.086ZM108.898 150.797C108.436 150.674 108.256 150.142 108.448 149.454C108.641 148.766 109.066 148.401 109.533 148.527C110 148.652 110.174 149.165 109.979 149.864C109.788 150.547 109.355 150.92 108.898 150.797ZM107.512 155.436L111.059 152.622L115.073 149.438L114.128 149.185L110.504 152.056L106.557 155.18L107.512 155.436ZM113.987 155.375C114.282 154.319 113.83 153.403 112.896 153.153C111.962 152.903 111.09 153.47 110.796 154.52C110.501 155.575 110.957 156.498 111.891 156.748C112.825 156.998 113.692 156.43 113.987 155.375ZM112.076 156.086C111.614 155.962 111.434 155.43 111.626 154.742C111.819 154.054 112.244 153.69 112.711 153.815C113.178 153.94 113.352 154.454 113.157 155.152C112.966 155.835 112.532 156.208 112.076 156.086Z" fill="#EA714A"/>
<path d="M133.893 161.973L129.827 154.681L122.534 158.929" stroke="#57805F" stroke-opacity="0.99" stroke-width="2" stroke-linecap="round" stroke-linejoin="round"/>
</g>
<defs>
<clipPath id="clip0_1193_8670">
<rect width="146.989" height="249.643" fill="white" transform="matrix(0.965926 0.258819 -0.269316 0.963052 67.2344 0)"/>
</clipPath>
</defs>
</svg>
