<svg width="175" height="165" viewBox="0 0 175 165" fill="none" xmlns="http://www.w3.org/2000/svg">
<rect width="138.369" height="121.292" rx="29" transform="matrix(0.965926 -0.258819 0.248292 0.968685 3.5752 37.5063)" fill="white"/>
<path d="M32.3489 36.8332L33.1653 36.6144C32.5983 35.4128 31.3165 34.8265 29.9387 35.1957C28.2643 35.6444 27.4123 37.2536 27.9435 39.3262C28.4747 41.3987 29.9796 42.3764 31.7146 41.9115C33.271 41.4945 34.1144 40.1576 33.6988 38.536L33.5184 37.8324L31.0308 38.4989L31.2111 39.2026L32.9333 38.7411C33.2127 39.9241 32.6311 40.8729 31.5244 41.1695C30.3125 41.4942 29.1451 40.8226 28.7089 39.1211C28.2728 37.4195 28.968 36.2488 30.1289 35.9378C31.0729 35.6848 31.8509 36.0472 32.3489 36.8332ZM37.6906 40.3239C38.6857 40.0573 39.285 39.3635 39.3244 38.5599L38.5448 38.5501C38.4846 39.1131 38.1069 39.4878 37.5168 39.6458C36.6334 39.8826 35.8775 39.4733 35.5727 38.4304L39.1288 37.4775L39.0468 37.1577C38.5779 35.3282 37.3328 34.9919 36.3122 35.2653C34.9855 35.6208 34.3741 36.9058 34.7611 38.4154C35.148 39.9251 36.2746 40.7033 37.6906 40.3239ZM35.4055 37.7779C35.2606 36.9998 35.6249 36.1741 36.486 35.9434C37.3025 35.7246 37.983 36.1986 38.1961 37.0302L35.4055 37.7779ZM41.709 33.8876L40.6629 34.1679L40.3612 32.9909L39.6085 33.1926L39.9102 34.3696L39.1703 34.5679L39.3343 35.2076L40.0742 35.0093L40.8612 38.0798C41.0809 38.937 41.8747 39.1618 42.5126 38.9909C42.7933 38.9157 42.9587 38.8166 43.051 38.7509L42.7241 38.1138C42.6636 38.1437 42.5681 38.1967 42.4022 38.2411C42.0705 38.33 41.7254 38.3131 41.5614 37.6734L40.8269 34.8076L41.873 34.5273L41.709 33.8876ZM46.6264 37.8202L47.379 37.6185L46.592 34.5481C46.4076 33.8284 46.8003 33.1797 47.3871 33.0225C47.958 32.8695 48.4526 33.1369 48.596 33.6966L49.4585 37.0614L50.2239 36.8563L49.4041 33.6578C49.2418 33.0246 49.5175 32.4516 50.2064 32.267C50.7422 32.1235 51.2745 32.2851 51.4606 33.0111L52.3033 36.2991L53.056 36.0974L52.2132 32.8094C51.9173 31.6548 51.1616 31.2864 50.2878 31.5206C49.5861 31.7086 49.1555 32.1692 49.0338 32.7453L48.9828 32.759C48.606 32.2994 48.0999 32.1068 47.4557 32.2795C46.8178 32.4504 46.4245 32.8839 46.3548 33.4631L46.291 33.4802L46.0943 32.7126L45.3671 32.9074L46.6264 37.8202ZM56.4485 35.2977C57.7753 34.9422 58.4092 33.6923 58.019 32.1698C57.6255 30.6346 56.4734 29.8632 55.1467 30.2187C53.8199 30.5742 53.186 31.8241 53.5795 33.3594C53.9697 34.8818 55.1218 35.6532 56.4485 35.2977ZM56.2747 34.6197C55.2669 34.8897 54.5847 34.1428 54.3322 33.1577C54.0797 32.1726 54.3127 31.1668 55.3205 30.8967C56.3283 30.6267 57.0138 31.3864 57.2663 32.3715C57.5188 33.3566 57.2826 34.3496 56.2747 34.6197ZM59.791 34.2928L60.5437 34.0911L59.7468 30.9822C59.5763 30.3169 59.9747 29.6906 60.6892 29.4992C60.8901 29.4454 61.1072 29.4282 61.1615 29.4273L60.9648 28.6597C60.877 28.6764 60.6776 28.723 60.566 28.7529C59.9792 28.9101 59.5542 29.3795 59.5002 29.9135L59.4491 29.9272L59.2589 29.1851L58.5318 29.38L59.791 34.2928ZM65.0637 32.9893C66.0587 32.7227 66.658 32.0289 66.6974 31.2253L65.9178 31.2155C65.8576 31.7785 65.4799 32.1532 64.8899 32.3113C64.0064 32.548 63.2505 32.1387 62.9457 31.0958L66.5018 30.143L66.4198 29.8231C65.9509 27.9936 64.7058 27.6573 63.6853 27.9308C62.3585 28.2863 61.7472 29.5712 62.1341 31.0809C62.5211 32.5905 63.6476 33.3688 65.0637 32.9893ZM62.7785 30.4433C62.6336 29.6652 62.9979 28.8396 63.8591 28.6088C64.6755 28.3901 65.356 28.864 65.5691 29.6956L62.7785 30.4433ZM71.2089 33.2022L71.9616 33.0005L71.2959 30.4034L71.3597 30.3863C71.5944 30.6105 72.0642 31.1135 73.0082 30.8606C74.2329 30.5324 74.8351 29.3183 74.4351 27.7575C74.0383 26.2094 72.931 25.4534 71.6936 25.7849C70.7368 26.0413 70.5942 26.7084 70.494 27.0087L70.4047 27.0327L70.2046 26.2523L69.4775 26.4471L71.2089 33.2022ZM70.847 28.7052C70.565 27.605 70.8596 26.733 71.7781 26.4869C72.7349 26.2305 73.4135 26.9101 73.6791 27.9464C73.948 28.9954 73.6764 29.9569 72.7324 30.2099C71.8266 30.4526 71.1323 29.8183 70.847 28.7052ZM78.2259 29.4625C79.5527 29.107 80.1866 27.857 79.7964 26.3346C79.4029 24.7993 78.2508 24.0279 76.9241 24.3834C75.5973 24.7389 74.9634 25.9889 75.3569 27.5242C75.7471 29.0466 76.8992 29.818 78.2259 29.4625ZM78.0521 28.7845C77.0443 29.0545 76.3621 28.3076 76.1095 27.3225C75.857 26.3374 76.09 25.3315 77.0979 25.0615C78.1057 24.7914 78.7912 25.5512 79.0437 26.5363C79.2962 27.5214 79.0599 28.5144 78.0521 28.7845ZM81.5684 28.4575L82.3211 28.2558L81.0618 23.3431L80.3092 23.5448L81.5684 28.4575ZM80.482 22.6234C80.7754 22.5448 80.9588 22.2496 80.8866 21.9681C80.8145 21.6866 80.5131 21.5213 80.2197 21.5999C79.9262 21.6785 79.7429 21.9738 79.815 22.2552C79.8872 22.5367 80.1886 22.702 80.482 22.6234ZM83.6948 24.7294C83.4751 23.8723 83.8799 23.2442 84.6007 23.0511C85.2992 22.864 85.8406 23.2077 86.0381 23.9785L86.8252 27.049L87.5778 26.8473L86.7777 23.7256C86.4563 22.4719 85.6356 22.0492 84.6438 22.3149C83.9039 22.5132 83.5299 22.9689 83.4281 23.5294L83.3643 23.5465L83.1676 22.7788L82.4404 22.9737L83.6996 27.8865L84.4523 27.6848L83.6948 24.7294ZM89.8245 20.9951L88.7784 21.2754L88.4767 20.0984L87.724 20.3001L88.0257 21.4771L87.2858 21.6754L87.4497 22.3151L88.1896 22.1168L88.9767 25.1873C89.1964 26.0445 89.9902 26.2693 90.6281 26.0984C90.9087 26.0232 91.0742 25.9241 91.1664 25.8584L90.8395 25.2213C90.779 25.2512 90.6835 25.3042 90.5177 25.3486C90.186 25.4375 89.8408 25.4206 89.6769 24.7809L88.9423 21.9151L89.9884 21.6348L89.8245 20.9951ZM94.6209 20.8858C94.2062 20.2517 93.5571 19.9266 92.5875 20.1864C91.5542 20.4633 90.9396 21.2569 91.1528 22.0885C91.3266 22.7666 91.8448 23.1131 92.7983 23.0832L93.664 23.0563C94.1878 23.039 94.4813 23.2133 94.5682 23.5523C94.6764 23.9745 94.3185 24.4396 93.6168 24.6276C93.0013 24.7925 92.5473 24.6304 92.2781 24.1386L91.6096 24.5091C91.999 25.2969 92.7987 25.5578 93.8001 25.2894C94.9387 24.9843 95.5538 24.153 95.3366 23.3054C95.1611 22.621 94.6231 22.3037 93.6943 22.3235L92.9212 22.3393C92.3039 22.3509 91.9923 22.2258 91.8956 21.8484C91.7874 21.4262 92.1552 20.9996 92.7548 20.8389C93.4118 20.6628 93.7763 20.9548 93.994 21.2588L94.6209 20.8858ZM100.218 18.2103L99.1715 18.4906L98.8698 17.3136L98.1171 17.5153L98.4188 18.6923L97.6789 18.8905L97.8429 19.5302L98.5828 19.332L99.3698 22.4024C99.5895 23.2596 100.383 23.4844 101.021 23.3135C101.302 23.2383 101.467 23.1393 101.56 23.0736L101.233 22.4365C101.172 22.4664 101.077 22.5193 100.911 22.5638C100.579 22.6526 100.234 22.6358 100.07 21.9961L99.3355 19.1303L100.382 18.85L100.218 18.2103ZM102.709 19.6345C102.49 18.7773 102.911 18.145 103.654 17.9459C104.362 17.7562 104.904 18.0895 105.104 18.8699L105.891 21.9403L106.644 21.7387L105.843 18.617C105.52 17.3536 104.698 16.9414 103.697 17.2097C102.925 17.4165 102.568 17.8575 102.468 18.4276L102.404 18.4447L101.788 16.0395L101.035 16.2411L102.714 22.7915L103.467 22.5898L102.709 19.6345ZM108.02 21.3697L108.773 21.168L107.514 16.2553L106.761 16.4569L108.02 21.3697ZM106.934 15.5356C107.228 15.457 107.411 15.1617 107.339 14.8803C107.267 14.5988 106.965 14.4335 106.672 14.5121C106.378 14.5907 106.195 14.886 106.267 15.1674C106.339 15.4489 106.641 15.6142 106.934 15.5356ZM112.644 16.0564C112.23 15.4223 111.581 15.0972 110.611 15.357C109.578 15.6339 108.963 16.4275 109.176 17.2591C109.35 17.9372 109.868 18.2837 110.822 18.2538L111.688 18.2269C112.211 18.2096 112.505 18.3839 112.592 18.7229C112.7 19.1451 112.342 19.6102 111.64 19.7982C111.025 19.9631 110.571 19.801 110.302 19.3092L109.633 19.6797C110.023 20.4675 110.822 20.7284 111.824 20.46C112.962 20.1549 113.577 19.3236 113.36 18.476C113.185 17.7916 112.647 17.4743 111.718 17.4941L110.945 17.5099C110.327 17.5215 110.016 17.3964 109.919 17.019C109.811 16.5968 110.179 16.1702 110.778 16.0095C111.435 15.8335 111.8 16.1254 112.018 16.4294L112.644 16.0564ZM59.7213 41.4838L60.4867 41.2787C60.1983 40.2998 59.1 39.8045 57.837 40.143C56.5868 40.478 55.7914 41.4704 56.0734 42.5707C56.2997 43.4534 57.072 43.807 58.168 43.8278L59.0307 43.8428C59.7688 43.8501 60.4435 43.9291 60.6107 44.5816C60.7944 45.298 60.2268 45.956 59.321 46.1987C58.5428 46.4072 57.7654 46.2463 57.5114 45.5214L56.695 45.7402C57.047 46.7943 58.1014 47.2911 59.5047 46.9151C61.01 46.5118 61.6516 45.4511 61.3794 44.3893C61.0646 43.1611 59.8021 43.0755 59.08 43.0776L58.3707 43.0762C57.8532 43.0782 57.0094 43.0308 56.829 42.3272C56.6684 41.7003 57.1244 41.0859 57.9919 40.8534C58.7828 40.6415 59.4791 40.8583 59.7213 41.4838ZM65.606 43.0106C65.8421 43.9318 65.2487 44.542 64.6874 44.6924C64.0623 44.8599 63.4977 44.519 63.3141 43.8025L62.5271 40.732L61.7744 40.9337L62.5745 44.0554C62.8959 45.3091 63.7134 45.7327 64.6319 45.4866C65.3718 45.2883 65.755 44.7618 65.8567 44.2013L65.9077 44.1877L66.1209 45.0193L66.8736 44.8176L65.6143 39.9048L64.8616 40.1065L65.606 43.0106ZM68.2521 44.4482L69.0048 44.2465L68.2178 41.176C68.0333 40.4564 68.426 39.8077 69.0129 39.6504C69.5837 39.4975 70.0783 39.7649 70.2218 40.3246L71.0842 43.6893L71.8497 43.4842L71.0299 40.2858C70.8675 39.6525 71.1433 39.0796 71.8322 38.895C72.368 38.7514 72.9002 38.913 73.0863 39.6391L73.9291 42.927L74.6818 42.7254L73.839 39.4374C73.5431 38.2828 72.7874 37.9144 71.9135 38.1486C71.2119 38.3366 70.7812 38.7972 70.6596 39.3733L70.6086 39.3869C70.2318 38.9273 69.7257 38.7348 69.0814 38.9074C68.4436 39.0783 68.0503 39.5119 67.9806 40.0911L67.9168 40.1082L67.7201 39.3406L66.9929 39.5354L68.2521 44.4482ZM76.058 42.3566L76.8106 42.1549L76.0236 39.0845C75.8392 38.3648 76.2319 37.7161 76.8187 37.5589C77.3896 37.4059 77.8842 37.6733 78.0276 38.233L78.8901 41.5978L79.6555 41.3927L78.8357 38.1942C78.6734 37.561 78.9491 36.988 79.638 36.8034C80.1738 36.6599 80.7061 36.8215 80.8922 37.5475L81.7349 40.8355L82.4876 40.6338L81.6448 37.3458C81.3489 36.1912 80.5932 35.8229 79.7194 36.057C79.0177 36.245 78.5871 36.7056 78.4654 37.2817L78.4144 37.2954C78.0376 36.8358 77.5315 36.6432 76.8873 36.8159C76.2494 36.9868 75.8561 37.4203 75.7864 37.9995L75.7226 38.0166L75.5259 37.249L74.7987 37.4439L76.058 42.3566ZM85.9439 39.8171C86.939 39.5504 87.5383 38.8566 87.5777 38.0531L86.7981 38.0432C86.7379 38.6062 86.3602 38.9809 85.7701 39.139C84.8867 39.3757 84.1308 38.9664 83.826 37.9235L87.3821 36.9707L87.3001 36.6508C86.8311 34.8214 85.5861 34.485 84.5655 34.7585C83.2388 35.114 82.6274 36.3989 83.0144 37.9086C83.4013 39.4182 84.5279 40.1965 85.9439 39.8171ZM83.6587 37.2711C83.5138 36.493 83.8782 35.6673 84.7393 35.4365C85.5558 35.2178 86.2362 35.6917 86.4494 36.5233L83.6587 37.2711ZM89.0911 38.8644L89.8437 38.6627L89.0469 35.5539C88.8764 34.8886 89.2748 34.2623 89.9892 34.0709C90.1901 34.017 90.4073 33.9999 90.4616 33.999L90.2648 33.2314C90.1771 33.248 89.9777 33.2946 89.8661 33.3245C89.2792 33.4818 88.8542 33.9511 88.8002 34.4852L88.7492 34.4988L88.559 33.7568L87.8318 33.9516L89.0911 38.8644Z" fill="#171725"/>
<path d="M65.0732 118.939L67.7509 121.514L68.3045 123.674L68.9372 123.504L68.3837 121.345L69.4821 117.758L68.7575 117.952L67.9353 120.787L67.874 120.803L65.7978 118.745L65.0732 118.939ZM72.6208 122.605C73.6822 122.32 74.1894 121.32 73.8772 120.102C73.5624 118.874 72.6407 118.257 71.5793 118.541C70.5179 118.826 70.0108 119.826 70.3256 121.054C70.6378 122.272 71.5594 122.889 72.6208 122.605ZM72.4818 122.062C71.6755 122.278 71.1297 121.681 70.9277 120.893C70.7257 120.105 70.9121 119.3 71.7184 119.084C72.5246 118.868 73.073 119.476 73.275 120.264C73.4771 121.052 73.288 121.846 72.4818 122.062ZM77.3527 119.532C77.5416 120.269 77.0669 120.757 76.6178 120.877C76.1177 121.011 75.6661 120.739 75.5192 120.166L74.8895 117.709L74.2874 117.87L74.9275 120.368C75.1846 121.371 75.8386 121.71 76.5734 121.513C77.1654 121.354 77.4719 120.933 77.5532 120.485L77.5941 120.474L77.7646 121.139L78.3667 120.978L77.3593 117.047L76.7572 117.209L77.3527 119.532ZM82.6672 119.924C83.351 119.741 83.6138 119.276 83.6706 118.988L83.7013 118.979L83.8377 119.512L84.4398 119.35L83.7761 116.761C83.456 115.512 82.4702 115.623 81.9701 115.757C81.3782 115.916 80.757 116.301 80.6345 117.1L81.2585 117.151C81.3177 116.829 81.5528 116.438 82.1269 116.284C82.6806 116.136 83.029 116.357 83.1582 116.861L83.1635 116.881C83.2382 117.173 82.9357 117.227 82.2449 117.51C81.542 117.8 80.7898 118.174 81.0207 119.074C81.2174 119.842 81.9222 120.123 82.6672 119.924ZM82.62 119.357C82.1403 119.485 81.7383 119.363 81.6307 118.944C81.5126 118.483 81.8944 118.228 82.3481 118.04C82.5954 117.941 83.2608 117.686 83.3314 117.536L83.473 118.089C83.5989 118.58 83.3344 119.165 82.62 119.357ZM85.5388 119.056L86.141 118.894L85.5035 116.407C85.3671 115.875 85.6858 115.374 86.2574 115.221C86.4181 115.178 86.5918 115.164 86.6353 115.163L86.4779 114.549C86.4077 114.563 86.2481 114.6 86.1588 114.624C85.6894 114.75 85.3494 115.125 85.3062 115.552L85.2653 115.563L85.1132 114.97L84.5315 115.126L85.5388 119.056ZM89.757 118.013C90.553 117.8 91.0324 117.245 91.064 116.602L90.4403 116.594C90.3921 117.044 90.0899 117.344 89.6179 117.471C88.9112 117.66 88.3064 117.333 88.0626 116.498L90.9075 115.736L90.8419 115.48C90.4667 114.017 89.4707 113.747 88.6542 113.966C87.5928 114.251 87.1038 115.279 87.4133 116.486C87.7229 117.694 88.6241 118.317 89.757 118.013ZM87.9288 115.976C87.8129 115.354 88.1044 114.693 88.7933 114.509C89.4464 114.334 89.9908 114.713 90.1613 115.378L87.9288 115.976ZM95.4723 116.493C96.1561 116.309 96.4188 115.845 96.4757 115.557L96.5063 115.548L96.6427 116.081L97.2449 115.919L96.5811 113.33C96.2611 112.081 95.2752 112.192 94.7751 112.326C94.1832 112.485 93.5621 112.87 93.4396 113.668L94.0636 113.72C94.1228 113.398 94.3579 113.007 94.932 112.853C95.4856 112.705 95.8341 112.926 95.9633 113.43L95.9685 113.45C96.0433 113.742 95.7408 113.796 95.05 114.079C94.3471 114.369 93.5949 114.742 93.8257 115.643C94.0225 116.411 94.7272 116.692 95.4723 116.493ZM95.4251 115.926C94.9454 116.054 94.5433 115.932 94.4358 115.512C94.3177 115.052 94.6994 114.797 95.1531 114.609C95.4004 114.51 96.0658 114.255 96.1364 114.105L96.2781 114.658C96.404 115.149 96.1395 115.734 95.4251 115.926ZM99.0409 111.238L98.204 111.462L97.9627 110.52L97.3605 110.682L97.6019 111.623L97.0099 111.782L97.1411 112.294L97.733 112.135L98.3627 114.592C98.5384 115.277 99.1735 115.457 99.6838 115.32C99.9083 115.26 100.041 115.181 100.114 115.128L99.853 114.619C99.8045 114.643 99.7282 114.685 99.5955 114.721C99.3301 114.792 99.054 114.778 98.9228 114.266L98.3352 111.974L99.1721 111.75L99.0409 111.238ZM103.128 114.343L103.791 114.165L104.927 108.895L104.775 108.301L101.427 109.198L101.572 109.761L104.266 109.039L104.277 109.08L103.128 114.343ZM107.373 113.205L108.036 113.028L109.172 107.758L109.02 107.164L105.672 108.061L105.817 108.624L108.511 107.902L108.522 107.943L107.373 113.205ZM113.726 110.453C113.873 111.026 114.353 111.412 115.017 111.234C115.67 111.059 115.904 110.482 115.757 109.909L115.686 109.633C115.539 109.059 115.069 108.671 114.406 108.849C113.752 109.024 113.508 109.604 113.655 110.177L113.726 110.453ZM110.355 108.152C110.502 108.725 110.982 109.11 111.646 108.932C112.299 108.757 112.533 108.181 112.386 107.607L112.315 107.331C112.168 106.758 111.698 106.37 111.034 106.548C110.381 106.723 110.137 107.302 110.284 107.875L110.355 108.152ZM111.569 112.081L112.151 111.925L114.4 105.722L113.819 105.878L111.569 112.081ZM114.176 110.037C114.094 109.72 114.161 109.385 114.518 109.289C114.886 109.191 115.084 109.455 115.166 109.772L115.236 110.048C115.318 110.366 115.261 110.698 114.904 110.794C114.537 110.892 114.328 110.631 114.247 110.314L114.176 110.037ZM110.805 107.736C110.723 107.418 110.79 107.083 111.147 106.988C111.515 106.889 111.713 107.153 111.795 107.47L111.865 107.747C111.947 108.064 111.89 108.396 111.533 108.492C111.165 108.591 110.957 108.329 110.875 108.012L110.805 107.736ZM120.796 109.696C121.857 109.412 122.364 108.412 122.052 107.194C121.737 105.966 120.816 105.349 119.754 105.633C118.693 105.917 118.186 106.917 118.501 108.146C118.813 109.363 119.735 109.981 120.796 109.696ZM120.657 109.154C119.851 109.37 119.305 108.772 119.103 107.984C118.901 107.196 119.087 106.391 119.893 106.175C120.7 105.959 121.248 106.567 121.45 107.355C121.652 108.143 121.463 108.938 120.657 109.154ZM124.208 104.494L123.33 104.73L123.228 104.33C123.128 103.941 123.239 103.693 123.637 103.586C123.81 103.54 123.923 103.553 123.989 103.558L124.029 102.989C123.927 102.973 123.727 102.961 123.431 103.04C122.87 103.19 122.416 103.673 122.589 104.348L122.728 104.891L122.095 105.06L122.226 105.572L122.859 105.403L123.735 108.821L124.337 108.66L123.461 105.241L124.339 105.006L124.208 104.494ZM77.1764 131.725C78.1893 131.454 78.7787 130.615 78.559 129.758C78.3885 129.093 77.8716 128.714 77.1851 128.781L77.1746 128.74C77.6614 128.437 77.8791 127.914 77.7276 127.323C77.5374 126.581 76.7839 126.077 75.8169 126.336C74.9137 126.578 74.3065 127.337 74.4871 128.169L75.0994 128.005C74.9886 127.477 75.4049 127.037 75.9484 126.892C76.525 126.737 76.9873 126.988 77.1231 127.518C77.2648 128.07 76.9254 128.544 76.3054 128.71L75.887 128.822L76.0312 129.385L76.4497 129.273C77.2432 129.06 77.7882 129.346 77.9364 129.925C78.0787 130.48 77.6929 130.985 77.0219 131.165C76.4172 131.327 75.8575 131.143 75.6894 130.647L75.0464 130.819C75.2959 131.633 76.1635 131.997 77.1764 131.725ZM81.7205 130.508C82.7801 130.237 83.2644 129.255 83.0145 128.28C82.7548 127.266 81.8209 126.74 80.9254 126.98C80.387 127.124 79.9928 127.512 79.8178 128.021L79.777 128.031C79.4523 126.754 79.7577 125.882 80.5665 125.665C81.1177 125.517 81.5385 125.777 81.7766 126.216L82.3991 126.049C82.063 125.27 81.2999 124.867 80.4223 125.102C79.246 125.417 78.7916 126.655 79.2664 128.507C79.7629 130.444 80.8606 130.727 81.7205 130.508ZM81.5762 129.945C80.9205 130.12 80.2972 129.689 80.1391 129.061C79.9809 128.433 80.3399 127.738 80.988 127.565C81.6284 127.393 82.2355 127.794 82.4021 128.444C82.5727 129.109 82.2166 129.773 81.5762 129.945ZM84.9298 128.806L84.2766 128.981L84.3195 129.275C84.4232 129.989 84.4549 130.718 84.4718 131.061L84.9311 130.938C84.9643 130.557 85.0226 129.699 84.9598 129.093L84.9298 128.806ZM87.7591 128.89C88.9124 128.581 89.3246 127.423 88.8858 125.711C88.4503 124.012 87.5223 123.2 86.3792 123.506C85.2362 123.812 84.8171 124.986 85.2526 126.685C85.6913 128.396 86.6059 129.199 87.7591 128.89ZM87.6149 128.327C86.8545 128.53 86.2145 127.884 85.8649 126.521C85.516 125.159 85.7657 124.261 86.5209 124.059C87.2761 123.856 87.9246 124.514 88.2735 125.875C88.623 127.239 88.3752 128.123 87.6149 128.327ZM92.2497 127.686C93.4029 127.377 93.8151 126.22 93.3764 124.508C92.9409 122.809 92.0128 121.997 90.8698 122.303C89.7267 122.609 89.3076 123.782 89.7431 125.481C90.1819 127.193 91.0964 127.995 92.2497 127.686ZM92.1054 127.123C91.3451 127.327 90.705 126.681 90.3555 125.317C90.0065 123.956 90.2562 123.058 91.0114 122.855C91.7667 122.653 92.4151 123.311 92.764 124.672C93.1136 126.036 92.8657 126.92 92.1054 127.123ZM96.7402 126.483C97.8935 126.174 98.3057 125.016 97.8669 123.305C97.4314 121.606 96.5034 120.793 95.3603 121.1C94.2173 121.406 93.7982 122.579 94.2336 124.278C94.6724 125.99 95.587 126.792 96.7402 126.483ZM96.5959 125.92C95.8356 126.124 95.1956 125.478 94.846 124.114C94.4971 122.753 94.7468 121.855 95.502 121.652C96.2572 121.45 96.9056 122.107 97.2546 123.469C97.6041 124.832 97.3563 125.716 96.5959 125.92ZM101.917 126.595L102.519 126.433L101.986 124.356L102.037 124.342C102.225 124.521 102.601 124.924 103.356 124.721C104.336 124.459 104.818 123.487 104.498 122.239C104.18 121 103.294 120.396 102.305 120.661C101.539 120.866 101.425 121.4 101.345 121.64L101.273 121.659L101.113 121.035L100.532 121.191L101.917 126.595ZM101.627 122.997C101.402 122.117 101.637 121.419 102.372 121.222C103.138 121.017 103.68 121.561 103.893 122.39C104.108 123.229 103.891 123.998 103.136 124.201C102.411 124.395 101.855 123.887 101.627 122.997ZM107.53 123.603C108.592 123.318 109.099 122.318 108.787 121.101C108.472 119.872 107.55 119.255 106.489 119.54C105.427 119.824 104.92 120.824 105.235 122.052C105.547 123.27 106.469 123.887 107.53 123.603ZM107.391 123.06C106.585 123.276 106.039 122.679 105.837 121.891C105.635 121.103 105.822 120.298 106.628 120.082C107.434 119.866 107.983 120.474 108.185 121.262C108.387 122.05 108.198 122.844 107.391 123.06ZM110.204 122.799L110.806 122.638L109.799 118.707L109.197 118.869L110.204 122.799ZM109.335 118.132C109.57 118.069 109.717 117.833 109.659 117.607C109.601 117.382 109.36 117.25 109.125 117.313C108.891 117.376 108.744 117.612 108.802 117.837C108.859 118.062 109.1 118.194 109.335 118.132ZM111.905 119.816C111.73 119.131 112.054 118.628 112.63 118.474C113.189 118.324 113.622 118.599 113.78 119.216L114.41 121.672L115.012 121.511L114.372 119.013C114.115 118.01 113.458 117.672 112.665 117.885C112.073 118.043 111.774 118.408 111.692 118.856L111.641 118.87L111.484 118.256L110.902 118.412L111.909 122.342L112.511 122.181L111.905 119.816ZM116.809 116.829L115.972 117.053L115.731 116.112L115.129 116.273L115.37 117.215L114.778 117.373L114.909 117.885L115.501 117.726L116.131 120.183C116.307 120.868 116.942 121.048 117.452 120.912C117.677 120.851 117.809 120.772 117.883 120.72L117.621 120.21C117.573 120.234 117.496 120.276 117.364 120.312C117.098 120.383 116.822 120.369 116.691 119.858L116.103 117.565L116.94 117.341L116.809 116.829ZM120.646 116.741C120.315 116.234 119.795 115.974 119.02 116.182C118.193 116.403 117.701 117.038 117.872 117.704C118.011 118.246 118.425 118.523 119.188 118.499L119.881 118.478C120.3 118.464 120.535 118.603 120.604 118.875C120.691 119.212 120.404 119.585 119.843 119.735C119.351 119.867 118.987 119.737 118.772 119.344L118.237 119.64C118.549 120.27 119.189 120.479 119.99 120.264C120.901 120.02 121.393 119.355 121.219 118.677C121.079 118.13 120.648 117.876 119.905 117.892L119.287 117.904C118.793 117.914 118.543 117.814 118.466 117.512C118.38 117.174 118.674 116.832 119.153 116.704C119.679 116.563 119.971 116.797 120.145 117.04L120.646 116.741Z" fill="#999999"/>
<path opacity="0.7" d="M68.8831 60.0364C67.9403 58.5345 68.3773 56.5257 69.9387 55.6638C74.88 52.9364 80.311 51.2316 85.9199 50.6602C92.5928 49.9805 99.328 50.9244 105.575 53.4148C111.822 55.9051 117.403 59.8713 121.862 64.9889C125.626 69.3093 128.501 74.3468 130.327 79.8002C130.887 81.4704 129.85 83.2294 128.147 83.6856C126.445 84.1418 124.723 83.1213 124.142 81.4587C122.584 76.9971 120.196 72.8741 117.101 69.3216C113.311 64.9717 108.567 61.6005 103.257 59.4836C97.9474 57.3668 92.2225 56.5645 86.5506 57.1423C81.9669 57.6092 77.523 58.9667 73.4544 61.1309C71.8552 61.9816 69.8409 61.5621 68.8831 60.0364Z" fill="#EFEFFF"/>
<path d="M51.6018 102.021C49.8899 102.383 48.217 101.285 47.9923 99.5354C46.9655 91.5396 48.1356 83.3855 51.4024 75.9977C55.0983 67.6397 61.288 60.6914 69.0844 56.1486C76.8808 51.6059 85.8837 49.7019 94.8027 50.7095C102.687 51.6002 110.147 54.7254 116.355 59.7023C117.713 60.7912 117.786 62.8222 116.609 64.1435C115.416 65.4828 113.395 65.5814 112.003 64.4982C106.81 60.4595 100.626 57.9214 94.1009 57.1842C86.5197 56.3277 78.8673 57.9461 72.2403 61.8075C65.6134 65.6688 60.3521 71.5749 57.2106 78.6792C54.5067 84.794 53.4927 91.5263 54.2472 98.1506C54.4495 99.9275 53.3371 101.654 51.6018 102.021Z" fill="#EA714A"/>
<path d="M76.0665 94.7995L81.5606 93.3274L81.3201 92.3892L77.2718 93.4739L77.2543 93.4057L78.6727 90.7834C79.7574 88.7746 80.0073 87.9055 79.7592 86.9375C79.4137 85.5899 78.0497 84.8069 76.5188 85.2171C74.9922 85.6261 74.098 86.9778 74.4915 88.513L75.4951 88.2441C75.2404 87.2504 75.7131 86.4174 76.7209 86.1473C77.6649 85.8944 78.5365 86.2807 78.7726 87.2018C78.9792 88.0078 78.6602 88.7313 77.9355 90.1059L75.8697 94.0319L76.0665 94.7995ZM83.8202 83.2607C82.0457 83.7134 81.2482 85.3535 81.6592 86.957C82.0921 88.6458 83.6442 89.5242 85.141 89.1231C86.0426 88.8816 86.6943 88.2329 86.9869 87.3889L87.055 87.3707C87.6059 89.52 87.0872 90.9715 85.7435 91.3316C84.825 91.5777 84.115 91.1481 83.7224 90.3965L82.6848 90.6745C83.2431 92.0016 84.5211 92.6617 85.9839 92.2698C87.9401 91.7456 88.7018 89.6821 87.906 86.5775C87.084 83.3706 85.2534 82.8949 83.8202 83.2607ZM84.0607 84.1989C85.1493 83.9072 86.1892 84.6312 86.4515 85.6547C86.7183 86.6952 86.1083 87.8613 85.0366 88.1485C83.965 88.4356 82.9596 87.7753 82.6798 86.6835C82.4 85.5918 82.9891 84.486 84.0607 84.1989ZM91.2513 90.8037C91.6722 90.6909 91.9282 90.2532 91.8199 89.831C91.7117 89.4088 91.2787 89.1557 90.8578 89.2685C90.4368 89.3813 90.1809 89.819 90.2891 90.2412C90.3973 90.6634 90.8303 90.9165 91.2513 90.8037ZM93.7831 90.0524L99.2772 88.5802L99.0367 87.642L94.9884 88.7268L94.9709 88.6585L96.3893 86.0363C97.474 84.0274 97.7239 83.1584 97.4757 82.1903C97.1303 80.8427 95.7663 80.0597 94.2354 80.4699C92.7088 80.879 91.8146 82.2306 92.2081 83.7658L93.2117 83.4969C92.957 82.5033 93.4297 81.6702 94.4375 81.4002C95.3815 81.1472 96.2531 81.5335 96.4892 82.4547C96.6958 83.2607 96.3768 83.9842 95.6521 85.3587L93.5863 89.2848L93.7831 90.0524ZM101.05 88.1051L102.054 87.8362L101.425 85.3841L101.96 84.5436L105.201 86.993L106.477 86.6512L102.551 83.6926L104.593 80.1555L103.352 80.4882L101.242 84.1709L101.123 84.2028L99.8154 79.1024L98.8118 79.3713L101.05 88.1051Z" fill="#151522"/>
<path d="M86.5744 65.1795C86.246 64.9803 85.8832 64.8497 85.5067 64.7952C85.1303 64.7407 84.7476 64.7632 84.3805 64.8616C84.0134 64.9599 83.6691 65.1322 83.3672 65.3685C83.0653 65.6048 82.8118 65.9005 82.6211 66.2387L82.2254 66.9404L81.5439 66.5274C80.8806 66.1254 80.0915 66.0111 79.3501 66.2098C78.6087 66.4084 77.9758 66.9037 77.5907 67.5866C77.2055 68.2696 77.0996 69.0843 77.2962 69.8515C77.4928 70.6186 77.9759 71.2755 78.6392 71.6775L79.3207 72.0905L84.3225 75.1221L87.2272 69.972L87.6229 69.2703C87.8137 68.9322 87.938 68.5581 87.9885 68.1695C88.0391 67.7809 88.015 67.3853 87.9176 67.0054C87.8203 66.6255 87.6515 66.2688 87.421 65.9554C87.1905 65.6421 86.9028 65.3785 86.5744 65.1795V65.1795Z" stroke="#3FB5EB" stroke-width="1.23972" stroke-linecap="round" stroke-linejoin="round"/>
</svg>
