<svg width="24" height="24" viewBox="0 0 24 24" fill="none" xmlns="http://www.w3.org/2000/svg">
<path fill-rule="evenodd" clip-rule="evenodd" d="M20 21V21C21.105 21 22 20.105 22 19V5C22 3.895 21.105 3 20 3V3C18.895 3 18 3.895 18 5V19C18 20.105 18.895 21 20 21Z" stroke="#707070" stroke-width="1.5" stroke-linecap="round" stroke-linejoin="round"/>
<path fill-rule="evenodd" clip-rule="evenodd" d="M12 21.0001V21.0001C13.105 21.0001 14 20.1051 14 19.0001V10.6841C14 9.57908 13.105 8.68408 12 8.68408V8.68408C10.895 8.68408 10 9.57908 10 10.6841V19.0001C10 20.1051 10.895 21.0001 12 21.0001Z" stroke="#707070" stroke-width="1.5" stroke-linecap="round" stroke-linejoin="round"/>
<path fill-rule="evenodd" clip-rule="evenodd" d="M4 21.0002V21.0002C5.105 21.0002 6 20.1052 6 19.0002V16.3682C6 15.2632 5.105 14.3682 4 14.3682V14.3682C2.895 14.3682 2 15.2632 2 16.3682V19.0002C2 20.1052 2.895 21.0002 4 21.0002Z" stroke="#707070" stroke-width="1.5" stroke-linecap="round" stroke-linejoin="round"/>
</svg>
