<svg width="1440" height="850" viewBox="0 0 1440 850" fill="none" xmlns="http://www.w3.org/2000/svg">
<g clip-path="url(#clip0_178_41556)">
<rect width="1440" height="850" fill="white"/>
<path d="M800.495 438.501C802.095 490.901 862.829 485.001 892.995 475.501L1214.5 485.501C1214.66 482.168 1214.1 465.601 1210.5 426.001C1206 376.501 1331 375.501 1327 301.501C1323 227.501 1251 180.001 1202.5 156.001C1154 132.001 1100 154.001 1058 189.001C1016 224.001 950.996 180.001 892.995 169.001C834.995 158.001 844.496 242.001 861.495 259.501C878.495 277.001 882.995 340.501 861.495 366.501C839.995 392.501 798.496 373.001 800.495 438.501Z" fill="url(#paint0_linear_178_41556)"/>
<path d="M1053.02 636.869C1142.36 636.869 1214.79 564.439 1214.79 475.093H891.241C891.241 564.439 963.671 636.869 1053.02 636.869Z" fill="url(#paint1_linear_178_41556)"/>
<path d="M1053.37 356.81C1055.63 357.534 1065.04 361.774 1069.07 363.803C1069.19 365.973 1068.43 372.02 1067.3 374.03C1062.25 372.962 1061.99 370.823 1054.63 369.175C1047.26 367.526 1048.2 364.899 1049.17 363.364C1042.25 367.631 1036.89 366.112 1037.93 365.879C1038.97 365.646 1050.55 355.904 1053.37 356.81Z" fill="#FECBB5"/>
<path d="M1049.17 363.363C1042.25 367.63 1036.88 366.111 1037.92 365.878C1043.17 366.744 1047.31 363.802 1049.49 362.936C1047.91 367.581 1050.28 367.583 1054.63 368.769C1058.63 369.861 1063.53 372.721 1065.7 372.13L1067.3 362.936C1067.96 363.252 1068.56 363.545 1069.07 363.802C1069.19 365.973 1068.43 372.02 1067.3 374.029C1062.25 372.961 1061.99 370.822 1054.63 369.174C1047.26 367.526 1048.2 364.898 1049.17 363.363Z" fill="#F1A089"/>
<path d="M1092.63 356.9C1094.43 355.171 1106.49 327.914 1112.52 317.648L1096.24 381.055L1065.9 377.075L1068.51 362.105C1085.39 359.689 1090.82 358.629 1092.63 356.9Z" fill="#E36743"/>
<path d="M1070.65 361.797L1067.88 377.333" stroke="white" stroke-width="2"/>
<path d="M1112.52 317.648L1096.24 381.055L1087.25 379.875L1098.7 345.244C1103.14 336.041 1108.91 323.797 1112.52 317.648Z" fill="#D5482A"/>
<path d="M1125.82 300.211L1113.27 308.687C1116.26 309.898 1116.86 313.682 1116.86 315.953C1110.66 320.945 1112.79 330.366 1117.83 329.168C1122.87 327.97 1133.34 321.421 1134.5 311.435C1131.56 308.56 1126.92 301.875 1125.82 300.211Z" fill="#FECBB5"/>
<path d="M1125.82 300.211L1113.27 308.687C1115.87 309.74 1116.66 312.737 1116.82 314.994C1121.34 314.227 1124.71 304.819 1125.82 300.211Z" fill="#F1A089"/>
<path d="M965.835 468.053C965.835 462.722 969.483 458.588 972.097 457.78L952.021 441.922C949.648 448.644 949.052 452.301 941.812 460.055C935.59 466.718 925.017 464.476 920.34 466.718C912.677 470.392 912.496 475.768 913.34 475.768C917.362 475.566 935.936 475.768 949.45 475.768C966.355 475.768 965.835 478.102 965.835 468.053Z" fill="#FECBB5"/>
<path d="M965.835 468.053C965.835 462.722 969.483 458.588 972.097 457.78L952.021 441.922C951.059 444.647 950.389 446.868 949.45 449.062L965.068 465.449C965.661 468.744 965.859 475.295 961.904 475.137C957.95 474.978 927.657 475.071 913.005 475.137C913.034 475.536 913.165 475.768 913.34 475.768C917.362 475.566 935.936 475.768 949.45 475.768C966.355 475.768 965.835 478.102 965.835 468.053Z" fill="#F1A089"/>
<path d="M1024.76 367.1C1049.33 378.173 1115.71 413.653 1142.61 427.094L1081.37 466.401L1018.13 414.042C1005.89 427.082 991.363 467.372 983.654 476.52C961.906 464.065 953.607 446.612 941.542 439.154C984.065 376.809 1000.19 356.026 1024.76 367.1Z" fill="#0B1F83"/>
<path d="M1142.41 426.896L1081.38 466.401L1021.02 416.431C1048.23 408.714 1106.96 416.212 1132.92 420.926C1136.75 422.859 1139.45 425.414 1142.41 426.896Z" fill="#091259"/>
<path d="M943.518 436.26C956.369 444.69 972.581 469.206 982.467 470.392C987.409 467.624 1007.77 417.407 1017.07 409.894C1019.12 407.996 1063 445.36 1084.68 464.279" stroke="#4B4FE2" stroke-width="2"/>
<path d="M1019.81 415.43L1018.13 414.043C1017.73 414.476 1017.32 414.939 1016.91 415.43C1016.1 409.564 1014.5 396.45 1014.5 390.914C1014.81 394.236 1018.17 408.642 1019.81 415.43Z" fill="#1A1454"/>
<path d="M1049.57 588.202C1047.16 583.981 1046.33 573.283 1046.53 570.653C1043.9 570.653 1030.09 569.687 1025.24 569.687C1026.45 579.399 1025.85 583.042 1010.79 596.756C990.136 615.573 1009.84 613.754 1015.17 611.933C1023.19 609.192 1018.59 605.429 1032.02 599.184C1039.01 595.936 1054.43 596.756 1049.57 588.202Z" fill="#FECBB5"/>
<path d="M1049.57 588.202C1047.16 583.981 1046.33 573.283 1046.53 570.653C1043.9 570.653 1030.09 569.687 1025.24 569.687C1025.46 571.415 1025.62 572.95 1025.64 574.385L1045.73 576.56C1046.3 579.657 1047.65 586.406 1048.5 588.62C1049.57 591.388 1053.26 593.76 1032.02 598.308C1023.19 600.199 1020.82 609.956 1015.17 611.159C1011.53 611.933 1007.77 613.446 1002.13 611.159C1004.3 614.024 1012.11 612.979 1015.17 611.933C1023.19 609.192 1018.59 605.429 1032.02 599.184C1039.01 595.936 1054.43 596.756 1049.57 588.202Z" fill="#F1A089"/>
<path d="M1114.65 476.082C1152.67 476.565 1144.98 446.908 1142.41 423.733C1024.97 409.893 1000.21 412.309 1002.73 448.885C1004.98 481.532 1008.74 560.09 1008.74 573.386C1024.38 569.048 1056.01 578.537 1068.92 573.386C1064.7 566.133 1056.28 490.587 1043.04 464.599C1050.28 467.426 1076.62 475.598 1114.65 476.082Z" fill="#0B1F83"/>
<path d="M1008.61 566.675C1024.18 563.511 1051.27 572.804 1060.76 567.861C1059.37 563.116 1046.13 470.546 1037.03 459.716C1033.87 455.959 1086.68 474.78 1114.65 472.369C1135.29 470.589 1146.36 465.646 1138.26 423.246" stroke="#4B4FE2" stroke-width="2"/>
<path d="M1043.05 464.599C1044.01 464.974 1045.31 465.444 1046.92 465.977C1042.31 462.704 1028.73 452.994 1028.73 443.108C1026.95 452.401 1042.84 469.039 1046.92 473.899C1045.68 470.372 1044.39 467.231 1043.05 464.599Z" fill="#1A1454"/>
<path d="M1143.4 433.223C1167.43 333.177 1165.16 329.991 1134.32 311.308C1117.63 341.527 1110.97 323.964 1116.81 316.129C1115 316.732 1113.79 316.732 1112.58 317.335C1100.51 334.812 1083.89 396.647 1083.89 396.647C1092.1 402.47 1099.67 412.56 1105.83 419.384C1111.37 425.513 1125.6 426.699 1143.4 433.223Z" fill="#EC6C47"/>
<path d="M1135.69 312.141C1128.17 324.287 1122.64 331.534 1116.11 328.762C1114.14 327.922 1112.16 322.508 1116.11 316.342" stroke="white" stroke-width="2"/>
<path d="M1118.49 349.197C1126.72 323.416 1138.92 324.089 1144 327.647C1145.91 328.991 1152.5 331.997 1152.5 343.662C1152.5 358.688 1142.09 395.616 1133.12 396.845C1117.92 398.927 1096.7 397.043 1084.29 395.461C1085.67 389.332 1086.67 382.143 1090.61 373.12C1099.33 371.209 1111.14 367.545 1111.77 365.805C1112.56 363.63 1113.94 361.455 1118.49 349.197Z" fill="#D5482A"/>
<path d="M1119.87 307.867C1108.2 315.523 1103.6 303.717 1098.78 287.028L1120.51 277.491C1127.7 282.856 1131.55 300.21 1119.87 307.867Z" fill="#FECBB5"/>
<path d="M1098.78 287.028L1120.51 277.491C1126.05 281.624 1129.61 292.876 1125.61 301.325C1125.01 300.346 1123.91 298.111 1124.22 297.004C1124.62 295.62 1128.18 289.887 1124.82 287.712C1121.46 285.537 1121.71 289.491 1123.04 293.05C1123.63 294.631 1119.48 292.457 1117.9 290.084C1114.11 284.412 1114.34 293.05 1100.89 293.952C1100.18 291.777 1099.48 289.454 1098.78 287.028Z" fill="#F1A089"/>
<path d="M1095.63 288.944C1092.74 279.77 1099.71 276.95 1103.91 276.715C1104.86 273.505 1109.25 269.683 1112.34 269.684C1119.65 269.685 1122.47 274.873 1123.47 277.195C1133.43 281.168 1129.53 291.025 1127.79 293.714C1127.69 294.265 1127.45 298.27 1126.59 301.353C1124.81 300.166 1125.02 298.591 1124.64 297.525C1124.18 296.192 1125.78 295.24 1126.51 291.278C1127.24 287.316 1123.37 286.069 1121.88 287.397C1120.39 288.725 1123.79 293.449 1122.07 293.132C1117.34 291.726 1117.89 284.881 1113.07 288.801C1106.16 294.427 1097.54 294.996 1095.63 288.944Z" fill="#2C257C"/>
<path d="M1113.07 288.804C1106.15 294.43 1097.54 294.998 1095.63 288.947C1094.56 285.565 1094.84 283.046 1095.82 281.202C1095.86 292.114 1107.34 290.817 1113.07 288.804Z" fill="#1D1C57"/>
<rect width="55.4989" height="6.03177" transform="matrix(-0.89732 -0.441381 -0.441381 0.89732 1077.39 386.387)" fill="#F4BD34"/>
<path d="M1074.73 391.8L1024.93 367.304L1025.47 366.201L1075.06 391.112L1074.73 391.8Z" fill="#DB9C14"/>
<path d="M1012.78 318.387C1011.67 318.659 1011.02 319.801 1011.34 320.895L1025.01 367.271L1030.87 365.831L1017.14 319.28C1016.84 318.255 1015.79 317.648 1014.75 317.903L1012.78 318.387Z" fill="#F4BD34"/>
<path d="M1025.01 367.271L1011.15 320.249C1010.93 319.507 1011.38 318.732 1012.13 318.548L1026.36 366.938L1025.01 367.271Z" fill="#DB9C14"/>
<path d="M1062.32 372.812C1067.12 377.754 1073.15 379.183 1075.56 379.675C1075.8 381.774 1075.99 386.804 1074.75 390.136C1053.51 391.659 1058.02 387.062 1047.86 382.38C1037.71 377.697 1040.03 373.367 1044.04 375.937C1048.05 378.507 1058.37 380.752 1058.37 377.305C1058.37 376.679 1048.63 372.676 1049.88 372.812C1051.13 372.948 1058.8 368.725 1062.32 372.812Z" fill="#FECBB5"/>
<path d="M1074.74 390.136C1053.51 391.659 1058.02 387.063 1047.86 382.38C1042.83 380.063 1040.86 377.832 1040.64 376.481C1043.27 381.819 1051.26 382.38 1053.83 384.785C1060.16 391.069 1068.33 390.039 1071.63 388.739L1073.01 379.051C1074.05 379.354 1074.92 379.547 1075.55 379.675C1075.8 381.774 1075.98 386.804 1074.74 390.136Z" fill="#F1A089"/>
<path d="M1148.6 331.135C1135.48 319.167 1128.01 329.954 1124.4 339.037C1121.68 345.904 1115.24 369.608 1113.23 370.16C1111.23 370.713 1085.03 375.627 1075.23 377.399L1072.22 393.685C1094.53 395.495 1130.72 399.419 1136.15 391.876C1144.11 380.83 1158.54 340.652 1148.6 331.135Z" fill="#EC6C47"/>
<path d="M1078.1 376.876L1075.23 393.935" stroke="white" stroke-width="2"/>
<g filter="url(#filter0_dd_178_41556)">
<rect width="146.508" height="140.621" rx="31.6129" transform="matrix(0.965926 -0.258819 0.248292 0.968685 794 151.75)" fill="#FEFEFE"/>
<rect width="138.369" height="121.292" rx="29" transform="matrix(0.965926 -0.258819 0.248292 0.968685 800.576 163.506)" fill="white"/>
<path d="M829.349 162.833L830.166 162.614C829.599 161.412 828.317 160.826 826.939 161.195C825.265 161.644 824.413 163.253 824.944 165.326C825.475 167.398 826.98 168.376 828.715 167.911C830.271 167.494 831.115 166.157 830.699 164.536L830.519 163.832L828.031 164.498L828.212 165.202L829.934 164.741C830.213 165.924 829.632 166.872 828.525 167.169C827.313 167.494 826.146 166.822 825.709 165.121C825.273 163.419 825.968 162.248 827.129 161.937C828.073 161.684 828.851 162.047 829.349 162.833ZM834.691 166.323C835.686 166.057 836.285 165.363 836.325 164.559L835.545 164.55C835.485 165.113 835.107 165.487 834.517 165.645C833.634 165.882 832.878 165.473 832.573 164.43L836.129 163.477L836.047 163.157C835.578 161.328 834.333 160.991 833.313 161.265C831.986 161.62 831.375 162.905 831.762 164.415C832.149 165.925 833.275 166.703 834.691 166.323ZM832.406 163.777C832.261 162.999 832.625 162.174 833.487 161.943C834.303 161.724 834.983 162.198 835.197 163.03L832.406 163.777ZM838.709 159.887L837.663 160.167L837.362 158.99L836.609 159.192L836.911 160.369L836.171 160.567L836.335 161.207L837.075 161.009L837.862 164.079C838.081 164.936 838.875 165.161 839.513 164.99C839.794 164.915 839.959 164.816 840.051 164.75L839.725 164.113C839.664 164.143 839.569 164.196 839.403 164.241C839.071 164.329 838.726 164.313 838.562 163.673L837.827 160.807L838.873 160.527L838.709 159.887ZM843.627 163.82L844.38 163.618L843.593 160.548C843.408 159.828 843.801 159.179 844.388 159.022C844.958 158.869 845.453 159.136 845.597 159.696L846.459 163.061L847.224 162.856L846.405 159.657C846.242 159.024 846.518 158.451 847.207 158.267C847.743 158.123 848.275 158.285 848.461 159.011L849.304 162.299L850.056 162.097L849.214 158.809C848.918 157.654 848.162 157.286 847.288 157.52C846.587 157.708 846.156 158.169 846.034 158.745L845.983 158.758C845.606 158.299 845.1 158.106 844.456 158.279C843.818 158.45 843.425 158.883 843.355 159.463L843.292 159.48L843.095 158.712L842.368 158.907L843.627 163.82ZM853.449 161.297C854.776 160.942 855.41 159.692 855.019 158.169C854.626 156.634 853.474 155.863 852.147 156.218C850.82 156.574 850.186 157.824 850.58 159.359C850.97 160.881 852.122 161.653 853.449 161.297ZM853.275 160.619C852.267 160.889 851.585 160.142 851.333 159.157C851.08 158.172 851.313 157.166 852.321 156.896C853.329 156.626 854.014 157.386 854.267 158.371C854.519 159.356 854.283 160.349 853.275 160.619ZM856.792 160.292L857.544 160.091L856.747 156.982C856.577 156.316 856.975 155.69 857.69 155.499C857.891 155.445 858.108 155.428 858.162 155.427L857.965 154.659C857.878 154.676 857.678 154.722 857.567 154.752C856.98 154.91 856.555 155.379 856.501 155.913L856.45 155.927L856.259 155.185L855.532 155.379L856.792 160.292ZM862.064 158.989C863.059 158.722 863.658 158.028 863.698 157.225L862.918 157.215C862.858 157.778 862.48 158.153 861.89 158.311C861.007 158.547 860.251 158.138 859.946 157.095L863.502 156.142L863.42 155.823C862.951 153.993 861.706 153.657 860.686 153.93C859.359 154.286 858.748 155.571 859.135 157.08C859.522 158.59 860.648 159.368 862.064 158.989ZM859.779 156.443C859.634 155.665 859.998 154.839 860.86 154.608C861.676 154.39 862.356 154.864 862.57 155.695L859.779 156.443ZM868.209 159.202L868.962 159L868.296 156.403L868.36 156.386C868.595 156.61 869.065 157.113 870.009 156.86C871.233 156.532 871.836 155.318 871.436 153.757C871.039 152.209 869.932 151.453 868.694 151.784C867.737 152.041 867.595 152.708 867.494 153.008L867.405 153.032L867.205 152.252L866.478 152.447L868.209 159.202ZM867.848 154.705C867.565 153.604 867.86 152.733 868.779 152.486C869.735 152.23 870.414 152.91 870.68 153.946C870.949 154.995 870.677 155.956 869.733 156.209C868.827 156.452 868.133 155.818 867.848 154.705ZM875.226 155.462C876.553 155.107 877.187 153.857 876.797 152.334C876.403 150.799 875.251 150.027 873.925 150.383C872.598 150.738 871.964 151.988 872.357 153.524C872.748 155.046 873.9 155.818 875.226 155.462ZM875.053 154.784C874.045 155.054 873.363 154.307 873.11 153.322C872.858 152.337 873.091 151.331 874.098 151.061C875.106 150.791 875.792 151.551 876.044 152.536C876.297 153.521 876.06 154.514 875.053 154.784ZM878.569 154.457L879.322 154.255L878.062 149.343L877.31 149.544L878.569 154.457ZM877.482 148.623C877.776 148.544 877.959 148.249 877.887 147.968C877.815 147.686 877.514 147.521 877.22 147.599C876.927 147.678 876.743 147.973 876.816 148.255C876.888 148.536 877.189 148.702 877.482 148.623ZM880.695 150.729C880.476 149.872 880.88 149.244 881.601 149.051C882.3 148.863 882.841 149.207 883.039 149.978L883.826 153.048L884.578 152.847L883.778 149.725C883.457 148.471 882.636 148.049 881.644 148.314C880.904 148.513 880.53 148.968 880.429 149.529L880.365 149.546L880.168 148.778L879.441 148.973L880.7 153.886L881.453 153.684L880.695 150.729ZM886.825 146.995L885.779 147.275L885.477 146.098L884.724 146.3L885.026 147.477L884.286 147.675L884.45 148.315L885.19 148.116L885.977 151.187C886.197 152.044 886.991 152.269 887.629 152.098C887.909 152.023 888.075 151.924 888.167 151.858L887.84 151.221C887.78 151.251 887.684 151.304 887.518 151.348C887.186 151.437 886.841 151.42 886.677 150.78L885.943 147.915L886.989 147.634L886.825 146.995ZM891.621 146.885C891.207 146.251 890.558 145.926 889.588 146.186C888.555 146.463 887.94 147.256 888.153 148.088C888.327 148.766 888.845 149.113 889.799 149.083L890.664 149.056C891.188 149.038 891.482 149.213 891.569 149.552C891.677 149.974 891.319 150.439 890.617 150.627C890.002 150.792 889.548 150.63 889.279 150.138L888.61 150.509C888.999 151.296 889.799 151.557 890.801 151.289C891.939 150.984 892.554 150.153 892.337 149.305C892.162 148.62 891.624 148.303 890.695 148.323L889.922 148.339C889.304 148.35 888.993 148.225 888.896 147.848C888.788 147.426 889.156 146.999 889.755 146.838C890.412 146.662 890.777 146.954 890.994 147.258L891.621 146.885ZM897.218 144.21L896.172 144.49L895.87 143.313L895.118 143.515L895.419 144.692L894.679 144.89L894.843 145.53L895.583 145.331L896.37 148.402C896.59 149.259 897.384 149.484 898.022 149.313C898.302 149.238 898.468 149.139 898.56 149.073L898.233 148.436C898.173 148.466 898.077 148.519 897.911 148.563C897.58 148.652 897.234 148.635 897.071 147.996L896.336 145.13L897.382 144.85L897.218 144.21ZM899.71 145.634C899.49 144.777 899.911 144.145 900.654 143.945C901.362 143.756 901.904 144.089 902.104 144.869L902.891 147.94L903.644 147.738L902.844 144.617C902.52 143.353 901.699 142.941 900.697 143.209C899.925 143.416 899.568 143.857 899.469 144.427L899.405 144.444L898.788 142.039L898.036 142.241L899.715 148.791L900.467 148.589L899.71 145.634ZM905.021 147.369L905.774 147.168L904.514 142.255L903.762 142.456L905.021 147.369ZM903.935 141.535C904.228 141.456 904.411 141.161 904.339 140.88C904.267 140.598 903.966 140.433 903.672 140.512C903.379 140.59 903.195 140.885 903.268 141.167C903.34 141.448 903.641 141.614 903.935 141.535ZM909.645 142.056C909.23 141.422 908.581 141.097 907.612 141.357C906.578 141.633 905.964 142.427 906.177 143.259C906.351 143.937 906.869 144.283 907.822 144.253L908.688 144.226C909.212 144.209 909.505 144.383 909.592 144.722C909.7 145.145 909.343 145.61 908.641 145.798C908.025 145.963 907.571 145.801 907.302 145.309L906.634 145.679C907.023 146.467 907.823 146.728 908.824 146.46C909.963 146.154 910.578 145.323 910.361 144.476C910.185 143.791 909.647 143.474 908.718 143.494L907.945 143.509C907.328 143.521 907.016 143.396 906.92 143.019C906.811 142.596 907.179 142.17 907.779 142.009C908.436 141.833 908.8 142.125 909.018 142.429L909.645 142.056ZM856.722 167.483L857.487 167.278C857.199 166.299 856.1 165.804 854.838 166.142C853.587 166.477 852.792 167.47 853.074 168.57C853.3 169.453 854.073 169.807 855.169 169.827L856.031 169.842C856.769 169.85 857.444 169.929 857.611 170.581C857.795 171.298 857.227 171.955 856.322 172.198C855.543 172.407 854.766 172.246 854.512 171.521L853.695 171.74C854.047 172.794 855.102 173.291 856.505 172.915C858.011 172.511 858.652 171.451 858.38 170.389C858.065 169.161 856.803 169.075 856.081 169.077L855.371 169.076C854.854 169.078 854.01 169.03 853.83 168.327C853.669 167.7 854.125 167.085 854.992 166.853C855.783 166.641 856.48 166.858 856.722 167.483ZM862.607 169.01C862.843 169.931 862.249 170.541 861.688 170.692C861.063 170.859 860.498 170.518 860.315 169.802L859.528 166.732L858.775 166.933L859.575 170.055C859.896 171.309 860.714 171.732 861.632 171.486C862.372 171.288 862.755 170.761 862.857 170.201L862.908 170.187L863.121 171.019L863.874 170.817L862.615 165.904L861.862 166.106L862.607 169.01ZM865.253 170.448L866.005 170.246L865.218 167.176C865.034 166.456 865.427 165.807 866.013 165.65C866.584 165.497 867.079 165.764 867.222 166.324L868.085 169.689L868.85 169.484L868.03 166.285C867.868 165.652 868.144 165.079 868.833 164.895C869.368 164.751 869.901 164.913 870.087 165.639L870.93 168.927L871.682 168.725L870.839 165.437C870.544 164.282 869.788 163.914 868.914 164.148C868.212 164.336 867.782 164.797 867.66 165.373L867.609 165.386C867.232 164.927 866.726 164.734 866.082 164.907C865.444 165.078 865.051 165.511 864.981 166.091L864.917 166.108L864.721 165.34L863.993 165.535L865.253 170.448ZM873.058 168.356L873.811 168.154L873.024 165.084C872.84 164.364 873.232 163.716 873.819 163.558C874.39 163.405 874.885 163.673 875.028 164.233L875.891 167.597L876.656 167.392L875.836 164.194C875.674 163.56 875.95 162.988 876.639 162.803C877.174 162.659 877.707 162.821 877.893 163.547L878.735 166.835L879.488 166.633L878.645 163.345C878.349 162.191 877.594 161.822 876.72 162.057C876.018 162.245 875.588 162.705 875.466 163.281L875.415 163.295C875.038 162.835 874.532 162.643 873.888 162.815C873.25 162.986 872.857 163.42 872.787 163.999L872.723 164.016L872.526 163.249L871.799 163.443L873.058 168.356ZM882.944 165.817C883.939 165.55 884.539 164.856 884.578 164.053L883.799 164.043C883.738 164.606 883.361 164.98 882.771 165.139C881.887 165.375 881.131 164.966 880.826 163.923L884.383 162.97L884.301 162.65C883.832 160.821 882.587 160.485 881.566 160.758C880.239 161.113 879.628 162.398 880.015 163.908C880.402 165.418 881.528 166.196 882.944 165.817ZM880.659 163.271C880.514 162.492 880.879 161.667 881.74 161.436C882.556 161.217 883.237 161.691 883.45 162.523L880.659 163.271ZM886.092 164.864L886.844 164.662L886.047 161.553C885.877 160.888 886.275 160.262 886.99 160.07C887.191 160.017 887.408 159.999 887.462 159.998L887.265 159.231C887.178 159.248 886.978 159.294 886.867 159.324C886.28 159.481 885.855 159.951 885.801 160.485L885.75 160.498L885.559 159.756L884.832 159.951L886.092 164.864Z" fill="#171725"/>
<path d="M862.074 244.938L864.752 247.513L865.305 249.673L865.938 249.503L865.385 247.344L866.483 243.757L865.758 243.951L864.936 246.786L864.875 246.802L862.799 244.744L862.074 244.938ZM869.622 248.604C870.683 248.319 871.19 247.319 870.878 246.101C870.563 244.873 869.642 244.256 868.58 244.54C867.519 244.825 867.012 245.825 867.327 247.053C867.639 248.271 868.56 248.888 869.622 248.604ZM869.483 248.061C868.676 248.277 868.131 247.68 867.929 246.892C867.727 246.104 867.913 245.299 868.719 245.083C869.526 244.867 870.074 245.475 870.276 246.263C870.478 247.051 870.289 247.845 869.483 248.061ZM874.354 245.531C874.543 246.268 874.068 246.756 873.619 246.876C873.119 247.01 872.667 246.738 872.52 246.165L871.891 243.708L871.288 243.87L871.928 246.367C872.186 247.37 872.84 247.709 873.574 247.512C874.166 247.353 874.473 246.932 874.554 246.484L874.595 246.473L874.766 247.138L875.368 246.977L874.36 243.046L873.758 243.208L874.354 245.531ZM879.668 245.923C880.352 245.74 880.615 245.275 880.672 244.987L880.702 244.978L880.839 245.511L881.441 245.349L880.777 242.76C880.457 241.511 879.471 241.622 878.971 241.756C878.379 241.915 877.758 242.3 877.635 243.099L878.259 243.15C878.319 242.828 878.554 242.437 879.128 242.283C879.682 242.135 880.03 242.356 880.159 242.86L880.164 242.88C880.239 243.172 879.937 243.226 879.246 243.509C878.543 243.799 877.791 244.173 878.022 245.073C878.218 245.841 878.923 246.122 879.668 245.923ZM879.621 245.356C879.141 245.484 878.739 245.362 878.632 244.943C878.514 244.482 878.895 244.227 879.349 244.039C879.596 243.94 880.262 243.686 880.332 243.535L880.474 244.088C880.6 244.579 880.335 245.164 879.621 245.356ZM882.54 245.055L883.142 244.894L882.504 242.406C882.368 241.874 882.687 241.373 883.258 241.22C883.419 241.177 883.593 241.163 883.636 241.163L883.479 240.548C883.409 240.562 883.249 240.599 883.16 240.623C882.69 240.749 882.35 241.124 882.307 241.551L882.266 241.562L882.114 240.969L881.532 241.125L882.54 245.055ZM886.758 244.012C887.554 243.799 888.033 243.244 888.065 242.601L887.441 242.593C887.393 243.043 887.091 243.343 886.619 243.47C885.912 243.659 885.307 243.332 885.064 242.497L887.908 241.735L887.843 241.479C887.468 240.016 886.472 239.746 885.655 239.965C884.594 240.25 884.105 241.278 884.414 242.485C884.724 243.693 885.625 244.316 886.758 244.012ZM884.93 241.975C884.814 241.353 885.105 240.692 885.794 240.508C886.447 240.333 886.992 240.712 887.162 241.377L884.93 241.975ZM892.473 242.492C893.157 242.308 893.42 241.844 893.477 241.556L893.507 241.547L893.644 242.08L894.246 241.918L893.582 239.329C893.262 238.08 892.276 238.191 891.776 238.325C891.184 238.484 890.563 238.869 890.441 239.667L891.065 239.719C891.124 239.397 891.359 239.006 891.933 238.852C892.487 238.704 892.835 238.925 892.964 239.429L892.969 239.449C893.044 239.741 892.742 239.795 892.051 240.078C891.348 240.368 890.596 240.741 890.827 241.642C891.023 242.41 891.728 242.691 892.473 242.492ZM892.426 241.925C891.946 242.053 891.544 241.931 891.437 241.512C891.319 241.051 891.7 240.796 892.154 240.608C892.401 240.509 893.067 240.254 893.137 240.104L893.279 240.657C893.405 241.148 893.14 241.733 892.426 241.925ZM896.042 237.237L895.205 237.461L894.964 236.519L894.361 236.681L894.603 237.622L894.011 237.781L894.142 238.293L894.734 238.134L895.364 240.591C895.539 241.276 896.174 241.456 896.685 241.319C896.909 241.259 897.042 241.18 897.115 241.127L896.854 240.618C896.806 240.642 896.729 240.684 896.596 240.72C896.331 240.791 896.055 240.777 895.924 240.265L895.336 237.973L896.173 237.749L896.042 237.237ZM900.129 240.342L900.792 240.164L901.928 234.894L901.776 234.3L898.428 235.197L898.573 235.76L901.267 235.038L901.278 235.079L900.129 240.342ZM904.374 239.204L905.037 239.027L906.173 233.757L906.021 233.163L902.673 234.06L902.818 234.623L905.512 233.901L905.523 233.942L904.374 239.204ZM910.727 236.452C910.874 237.025 911.354 237.411 912.018 237.233C912.671 237.058 912.905 236.481 912.758 235.908L912.687 235.632C912.54 235.058 912.07 234.67 911.407 234.848C910.753 235.023 910.509 235.603 910.656 236.176L910.727 236.452ZM907.356 234.151C907.503 234.724 907.983 235.109 908.647 234.931C909.3 234.756 909.534 234.18 909.387 233.606L909.316 233.33C909.169 232.757 908.699 232.369 908.035 232.547C907.382 232.722 907.138 233.301 907.285 233.874L907.356 234.151ZM908.57 238.08L909.152 237.924L911.401 231.721L910.82 231.877L908.57 238.08ZM911.177 236.036C911.095 235.719 911.162 235.384 911.519 235.288C911.887 235.19 912.085 235.454 912.167 235.771L912.237 236.047C912.319 236.365 912.262 236.697 911.905 236.793C911.538 236.891 911.329 236.63 911.248 236.313L911.177 236.036ZM907.806 233.735C907.724 233.417 907.791 233.082 908.148 232.987C908.516 232.888 908.714 233.152 908.796 233.47L908.866 233.746C908.948 234.063 908.891 234.395 908.534 234.491C908.166 234.59 907.958 234.328 907.876 234.011L907.806 233.735ZM917.797 235.695C918.858 235.411 919.365 234.411 919.053 233.193C918.738 231.965 917.817 231.348 916.755 231.632C915.694 231.916 915.187 232.916 915.502 234.145C915.814 235.363 916.735 235.98 917.797 235.695ZM917.658 235.153C916.852 235.369 916.306 234.771 916.104 233.983C915.902 233.195 916.088 232.39 916.894 232.174C917.701 231.958 918.249 232.566 918.451 233.354C918.653 234.142 918.464 234.937 917.658 235.153ZM921.209 230.493L920.331 230.729L920.229 230.329C920.129 229.941 920.24 229.692 920.638 229.585C920.811 229.539 920.924 229.553 920.99 229.557L921.03 228.988C920.928 228.972 920.728 228.96 920.432 229.039C919.871 229.189 919.417 229.672 919.59 230.347L919.729 230.89L919.096 231.059L919.227 231.571L919.86 231.402L920.736 234.82L921.338 234.659L920.462 231.24L921.34 231.005L921.209 230.493ZM874.177 257.724C875.19 257.453 875.78 256.614 875.56 255.757C875.389 255.092 874.873 254.713 874.186 254.78L874.176 254.739C874.662 254.436 874.88 253.913 874.729 253.322C874.538 252.58 873.785 252.076 872.818 252.335C871.915 252.577 871.308 253.336 871.488 254.168L872.1 254.004C871.99 253.476 872.406 253.036 872.949 252.891C873.526 252.736 873.988 252.987 874.124 253.517C874.266 254.069 873.926 254.543 873.306 254.709L872.888 254.821L873.032 255.384L873.451 255.272C874.244 255.059 874.789 255.345 874.937 255.924C875.08 256.479 874.694 256.984 874.023 257.164C873.418 257.326 872.858 257.142 872.69 256.646L872.047 256.818C872.297 257.632 873.164 257.996 874.177 257.724ZM878.721 256.507C879.781 256.236 880.265 255.254 880.015 254.279C879.756 253.265 878.822 252.739 877.926 252.979C877.388 253.123 876.994 253.511 876.819 254.02L876.778 254.03C876.453 252.753 876.759 251.881 877.568 251.664C878.119 251.516 878.54 251.776 878.778 252.215L879.4 252.048C879.064 251.269 878.301 250.866 877.423 251.101C876.247 251.416 875.793 252.654 876.267 254.506C876.764 256.443 877.862 256.726 878.721 256.507ZM878.577 255.944C877.921 256.119 877.298 255.688 877.14 255.06C876.982 254.432 877.341 253.737 877.989 253.564C878.629 253.392 879.237 253.793 879.403 254.443C879.574 255.108 879.218 255.772 878.577 255.944ZM881.931 254.805L881.278 254.98L881.32 255.274C881.424 255.988 881.456 256.717 881.473 257.06L881.932 256.937C881.965 256.556 882.024 255.698 881.961 255.092L881.931 254.805ZM884.76 254.889C885.913 254.58 886.326 253.422 885.887 251.71C885.451 250.011 884.523 249.199 883.38 249.505C882.237 249.811 881.818 250.985 882.254 252.684C882.692 254.395 883.607 255.198 884.76 254.889ZM884.616 254.326C883.856 254.529 883.215 253.883 882.866 252.52C882.517 251.158 882.767 250.26 883.522 250.058C884.277 249.855 884.926 250.513 885.274 251.874C885.624 253.238 885.376 254.122 884.616 254.326ZM889.251 253.685C890.404 253.376 890.816 252.219 890.377 250.507C889.942 248.808 889.014 247.996 887.871 248.302C886.728 248.608 886.309 249.781 886.744 251.48C887.183 253.192 888.097 253.994 889.251 253.685ZM889.106 253.122C888.346 253.326 887.706 252.68 887.356 251.316C887.008 249.955 887.257 249.057 888.012 248.855C888.768 248.652 889.416 249.31 889.765 250.671C890.115 252.035 889.867 252.919 889.106 253.122ZM893.741 252.482C894.894 252.173 895.307 251.015 894.868 249.304C894.432 247.605 893.504 246.792 892.361 247.099C891.218 247.405 890.799 248.578 891.235 250.277C891.673 251.989 892.588 252.791 893.741 252.482ZM893.597 251.919C892.837 252.123 892.197 251.477 891.847 250.113C891.498 248.752 891.748 247.854 892.503 247.651C893.258 247.449 893.907 248.106 894.256 249.468C894.605 250.831 894.357 251.716 893.597 251.919ZM898.918 252.594L899.52 252.432L898.987 250.355L899.038 250.341C899.226 250.52 899.602 250.923 900.357 250.72C901.337 250.458 901.819 249.487 901.499 248.238C901.181 246.999 900.295 246.395 899.305 246.66C898.54 246.865 898.426 247.399 898.346 247.639L898.274 247.658L898.114 247.034L897.533 247.19L898.918 252.594ZM898.628 248.996C898.403 248.116 898.638 247.418 899.373 247.221C900.139 247.016 900.681 247.56 900.894 248.389C901.109 249.228 900.892 249.997 900.136 250.2C899.412 250.394 898.856 249.886 898.628 248.996ZM904.531 249.602C905.593 249.317 906.1 248.318 905.788 247.1C905.473 245.871 904.551 245.254 903.49 245.539C902.428 245.823 901.921 246.823 902.236 248.051C902.548 249.269 903.47 249.886 904.531 249.602ZM904.392 249.059C903.586 249.275 903.04 248.678 902.838 247.89C902.636 247.102 902.823 246.297 903.629 246.081C904.435 245.865 904.984 246.473 905.186 247.261C905.388 248.049 905.199 248.843 904.392 249.059ZM907.205 248.798L907.807 248.637L906.8 244.706L906.198 244.868L907.205 248.798ZM906.336 244.131C906.571 244.068 906.718 243.832 906.66 243.606C906.602 243.381 906.361 243.249 906.126 243.312C905.892 243.375 905.745 243.611 905.803 243.836C905.86 244.061 906.101 244.194 906.336 244.131ZM908.906 245.815C908.731 245.13 909.055 244.627 909.631 244.473C910.19 244.323 910.623 244.598 910.781 245.215L911.411 247.671L912.013 247.51L911.373 245.012C911.116 244.009 910.459 243.671 909.666 243.884C909.074 244.042 908.774 244.407 908.693 244.855L908.642 244.869L908.485 244.255L907.903 244.411L908.91 248.341L909.512 248.18L908.906 245.815ZM913.81 242.828L912.973 243.052L912.732 242.111L912.13 242.272L912.371 243.214L911.779 243.372L911.91 243.884L912.502 243.725L913.132 246.182C913.308 246.867 913.943 247.047 914.453 246.911C914.678 246.85 914.81 246.771 914.884 246.719L914.622 246.209C914.574 246.233 914.497 246.275 914.365 246.311C914.099 246.382 913.823 246.368 913.692 245.857L913.104 243.564L913.941 243.34L913.81 242.828ZM917.647 242.74C917.316 242.233 916.796 241.973 916.021 242.181C915.194 242.403 914.702 243.037 914.873 243.703C915.012 244.245 915.426 244.522 916.189 244.498L916.882 244.477C917.301 244.463 917.536 244.603 917.605 244.874C917.692 245.211 917.405 245.584 916.844 245.734C916.352 245.866 915.988 245.736 915.773 245.343L915.238 245.639C915.55 246.269 916.19 246.478 916.991 246.263C917.902 246.019 918.394 245.354 918.22 244.676C918.08 244.129 917.649 243.875 916.906 243.891L916.288 243.903C915.794 243.913 915.544 243.813 915.467 243.511C915.381 243.173 915.675 242.832 916.154 242.703C916.68 242.562 916.972 242.796 917.146 243.039L917.647 242.74Z" fill="#999999"/>
<path opacity="0.7" d="M865.884 186.035C864.941 184.533 865.378 182.524 866.94 181.662C871.881 178.935 877.312 177.23 882.921 176.659C889.594 175.979 896.329 176.923 902.576 179.413C908.823 181.904 914.404 185.87 918.863 190.987C922.627 195.308 925.502 200.345 927.328 205.799C927.888 207.469 926.851 209.228 925.148 209.684C923.446 210.14 921.724 209.12 921.143 207.457C919.585 202.996 917.197 198.873 914.102 195.32C910.312 190.97 905.568 187.599 900.258 185.482C894.948 183.365 889.223 182.563 883.552 183.141C878.968 183.608 874.524 184.965 870.455 187.129C868.856 187.98 866.842 187.561 865.884 186.035Z" fill="#EFEFFF"/>
<path d="M848.603 228.02C846.891 228.382 845.218 227.283 844.993 225.534C843.966 217.538 845.137 209.384 848.403 201.996C852.099 193.638 858.289 186.69 866.085 182.147C873.882 177.604 882.885 175.7 891.804 176.708C899.687 177.599 907.148 180.724 913.356 185.701C914.714 186.79 914.787 188.821 913.61 190.142C912.417 191.481 910.396 191.58 909.003 190.497C903.811 186.458 897.627 183.92 891.102 183.183C883.521 182.326 875.868 183.945 869.241 187.806C862.614 191.667 857.353 197.573 854.212 204.678C851.508 210.793 850.494 217.525 851.248 224.149C851.451 225.926 850.338 227.653 848.603 228.02Z" fill="#EA714A"/>
<path d="M873.067 220.798L878.562 219.326L878.321 218.388L874.273 219.472L874.255 219.404L875.674 216.782C876.758 214.773 877.008 213.904 876.76 212.936C876.415 211.588 875.051 210.805 873.52 211.216C871.993 211.625 871.099 212.976 871.492 214.512L872.496 214.243C872.241 213.249 872.714 212.416 873.722 212.146C874.666 211.893 875.537 212.279 875.774 213.2C875.98 214.006 875.661 214.73 874.936 216.104L872.871 220.03L873.067 220.798ZM880.821 209.259C879.047 209.712 878.249 211.352 878.66 212.956C879.093 214.644 880.645 215.523 882.142 215.122C883.044 214.88 883.695 214.231 883.988 213.387L884.056 213.369C884.607 215.519 884.088 216.97 882.744 217.33C881.826 217.576 881.116 217.147 880.723 216.395L879.686 216.673C880.244 218 881.522 218.66 882.985 218.268C884.941 217.744 885.703 215.681 884.907 212.576C884.085 209.369 882.254 208.893 880.821 209.259ZM881.062 210.197C882.15 209.906 883.19 210.63 883.453 211.653C883.719 212.694 883.109 213.86 882.038 214.147C880.966 214.434 879.961 213.774 879.681 212.682C879.401 211.59 879.99 210.485 881.062 210.197ZM888.252 216.802C888.673 216.689 888.929 216.252 888.821 215.83C888.713 215.407 888.28 215.154 887.859 215.267C887.438 215.38 887.182 215.818 887.29 216.24C887.398 216.662 887.831 216.915 888.252 216.802ZM890.784 216.051L896.278 214.579L896.038 213.641L891.989 214.725L891.972 214.657L893.39 212.035C894.475 210.026 894.725 209.157 894.477 208.189C894.131 206.841 892.767 206.058 891.236 206.468C889.71 206.878 888.816 208.229 889.209 209.764L890.213 209.495C889.958 208.502 890.431 207.669 891.438 207.399C892.382 207.146 893.254 207.532 893.49 208.453C893.697 209.259 893.378 209.983 892.653 211.357L890.587 215.283L890.784 216.051ZM898.051 214.104L899.055 213.835L898.426 211.383L898.961 210.542L902.202 212.992L903.478 212.65L899.552 209.691L901.594 206.154L900.353 206.487L898.243 210.169L898.124 210.201L896.816 205.101L895.813 205.37L898.051 214.104Z" fill="#151522"/>
<path d="M883.575 191.179C883.246 190.98 882.884 190.849 882.507 190.795C882.131 190.74 881.748 190.763 881.381 190.861C881.014 190.959 880.67 191.132 880.368 191.368C880.066 191.604 879.812 191.9 879.622 192.238L879.226 192.94L878.544 192.527C877.881 192.125 877.092 192.011 876.351 192.209C875.609 192.408 874.976 192.903 874.591 193.586C874.206 194.269 874.1 195.084 874.297 195.851C874.493 196.618 874.976 197.275 875.64 197.677L876.321 198.09L881.323 201.122L884.228 195.972L884.623 195.27C884.814 194.932 884.938 194.558 884.989 194.169C885.04 193.78 885.016 193.385 884.918 193.005C884.821 192.625 884.652 192.268 884.422 191.955C884.191 191.642 883.903 191.378 883.575 191.179V191.179Z" stroke="#3FB5EB" stroke-width="1.23972" stroke-linecap="round" stroke-linejoin="round"/>
</g>
<g filter="url(#filter1_dd_178_41556)">
<rect width="258.032" height="117.44" rx="10" transform="matrix(0.999985 -0.00549281 -0.00539025 0.999985 902.41 637.418)" fill="white"/>
<path d="M925.466 736.109L921.505 736.13L921.544 728.882L920.231 728.89L920.186 737.345L925.459 737.316L925.466 736.109ZM929.068 736.341C928.382 736.345 927.886 736.013 927.889 735.439C927.892 734.877 928.292 734.576 929.171 734.512L930.73 734.404L930.728 734.937C930.723 735.728 930.017 736.336 929.068 736.341ZM928.74 737.403C929.578 737.398 930.277 737.031 930.661 736.391L930.761 736.39L930.756 737.287L931.969 737.28L931.992 732.921C932 731.573 931.102 730.781 929.502 730.79C928.055 730.798 927.02 731.507 926.885 732.603L928.104 732.596C928.247 732.144 928.734 731.884 929.438 731.88C930.299 731.875 930.742 732.254 930.738 732.927L930.735 733.478L929.006 733.587C927.488 733.689 926.629 734.356 926.623 735.505C926.617 736.671 927.509 737.41 928.74 737.403ZM933.64 732.695C933.635 733.644 934.194 734.186 935.406 734.466L936.518 734.718C937.155 734.867 937.453 735.111 937.451 735.492C937.448 736.002 936.89 736.356 936.104 736.361C935.343 736.365 934.876 736.063 934.72 735.571L933.46 735.578C933.566 736.709 934.552 737.389 936.07 737.38C937.593 737.372 938.717 736.563 938.723 735.362C938.728 734.425 938.163 733.906 936.951 733.632L935.892 733.391C935.201 733.237 934.88 732.998 934.883 732.618C934.885 732.12 935.42 731.783 936.123 731.779C936.838 731.775 937.294 732.071 937.408 732.539L938.615 732.533C938.498 731.408 937.564 730.746 936.129 730.753C934.687 730.761 933.646 731.564 933.64 732.695ZM940.672 729.264L940.663 730.881L939.649 730.886L939.644 731.947L940.657 731.941L940.638 735.545C940.631 736.775 941.185 737.264 942.586 737.257C942.832 737.255 943.066 737.225 943.272 737.188L943.277 736.14C943.101 736.158 942.99 736.171 942.797 736.172C942.17 736.175 941.896 735.884 941.899 735.216L941.917 731.934L943.3 731.927L943.306 730.866L941.923 730.874L941.932 729.257L940.672 729.264ZM953.448 730.781L952.188 730.788L952.168 734.521C952.163 735.523 951.603 736.129 950.584 736.135C949.658 736.14 949.244 735.65 949.25 734.619L949.271 730.804L948.011 730.811L947.988 734.954C947.98 736.454 948.761 737.311 950.173 737.303C951.14 737.298 951.792 736.884 952.107 736.156L952.206 736.155L952.201 737.169L953.414 737.162L953.448 730.781ZM958.587 730.648C957.72 730.652 956.968 731.09 956.577 731.819L956.483 731.819L956.489 730.765L955.276 730.771L955.23 739.273L956.49 739.266L956.507 736.178L956.606 736.178C956.937 736.85 957.655 737.244 958.564 737.239C960.175 737.23 961.207 735.953 961.218 733.926C961.229 731.899 960.21 730.639 958.587 730.648ZM958.201 736.11C957.146 736.116 956.488 735.288 956.495 733.958C956.503 732.622 957.169 731.786 958.23 731.78C959.296 731.775 959.93 732.585 959.923 733.933C959.916 735.287 959.273 736.105 958.201 736.11ZM965.05 737.204C965.929 737.199 966.675 736.779 967.06 736.079L967.159 736.079L967.154 737.087L968.361 737.08L968.409 728.209L967.149 728.216L967.13 731.72L967.036 731.72C966.694 731.019 965.958 730.607 965.085 730.612C963.474 730.621 962.43 731.904 962.419 733.919C962.408 735.941 963.427 737.213 965.05 737.204ZM965.437 731.741C966.491 731.735 967.149 732.569 967.142 733.899C967.135 735.235 966.474 736.065 965.413 736.071C964.347 736.077 963.713 735.266 963.72 733.912C963.727 732.57 964.376 731.747 965.437 731.741ZM972.344 736.103C971.659 736.107 971.163 735.776 971.166 735.201C971.169 734.639 971.569 734.338 972.448 734.274L974.007 734.166L974.004 734.699C974 735.49 973.294 736.098 972.344 736.103ZM972.016 737.165C972.854 737.161 973.554 736.794 973.938 736.153L974.037 736.152L974.033 737.049L975.246 737.042L975.269 732.683C975.276 731.335 974.378 730.543 972.779 730.552C971.331 730.56 970.296 731.269 970.162 732.365L971.38 732.359C971.523 731.907 972.011 731.646 972.714 731.642C973.576 731.638 974.019 732.016 974.015 732.69L974.012 733.241L972.283 733.35C970.765 733.452 969.906 734.118 969.9 735.267C969.894 736.433 970.786 737.172 972.016 737.165ZM977.527 729.061L977.518 730.678L976.504 730.684L976.499 731.744L977.512 731.739L977.493 735.342C977.486 736.573 978.04 737.062 979.441 737.054C979.687 737.053 979.921 737.022 980.126 736.986L980.132 735.937C979.956 735.956 979.845 735.968 979.651 735.969C979.025 735.973 978.751 735.681 978.754 735.013L978.772 731.732L980.155 731.724L980.161 730.664L978.778 730.671L978.786 729.054L977.527 729.061ZM984.187 731.562C985.118 731.557 985.724 732.204 985.748 733.205L982.526 733.223C982.601 732.227 983.255 731.567 984.187 731.562ZM985.731 735.262C985.494 735.761 984.971 736.04 984.209 736.044C983.202 736.049 982.555 735.344 982.52 734.225L982.521 734.155L987.026 734.13L987.029 733.69C987.039 731.687 985.974 730.48 984.198 730.489C982.4 730.499 981.25 731.8 981.239 733.839C981.228 735.878 982.34 737.126 984.169 737.116C985.628 737.108 986.651 736.399 986.944 735.255L985.731 735.262ZM992.424 739.262C993.725 739.255 994.331 738.754 994.884 737.198L997.299 730.54L995.963 730.548L994.342 735.625L994.243 735.625L992.67 730.566L991.299 730.573L993.573 736.965L993.478 737.276C993.258 737.922 992.916 738.17 992.319 738.173C992.202 738.174 992.008 738.169 991.909 738.152L991.903 739.236C992.02 739.253 992.319 739.263 992.424 739.262ZM1000.96 731.47C1001.89 731.464 1002.49 732.111 1002.52 733.113L999.295 733.131C999.371 732.134 1000.02 731.475 1000.96 731.47ZM1002.5 735.17C1002.26 735.669 1001.74 735.947 1000.98 735.952C999.971 735.957 999.324 735.252 999.289 734.133L999.29 734.063L1003.8 734.038L1003.8 733.598C1003.81 731.594 1002.74 730.388 1000.97 730.397C999.169 730.407 998.019 731.708 998.008 733.747C997.997 735.786 999.11 737.034 1000.94 737.024C1002.4 737.016 1003.42 736.307 1003.71 735.163L1002.5 735.17ZM1005.17 732.302C1005.17 733.251 1005.72 733.793 1006.94 734.073L1008.05 734.325C1008.69 734.474 1008.98 734.718 1008.98 735.099C1008.98 735.609 1008.42 735.963 1007.63 735.968C1006.87 735.972 1006.41 735.67 1006.25 735.179L1004.99 735.185C1005.1 736.316 1006.08 736.996 1007.6 736.987C1009.12 736.979 1010.25 736.17 1010.25 734.969C1010.26 734.032 1009.69 733.513 1008.48 733.239L1007.42 732.998C1006.73 732.844 1006.41 732.606 1006.41 732.225C1006.42 731.727 1006.95 731.39 1007.65 731.386C1008.37 731.382 1008.82 731.678 1008.94 732.146L1010.15 732.14C1010.03 731.015 1009.09 730.353 1007.66 730.361C1006.22 730.368 1005.18 731.171 1005.17 732.302ZM1012.2 728.871L1012.19 730.488L1011.18 730.493L1011.17 731.554L1012.19 731.548L1012.17 735.152C1012.16 736.382 1012.72 736.871 1014.12 736.864C1014.36 736.862 1014.6 736.832 1014.8 736.796L1014.81 735.747C1014.63 735.765 1014.52 735.778 1014.33 735.779C1013.7 735.782 1013.43 735.491 1013.43 734.823L1013.45 731.542L1014.83 731.534L1014.84 730.473L1013.45 730.481L1013.46 728.864L1012.2 728.871ZM1018.86 731.371C1019.79 731.366 1020.4 732.013 1020.42 733.015L1017.2 733.033C1017.28 732.036 1017.93 731.376 1018.86 731.371ZM1020.41 735.072C1020.17 735.571 1019.65 735.849 1018.88 735.853C1017.88 735.859 1017.23 735.153 1017.2 734.035L1017.2 733.964L1021.7 733.939L1021.7 733.5C1021.71 731.496 1020.65 730.289 1018.87 730.299C1017.07 730.309 1015.93 731.61 1015.91 733.649C1015.9 735.688 1017.02 736.936 1018.84 736.926C1020.3 736.918 1021.33 736.209 1021.62 735.065L1020.41 735.072ZM1023.2 736.779L1024.46 736.772L1024.48 733.004C1024.48 732.108 1025.16 731.501 1026.11 731.495C1026.34 731.494 1026.71 731.533 1026.82 731.568L1026.82 730.326C1026.69 730.291 1026.45 730.275 1026.26 730.276C1025.43 730.28 1024.72 730.741 1024.53 731.369L1024.44 731.37L1024.45 730.391L1023.23 730.398L1023.2 736.779ZM1030.17 736.846C1031.05 736.841 1031.8 736.421 1032.18 735.722L1032.28 735.721L1032.27 736.729L1033.48 736.722L1033.53 727.851L1032.27 727.858L1032.25 731.362L1032.16 731.363C1031.81 730.661 1031.08 730.249 1030.21 730.254C1028.59 730.263 1027.55 731.546 1027.54 733.562C1027.53 735.583 1028.55 736.855 1030.17 736.846ZM1030.56 731.383C1031.61 731.377 1032.27 732.212 1032.26 733.542C1032.25 734.878 1031.59 735.707 1030.53 735.713C1029.47 735.719 1028.83 734.908 1028.84 733.555C1028.85 732.213 1029.5 731.389 1030.56 731.383ZM1037.46 735.745C1036.78 735.749 1036.28 735.418 1036.29 734.844C1036.29 734.281 1036.69 733.98 1037.57 733.917L1039.13 733.809L1039.12 734.342C1039.12 735.133 1038.41 735.74 1037.46 735.745ZM1037.14 736.808C1037.97 736.803 1038.67 736.436 1039.06 735.795L1039.16 735.795L1039.15 736.691L1040.37 736.684L1040.39 732.325C1040.4 730.978 1039.5 730.186 1037.9 730.194C1036.45 730.202 1035.42 730.911 1035.28 732.008L1036.5 732.001C1036.64 731.549 1037.13 731.288 1037.83 731.285C1038.7 731.28 1039.14 731.658 1039.14 732.332L1039.13 732.883L1037.4 732.992C1035.89 733.094 1035.03 733.761 1035.02 734.909C1035.01 736.075 1035.91 736.814 1037.14 736.808ZM1042.57 738.987C1043.87 738.98 1044.47 738.478 1045.03 736.923L1047.44 730.265L1046.11 730.272L1044.49 735.349L1044.39 735.35L1042.81 730.29L1041.44 730.298L1043.72 736.689L1043.62 737.001C1043.4 737.646 1043.06 737.894 1042.46 737.898C1042.35 737.898 1042.15 737.893 1042.05 737.876L1042.05 738.96C1042.16 738.977 1042.46 738.987 1042.57 738.987Z" fill="#999999"/>
<path d="M1072.19 736.758L1075.09 728.992L1074.08 728.998L1071.77 735.509L1071.68 735.51L1069.44 729.023L1068.42 729.029L1071.24 736.763L1072.19 736.758ZM1076.31 736.736L1077.24 736.73L1077.27 730.94L1076.34 730.946L1076.31 736.736ZM1076.81 729.767C1077.17 729.765 1077.46 729.473 1077.46 729.119C1077.46 728.764 1077.17 728.476 1076.82 728.478C1076.47 728.48 1076.17 728.771 1076.17 729.126C1076.17 729.48 1076.46 729.769 1076.81 729.767ZM1081.34 731.632C1082.25 731.627 1082.86 732.301 1082.88 733.327L1079.69 733.344C1079.76 732.318 1080.41 731.638 1081.34 731.632ZM1082.84 735.201C1082.6 735.713 1082.09 735.989 1081.34 735.994C1080.36 735.999 1079.73 735.277 1079.68 734.134L1079.68 734.091L1083.85 734.068L1083.85 733.713C1083.86 731.914 1082.91 730.807 1081.35 730.816C1079.76 730.825 1078.73 732.012 1078.72 733.833C1078.71 735.664 1079.71 736.819 1081.32 736.81C1082.59 736.803 1083.48 736.191 1083.77 735.196L1082.84 735.201ZM1092.6 730.856L1091.67 730.861L1090.5 735.497L1090.42 735.498L1089.15 730.875L1088.26 730.88L1086.94 735.517L1086.86 735.517L1085.74 730.894L1084.81 730.899L1086.4 736.68L1087.33 736.675L1088.65 732.188L1088.73 732.188L1090 736.66L1090.94 736.655L1092.6 730.856ZM1093.53 732.436C1093.52 733.273 1094.02 733.738 1095.1 733.995L1096.09 734.231C1096.71 734.378 1097.01 734.645 1097.01 735.043C1097 735.575 1096.44 735.948 1095.66 735.952C1094.92 735.957 1094.46 735.648 1094.31 735.16L1093.36 735.165C1093.46 736.126 1094.34 736.739 1095.63 736.731C1096.94 736.724 1097.95 736.004 1097.96 734.968C1097.96 734.135 1097.44 733.666 1096.35 733.408L1095.46 733.198C1094.78 733.036 1094.46 732.79 1094.46 732.393C1094.46 731.877 1095 731.525 1095.69 731.521C1096.39 731.518 1096.84 731.821 1096.96 732.282L1097.87 732.277C1097.75 731.327 1096.91 730.731 1095.7 730.737C1094.47 730.744 1093.53 731.474 1093.53 732.436Z" fill="#999999"/>
<path d="M1105.05 736.76C1106.66 736.751 1107.77 735.671 1107.77 734.097C1107.78 732.572 1106.76 731.509 1105.29 731.517C1104.57 731.521 1104.02 731.744 1103.64 732.187L1103.56 732.187L1103.79 729.699L1107.36 729.68L1107.36 728.815L1103.04 728.839L1102.59 733.234L1103.5 733.229C1103.82 732.674 1104.4 732.354 1105.1 732.351C1106.12 732.345 1106.81 733.066 1106.81 734.13C1106.8 735.193 1106.1 735.906 1105.07 735.912C1104.16 735.917 1103.49 735.362 1103.41 734.524L1102.46 734.529C1102.54 735.866 1103.59 736.768 1105.05 736.76ZM1110.91 732.974L1111.89 732.968C1113 732.962 1113.67 733.517 1113.67 734.414C1113.67 735.263 1112.94 735.874 1111.92 735.879C1110.92 735.885 1110.22 735.357 1110.14 734.53L1109.21 734.535C1109.27 735.862 1110.35 736.731 1111.92 736.723C1113.45 736.714 1114.66 735.714 1114.66 734.436C1114.67 733.378 1114.03 732.651 1112.98 732.522L1112.98 732.436C1113.83 732.227 1114.35 731.548 1114.35 730.624C1114.36 729.496 1113.28 728.6 1111.93 728.607C1110.45 728.615 1109.49 729.448 1109.38 730.791L1110.32 730.786C1110.41 729.953 1110.99 729.455 1111.89 729.451C1112.78 729.446 1113.37 729.969 1113.37 730.758C1113.36 731.564 1112.74 732.137 1111.86 732.142L1110.92 732.147L1110.91 732.974ZM1119.1 730.48C1119.11 729.384 1118.43 728.62 1117.47 728.625C1116.5 728.63 1115.81 729.408 1115.8 730.498C1115.8 731.594 1116.48 732.363 1117.45 732.358C1118.41 732.353 1119.1 731.575 1119.1 730.48ZM1117.45 731.67C1116.97 731.673 1116.66 731.207 1116.66 730.493C1116.66 729.779 1116.98 729.315 1117.46 729.313C1117.95 729.31 1118.25 729.759 1118.25 730.484C1118.24 731.193 1117.92 731.668 1117.45 731.67ZM1117.34 736.51L1120.02 732.859L1123.05 728.729L1122.07 728.734L1119.33 732.46L1116.35 736.516L1117.34 736.51ZM1123.57 734.741C1123.57 733.645 1122.89 732.881 1121.93 732.886C1120.96 732.892 1120.27 733.669 1120.26 734.759C1120.26 735.855 1120.94 736.625 1121.91 736.619C1122.87 736.614 1123.56 735.837 1123.57 734.741ZM1121.91 735.932C1121.43 735.934 1121.12 735.469 1121.12 734.755C1121.13 734.04 1121.44 733.577 1121.92 733.574C1122.41 733.571 1122.71 734.021 1122.71 734.746C1122.7 735.455 1122.38 735.929 1121.91 735.932Z" fill="#00C48C"/>
<path d="M919.345 705.535L919.408 693.845L919.349 693.846L915.693 696.424L915.706 694.051L919.401 691.443L921.892 691.43L921.816 705.521L919.345 705.535ZM925.043 695.592C925.05 694.29 925.524 693.219 926.466 692.381C927.408 691.536 928.608 691.109 930.067 691.101C931.466 691.094 932.617 691.468 933.518 692.225C934.425 692.982 934.876 693.933 934.869 695.079C934.865 695.867 934.64 696.613 934.193 697.319C933.753 698.018 933.023 698.881 932.002 699.909L928.497 703.375L928.497 703.424L935.039 703.388L935.028 705.449L925.126 705.503L925.135 703.804L930.349 698.619C931.154 697.794 931.698 697.15 931.98 696.686C932.262 696.223 932.405 695.727 932.408 695.2C932.411 694.614 932.179 694.12 931.713 693.719C931.253 693.318 930.674 693.12 929.978 693.123C929.242 693.127 928.629 693.362 928.138 693.827C927.654 694.292 927.41 694.872 927.406 695.569L927.406 695.608L925.043 695.621L925.043 695.592ZM942.195 705.692C940.476 705.702 939.129 705.055 938.153 703.752C937.183 702.442 936.704 700.651 936.717 698.379C936.729 696.12 937.23 694.333 938.22 693.02C939.21 691.706 940.561 691.044 942.274 691.034C943.986 691.025 945.327 691.672 946.296 692.975C947.266 694.272 947.744 696.05 947.732 698.309C947.72 700.574 947.222 702.371 946.238 703.698C945.255 705.018 943.907 705.683 942.195 705.692ZM942.206 703.632C943.137 703.627 943.862 703.157 944.381 702.224C944.907 701.29 945.174 699.993 945.183 698.333C945.192 696.685 944.939 695.401 944.423 694.48C943.907 693.551 943.187 693.09 942.263 693.095C941.338 693.1 940.606 693.57 940.068 694.503C939.535 695.437 939.265 696.721 939.256 698.355C939.247 700.016 939.5 701.313 940.016 702.248C940.538 703.176 941.268 703.637 942.206 703.632ZM952.294 705.354L949.774 705.368L949.85 691.276L952.37 691.262L952.334 697.854L952.422 697.853L958.082 691.231L960.983 691.215L955.519 697.495L961.327 705.304L958.26 705.321L953.714 699.194L952.318 700.823L952.294 705.354Z" fill="#151522"/>
<path d="M922.119 717.495L922.146 712.491L923.963 712.481L923.966 711.848L919.63 711.872L919.627 712.505L921.443 712.495L921.416 717.499L922.119 717.495ZM925.885 717.548C927.084 717.542 927.83 716.71 927.838 715.358C927.845 714.003 927.107 713.182 925.908 713.189C924.709 713.196 923.962 714.024 923.955 715.379C923.948 716.731 924.685 717.555 925.885 717.548ZM925.888 716.943C925.091 716.947 924.645 716.372 924.65 715.375C924.656 714.376 925.108 713.799 925.905 713.794C926.702 713.79 927.148 714.362 927.142 715.362C927.137 716.358 926.685 716.938 925.888 716.943ZM929.191 712.155L929.185 713.245L928.505 713.249L928.502 713.811L929.182 713.808L929.168 716.362C929.164 717.167 929.51 717.485 930.377 717.481C930.51 717.48 930.639 717.464 930.772 717.439L930.775 716.873C930.65 716.885 930.583 716.89 930.462 716.89C930.025 716.893 929.838 716.683 929.841 716.187L929.854 713.804L930.791 713.799L930.794 713.236L929.857 713.242L929.863 712.152L929.191 712.155ZM933.087 716.919C932.599 716.922 932.237 716.674 932.239 716.244C932.241 715.822 932.524 715.598 933.165 715.551L934.298 715.471L934.296 715.858C934.292 716.459 933.778 716.915 933.087 716.919ZM932.959 717.509C933.521 717.506 933.983 717.258 934.259 716.807L934.322 716.807L934.318 717.428L934.959 717.424L934.975 714.541C934.979 713.666 934.408 713.142 933.381 713.148C932.482 713.153 931.816 713.602 931.722 714.278L932.402 714.274C932.497 713.942 932.85 713.748 933.354 713.746C933.983 713.742 934.306 714.026 934.303 714.545L934.301 714.928L933.085 715.009C932.105 715.073 931.548 715.509 931.544 716.263C931.539 717.033 932.142 717.514 932.959 717.509ZM936.24 717.417L936.912 717.414L936.944 711.531L936.272 711.534L936.24 717.417ZM943.935 713.164L943.216 713.168L942.045 716.643L941.983 716.644L940.849 713.181L940.13 713.185L941.666 717.387L942.354 717.384L943.935 713.164ZM944.826 717.37L945.498 717.366L945.521 713.155L944.849 713.159L944.826 717.37ZM945.189 712.302C945.447 712.3 945.659 712.088 945.661 711.831C945.662 711.573 945.452 711.363 945.194 711.364C944.937 711.366 944.725 711.578 944.723 711.836C944.722 712.094 944.932 712.303 945.189 712.302ZM948.479 713.659C949.147 713.655 949.589 714.145 949.601 714.891L947.281 714.904C947.336 714.157 947.807 713.662 948.479 713.659ZM949.574 716.254C949.396 716.626 949.028 716.827 948.485 716.83C947.77 716.834 947.308 716.31 947.278 715.478L947.278 715.447L950.305 715.43L950.306 715.172C950.314 713.863 949.626 713.059 948.49 713.065C947.334 713.071 946.587 713.935 946.58 715.259C946.572 716.591 947.298 717.431 948.466 717.424C949.388 717.419 950.039 716.974 950.246 716.25L949.574 716.254ZM956.669 713.094L955.993 713.098L955.147 716.47L955.084 716.47L954.161 713.108L953.517 713.112L952.557 716.484L952.495 716.484L951.685 713.122L951.005 713.125L952.162 717.33L952.842 717.326L953.797 714.063L953.859 714.063L954.783 717.315L955.467 717.312L956.669 713.094ZM957.346 714.243C957.343 714.852 957.701 715.19 958.489 715.377L959.21 715.549C959.659 715.656 959.877 715.85 959.875 716.139C959.873 716.526 959.465 716.797 958.899 716.801C958.36 716.804 958.025 716.579 957.914 716.224L957.222 716.228C957.293 716.927 957.935 717.372 958.872 717.367C959.829 717.362 960.563 716.838 960.567 716.084C960.57 715.479 960.189 715.137 959.397 714.95L958.75 714.798C958.254 714.679 958.021 714.501 958.022 714.212C958.024 713.837 958.416 713.581 958.916 713.578C959.424 713.575 959.751 713.796 959.839 714.131L960.503 714.128C960.417 713.437 959.806 713.003 958.923 713.008C958.029 713.013 957.35 713.544 957.346 714.243Z" fill="#999999"/>
<path fill-rule="evenodd" clip-rule="evenodd" d="M1120.73 714.218L1120.94 675.658C1120.95 674.158 1122.17 672.935 1123.67 672.927C1125.17 672.919 1126.38 674.128 1126.37 675.628L1126.16 714.188L1120.73 714.218Z" fill="#EA714A"/>
<path fill-rule="evenodd" clip-rule="evenodd" d="M1112 714.266L1112.14 688.781C1112.14 687.281 1113.37 686.058 1114.87 686.05C1116.37 686.042 1117.58 687.251 1117.57 688.751L1117.43 714.236L1112 714.266Z" fill="#96C0FF"/>
<path fill-rule="evenodd" clip-rule="evenodd" d="M1102.03 714.32L1102.2 681.144C1102.21 679.644 1103.43 678.422 1104.93 678.413C1106.43 678.405 1107.64 679.614 1107.64 681.114L1107.46 714.29L1102.03 714.32Z" fill="#EA714A"/>
<path fill-rule="evenodd" clip-rule="evenodd" d="M1093.29 714.368L1093.39 696.574C1093.4 695.074 1094.62 693.851 1096.12 693.843C1097.62 693.835 1098.83 695.044 1098.82 696.544L1098.72 714.338L1093.29 714.368Z" fill="#96C0FF"/>
<path fill-rule="evenodd" clip-rule="evenodd" d="M1083.32 714.423L1083.47 686.374C1083.48 684.875 1084.7 683.652 1086.2 683.644C1087.7 683.636 1088.91 684.845 1088.9 686.345L1088.75 714.393L1083.32 714.423Z" fill="#429E55"/>
<path fill-rule="evenodd" clip-rule="evenodd" d="M1074.58 714.471L1074.69 694.114C1074.7 692.614 1075.92 691.391 1077.42 691.383C1078.92 691.375 1080.13 692.584 1080.13 694.084L1080.02 714.442L1074.58 714.471Z" fill="#96C0FF"/>
<path fill-rule="evenodd" clip-rule="evenodd" d="M1064.61 714.526L1064.8 678.787C1064.81 677.287 1066.03 676.064 1067.53 676.056C1069.03 676.048 1070.24 677.257 1070.23 678.757L1070.04 714.497L1064.61 714.526Z" fill="#EA714A"/>
<path fill-rule="evenodd" clip-rule="evenodd" d="M1055.88 714.574L1056.04 683.961C1056.05 682.462 1057.27 681.239 1058.77 681.231C1060.27 681.223 1061.48 682.432 1061.47 683.932L1061.31 714.544L1055.88 714.574Z" fill="#96C0FF"/>
<path fill-rule="evenodd" clip-rule="evenodd" d="M1139.38 714.115L1139.58 675.619C1139.59 674.084 1140.84 672.833 1142.38 672.825C1143.91 672.816 1145.15 674.053 1145.14 675.588L1144.93 714.085L1139.38 714.115Z" fill="#57805F" fill-opacity="0.99"/>
<path fill-rule="evenodd" clip-rule="evenodd" d="M1130.64 714.163L1130.74 696.432C1130.75 694.897 1132 693.646 1133.53 693.638C1135.07 693.63 1136.3 694.867 1136.3 696.402L1136.2 714.132L1130.64 714.163Z" fill="#96C0FF"/>
<path fill-rule="evenodd" clip-rule="evenodd" d="M1045.9 714.629L1046.07 684.016C1046.08 682.516 1047.3 681.294 1048.8 681.286C1050.3 681.277 1051.51 682.486 1051.5 683.986L1051.33 714.599L1045.9 714.629Z" fill="#EA714A"/>
<path fill-rule="evenodd" clip-rule="evenodd" d="M1037.17 714.676L1037.27 696.882C1037.27 695.382 1038.5 694.16 1040 694.152C1041.5 694.143 1042.71 695.353 1042.7 696.852L1042.6 714.646L1037.17 714.676Z" fill="#96C0FF"/>
<path d="M1145.53 735.127L1140.79 730.299L1136 735.179" stroke="#00C48C" stroke-width="2" stroke-linecap="round" stroke-linejoin="round"/>
</g>
<g filter="url(#filter2_d_178_41556)">
<g clip-path="url(#clip1_178_41556)">
<rect width="146.989" height="249.643" rx="10" transform="matrix(0.965926 0.258819 -0.269316 0.963052 1244.23 42)" fill="white"/>
<path d="M1268.79 154.865L1271.94 143.607L1271.89 143.592L1267.68 145.113L1268.32 142.828L1272.57 141.289L1274.98 141.933L1271.18 155.504L1268.79 154.865ZM1276.92 146.78C1277.27 145.526 1278.01 144.619 1279.14 144.059C1280.27 143.493 1281.54 143.399 1282.95 143.776C1284.3 144.138 1285.31 144.803 1285.98 145.771C1286.65 146.741 1286.84 147.777 1286.53 148.881C1286.32 149.639 1285.9 150.3 1285.28 150.862C1284.68 151.42 1283.74 152.06 1282.49 152.782L1278.19 155.199L1278.18 155.246L1284.5 156.94L1283.94 158.924L1274.38 156.361L1274.84 154.725L1281.23 151.101C1282.23 150.518 1282.92 150.041 1283.32 149.668C1283.71 149.295 1283.98 148.855 1284.12 148.347C1284.28 147.783 1284.19 147.246 1283.84 146.736C1283.51 146.227 1283 145.883 1282.33 145.703C1281.62 145.512 1280.96 145.576 1280.37 145.895C1279.78 146.216 1279.39 146.711 1279.2 147.382L1279.19 147.42L1276.91 146.808L1276.92 146.78ZM1290.79 161.052C1289.13 160.607 1288 159.627 1287.4 158.113C1286.82 156.593 1286.83 154.74 1287.44 152.552C1288.05 150.376 1289 148.785 1290.3 147.779C1291.61 146.774 1293.08 146.492 1294.74 146.935C1296.39 147.379 1297.51 148.357 1298.11 149.87C1298.7 151.376 1298.69 153.218 1298.08 155.393C1297.47 157.575 1296.52 159.176 1295.22 160.196C1293.92 161.21 1292.44 161.495 1290.79 161.052ZM1291.35 159.068C1292.24 159.309 1293.07 159.047 1293.82 158.284C1294.57 157.522 1295.17 156.342 1295.62 154.743C1296.06 153.157 1296.16 151.851 1295.9 150.826C1295.65 149.794 1295.08 149.159 1294.18 148.92C1293.29 148.681 1292.46 148.94 1291.69 149.699C1290.93 150.459 1290.33 151.626 1289.89 153.199C1289.45 154.798 1289.35 156.116 1289.6 157.154C1289.86 158.187 1290.44 158.825 1291.35 159.068ZM1300.62 163.393L1298.19 162.741L1301.98 149.169L1304.42 149.822L1302.64 156.17L1302.72 156.193L1309.93 151.3L1312.73 152.051L1305.81 156.665L1309.35 165.731L1306.38 164.937L1303.62 157.827L1301.84 159.029L1300.62 163.393Z" fill="#151522"/>
<path fill-rule="evenodd" clip-rule="evenodd" d="M1283.27 281.387L1296.17 235.255C1296.63 233.636 1298.31 232.677 1299.93 233.112C1301.56 233.547 1302.51 235.212 1302.05 236.831L1289.15 282.962L1283.27 281.387Z" fill="#429E55"/>
<path fill-rule="evenodd" clip-rule="evenodd" d="M1273.82 278.854L1282.37 248.264C1282.83 246.645 1284.51 245.685 1286.13 246.121C1287.76 246.556 1288.71 248.221 1288.25 249.84L1279.7 280.43L1273.82 278.854Z" fill="#96C0FF"/>
<path fill-rule="evenodd" clip-rule="evenodd" d="M1266.06 276.774L1277.17 237.042C1277.63 235.423 1279.31 234.464 1280.93 234.899C1282.56 235.334 1283.51 236.999 1283.05 238.618L1271.94 278.35L1266.06 276.774Z" fill="#EA714A"/>
<path fill-rule="evenodd" clip-rule="evenodd" d="M1256.61 274.241L1262.6 252.793C1263.06 251.174 1264.74 250.215 1266.36 250.65C1267.99 251.085 1268.94 252.75 1268.48 254.369L1262.49 275.817L1256.61 274.241Z" fill="#96C0FF"/>
<path fill-rule="evenodd" clip-rule="evenodd" d="M1248.85 272.163L1258.26 238.526C1258.71 236.907 1260.39 235.947 1262.02 236.382C1263.64 236.817 1264.59 238.482 1264.14 240.101L1254.73 273.739L1248.85 272.163Z" fill="#EA714A"/>
<path fill-rule="evenodd" clip-rule="evenodd" d="M1239.39 269.63L1246.24 245.135C1246.7 243.516 1248.38 242.557 1250 242.992C1251.63 243.427 1252.58 245.092 1252.12 246.711L1245.27 271.206L1239.39 269.63Z" fill="#96C0FF"/>
<path fill-rule="evenodd" clip-rule="evenodd" d="M1231.64 267.55L1243.6 224.771C1244.05 223.152 1245.74 222.192 1247.36 222.627C1248.98 223.062 1249.93 224.728 1249.48 226.346L1237.52 269.126L1231.64 267.55Z" fill="#EA714A"/>
<path fill-rule="evenodd" clip-rule="evenodd" d="M1222.18 265.017L1232.44 228.332C1232.89 226.714 1234.58 225.754 1236.2 226.189C1237.82 226.624 1238.77 228.289 1238.32 229.908L1228.06 266.593L1222.18 265.017Z" fill="#96C0FF"/>
<path fill-rule="evenodd" clip-rule="evenodd" d="M1300.42 285.98L1313.3 239.916C1313.76 238.26 1315.48 237.278 1317.15 237.723C1318.81 238.168 1319.78 239.872 1319.32 241.529L1306.43 287.592L1300.42 285.98Z" fill="#429E55"/>
<path fill-rule="evenodd" clip-rule="evenodd" d="M1290.96 283.446L1296.94 262.067C1297.4 260.41 1299.13 259.428 1300.79 259.873C1302.45 260.319 1303.42 262.022 1302.96 263.679L1296.98 285.059L1290.96 283.446Z" fill="#96C0FF"/>
<path fill-rule="evenodd" clip-rule="evenodd" d="M1214.43 262.939L1224.68 226.254C1225.14 224.635 1226.82 223.676 1228.44 224.111C1230.07 224.546 1231.02 226.211 1230.56 227.83L1220.31 264.515L1214.43 262.939Z" fill="#0066FF"/>
<path fill-rule="evenodd" clip-rule="evenodd" d="M1204.97 260.406L1210.97 238.958C1211.42 237.339 1213.1 236.38 1214.73 236.815C1216.35 237.25 1217.3 238.915 1216.85 240.534L1210.85 261.982L1204.97 260.406Z" fill="#96C0FF"/>
<path d="M1240.91 185.753L1245.75 179.028L1244.77 178.765L1240.82 184.435L1240.74 184.412L1240.29 177.564L1239.31 177.301L1239.98 185.505L1240.91 185.753ZM1244.88 186.819L1245.78 187.058L1247.34 181.482L1246.44 181.243L1244.88 186.819ZM1247.21 180.229C1247.55 180.321 1247.91 180.117 1248 179.775C1248.1 179.434 1247.9 179.08 1247.55 178.988C1247.21 178.896 1246.85 179.1 1246.76 179.442C1246.66 179.783 1246.86 180.138 1247.21 180.229ZM1251.08 183.223C1251.96 183.461 1252.37 184.271 1252.12 185.265L1249.04 184.439C1249.38 183.469 1250.18 182.984 1251.08 183.223ZM1251.59 187.063C1251.22 187.492 1250.65 187.625 1249.93 187.432C1248.98 187.178 1248.56 186.314 1248.82 185.2L1248.83 185.158L1252.86 186.236L1252.95 185.894C1253.44 184.161 1252.82 182.844 1251.31 182.44C1249.77 182.028 1248.47 182.902 1247.98 184.656C1247.48 186.42 1248.14 187.797 1249.69 188.213C1250.92 188.541 1251.94 188.187 1252.48 187.302L1251.59 187.063ZM1262.14 185.449L1261.25 185.209L1258.9 189.373L1258.82 189.351L1258.81 184.557L1257.96 184.327L1255.46 188.451L1255.38 188.429L1255.52 183.675L1254.62 183.433L1254.63 189.429L1255.53 189.671L1257.98 185.691L1258.07 185.713L1258.11 190.362L1259.02 190.605L1262.14 185.449ZM1262.62 187.218C1262.4 188.025 1262.75 188.603 1263.73 189.138L1264.62 189.627C1265.18 189.932 1265.4 190.269 1265.29 190.651C1265.15 191.164 1264.51 191.376 1263.75 191.174C1263.04 190.982 1262.68 190.563 1262.66 190.052L1261.74 189.806C1261.58 190.758 1262.27 191.582 1263.51 191.916C1264.78 192.257 1265.95 191.829 1266.23 190.83C1266.45 190.028 1266.07 189.437 1265.09 188.901L1264.28 188.464C1263.67 188.127 1263.43 187.805 1263.53 187.423C1263.67 186.926 1264.28 186.729 1264.95 186.907C1265.62 187.088 1265.98 187.499 1265.97 187.976L1266.85 188.212C1266.99 187.265 1266.34 186.467 1265.16 186.153C1263.98 185.835 1262.88 186.293 1262.62 187.218Z" fill="#999999"/>
<path d="M1272.6 194.433C1274.15 194.849 1275.5 194.099 1275.92 192.584C1276.34 191.115 1275.63 189.818 1274.21 189.438C1273.52 189.253 1272.93 189.323 1272.45 189.65L1272.36 189.628L1273.25 187.29L1276.69 188.213L1276.92 187.38L1272.75 186.261L1271.15 190.382L1272.03 190.617C1272.49 190.166 1273.13 190.011 1273.81 190.193C1274.79 190.456 1275.27 191.335 1274.98 192.359C1274.7 193.384 1273.84 193.887 1272.84 193.619C1271.95 193.382 1271.46 192.672 1271.6 191.843L1270.69 191.597C1270.41 192.907 1271.18 194.054 1272.6 194.433ZM1279.25 192.329L1280.2 192.583C1281.26 192.868 1281.77 193.583 1281.53 194.446C1281.3 195.264 1280.43 195.66 1279.45 195.396C1278.48 195.138 1277.95 194.445 1278.09 193.626L1277.19 193.384C1276.9 194.68 1277.71 195.804 1279.23 196.211C1280.71 196.607 1282.14 195.961 1282.48 194.729C1282.76 193.71 1282.34 192.841 1281.36 192.44L1281.39 192.357C1282.26 192.38 1282.94 191.86 1283.19 190.971C1283.49 189.884 1282.69 188.736 1281.38 188.386C1279.96 188.003 1278.8 188.551 1278.35 189.819L1279.26 190.063C1279.56 189.282 1280.26 188.957 1281.12 189.188C1281.98 189.419 1282.41 190.08 1282.2 190.84C1281.98 191.616 1281.23 192.003 1280.38 191.775L1279.47 191.532L1279.25 192.329ZM1287.81 192.087C1288.1 191.032 1287.65 190.116 1286.72 189.865C1285.78 189.615 1284.91 190.182 1284.62 191.232C1284.32 192.287 1284.78 193.21 1285.71 193.46C1286.65 193.711 1287.51 193.142 1287.81 192.087ZM1285.9 192.798C1285.44 192.675 1285.26 192.143 1285.45 191.455C1285.64 190.767 1286.07 190.402 1286.53 190.528C1287 190.653 1287.17 191.166 1286.98 191.865C1286.79 192.547 1286.35 192.921 1285.9 192.798ZM1284.51 197.437L1288.06 194.623L1292.07 191.439L1291.13 191.186L1287.5 194.057L1283.56 197.181L1284.51 197.437ZM1290.99 197.376C1291.28 196.32 1290.83 195.404 1289.9 195.154C1288.96 194.904 1288.09 195.471 1287.8 196.521C1287.5 197.576 1287.96 198.499 1288.89 198.749C1289.82 198.999 1290.69 198.431 1290.99 197.376ZM1289.08 198.087C1288.61 197.963 1288.43 197.431 1288.63 196.743C1288.82 196.055 1289.24 195.691 1289.71 195.816C1290.18 195.941 1290.35 196.455 1290.16 197.153C1289.97 197.836 1289.53 198.209 1289.08 198.087Z" fill="#EA714A"/>
<path d="M1310.89 203.974L1306.83 196.682L1299.53 200.93" stroke="#57805F" stroke-opacity="0.99" stroke-width="2" stroke-linecap="round" stroke-linejoin="round"/>
</g>
</g>
<circle cx="771.5" cy="291.5" r="10.5" fill="#429E55"/>
<circle cx="130.5" cy="86.5" r="10.5" fill="#429E55"/>
<circle cx="460.5" cy="808.5" r="11.5" fill="#3FB5EB"/>
<circle cx="833.5" cy="635.5" r="9.5" fill="#EA714A"/>
<circle cx="78.5" cy="654.5" r="9.5" fill="#EA714A"/>
<path d="M1045.38 117.76L1044.54 120.901L1042.94 120.474L1043.79 117.333L1040.85 116.546L1041.27 114.976L1044.21 115.762L1045.03 112.671L1046.63 113.097L1045.8 116.189L1048.74 116.978L1048.32 118.548L1045.38 117.76Z" fill="#EA714A"/>
<path d="M143.795 250.713L142.953 253.854L141.362 253.427L142.203 250.286L139.267 249.499L139.688 247.929L142.624 248.716L143.453 245.624L145.044 246.05L144.216 249.142L147.159 249.931L146.738 251.501L143.795 250.713Z" fill="#EA714A"/>
<path d="M421.795 77.7127L420.953 80.8538L419.362 80.4273L420.203 77.2861L417.267 76.4994L417.688 74.9289L420.624 75.7156L421.453 72.6239L423.044 73.0505L422.216 76.1421L425.159 76.9307L424.738 78.5012L421.795 77.7127Z" fill="#EA714A"/>
<path d="M820.417 324.934L814.22 323.273L814.781 321.179L820.978 322.84L820.417 324.934Z" fill="#3FB5EB"/>
<path d="M1300.42 578.934L1294.22 577.273L1294.78 575.179L1300.98 576.84L1300.42 578.934Z" fill="#3FB5EB"/>
<path d="M1259.8 557.713L1258.95 560.854L1257.36 560.427L1258.2 557.286L1255.27 556.499L1255.69 554.929L1258.62 555.716L1259.45 552.624L1261.04 553.05L1260.22 556.142L1263.16 556.931L1262.74 558.501L1259.8 557.713Z" fill="#EA714A"/>
<path d="M853.795 324.713L852.953 327.854L851.362 327.427L852.203 324.286L849.267 323.499L849.688 321.929L852.624 322.716L853.453 319.624L855.044 320.05L854.216 323.142L857.159 323.931L856.738 325.501L853.795 324.713Z" fill="#EA714A"/>
<path d="M776.301 458.155L769.009 462.221L773.257 469.514" stroke="#EA714A" stroke-width="2" stroke-linecap="round" stroke-linejoin="round"/>
<path d="M689 641.358L696.292 637.293L692.043 630" stroke="#EA714A" stroke-width="2" stroke-linecap="round" stroke-linejoin="round"/>
<path d="M1316.28 409.893L1312.21 402.601L1304.92 406.849" stroke="#429E55" stroke-width="2" stroke-linecap="round" stroke-linejoin="round"/>
</g>
<defs>
<filter id="filter0_dd_178_41556" x="698.309" y="55.7251" width="353.42" height="349.246" filterUnits="userSpaceOnUse" color-interpolation-filters="sRGB">
<feFlood flood-opacity="0" result="BackgroundImageFix"/>
<feColorMatrix in="SourceAlpha" type="matrix" values="0 0 0 0 0 0 0 0 0 0 0 0 0 0 0 0 0 0 127 0" result="hardAlpha"/>
<feOffset dx="-12.3972" dy="24.7944"/>
<feGaussianBlur stdDeviation="30.993"/>
<feColorMatrix type="matrix" values="0 0 0 0 0.345 0 0 0 0 0.360333 0 0 0 0 0.383333 0 0 0 0.04 0"/>
<feBlend mode="normal" in2="BackgroundImageFix" result="effect1_dropShadow_178_41556"/>
<feColorMatrix in="SourceAlpha" type="matrix" values="0 0 0 0 0 0 0 0 0 0 0 0 0 0 0 0 0 0 127 0" result="hardAlpha"/>
<feOffset dx="-9.2979" dy="24.7944"/>
<feGaussianBlur stdDeviation="45"/>
<feColorMatrix type="matrix" values="0 0 0 0 0.917647 0 0 0 0 0.443137 0 0 0 0 0.290196 0 0 0 0.1 0"/>
<feBlend mode="normal" in2="effect1_dropShadow_178_41556" result="effect2_dropShadow_178_41556"/>
<feBlend mode="normal" in="SourceGraphic" in2="effect2_dropShadow_178_41556" result="shape"/>
</filter>
<filter id="filter1_dd_178_41556" x="781.148" y="576" width="464.459" height="319.542" filterUnits="userSpaceOnUse" color-interpolation-filters="sRGB">
<feFlood flood-opacity="0" result="BackgroundImageFix"/>
<feColorMatrix in="SourceAlpha" type="matrix" values="0 0 0 0 0 0 0 0 0 0 0 0 0 0 0 0 0 0 127 0" result="hardAlpha"/>
<feOffset dx="-20" dy="40"/>
<feGaussianBlur stdDeviation="50"/>
<feColorMatrix type="matrix" values="0 0 0 0 0.358333 0 0 0 0 0.358333 0 0 0 0 0.358333 0 0 0 0.04 0"/>
<feBlend mode="normal" in2="BackgroundImageFix" result="effect1_dropShadow_178_41556"/>
<feColorMatrix in="SourceAlpha" type="matrix" values="0 0 0 0 0 0 0 0 0 0 0 0 0 0 0 0 0 0 127 0" result="hardAlpha"/>
<feOffset dx="-15" dy="40"/>
<feGaussianBlur stdDeviation="50"/>
<feColorMatrix type="matrix" values="0 0 0 0 0.917647 0 0 0 0 0.443137 0 0 0 0 0.290196 0 0 0 0.1 0"/>
<feBlend mode="normal" in2="effect1_dropShadow_178_41556" result="effect2_dropShadow_178_41556"/>
<feBlend mode="normal" in="SourceGraphic" in2="effect2_dropShadow_178_41556" result="shape"/>
</filter>
<filter id="filter2_d_178_41556" x="1057" y="-18" width="409.213" height="478.463" filterUnits="userSpaceOnUse" color-interpolation-filters="sRGB">
<feFlood flood-opacity="0" result="BackgroundImageFix"/>
<feColorMatrix in="SourceAlpha" type="matrix" values="0 0 0 0 0 0 0 0 0 0 0 0 0 0 0 0 0 0 127 0" result="hardAlpha"/>
<feOffset dx="-20" dy="40"/>
<feGaussianBlur stdDeviation="50"/>
<feColorMatrix type="matrix" values="0 0 0 0 0.917647 0 0 0 0 0.443137 0 0 0 0 0.290196 0 0 0 0.1 0"/>
<feBlend mode="normal" in2="BackgroundImageFix" result="effect1_dropShadow_178_41556"/>
<feBlend mode="normal" in="SourceGraphic" in2="effect1_dropShadow_178_41556" result="shape"/>
</filter>
<linearGradient id="paint0_linear_178_41556" x1="1063.76" y1="145.922" x2="1063.76" y2="485.501" gradientUnits="userSpaceOnUse">
<stop stop-color="#ABE5FF"/>
<stop offset="1" stop-color="white" stop-opacity="0"/>
</linearGradient>
<linearGradient id="paint1_linear_178_41556" x1="1053.02" y1="475.093" x2="1053.02" y2="636.869" gradientUnits="userSpaceOnUse">
<stop stop-color="#EA714A"/>
<stop offset="1" stop-color="#EA714A" stop-opacity="0"/>
</linearGradient>
<clipPath id="clip0_178_41556">
<rect width="1440" height="850" fill="white"/>
</clipPath>
<clipPath id="clip1_178_41556">
<rect width="146.989" height="249.643" fill="white" transform="matrix(0.965926 0.258819 -0.269316 0.963052 1244.23 42)"/>
</clipPath>
</defs>
</svg>
