<svg width="182" height="48" viewBox="0 0 182 48" fill="none" xmlns="http://www.w3.org/2000/svg">
<g clip-path="url(#clip0_1193_8714)">
<path d="M12.3604 43.1351V4.8641C12.3604 2.18815 14.5066 -0.00104904 17.1295 -0.00104904C19.7524 -0.00104904 21.8984 2.18815 21.8984 4.8641V43.1351C21.8984 45.8108 19.7524 48 17.1295 48C14.5066 48 12.3604 45.8108 12.3604 43.1351Z" fill="#E45A1C"/>
<path d="M24.7217 34.1509V13.8484C24.7217 11.1727 26.8677 8.98346 29.4909 8.98346C32.1137 8.98346 34.2597 11.1727 34.2597 13.8484V34.1509C34.2597 36.8266 32.1137 39.0161 29.4909 39.0161C26.8677 39.0161 24.7217 36.8266 24.7217 34.1509Z" fill="#E45A1C"/>
<path d="M0 34.0161V13.9826C0 11.3069 2.14602 9.1177 4.76915 9.1177C7.39206 9.1177 9.53805 11.3069 9.53805 13.9826V34.0161C9.53805 36.6921 7.39206 38.8813 4.76915 38.8813C2.14602 38.8813 0 36.6921 0 34.0161Z" fill="#E45A1C"/>
<path d="M50.6655 31.5585C52.5867 31.5585 54.4292 31.1985 56.1544 30.4387V33.2383C54.3117 33.9584 52.3513 34.3184 50.3518 34.3184C46.1568 34.3184 41.1777 32.5585 41.1777 23.9997C41.1777 15.4806 46.1568 13.6808 50.3518 13.6808C52.3513 13.6808 54.3117 14.0806 56.1544 14.8006V17.5602C54.4292 16.8406 52.5867 16.4405 50.6655 16.4405C46 16.4405 44.0005 18.7201 44.0005 23.9997C44.0005 29.319 46 31.5585 50.6655 31.5585Z" fill="#585556"/>
<path d="M74.8157 23.9997C74.8157 18.6401 72.8944 16.3204 68.4253 16.3204C63.995 16.3204 62.0737 18.6401 62.0737 23.9997C62.0737 29.3588 63.995 31.6787 68.4253 31.6787C72.8944 31.6787 74.8157 29.3588 74.8157 23.9997ZM77.6385 23.9997C77.6385 32.5186 72.62 34.3184 68.4253 34.3184C64.23 34.3184 59.251 32.5186 59.251 23.9997C59.251 15.4806 64.23 13.6808 68.4253 13.6808C72.62 13.6808 77.6385 15.4806 77.6385 23.9997Z" fill="#585556"/>
<path d="M98.1827 20.9998V33.998H95.3599V20.9998C95.3599 19.1197 94.8112 16.5601 90.1065 16.5601C88.1069 16.5601 86.3033 16.96 84.9702 17.3601V33.998H82.1475V15.6405C83.0884 15.1605 86.3428 13.6805 90.4198 13.6805C95.3599 13.6805 98.1827 16.3604 98.1827 20.9998Z" fill="#585556"/>
<path d="M119.431 14.0405L111.904 33.998H109.042L101.554 14.0405H104.573L110.493 30.3985L116.413 14.0405H119.431Z" fill="#585556"/>
<path d="M127.546 14.0405H124.724V33.998H127.546V14.0405Z" fill="#585556"/>
<path d="M136.054 17.52V33.998H133.23V15.6405C134.25 15.2004 138.014 13.7205 142.719 13.7205V16.4801C140.013 16.5601 137.661 17.08 136.054 17.52Z" fill="#585556"/>
<path d="M161.458 16.5601L150.715 31.2384H161.458V33.998H147.148V31.3983L157.812 16.8001H147.422V14.0405H161.458V16.5601Z" fill="#585556"/>
<path d="M179.178 24.1596C179.178 24.1596 177.885 23.9194 175.689 23.9194C173.337 23.9194 168.593 24.1995 168.593 27.8791C168.593 31.0386 171.533 31.6386 173.964 31.6386C176.395 31.6386 179.178 31.0386 179.178 27.9991C179.178 24.9194 179.178 24.1596 179.178 24.1596ZM182.001 21.9999V27.9991C182.001 33.5184 176.512 34.3184 173.964 34.3184C171.415 34.3184 165.771 33.5184 165.771 27.8791C165.771 21.2797 174.199 21.3199 176.003 21.3199C177.767 21.3199 179.14 21.5199 179.14 21.5199C179.14 17.7603 176.944 16.5604 173.415 16.5604C170.592 16.5604 168.436 17.2404 167.691 17.5203V14.7207C169.142 14.2009 171.142 13.6808 173.572 13.6808C179.061 13.6808 182.001 16.5604 182.001 21.9999Z" fill="#585556"/>
</g>
<defs>
<clipPath id="clip0_1193_8714">
<rect width="182" height="48" fill="white"/>
</clipPath>
</defs>
</svg>
