<svg width="1030" height="28" viewBox="0 0 1030 28" fill="none" xmlns="http://www.w3.org/2000/svg">
<path d="M9.38074 4.67641C8.54742 4.18938 7.5 4.79041 7.5 5.75561V22.2443C7.5 23.2095 8.54741 23.8105 9.38073 23.3235L24.078 14.7339C24.6394 14.4057 24.6394 13.5943 24.078 13.2661L9.38074 4.67641ZM6 5.75561C6 3.63217 8.30432 2.30991 10.1376 3.38137L24.8349 11.9711C26.3872 12.8783 26.3871 15.1217 24.8348 16.0289L10.1376 24.6185C8.30431 25.69 6 24.3677 6 22.2443V5.75561Z" fill="#594E90"/>
<path d="M46.1682 6.5C47.7783 5.24608 49.8017 4.5 52 4.5C57.2467 4.5 61.5 8.75329 61.5 14C61.5 19.2467 57.2467 23.5 52 23.5C46.7533 23.5 42.5 19.2467 42.5 14C42.5 13.5479 42.5303 13.3411 42.6007 12.861L42.601 12.8588C42.6611 12.449 42.3776 12.068 41.9678 12.0079C41.558 11.9478 41.177 12.2314 41.1169 12.6412L41.1151 12.6534C41.0432 13.1436 41 13.4384 41 14C41 20.0751 45.9249 25 52 25C58.0751 25 63 20.0751 63 14C63 7.92487 58.0751 3 52 3C49.3408 3 46.9015 3.94423 45 5.5144V3.75C45 3.33579 44.6642 3 44.25 3C43.8358 3 43.5 3.33579 43.5 3.75V7.25C43.5 7.66421 43.8358 8 44.25 8H47.75C48.1642 8 48.5 7.66421 48.5 7.25C48.5 6.83579 48.1642 6.5 47.75 6.5H46.1682Z" fill="#594E90"/>
<path d="M55.4091 17.947C54.9673 17.9579 54.529 17.8654 54.1292 17.677C53.7741 17.4968 53.4685 17.2325 53.2391 16.907C52.9877 16.5273 52.8112 16.1031 52.7192 15.657C52.601 15.105 52.544 14.5416 52.5492 13.977C52.5451 13.4125 52.6021 12.8493 52.7192 12.297C52.813 11.8516 52.9894 11.4276 53.2391 11.047C53.4685 10.7216 53.7741 10.4572 54.1292 10.277C54.529 10.0887 54.9673 9.9962 55.4091 10.007C55.8246 9.97542 56.2412 10.0507 56.6194 10.2258C56.9975 10.4008 57.3245 10.6698 57.5692 11.007C58.0848 11.8939 58.3282 12.9129 58.2692 13.937C58.3282 14.9612 58.0848 15.9802 57.5692 16.867C57.3338 17.219 57.0108 17.5036 56.6321 17.693C56.2534 17.8824 55.8319 17.9699 55.4091 17.947ZM55.4091 16.727C55.6107 16.7391 55.8116 16.6938 55.9886 16.5965C56.1656 16.4992 56.3114 16.3537 56.4091 16.177C56.6481 15.7093 56.7748 15.1923 56.7792 14.667V13.287C56.8008 12.7713 56.7015 12.2576 56.4891 11.787C56.3774 11.6158 56.2246 11.4751 56.0448 11.3777C55.865 11.2803 55.6637 11.2293 55.4592 11.2293C55.2546 11.2293 55.0533 11.2803 54.8735 11.3777C54.6937 11.4751 54.5409 11.6158 54.4292 11.787C54.2168 12.2576 54.1175 12.7713 54.1392 13.287V14.667C54.1185 15.186 54.2178 15.7027 54.4292 16.177C54.5245 16.3513 54.667 16.4953 54.8403 16.5926C55.0135 16.6898 55.2107 16.7364 55.4091 16.727Z" fill="#594E90"/>
<path d="M46.41 17.8169V16.6369H48.41V11.4469L46.55 12.4469L46 11.3869L48.32 10.0869H49.78V16.5869H51.56V17.8169H46.41Z" fill="#594E90"/>
<path d="M95.8318 6.5C94.2217 5.24608 92.1983 4.5 90 4.5C84.7533 4.5 80.5 8.75329 80.5 14C80.5 19.2467 84.7533 23.5 90 23.5C95.2467 23.5 99.5 19.2467 99.5 14C99.5 13.5479 99.4697 13.3411 99.3993 12.861L99.399 12.8588C99.3389 12.449 99.6224 12.068 100.032 12.0079C100.442 11.9478 100.823 12.2314 100.883 12.6412L100.885 12.6534C100.957 13.1436 101 13.4384 101 14C101 20.0751 96.0751 25 90 25C83.9249 25 79 20.0751 79 14C79 7.92487 83.9249 3 90 3C92.6592 3 95.0985 3.94423 97 5.5144V3.75C97 3.33579 97.3358 3 97.75 3C98.1642 3 98.5 3.33579 98.5 3.75V7.25C98.5 7.66421 98.1642 8 97.75 8H94.25C93.8358 8 93.5 7.66421 93.5 7.25C93.5 6.83579 93.8358 6.5 94.25 6.5H95.8318Z" fill="#594E90"/>
<path d="M93.4091 17.947C92.9673 17.9579 92.529 17.8654 92.1292 17.677C91.7741 17.4968 91.4685 17.2325 91.2391 16.907C90.9877 16.5273 90.8112 16.1031 90.7192 15.657C90.601 15.105 90.544 14.5416 90.5492 13.977C90.5451 13.4125 90.6021 12.8493 90.7192 12.297C90.813 11.8516 90.9894 11.4276 91.2391 11.047C91.4685 10.7216 91.7741 10.4572 92.1292 10.277C92.529 10.0887 92.9673 9.9962 93.4091 10.007C93.8246 9.97542 94.2412 10.0507 94.6194 10.2258C94.9975 10.4008 95.3245 10.6698 95.5692 11.007C96.0848 11.8939 96.3282 12.9129 96.2692 13.937C96.3282 14.9612 96.0848 15.9802 95.5692 16.867C95.3338 17.219 95.0108 17.5036 94.6321 17.693C94.2534 17.8824 93.8319 17.9699 93.4091 17.947ZM93.4091 16.727C93.6107 16.7391 93.8116 16.6938 93.9886 16.5965C94.1656 16.4992 94.3114 16.3537 94.4091 16.177C94.6481 15.7093 94.7748 15.1923 94.7792 14.667V13.287C94.8008 12.7713 94.7015 12.2576 94.4891 11.787C94.3774 11.6158 94.2246 11.4751 94.0448 11.3777C93.865 11.2803 93.6637 11.2293 93.4592 11.2293C93.2546 11.2293 93.0533 11.2803 92.8735 11.3777C92.6937 11.4751 92.5409 11.6158 92.4292 11.787C92.2168 12.2576 92.1175 12.7713 92.1392 13.287V14.667C92.1185 15.186 92.2178 15.7027 92.4292 16.177C92.5245 16.3513 92.667 16.4953 92.8403 16.5926C93.0135 16.6898 93.2107 16.7364 93.4091 16.727Z" fill="#594E90"/>
<path d="M84.41 17.8169V16.6369H86.41V11.4469L84.55 12.4469L84 11.3869L86.32 10.0869H87.78V16.5869H89.56V17.8169H84.41Z" fill="#594E90"/>
<path d="M130.5 4.81425C130.5 3.71986 129.193 3.15384 128.395 3.90244L123.458 8.53182C123.134 8.836 122.706 9.00529 122.261 9.00529H119.25C117.455 9.00529 116 10.4604 116 12.2553V15.7473C116 17.5422 117.455 18.9973 119.25 18.9973H122.262C122.706 18.9973 123.134 19.1664 123.458 19.4703L128.395 24.0964C129.194 24.8446 130.5 24.2785 130.5 23.1843V4.81425ZM124.484 9.62599L129 5.39141V22.6074L124.484 18.3757C123.882 17.8114 123.087 17.4973 122.262 17.4973H119.25C118.284 17.4973 117.5 16.7138 117.5 15.7473V12.2553C117.5 11.2888 118.284 10.5053 119.25 10.5053H122.261C123.087 10.5053 123.882 10.1909 124.484 9.62599ZM136.702 5.25221C136.429 4.9412 135.955 4.91085 135.644 5.18443C135.333 5.45801 135.302 5.93192 135.576 6.24293C137.397 8.31284 138.5 11.0266 138.5 14C138.5 16.9733 137.397 19.6871 135.576 21.757C135.302 22.068 135.333 22.5419 135.644 22.8155C135.955 23.0891 136.429 23.0587 136.702 22.7477C138.754 20.4145 140 17.3518 140 14C140 10.6482 138.754 7.58543 136.702 5.25221ZM134.353 8.30286C134.104 7.97156 133.634 7.90454 133.303 8.15316C132.972 8.40178 132.904 8.8719 133.153 9.2032C134.156 10.5397 134.75 12.1994 134.75 14C134.75 15.8006 134.156 17.4602 133.153 18.7968C132.904 19.1281 132.972 19.5982 133.303 19.8468C133.634 20.0954 134.104 20.0284 134.353 19.6971C135.544 18.1098 136.25 16.1363 136.25 14C136.25 11.8637 135.544 9.89012 134.353 8.30286Z" fill="#594E90"/>
<path d="M862.602 12.098C862.602 12.91 862.322 13.5867 861.762 14.128C861.211 14.66 860.367 14.926 859.228 14.926H857.352V19H856.078V9.242H859.228C860.329 9.242 861.165 9.508 861.734 10.04C862.313 10.572 862.602 11.258 862.602 12.098ZM859.228 13.876C859.937 13.876 860.46 13.722 860.796 13.414C861.132 13.106 861.3 12.6673 861.3 12.098C861.3 10.894 860.609 10.292 859.228 10.292H857.352V13.876H859.228ZM865.459 8.64V19H864.185V8.64H865.459ZM867.155 15.136C867.155 14.352 867.313 13.666 867.631 13.078C867.948 12.4807 868.382 12.0187 868.933 11.692C869.493 11.3653 870.113 11.202 870.795 11.202C871.467 11.202 872.05 11.3467 872.545 11.636C873.039 11.9253 873.408 12.2893 873.651 12.728V11.328H874.939V19H873.651V17.572C873.399 18.02 873.021 18.3933 872.517 18.692C872.022 18.9813 871.443 19.126 870.781 19.126C870.099 19.126 869.483 18.958 868.933 18.622C868.382 18.286 867.948 17.8147 867.631 17.208C867.313 16.6013 867.155 15.9107 867.155 15.136ZM873.651 15.15C873.651 14.5713 873.534 14.0673 873.301 13.638C873.067 13.2087 872.75 12.882 872.349 12.658C871.957 12.4247 871.523 12.308 871.047 12.308C870.571 12.308 870.137 12.42 869.745 12.644C869.353 12.868 869.04 13.1947 868.807 13.624C868.573 14.0533 868.457 14.5573 868.457 15.136C868.457 15.724 868.573 16.2373 868.807 16.676C869.04 17.1053 869.353 17.4367 869.745 17.67C870.137 17.894 870.571 18.006 871.047 18.006C871.523 18.006 871.957 17.894 872.349 17.67C872.75 17.4367 873.067 17.1053 873.301 16.676C873.534 16.2373 873.651 15.7287 873.651 15.15ZM883.7 11.328L879.08 22.612H877.764L879.276 18.916L876.182 11.328H877.596L880.004 17.544L882.384 11.328H883.7ZM886.254 12.756C886.516 12.2987 886.898 11.9253 887.402 11.636C887.906 11.3467 888.48 11.202 889.124 11.202C889.815 11.202 890.436 11.3653 890.986 11.692C891.537 12.0187 891.971 12.4807 892.288 13.078C892.606 13.666 892.764 14.352 892.764 15.136C892.764 15.9107 892.606 16.6013 892.288 17.208C891.971 17.8147 891.532 18.286 890.972 18.622C890.422 18.958 889.806 19.126 889.124 19.126C888.462 19.126 887.878 18.9813 887.374 18.692C886.88 18.4027 886.506 18.034 886.254 17.586V19H884.98V8.64H886.254V12.756ZM891.462 15.136C891.462 14.5573 891.346 14.0533 891.112 13.624C890.879 13.1947 890.562 12.868 890.16 12.644C889.768 12.42 889.334 12.308 888.858 12.308C888.392 12.308 887.958 12.4247 887.556 12.658C887.164 12.882 886.847 13.2133 886.604 13.652C886.371 14.0813 886.254 14.5807 886.254 15.15C886.254 15.7287 886.371 16.2373 886.604 16.676C886.847 17.1053 887.164 17.4367 887.556 17.67C887.958 17.894 888.392 18.006 888.858 18.006C889.334 18.006 889.768 17.894 890.16 17.67C890.562 17.4367 890.879 17.1053 891.112 16.676C891.346 16.2373 891.462 15.724 891.462 15.136ZM893.965 15.136C893.965 14.352 894.124 13.666 894.441 13.078C894.759 12.4807 895.193 12.0187 895.743 11.692C896.303 11.3653 896.924 11.202 897.605 11.202C898.277 11.202 898.861 11.3467 899.355 11.636C899.85 11.9253 900.219 12.2893 900.461 12.728V11.328H901.749V19H900.461V17.572C900.209 18.02 899.831 18.3933 899.327 18.692C898.833 18.9813 898.254 19.126 897.591 19.126C896.91 19.126 896.294 18.958 895.743 18.622C895.193 18.286 894.759 17.8147 894.441 17.208C894.124 16.6013 893.965 15.9107 893.965 15.136ZM900.461 15.15C900.461 14.5713 900.345 14.0673 900.111 13.638C899.878 13.2087 899.561 12.882 899.159 12.658C898.767 12.4247 898.333 12.308 897.857 12.308C897.381 12.308 896.947 12.42 896.555 12.644C896.163 12.868 895.851 13.1947 895.617 13.624C895.384 14.0533 895.267 14.5573 895.267 15.136C895.267 15.724 895.384 16.2373 895.617 16.676C895.851 17.1053 896.163 17.4367 896.555 17.67C896.947 17.894 897.381 18.006 897.857 18.006C898.333 18.006 898.767 17.894 899.159 17.67C899.561 17.4367 899.878 17.1053 900.111 16.676C900.345 16.2373 900.461 15.7287 900.461 15.15ZM903.426 15.15C903.426 14.3567 903.585 13.666 903.902 13.078C904.22 12.4807 904.658 12.0187 905.218 11.692C905.788 11.3653 906.436 11.202 907.164 11.202C908.107 11.202 908.882 11.4307 909.488 11.888C910.104 12.3453 910.51 12.98 910.706 13.792H909.334C909.204 13.3253 908.947 12.9567 908.564 12.686C908.191 12.4153 907.724 12.28 907.164 12.28C906.436 12.28 905.848 12.532 905.4 13.036C904.952 13.5307 904.728 14.2353 904.728 15.15C904.728 16.074 904.952 16.788 905.4 17.292C905.848 17.796 906.436 18.048 907.164 18.048C907.724 18.048 908.191 17.9173 908.564 17.656C908.938 17.3947 909.194 17.0213 909.334 16.536H910.706C910.501 17.32 910.09 17.95 909.474 18.426C908.858 18.8927 908.088 19.126 907.164 19.126C906.436 19.126 905.788 18.9627 905.218 18.636C904.658 18.3093 904.22 17.8473 903.902 17.25C903.585 16.6527 903.426 15.9527 903.426 15.15ZM916.69 19L913.68 15.612V19H912.406V8.64H913.68V14.73L916.634 11.328H918.412L914.8 15.15L918.426 19H916.69ZM926.06 19.126C925.472 19.126 924.944 19.028 924.478 18.832C924.011 18.6267 923.642 18.3467 923.372 17.992C923.101 17.628 922.952 17.2127 922.924 16.746H924.24C924.277 17.1287 924.454 17.4413 924.772 17.684C925.098 17.9267 925.523 18.048 926.046 18.048C926.531 18.048 926.914 17.9407 927.194 17.726C927.474 17.5113 927.614 17.2407 927.614 16.914C927.614 16.578 927.464 16.3307 927.166 16.172C926.867 16.004 926.405 15.8407 925.78 15.682C925.21 15.5327 924.744 15.3833 924.38 15.234C924.025 15.0753 923.717 14.8467 923.456 14.548C923.204 14.24 923.078 13.8387 923.078 13.344C923.078 12.952 923.194 12.5927 923.428 12.266C923.661 11.9393 923.992 11.6827 924.422 11.496C924.851 11.3 925.341 11.202 925.892 11.202C926.741 11.202 927.427 11.4167 927.95 11.846C928.472 12.2753 928.752 12.8633 928.79 13.61H927.516C927.488 13.2087 927.324 12.8867 927.026 12.644C926.736 12.4013 926.344 12.28 925.85 12.28C925.392 12.28 925.028 12.378 924.758 12.574C924.487 12.77 924.352 13.0267 924.352 13.344C924.352 13.596 924.431 13.806 924.59 13.974C924.758 14.1327 924.963 14.2633 925.206 14.366C925.458 14.4593 925.803 14.5667 926.242 14.688C926.792 14.8373 927.24 14.9867 927.586 15.136C927.931 15.276 928.225 15.4907 928.468 15.78C928.72 16.0693 928.85 16.4473 928.86 16.914C928.86 17.334 928.743 17.712 928.51 18.048C928.276 18.384 927.945 18.65 927.516 18.846C927.096 19.0327 926.61 19.126 926.06 19.126ZM931.932 12.742C932.184 12.3033 932.557 11.9393 933.052 11.65C933.556 11.3513 934.139 11.202 934.802 11.202C935.483 11.202 936.099 11.3653 936.65 11.692C937.21 12.0187 937.649 12.4807 937.966 13.078C938.283 13.666 938.442 14.352 938.442 15.136C938.442 15.9107 938.283 16.6013 937.966 17.208C937.649 17.8147 937.21 18.286 936.65 18.622C936.099 18.958 935.483 19.126 934.802 19.126C934.149 19.126 933.57 18.9813 933.066 18.692C932.571 18.3933 932.193 18.0247 931.932 17.586V22.64H930.658V11.328H931.932V12.742ZM937.14 15.136C937.14 14.5573 937.023 14.0533 936.79 13.624C936.557 13.1947 936.239 12.868 935.838 12.644C935.446 12.42 935.012 12.308 934.536 12.308C934.069 12.308 933.635 12.4247 933.234 12.658C932.842 12.882 932.525 13.2133 932.282 13.652C932.049 14.0813 931.932 14.5807 931.932 15.15C931.932 15.7287 932.049 16.2373 932.282 16.676C932.525 17.1053 932.842 17.4367 933.234 17.67C933.635 17.894 934.069 18.006 934.536 18.006C935.012 18.006 935.446 17.894 935.838 17.67C936.239 17.4367 936.557 17.1053 936.79 16.676C937.023 16.2373 937.14 15.724 937.14 15.136ZM947.119 14.87C947.119 15.1127 947.105 15.3693 947.077 15.64H940.945C940.992 16.396 941.248 16.9887 941.715 17.418C942.191 17.838 942.765 18.048 943.437 18.048C943.988 18.048 944.445 17.922 944.809 17.67C945.182 17.4087 945.444 17.0633 945.593 16.634H946.965C946.76 17.3713 946.349 17.9733 945.733 18.44C945.117 18.8973 944.352 19.126 943.437 19.126C942.709 19.126 942.056 18.9627 941.477 18.636C940.908 18.3093 940.46 17.8473 940.133 17.25C939.806 16.6433 939.643 15.9433 939.643 15.15C939.643 14.3567 939.802 13.6613 940.119 13.064C940.436 12.4667 940.88 12.0093 941.449 11.692C942.028 11.3653 942.69 11.202 943.437 11.202C944.165 11.202 944.809 11.3607 945.369 11.678C945.929 11.9953 946.358 12.434 946.657 12.994C946.965 13.5447 947.119 14.17 947.119 14.87ZM945.803 14.604C945.803 14.1187 945.696 13.7033 945.481 13.358C945.266 13.0033 944.972 12.7373 944.599 12.56C944.235 12.3733 943.829 12.28 943.381 12.28C942.737 12.28 942.186 12.4853 941.729 12.896C941.281 13.3067 941.024 13.876 940.959 14.604H945.803ZM955.801 14.87C955.801 15.1127 955.787 15.3693 955.759 15.64H949.627C949.673 16.396 949.93 16.9887 950.397 17.418C950.873 17.838 951.447 18.048 952.119 18.048C952.669 18.048 953.127 17.922 953.491 17.67C953.864 17.4087 954.125 17.0633 954.275 16.634H955.647C955.441 17.3713 955.031 17.9733 954.415 18.44C953.799 18.8973 953.033 19.126 952.119 19.126C951.391 19.126 950.737 18.9627 950.159 18.636C949.589 18.3093 949.141 17.8473 948.815 17.25C948.488 16.6433 948.325 15.9433 948.325 15.15C948.325 14.3567 948.483 13.6613 948.801 13.064C949.118 12.4667 949.561 12.0093 950.131 11.692C950.709 11.3653 951.372 11.202 952.119 11.202C952.847 11.202 953.491 11.3607 954.051 11.678C954.611 11.9953 955.04 12.434 955.339 12.994C955.647 13.5447 955.801 14.17 955.801 14.87ZM954.485 14.604C954.485 14.1187 954.377 13.7033 954.163 13.358C953.948 13.0033 953.654 12.7373 953.281 12.56C952.917 12.3733 952.511 12.28 952.063 12.28C951.419 12.28 950.868 12.4853 950.411 12.896C949.963 13.3067 949.706 13.876 949.641 14.604H954.485ZM957.006 15.136C957.006 14.352 957.165 13.666 957.482 13.078C957.8 12.4807 958.234 12.0187 958.784 11.692C959.344 11.3653 959.97 11.202 960.66 11.202C961.258 11.202 961.813 11.342 962.326 11.622C962.84 11.8927 963.232 12.252 963.502 12.7V8.64H964.79V19H963.502V17.558C963.25 18.0153 962.877 18.3933 962.382 18.692C961.888 18.9813 961.309 19.126 960.646 19.126C959.965 19.126 959.344 18.958 958.784 18.622C958.234 18.286 957.8 17.8147 957.482 17.208C957.165 16.6013 957.006 15.9107 957.006 15.136ZM963.502 15.15C963.502 14.5713 963.386 14.0673 963.152 13.638C962.919 13.2087 962.602 12.882 962.2 12.658C961.808 12.4247 961.374 12.308 960.898 12.308C960.422 12.308 959.988 12.42 959.596 12.644C959.204 12.868 958.892 13.1947 958.658 13.624C958.425 14.0533 958.308 14.5573 958.308 15.136C958.308 15.724 958.425 16.2373 958.658 16.676C958.892 17.1053 959.204 17.4367 959.596 17.67C959.988 17.894 960.422 18.006 960.898 18.006C961.374 18.006 961.808 17.894 962.2 17.67C962.602 17.4367 962.919 17.1053 963.152 16.676C963.386 16.2373 963.502 15.7287 963.502 15.15Z" fill="#594E90"/>
<path d="M991.5 8.75004C991.5 8.42122 991.286 8.13075 990.972 8.03356C990.658 7.93638 990.317 8.05514 990.131 8.32651C990.068 8.41901 990.006 8.51269 989.943 8.60757C989.441 9.36177 988.89 10.1915 987.364 11.1069C987.009 11.32 986.894 11.7807 987.107 12.1358C987.32 12.491 987.781 12.6062 988.136 12.3931C988.954 11.9023 989.547 11.4168 990 10.9588L990 19.25C990 19.6643 990.336 20.0001 990.75 20C991.164 19.9999 991.5 19.6642 991.5 19.25L991.5 8.75004ZM995.28 14.2196C994.987 13.9267 994.513 13.9267 994.22 14.2196C993.927 14.5125 993.927 14.9874 994.22 15.2803L995.939 16.9999L994.22 18.7195C993.927 19.0124 993.927 19.4873 994.22 19.7802C994.513 20.0731 994.987 20.0731 995.28 19.7802L997 18.0605L998.72 19.7802C999.013 20.0731 999.487 20.0731 999.78 19.7802C1000.07 19.4873 1000.07 19.0124 999.78 18.7195L998.061 16.9999L999.78 15.2803C1000.07 14.9874 1000.07 14.5125 999.78 14.2196C999.487 13.9267 999.013 13.9267 998.72 14.2196L997 15.9392L995.28 14.2196Z" fill="#594E90"/>
<path d="M1006.22 9.46967C1006.51 9.17678 1006.99 9.17678 1007.28 9.46967L1016 18.1893L1024.72 9.46967C1025.01 9.17678 1025.49 9.17678 1025.78 9.46967C1026.07 9.76256 1026.07 10.2374 1025.78 10.5303L1016.53 19.7803C1016.24 20.0732 1015.76 20.0732 1015.47 19.7803L1006.22 10.5303C1005.93 10.2374 1005.93 9.76256 1006.22 9.46967Z" fill="#594E90"/>
</svg>
