<svg width="1153" height="267" viewBox="0 0 1153 267" fill="none" xmlns="http://www.w3.org/2000/svg">
<g filter="url(#filter0_d_303_3143)">
<rect x="27" y="23" width="1099" height="213" rx="10" fill="white"/>
<rect x="59" y="145" width="1031" height="2" rx="1" fill="#EEF3F7" fill-opacity="0.7"/>
<rect x="59" y="145" width="71.1034" height="2" rx="1" fill="#EA714A"/>
<rect x="168.887" y="145" width="6.46395" height="2" rx="1" fill="#EA714A"/>
<rect x="188.279" y="145" width="64.6395" height="2" rx="1" fill="#EA714A"/>
<rect x="265.847" y="145" width="113.119" height="2" rx="1" fill="#EA714A"/>
<rect x="496.933" y="145" width="61.4075" height="2" rx="1" fill="#EA714A"/>
<rect x="624.596" y="145" width="11.3119" height="2" rx="1" fill="#EA714A"/>
<rect x="658.531" y="145" width="4.84796" height="2" rx="1" fill="#EA714A"/>
<rect x="716.707" y="145" width="43.6317" height="2" rx="1" fill="#EA714A"/>
<rect x="850.834" y="145" width="96.9592" height="2" rx="1" fill="#EA714A"/>
<rect x="981.729" y="145" width="45.2477" height="2" rx="1" fill="#EA714A"/>
<rect x="1075.46" y="145" width="14.5439" height="2" rx="1" fill="#EA714A"/>
<path d="M63.28 128.03V133.18C63.28 133.753 63.1033 134.213 62.75 134.56C62.3967 134.9 61.93 135.07 61.35 135.07C60.7633 135.07 60.2933 134.897 59.94 134.55C59.5867 134.197 59.41 133.717 59.41 133.11H60.32C60.3267 133.45 60.4133 133.727 60.58 133.94C60.7533 134.153 61.01 134.26 61.35 134.26C61.69 134.26 61.9433 134.16 62.11 133.96C62.2767 133.753 62.36 133.493 62.36 133.18V128.03H63.28ZM64.8327 132.24C64.8327 131.68 64.9461 131.19 65.1727 130.77C65.3994 130.343 65.7094 130.013 66.1027 129.78C66.5027 129.547 66.9461 129.43 67.4327 129.43C67.9127 129.43 68.3294 129.533 68.6827 129.74C69.0361 129.947 69.2994 130.207 69.4727 130.52V129.52H70.3927V135H69.4727V133.98C69.2927 134.3 69.0227 134.567 68.6627 134.78C68.3094 134.987 67.8961 135.09 67.4227 135.09C66.9361 135.09 66.4961 134.97 66.1027 134.73C65.7094 134.49 65.3994 134.153 65.1727 133.72C64.9461 133.287 64.8327 132.793 64.8327 132.24ZM69.4727 132.25C69.4727 131.837 69.3894 131.477 69.2227 131.17C69.0561 130.863 68.8294 130.63 68.5427 130.47C68.2627 130.303 67.9527 130.22 67.6127 130.22C67.2727 130.22 66.9627 130.3 66.6827 130.46C66.4027 130.62 66.1794 130.853 66.0127 131.16C65.8461 131.467 65.7627 131.827 65.7627 132.24C65.7627 132.66 65.8461 133.027 66.0127 133.34C66.1794 133.647 66.4027 133.883 66.6827 134.05C66.9627 134.21 67.2727 134.29 67.6127 134.29C67.9527 134.29 68.2627 134.21 68.5427 134.05C68.8294 133.883 69.0561 133.647 69.2227 133.34C69.3894 133.027 69.4727 132.663 69.4727 132.25ZM74.7005 129.42C75.3672 129.42 75.9072 129.623 76.3205 130.03C76.7339 130.43 76.9405 131.01 76.9405 131.77V135H76.0405V131.9C76.0405 131.353 75.9039 130.937 75.6305 130.65C75.3572 130.357 74.9839 130.21 74.5105 130.21C74.0305 130.21 73.6472 130.36 73.3605 130.66C73.0805 130.96 72.9405 131.397 72.9405 131.97V135H72.0305V129.52H72.9405V130.3C73.1205 130.02 73.3639 129.803 73.6705 129.65C73.9839 129.497 74.3272 129.42 74.7005 129.42ZM83.527 132.05C83.527 132.223 83.517 132.407 83.497 132.6H79.117C79.1504 133.14 79.3337 133.563 79.667 133.87C80.007 134.17 80.417 134.32 80.897 134.32C81.2904 134.32 81.617 134.23 81.877 134.05C82.1437 133.863 82.3304 133.617 82.437 133.31H83.417C83.2704 133.837 82.977 134.267 82.537 134.6C82.097 134.927 81.5504 135.09 80.897 135.09C80.377 135.09 79.9104 134.973 79.497 134.74C79.0904 134.507 78.7704 134.177 78.537 133.75C78.3037 133.317 78.187 132.817 78.187 132.25C78.187 131.683 78.3004 131.187 78.527 130.76C78.7537 130.333 79.0704 130.007 79.477 129.78C79.8904 129.547 80.3637 129.43 80.897 129.43C81.417 129.43 81.877 129.543 82.277 129.77C82.677 129.997 82.9837 130.31 83.197 130.71C83.417 131.103 83.527 131.55 83.527 132.05ZM82.587 131.86C82.587 131.513 82.5104 131.217 82.357 130.97C82.2037 130.717 81.9937 130.527 81.727 130.4C81.467 130.267 81.177 130.2 80.857 130.2C80.397 130.2 80.0037 130.347 79.677 130.64C79.357 130.933 79.1737 131.34 79.127 131.86H82.587ZM89.7642 128.03C90.5242 128.03 91.1809 128.173 91.7342 128.46C92.2942 128.74 92.7209 129.143 93.0142 129.67C93.3142 130.197 93.4642 130.817 93.4642 131.53C93.4642 132.243 93.3142 132.863 93.0142 133.39C92.7209 133.91 92.2942 134.31 91.7342 134.59C91.1809 134.863 90.5242 135 89.7642 135H87.5942V128.03H89.7642ZM89.7642 134.25C90.6642 134.25 91.3509 134.013 91.8242 133.54C92.2976 133.06 92.5342 132.39 92.5342 131.53C92.5342 130.663 92.2942 129.987 91.8142 129.5C91.3409 129.013 90.6576 128.77 89.7642 128.77H88.5042V134.25H89.7642ZM97.1545 135.09C96.6412 135.09 96.1745 134.973 95.7545 134.74C95.3412 134.507 95.0145 134.177 94.7745 133.75C94.5412 133.317 94.4245 132.817 94.4245 132.25C94.4245 131.69 94.5445 131.197 94.7845 130.77C95.0312 130.337 95.3645 130.007 95.7845 129.78C96.2045 129.547 96.6745 129.43 97.1945 129.43C97.7145 129.43 98.1845 129.547 98.6045 129.78C99.0245 130.007 99.3545 130.333 99.5945 130.76C99.8412 131.187 99.9645 131.683 99.9645 132.25C99.9645 132.817 99.8379 133.317 99.5845 133.75C99.3379 134.177 99.0012 134.507 98.5745 134.74C98.1479 134.973 97.6745 135.09 97.1545 135.09ZM97.1545 134.29C97.4812 134.29 97.7879 134.213 98.0745 134.06C98.3612 133.907 98.5912 133.677 98.7645 133.37C98.9445 133.063 99.0345 132.69 99.0345 132.25C99.0345 131.81 98.9479 131.437 98.7745 131.13C98.6012 130.823 98.3745 130.597 98.0945 130.45C97.8145 130.297 97.5112 130.22 97.1845 130.22C96.8512 130.22 96.5445 130.297 96.2645 130.45C95.9912 130.597 95.7712 130.823 95.6045 131.13C95.4379 131.437 95.3545 131.81 95.3545 132.25C95.3545 132.697 95.4345 133.073 95.5945 133.38C95.7612 133.687 95.9812 133.917 96.2545 134.07C96.5279 134.217 96.8279 134.29 97.1545 134.29ZM106.261 132.05C106.261 132.223 106.251 132.407 106.231 132.6H101.851C101.884 133.14 102.068 133.563 102.401 133.87C102.741 134.17 103.151 134.32 103.631 134.32C104.024 134.32 104.351 134.23 104.611 134.05C104.878 133.863 105.064 133.617 105.171 133.31H106.151C106.004 133.837 105.711 134.267 105.271 134.6C104.831 134.927 104.284 135.09 103.631 135.09C103.111 135.09 102.644 134.973 102.231 134.74C101.824 134.507 101.504 134.177 101.271 133.75C101.038 133.317 100.921 132.817 100.921 132.25C100.921 131.683 101.034 131.187 101.261 130.76C101.488 130.333 101.804 130.007 102.211 129.78C102.624 129.547 103.098 129.43 103.631 129.43C104.151 129.43 104.611 129.543 105.011 129.77C105.411 129.997 105.718 130.31 105.931 130.71C106.151 131.103 106.261 131.55 106.261 132.05ZM105.321 131.86C105.321 131.513 105.244 131.217 105.091 130.97C104.938 130.717 104.728 130.527 104.461 130.4C104.201 130.267 103.911 130.2 103.591 130.2C103.131 130.2 102.738 130.347 102.411 130.64C102.091 130.933 101.908 131.34 101.861 131.86H105.321Z" fill="#2C264A"/>
<rect x="59" y="95" width="952" height="6" rx="3" fill="#EEF3F7" fill-opacity="0.7"/>
<rect x="59" y="95" width="157" height="6" rx="3" fill="#706B85"/>
<rect x="210" y="92" width="12" height="12" rx="6" fill="#706B85"/>
<path d="M1030.22 98.4209C1030.22 99.6546 1030.02 100.576 1029.63 101.185C1029.25 101.793 1028.65 102.098 1027.85 102.098C1027.08 102.098 1026.5 101.787 1026.1 101.165C1025.7 100.54 1025.5 99.6253 1025.5 98.4209C1025.5 97.1774 1025.69 96.2546 1026.08 95.6523C1026.47 95.0501 1027.06 94.749 1027.85 94.749C1028.63 94.749 1029.21 95.0632 1029.61 95.6914C1030.02 96.3197 1030.22 97.2295 1030.22 98.4209ZM1026.32 98.4209C1026.32 99.4593 1026.44 100.216 1026.68 100.691C1026.93 101.163 1027.32 101.399 1027.85 101.399C1028.39 101.399 1028.78 101.16 1029.02 100.682C1029.27 100.2 1029.39 99.4463 1029.39 98.4209C1029.39 97.3955 1029.27 96.6452 1029.02 96.1699C1028.78 95.6914 1028.39 95.4521 1027.85 95.4521C1027.32 95.4521 1026.93 95.6882 1026.68 96.1602C1026.44 96.6289 1026.32 97.3825 1026.32 98.4209ZM1036.04 98.4209C1036.04 99.6546 1035.85 100.576 1035.46 101.185C1035.07 101.793 1034.47 102.098 1033.67 102.098C1032.91 102.098 1032.32 101.787 1031.92 101.165C1031.52 100.54 1031.32 99.6253 1031.32 98.4209C1031.32 97.1774 1031.51 96.2546 1031.9 95.6523C1032.29 95.0501 1032.88 94.749 1033.67 94.749C1034.45 94.749 1035.04 95.0632 1035.44 95.6914C1035.84 96.3197 1036.04 97.2295 1036.04 98.4209ZM1032.14 98.4209C1032.14 99.4593 1032.26 100.216 1032.51 100.691C1032.75 101.163 1033.14 101.399 1033.67 101.399C1034.21 101.399 1034.61 101.16 1034.85 100.682C1035.09 100.2 1035.21 99.4463 1035.21 98.4209C1035.21 97.3955 1035.09 96.6452 1034.85 96.1699C1034.61 95.6914 1034.21 95.4521 1033.67 95.4521C1033.14 95.4521 1032.75 95.6882 1032.51 96.1602C1032.26 96.6289 1032.14 97.3825 1032.14 98.4209ZM1037.39 101.482C1037.39 101.264 1037.44 101.1 1037.53 100.989C1037.63 100.875 1037.78 100.818 1037.96 100.818C1038.15 100.818 1038.3 100.875 1038.4 100.989C1038.51 101.1 1038.56 101.264 1038.56 101.482C1038.56 101.694 1038.51 101.857 1038.4 101.971C1038.3 102.085 1038.15 102.142 1037.96 102.142C1037.8 102.142 1037.66 102.091 1037.55 101.99C1037.44 101.886 1037.39 101.717 1037.39 101.482ZM1037.39 97.1709C1037.39 96.7314 1037.58 96.5117 1037.96 96.5117C1038.36 96.5117 1038.56 96.7314 1038.56 97.1709C1038.56 97.3825 1038.51 97.5452 1038.4 97.6592C1038.3 97.7731 1038.15 97.8301 1037.96 97.8301C1037.8 97.8301 1037.66 97.7796 1037.55 97.6787C1037.44 97.5745 1037.39 97.4053 1037.39 97.1709ZM1044.32 96.541C1044.32 96.9967 1044.19 97.3695 1043.94 97.6592C1043.68 97.9489 1043.32 98.1426 1042.85 98.2402V98.2793C1043.43 98.3509 1043.85 98.5332 1044.13 98.8262C1044.4 99.1191 1044.54 99.5033 1044.54 99.9785C1044.54 100.659 1044.31 101.183 1043.84 101.551C1043.36 101.915 1042.69 102.098 1041.82 102.098C1041.45 102.098 1041.1 102.068 1040.78 102.01C1040.47 101.954 1040.17 101.855 1039.87 101.712V100.94C1040.18 101.093 1040.51 101.211 1040.86 101.292C1041.21 101.37 1041.54 101.409 1041.85 101.409C1043.09 101.409 1043.7 100.926 1043.7 99.959C1043.7 99.0931 1043.02 98.6602 1041.66 98.6602H1040.96V97.9619H1041.67C1042.23 97.9619 1042.67 97.8398 1043 97.5957C1043.32 97.3483 1043.48 97.0065 1043.48 96.5703C1043.48 96.222 1043.36 95.9486 1043.12 95.75C1042.88 95.5514 1042.56 95.4521 1042.15 95.4521C1041.84 95.4521 1041.54 95.4945 1041.27 95.5791C1040.99 95.6637 1040.67 95.82 1040.32 96.0479L1039.91 95.501C1040.2 95.2699 1040.54 95.0892 1040.92 94.959C1041.3 94.8255 1041.71 94.7588 1042.13 94.7588C1042.82 94.7588 1043.36 94.9183 1043.75 95.2373C1044.13 95.5531 1044.32 95.9876 1044.32 96.541ZM1045.81 98.9482C1045.81 97.5452 1046.08 96.4971 1046.62 95.8037C1047.17 95.1071 1047.97 94.7588 1049.04 94.7588C1049.41 94.7588 1049.7 94.7897 1049.91 94.8516V95.5498C1049.66 95.4684 1049.37 95.4277 1049.05 95.4277C1048.29 95.4277 1047.7 95.667 1047.3 96.1455C1046.9 96.6208 1046.67 97.3695 1046.64 98.3916H1046.69C1047.05 97.8317 1047.62 97.5518 1048.39 97.5518C1049.03 97.5518 1049.54 97.7454 1049.91 98.1328C1050.28 98.5202 1050.46 99.0459 1050.46 99.71C1050.46 100.452 1050.26 101.036 1049.85 101.463C1049.45 101.886 1048.9 102.098 1048.21 102.098C1047.47 102.098 1046.89 101.821 1046.45 101.268C1046.02 100.711 1045.81 99.9378 1045.81 98.9482ZM1048.2 101.409C1048.66 101.409 1049.02 101.264 1049.28 100.975C1049.53 100.682 1049.66 100.26 1049.66 99.71C1049.66 99.238 1049.54 98.8669 1049.31 98.5967C1049.07 98.3265 1048.71 98.1914 1048.24 98.1914C1047.95 98.1914 1047.68 98.2516 1047.44 98.3721C1047.19 98.4925 1047 98.6585 1046.85 98.8701C1046.71 99.0817 1046.64 99.3014 1046.64 99.5293C1046.64 99.8646 1046.7 100.177 1046.83 100.467C1046.96 100.757 1047.14 100.986 1047.38 101.155C1047.62 101.325 1047.9 101.409 1048.2 101.409ZM1057.32 94.8613L1054.66 102H1053.85L1056.51 94.8613H1057.32ZM1065.44 98.4209C1065.44 99.6546 1065.25 100.576 1064.86 101.185C1064.47 101.793 1063.88 102.098 1063.08 102.098C1062.31 102.098 1061.72 101.787 1061.32 101.165C1060.92 100.54 1060.72 99.6253 1060.72 98.4209C1060.72 97.1774 1060.92 96.2546 1061.3 95.6523C1061.69 95.0501 1062.28 94.749 1063.08 94.749C1063.85 94.749 1064.44 95.0632 1064.84 95.6914C1065.24 96.3197 1065.44 97.2295 1065.44 98.4209ZM1061.54 98.4209C1061.54 99.4593 1061.66 100.216 1061.91 100.691C1062.15 101.163 1062.54 101.399 1063.08 101.399C1063.62 101.399 1064.01 101.16 1064.25 100.682C1064.49 100.2 1064.61 99.4463 1064.61 98.4209C1064.61 97.3955 1064.49 96.6452 1064.25 96.1699C1064.01 95.6914 1063.62 95.4521 1063.08 95.4521C1062.54 95.4521 1062.15 95.6882 1061.91 96.1602C1061.66 96.6289 1061.54 97.3825 1061.54 98.4209ZM1071.56 100.359H1070.5V102H1069.73V100.359H1066.26V99.6514L1069.65 94.8223H1070.5V99.6221H1071.56V100.359ZM1069.73 99.6221V97.249C1069.73 96.7835 1069.74 96.2578 1069.78 95.6719H1069.74C1069.58 95.9844 1069.44 96.2432 1069.3 96.4482L1067.07 99.6221H1069.73ZM1072.61 101.482C1072.61 101.264 1072.66 101.1 1072.76 100.989C1072.86 100.875 1073 100.818 1073.19 100.818C1073.38 100.818 1073.52 100.875 1073.63 100.989C1073.73 101.1 1073.79 101.264 1073.79 101.482C1073.79 101.694 1073.73 101.857 1073.63 101.971C1073.52 102.085 1073.37 102.142 1073.19 102.142C1073.02 102.142 1072.88 102.091 1072.77 101.99C1072.67 101.886 1072.61 101.717 1072.61 101.482ZM1072.61 97.1709C1072.61 96.7314 1072.8 96.5117 1073.19 96.5117C1073.59 96.5117 1073.79 96.7314 1073.79 97.1709C1073.79 97.3825 1073.73 97.5452 1073.63 97.6592C1073.52 97.7731 1073.37 97.8301 1073.19 97.8301C1073.02 97.8301 1072.88 97.7796 1072.77 97.6787C1072.67 97.5745 1072.61 97.4053 1072.61 97.1709ZM1078.13 102H1077.34V96.9121C1077.34 96.4889 1077.35 96.0885 1077.37 95.7109C1077.31 95.7793 1077.23 95.8509 1077.14 95.9258C1077.06 96.0007 1076.67 96.318 1075.98 96.8779L1075.55 96.3213L1077.44 94.8613H1078.13V102ZM1085.64 102H1080.95V101.302L1082.83 99.4121C1083.4 98.8327 1083.78 98.4193 1083.96 98.1719C1084.14 97.9245 1084.28 97.6836 1084.37 97.4492C1084.46 97.2148 1084.51 96.9626 1084.51 96.6924C1084.51 96.3115 1084.39 96.0104 1084.16 95.7891C1083.93 95.5645 1083.61 95.4521 1083.2 95.4521C1082.9 95.4521 1082.62 95.501 1082.35 95.5986C1082.09 95.6963 1081.79 95.8737 1081.47 96.1309L1081.04 95.5791C1081.7 95.0322 1082.41 94.7588 1083.19 94.7588C1083.86 94.7588 1084.38 94.9313 1084.76 95.2764C1085.15 95.6182 1085.34 96.0788 1085.34 96.6582C1085.34 97.1107 1085.21 97.5583 1084.95 98.001C1084.7 98.4437 1084.23 99.0036 1083.53 99.6807L1081.97 101.209V101.248H1085.64V102Z" fill="#594E90"/>
<rect x="59" y="185" width="1031" height="2" rx="1" fill="#EEF3F7" fill-opacity="0.7"/>
<rect width="38.7837" height="2" rx="1" transform="matrix(-1 0 0 1 168.887 185)" fill="#109BE8"/>
<rect width="12.9279" height="2" rx="1" transform="matrix(-1 0 0 1 188.279 185)" fill="#109BE8"/>
<rect width="12.9279" height="2" rx="1" transform="matrix(-1 0 0 1 265.847 185)" fill="#109BE8"/>
<rect width="117.967" height="2" rx="1" transform="matrix(-1 0 0 1 496.933 185)" fill="#109BE8"/>
<rect width="66.2555" height="2" rx="1" transform="matrix(-1 0 0 1 624.596 185)" fill="#109BE8"/>
<rect width="22.6238" height="2" rx="1" transform="matrix(-1 0 0 1 658.531 185)" fill="#109BE8"/>
<rect width="53.3276" height="2" rx="1" transform="matrix(-1 0 0 1 716.707 185)" fill="#109BE8"/>
<rect width="90.4953" height="2" rx="1" transform="matrix(-1 0 0 1 850.834 185)" fill="#109BE8"/>
<rect width="33.9357" height="2" rx="1" transform="matrix(-1 0 0 1 981.729 185)" fill="#109BE8"/>
<rect width="48.4796" height="2" rx="1" transform="matrix(-1 0 0 1 1075.46 185)" fill="#109BE8"/>
<path d="M65.25 175H64.34L60.68 169.45V175H59.77V168.02H60.68L64.34 173.56V168.02H65.25V175ZM66.5612 172.24C66.5612 171.68 66.6746 171.19 66.9012 170.77C67.1279 170.343 67.4379 170.013 67.8312 169.78C68.2312 169.547 68.6746 169.43 69.1612 169.43C69.6413 169.43 70.0579 169.533 70.4113 169.74C70.7646 169.947 71.0279 170.207 71.2013 170.52V169.52H72.1213V175H71.2013V173.98C71.0213 174.3 70.7513 174.567 70.3913 174.78C70.0379 174.987 69.6246 175.09 69.1513 175.09C68.6646 175.09 68.2246 174.97 67.8312 174.73C67.4379 174.49 67.1279 174.153 66.9012 173.72C66.6746 173.287 66.5612 172.793 66.5612 172.24ZM71.2013 172.25C71.2013 171.837 71.1179 171.477 70.9513 171.17C70.7846 170.863 70.5579 170.63 70.2713 170.47C69.9913 170.303 69.6812 170.22 69.3413 170.22C69.0013 170.22 68.6913 170.3 68.4113 170.46C68.1312 170.62 67.9079 170.853 67.7413 171.16C67.5746 171.467 67.4912 171.827 67.4912 172.24C67.4912 172.66 67.5746 173.027 67.7413 173.34C67.9079 173.647 68.1312 173.883 68.4113 174.05C68.6913 174.21 69.0013 174.29 69.3413 174.29C69.6812 174.29 69.9913 174.21 70.2713 174.05C70.5579 173.883 70.7846 173.647 70.9513 173.34C71.1179 173.027 71.2013 172.663 71.2013 172.25ZM80.3491 169.42C80.7757 169.42 81.1557 169.51 81.4891 169.69C81.8224 169.863 82.0857 170.127 82.2791 170.48C82.4724 170.833 82.5691 171.263 82.5691 171.77V175H81.6691V171.9C81.6691 171.353 81.5324 170.937 81.2591 170.65C80.9924 170.357 80.6291 170.21 80.1691 170.21C79.6957 170.21 79.3191 170.363 79.0391 170.67C78.7591 170.97 78.6191 171.407 78.6191 171.98V175H77.7191V171.9C77.7191 171.353 77.5824 170.937 77.3091 170.65C77.0424 170.357 76.6791 170.21 76.2191 170.21C75.7457 170.21 75.3691 170.363 75.0891 170.67C74.8091 170.97 74.6691 171.407 74.6691 171.98V175H73.7591V169.52H74.6691V170.31C74.8491 170.023 75.0891 169.803 75.3891 169.65C75.6957 169.497 76.0324 169.42 76.3991 169.42C76.8591 169.42 77.2657 169.523 77.6191 169.73C77.9724 169.937 78.2357 170.24 78.4091 170.64C78.5624 170.253 78.8157 169.953 79.1691 169.74C79.5224 169.527 79.9157 169.42 80.3491 169.42ZM89.1618 172.05C89.1618 172.223 89.1518 172.407 89.1318 172.6H84.7518C84.7851 173.14 84.9685 173.563 85.3018 173.87C85.6418 174.17 86.0518 174.32 86.5318 174.32C86.9251 174.32 87.2518 174.23 87.5118 174.05C87.7785 173.863 87.9651 173.617 88.0718 173.31H89.0518C88.9051 173.837 88.6118 174.267 88.1718 174.6C87.7318 174.927 87.1851 175.09 86.5318 175.09C86.0118 175.09 85.5451 174.973 85.1318 174.74C84.7251 174.507 84.4051 174.177 84.1718 173.75C83.9385 173.317 83.8218 172.817 83.8218 172.25C83.8218 171.683 83.9351 171.187 84.1618 170.76C84.3885 170.333 84.7051 170.007 85.1118 169.78C85.5251 169.547 85.9985 169.43 86.5318 169.43C87.0518 169.43 87.5118 169.543 87.9118 169.77C88.3118 169.997 88.6185 170.31 88.8318 170.71C89.0518 171.103 89.1618 171.55 89.1618 172.05ZM88.2218 171.86C88.2218 171.513 88.1451 171.217 87.9918 170.97C87.8385 170.717 87.6285 170.527 87.3618 170.4C87.1018 170.267 86.8118 170.2 86.4918 170.2C86.0318 170.2 85.6385 170.347 85.3118 170.64C84.9918 170.933 84.8085 171.34 84.7618 171.86H88.2218ZM95.439 175.07C94.979 175.07 94.5657 174.99 94.199 174.83C93.839 174.663 93.5557 174.437 93.349 174.15C93.1423 173.857 93.0357 173.52 93.029 173.14H93.999C94.0323 173.467 94.1657 173.743 94.399 173.97C94.639 174.19 94.9857 174.3 95.439 174.3C95.8723 174.3 96.2123 174.193 96.459 173.98C96.7123 173.76 96.839 173.48 96.839 173.14C96.839 172.873 96.7657 172.657 96.619 172.49C96.4723 172.323 96.289 172.197 96.069 172.11C95.849 172.023 95.5523 171.93 95.179 171.83C94.719 171.71 94.349 171.59 94.069 171.47C93.7957 171.35 93.559 171.163 93.359 170.91C93.1657 170.65 93.069 170.303 93.069 169.87C93.069 169.49 93.1657 169.153 93.359 168.86C93.5523 168.567 93.8223 168.34 94.169 168.18C94.5223 168.02 94.9257 167.94 95.379 167.94C96.0323 167.94 96.5657 168.103 96.979 168.43C97.399 168.757 97.6357 169.19 97.689 169.73H96.689C96.6557 169.463 96.5157 169.23 96.269 169.03C96.0223 168.823 95.6957 168.72 95.289 168.72C94.909 168.72 94.599 168.82 94.359 169.02C94.119 169.213 93.999 169.487 93.999 169.84C93.999 170.093 94.069 170.3 94.209 170.46C94.3557 170.62 94.5323 170.743 94.739 170.83C94.9523 170.91 95.249 171.003 95.629 171.11C96.089 171.237 96.459 171.363 96.739 171.49C97.019 171.61 97.259 171.8 97.459 172.06C97.659 172.313 97.759 172.66 97.759 173.1C97.759 173.44 97.669 173.76 97.489 174.06C97.309 174.36 97.0423 174.603 96.689 174.79C96.3357 174.977 95.919 175.07 95.439 175.07ZM104.058 169.52V175H103.148V174.19C102.975 174.47 102.731 174.69 102.418 174.85C102.111 175.003 101.771 175.08 101.398 175.08C100.971 175.08 100.588 174.993 100.248 174.82C99.9081 174.64 99.6381 174.373 99.4381 174.02C99.2448 173.667 99.1481 173.237 99.1481 172.73V169.52H100.048V172.61C100.048 173.15 100.185 173.567 100.458 173.86C100.731 174.147 101.105 174.29 101.578 174.29C102.065 174.29 102.448 174.14 102.728 173.84C103.008 173.54 103.148 173.103 103.148 172.53V169.52H104.058ZM106.605 170.41C106.765 170.097 106.991 169.853 107.285 169.68C107.585 169.507 107.948 169.42 108.375 169.42V170.36H108.135C107.115 170.36 106.605 170.913 106.605 172.02V175H105.695V169.52H106.605V170.41ZM112.195 169.42C112.862 169.42 113.402 169.623 113.815 170.03C114.228 170.43 114.435 171.01 114.435 171.77V175H113.535V171.9C113.535 171.353 113.398 170.937 113.125 170.65C112.852 170.357 112.478 170.21 112.005 170.21C111.525 170.21 111.142 170.36 110.855 170.66C110.575 170.96 110.435 171.397 110.435 171.97V175H109.525V169.52H110.435V170.3C110.615 170.02 110.858 169.803 111.165 169.65C111.478 169.497 111.822 169.42 112.195 169.42ZM115.682 172.24C115.682 171.68 115.795 171.19 116.022 170.77C116.248 170.343 116.558 170.013 116.952 169.78C117.352 169.547 117.795 169.43 118.282 169.43C118.762 169.43 119.178 169.533 119.532 169.74C119.885 169.947 120.148 170.207 120.322 170.52V169.52H121.242V175H120.322V173.98C120.142 174.3 119.872 174.567 119.512 174.78C119.158 174.987 118.745 175.09 118.272 175.09C117.785 175.09 117.345 174.97 116.952 174.73C116.558 174.49 116.248 174.153 116.022 173.72C115.795 173.287 115.682 172.793 115.682 172.24ZM120.322 172.25C120.322 171.837 120.238 171.477 120.072 171.17C119.905 170.863 119.678 170.63 119.392 170.47C119.112 170.303 118.802 170.22 118.462 170.22C118.122 170.22 117.812 170.3 117.532 170.46C117.252 170.62 117.028 170.853 116.862 171.16C116.695 171.467 116.612 171.827 116.612 172.24C116.612 172.66 116.695 173.027 116.862 173.34C117.028 173.647 117.252 173.883 117.532 174.05C117.812 174.21 118.122 174.29 118.462 174.29C118.802 174.29 119.112 174.21 119.392 174.05C119.678 173.883 119.905 173.647 120.072 173.34C120.238 173.027 120.322 172.663 120.322 172.25ZM129.469 169.42C129.896 169.42 130.276 169.51 130.609 169.69C130.943 169.863 131.206 170.127 131.399 170.48C131.593 170.833 131.689 171.263 131.689 171.77V175H130.789V171.9C130.789 171.353 130.653 170.937 130.379 170.65C130.113 170.357 129.749 170.21 129.289 170.21C128.816 170.21 128.439 170.363 128.159 170.67C127.879 170.97 127.739 171.407 127.739 171.98V175H126.839V171.9C126.839 171.353 126.703 170.937 126.429 170.65C126.163 170.357 125.799 170.21 125.339 170.21C124.866 170.21 124.489 170.363 124.209 170.67C123.929 170.97 123.789 171.407 123.789 171.98V175H122.879V169.52H123.789V170.31C123.969 170.023 124.209 169.803 124.509 169.65C124.816 169.497 125.153 169.42 125.519 169.42C125.979 169.42 126.386 169.523 126.739 169.73C127.093 169.937 127.356 170.24 127.529 170.64C127.683 170.253 127.936 169.953 128.289 169.74C128.643 169.527 129.036 169.42 129.469 169.42ZM138.282 172.05C138.282 172.223 138.272 172.407 138.252 172.6H133.872C133.905 173.14 134.089 173.563 134.422 173.87C134.762 174.17 135.172 174.32 135.652 174.32C136.045 174.32 136.372 174.23 136.632 174.05C136.899 173.863 137.085 173.617 137.192 173.31H138.172C138.025 173.837 137.732 174.267 137.292 174.6C136.852 174.927 136.305 175.09 135.652 175.09C135.132 175.09 134.665 174.973 134.252 174.74C133.845 174.507 133.525 174.177 133.292 173.75C133.059 173.317 132.942 172.817 132.942 172.25C132.942 171.683 133.055 171.187 133.282 170.76C133.509 170.333 133.825 170.007 134.232 169.78C134.645 169.547 135.119 169.43 135.652 169.43C136.172 169.43 136.632 169.543 137.032 169.77C137.432 169.997 137.739 170.31 137.952 170.71C138.172 171.103 138.282 171.55 138.282 172.05ZM137.342 171.86C137.342 171.513 137.265 171.217 137.112 170.97C136.959 170.717 136.749 170.527 136.482 170.4C136.222 170.267 135.932 170.2 135.612 170.2C135.152 170.2 134.759 170.347 134.432 170.64C134.112 170.933 133.929 171.34 133.882 171.86H137.342Z" fill="#2C264A"/>
<path d="M158.967 214.332C164.847 214.332 169.633 210.145 169.633 204.999C169.633 199.852 164.847 195.665 158.967 195.665C157.866 195.667 156.772 195.819 155.713 196.119L152.027 193.772C151.926 193.707 151.81 193.671 151.69 193.667C151.571 193.663 151.452 193.691 151.347 193.748C151.242 193.805 151.155 193.889 151.094 193.992C151.032 194.095 151 194.212 151 194.332L151 198.819C150.166 199.619 149.5 200.578 149.042 201.639C148.584 202.7 148.343 203.843 148.333 204.999C148.3 210.145 153.087 214.332 158.967 214.332Z" fill="white"/>
<path fill-rule="evenodd" clip-rule="evenodd" d="M169.633 204.999C169.633 210.145 164.847 214.332 158.967 214.332C153.087 214.332 148.3 210.145 148.333 204.999C148.343 203.843 148.584 202.7 149.042 201.639C149.5 200.578 150.166 199.619 151 198.819L151 194.332C151 194.212 151.032 194.095 151.094 193.992C151.155 193.889 151.242 193.805 151.347 193.748C151.452 193.691 151.571 193.663 151.69 193.667C151.81 193.671 151.926 193.707 152.027 193.772L155.713 196.119C156.772 195.819 157.866 195.667 158.967 195.665C164.847 195.665 169.633 199.852 169.633 204.999ZM158.02 199.302C157.978 199.425 157.962 199.556 157.973 199.685V206.199C157.962 206.328 157.978 206.459 158.02 206.582C158.062 206.705 158.13 206.818 158.218 206.914C158.306 207.01 158.413 207.086 158.532 207.138C158.651 207.191 158.78 207.218 158.91 207.218C159.04 207.218 159.168 207.191 159.288 207.138C159.407 207.086 159.514 207.01 159.602 206.914C159.69 206.818 159.757 206.705 159.799 206.582C159.841 206.459 159.857 206.328 159.846 206.199V199.685C159.857 199.556 159.841 199.425 159.799 199.302C159.757 199.179 159.69 199.066 159.602 198.97C159.514 198.874 159.407 198.798 159.288 198.746C159.168 198.693 159.04 198.666 158.91 198.666C158.78 198.666 158.651 198.693 158.532 198.746C158.413 198.798 158.306 198.874 158.218 198.97C158.13 199.066 158.062 199.179 158.02 199.302ZM158.22 211.042C158.425 211.179 158.666 211.252 158.913 211.252V211.245C159.242 211.245 159.559 211.115 159.792 210.883C160.026 210.65 160.158 210.335 160.16 210.005C160.16 209.759 160.087 209.518 159.95 209.313C159.813 209.108 159.618 208.948 159.39 208.854C159.162 208.759 158.912 208.734 158.67 208.783C158.428 208.831 158.206 208.949 158.031 209.124C157.857 209.298 157.738 209.52 157.69 209.762C157.642 210.004 157.667 210.255 157.761 210.482C157.856 210.71 158.015 210.905 158.22 211.042Z" fill="#EB3C3C"/>
<path d="M403.967 214.332C409.847 214.332 414.633 210.145 414.633 204.999C414.633 199.852 409.847 195.665 403.967 195.665C402.866 195.667 401.772 195.819 400.713 196.119L397.027 193.772C396.926 193.707 396.81 193.671 396.69 193.667C396.571 193.663 396.452 193.691 396.347 193.748C396.242 193.805 396.155 193.889 396.094 193.992C396.032 194.095 396 194.212 396 194.332L396 198.819C395.166 199.619 394.5 200.578 394.042 201.639C393.584 202.7 393.343 203.843 393.333 204.999C393.3 210.145 398.087 214.332 403.967 214.332Z" fill="white"/>
<path fill-rule="evenodd" clip-rule="evenodd" d="M414.633 204.999C414.633 210.145 409.847 214.332 403.967 214.332C398.087 214.332 393.3 210.145 393.333 204.999C393.343 203.843 393.584 202.7 394.042 201.639C394.5 200.578 395.166 199.619 396 198.819L396 194.332C396 194.212 396.032 194.095 396.094 193.992C396.155 193.889 396.242 193.805 396.347 193.748C396.452 193.691 396.571 193.663 396.69 193.667C396.81 193.671 396.926 193.707 397.027 193.772L400.713 196.119C401.772 195.819 402.866 195.667 403.967 195.665C409.847 195.665 414.633 199.852 414.633 204.999ZM403.02 199.302C402.978 199.425 402.962 199.556 402.973 199.685V206.199C402.962 206.328 402.978 206.459 403.02 206.582C403.062 206.705 403.13 206.818 403.218 206.914C403.306 207.01 403.413 207.086 403.532 207.138C403.651 207.191 403.78 207.218 403.91 207.218C404.04 207.218 404.168 207.191 404.288 207.138C404.407 207.086 404.514 207.01 404.602 206.914C404.69 206.818 404.757 206.705 404.799 206.582C404.841 206.459 404.857 206.328 404.846 206.199V199.685C404.857 199.556 404.841 199.425 404.799 199.302C404.757 199.179 404.69 199.066 404.602 198.97C404.514 198.874 404.407 198.798 404.288 198.746C404.168 198.693 404.04 198.666 403.91 198.666C403.78 198.666 403.651 198.693 403.532 198.746C403.413 198.798 403.306 198.874 403.218 198.97C403.13 199.066 403.062 199.179 403.02 199.302ZM403.22 211.042C403.425 211.179 403.666 211.252 403.913 211.252V211.245C404.242 211.245 404.559 211.115 404.792 210.883C405.026 210.65 405.158 210.335 405.16 210.005C405.16 209.759 405.087 209.518 404.95 209.313C404.813 209.108 404.618 208.948 404.39 208.854C404.162 208.759 403.912 208.734 403.67 208.783C403.428 208.831 403.206 208.949 403.031 209.124C402.857 209.298 402.738 209.52 402.69 209.762C402.642 210.004 402.667 210.255 402.761 210.482C402.856 210.71 403.015 210.905 403.22 211.042Z" fill="#F4BF03"/>
<path d="M586.967 214.332C592.847 214.332 597.633 210.145 597.633 204.999C597.633 199.852 592.847 195.665 586.967 195.665C585.866 195.667 584.772 195.819 583.713 196.119L580.027 193.772C579.926 193.707 579.81 193.671 579.69 193.667C579.571 193.663 579.452 193.691 579.347 193.748C579.242 193.805 579.155 193.889 579.094 193.992C579.032 194.095 579 194.212 579 194.332L579 198.819C578.166 199.619 577.5 200.578 577.042 201.639C576.584 202.7 576.343 203.843 576.333 204.999C576.3 210.145 581.087 214.332 586.967 214.332Z" fill="white"/>
<path fill-rule="evenodd" clip-rule="evenodd" d="M597.633 204.999C597.633 210.145 592.847 214.332 586.967 214.332C581.087 214.332 576.3 210.145 576.333 204.999C576.343 203.843 576.584 202.7 577.042 201.639C577.5 200.578 578.166 199.619 579 198.819L579 194.332C579 194.212 579.032 194.095 579.094 193.992C579.155 193.889 579.242 193.805 579.347 193.748C579.452 193.691 579.571 193.663 579.69 193.667C579.81 193.671 579.926 193.707 580.027 193.772L583.713 196.119C584.772 195.819 585.866 195.667 586.967 195.665C592.847 195.665 597.633 199.852 597.633 204.999ZM586.02 199.302C585.978 199.425 585.962 199.556 585.973 199.685V206.199C585.962 206.328 585.978 206.459 586.02 206.582C586.062 206.705 586.13 206.818 586.218 206.914C586.306 207.01 586.413 207.086 586.532 207.138C586.651 207.191 586.78 207.218 586.91 207.218C587.04 207.218 587.168 207.191 587.288 207.138C587.407 207.086 587.514 207.01 587.602 206.914C587.69 206.818 587.757 206.705 587.799 206.582C587.841 206.459 587.857 206.328 587.846 206.199V199.685C587.857 199.556 587.841 199.425 587.799 199.302C587.757 199.179 587.69 199.066 587.602 198.97C587.514 198.874 587.407 198.798 587.288 198.746C587.168 198.693 587.04 198.666 586.91 198.666C586.78 198.666 586.651 198.693 586.532 198.746C586.413 198.798 586.306 198.874 586.218 198.97C586.13 199.066 586.062 199.179 586.02 199.302ZM586.22 211.042C586.425 211.179 586.666 211.252 586.913 211.252V211.245C587.242 211.245 587.559 211.115 587.792 210.883C588.026 210.65 588.158 210.335 588.16 210.005C588.16 209.759 588.087 209.518 587.95 209.313C587.813 209.108 587.618 208.948 587.39 208.854C587.162 208.759 586.912 208.734 586.67 208.783C586.428 208.831 586.206 208.949 586.031 209.124C585.857 209.298 585.738 209.52 585.69 209.762C585.642 210.004 585.667 210.255 585.761 210.482C585.856 210.71 586.015 210.905 586.22 211.042Z" fill="#49E600"/>
<path d="M69.3807 50.6764C68.5474 50.1894 67.5 50.7904 67.5 51.7556V68.2443C67.5 69.2095 68.5474 69.8105 69.3807 69.3235L84.078 60.7339C84.6394 60.4057 84.6394 59.5943 84.078 59.2661L69.3807 50.6764ZM66 51.7556C66 49.6322 68.3043 48.3099 70.1376 49.3814L84.8349 57.9711C86.3872 58.8783 86.3871 61.1217 84.8348 62.0289L70.1376 70.6185C68.3043 71.69 66 70.3677 66 68.2443V51.7556Z" fill="#594E90"/>
<path d="M106.168 52.5C107.778 51.2461 109.802 50.5 112 50.5C117.247 50.5 121.5 54.7533 121.5 60C121.5 65.2467 117.247 69.5 112 69.5C106.753 69.5 102.5 65.2467 102.5 60C102.5 59.5479 102.53 59.3411 102.601 58.861L102.601 58.8588C102.661 58.449 102.378 58.068 101.968 58.0079C101.558 57.9478 101.177 58.2314 101.117 58.6412L101.115 58.6534C101.043 59.1436 101 59.4384 101 60C101 66.0751 105.925 71 112 71C118.075 71 123 66.0751 123 60C123 53.9249 118.075 49 112 49C109.341 49 106.901 49.9442 105 51.5144V49.75C105 49.3358 104.664 49 104.25 49C103.836 49 103.5 49.3358 103.5 49.75V53.25C103.5 53.6642 103.836 54 104.25 54H107.75C108.164 54 108.5 53.6642 108.5 53.25C108.5 52.8358 108.164 52.5 107.75 52.5H106.168Z" fill="#594E90"/>
<path d="M115.409 63.947C114.967 63.9579 114.529 63.8654 114.129 63.677C113.774 63.4968 113.469 63.2325 113.239 62.907C112.988 62.5273 112.811 62.1031 112.719 61.657C112.601 61.105 112.544 60.5416 112.549 59.977C112.545 59.4125 112.602 58.8493 112.719 58.297C112.813 57.8516 112.989 57.4276 113.239 57.047C113.469 56.7216 113.774 56.4572 114.129 56.277C114.529 56.0887 114.967 55.9962 115.409 56.007C115.825 55.9754 116.241 56.0507 116.619 56.2258C116.997 56.4008 117.324 56.6698 117.569 57.007C118.085 57.8939 118.328 58.9129 118.269 59.937C118.328 60.9612 118.085 61.9802 117.569 62.867C117.334 63.219 117.011 63.5036 116.632 63.693C116.253 63.8824 115.832 63.9699 115.409 63.947V63.947ZM115.409 62.727C115.611 62.7391 115.812 62.6938 115.989 62.5965C116.166 62.4992 116.311 62.3537 116.409 62.177C116.648 61.7093 116.775 61.1923 116.779 60.667V59.287C116.801 58.7713 116.701 58.2576 116.489 57.787C116.377 57.6158 116.225 57.4751 116.045 57.3777C115.865 57.2803 115.664 57.2293 115.459 57.2293C115.255 57.2293 115.053 57.2803 114.874 57.3777C114.694 57.4751 114.541 57.6158 114.429 57.787C114.217 58.2576 114.118 58.7713 114.139 59.287V60.667C114.119 61.186 114.218 61.7027 114.429 62.177C114.525 62.3513 114.667 62.4953 114.84 62.5926C115.014 62.6898 115.211 62.7364 115.409 62.727V62.727Z" fill="#594E90"/>
<path d="M106.41 63.8169V62.6369H108.41V57.4469L106.55 58.4469L106 57.3869L108.32 56.0869H109.78V62.5869H111.56V63.8169H106.41Z" fill="#594E90"/>
<path d="M155.832 52.5C154.222 51.2461 152.198 50.5 150 50.5C144.753 50.5 140.5 54.7533 140.5 60C140.5 65.2467 144.753 69.5 150 69.5C155.247 69.5 159.5 65.2467 159.5 60C159.5 59.5479 159.47 59.3411 159.399 58.861L159.399 58.8588C159.339 58.449 159.622 58.068 160.032 58.0079C160.442 57.9478 160.823 58.2314 160.883 58.6412L160.885 58.6534C160.957 59.1436 161 59.4384 161 60C161 66.0751 156.075 71 150 71C143.925 71 139 66.0751 139 60C139 53.9249 143.925 49 150 49C152.659 49 155.099 49.9442 157 51.5144V49.75C157 49.3358 157.336 49 157.75 49C158.164 49 158.5 49.3358 158.5 49.75V53.25C158.5 53.6642 158.164 54 157.75 54H154.25C153.836 54 153.5 53.6642 153.5 53.25C153.5 52.8358 153.836 52.5 154.25 52.5H155.832Z" fill="#594E90"/>
<path d="M153.409 63.947C152.967 63.9579 152.529 63.8654 152.129 63.677C151.774 63.4968 151.469 63.2325 151.239 62.907C150.988 62.5273 150.811 62.1031 150.719 61.657C150.601 61.105 150.544 60.5416 150.549 59.977C150.545 59.4125 150.602 58.8493 150.719 58.297C150.813 57.8516 150.989 57.4276 151.239 57.047C151.469 56.7216 151.774 56.4572 152.129 56.277C152.529 56.0887 152.967 55.9962 153.409 56.007C153.825 55.9754 154.241 56.0507 154.619 56.2258C154.997 56.4008 155.324 56.6698 155.569 57.007C156.085 57.8939 156.328 58.9129 156.269 59.937C156.328 60.9612 156.085 61.9802 155.569 62.867C155.334 63.219 155.011 63.5036 154.632 63.693C154.253 63.8824 153.832 63.9699 153.409 63.947V63.947ZM153.409 62.727C153.611 62.7391 153.812 62.6938 153.989 62.5965C154.166 62.4992 154.311 62.3537 154.409 62.177C154.648 61.7093 154.775 61.1923 154.779 60.667V59.287C154.801 58.7713 154.701 58.2576 154.489 57.787C154.377 57.6158 154.225 57.4751 154.045 57.3777C153.865 57.2803 153.664 57.2293 153.459 57.2293C153.255 57.2293 153.053 57.2803 152.874 57.3777C152.694 57.4751 152.541 57.6158 152.429 57.787C152.217 58.2576 152.118 58.7713 152.139 59.287V60.667C152.119 61.186 152.218 61.7027 152.429 62.177C152.525 62.3513 152.667 62.4953 152.84 62.5926C153.014 62.6898 153.211 62.7364 153.409 62.727V62.727Z" fill="#594E90"/>
<path d="M144.41 63.8169V62.6369H146.41V57.4469L144.55 58.4469L144 57.3869L146.32 56.0869H147.78V62.5869H149.56V63.8169H144.41Z" fill="#594E90"/>
<path d="M190.5 50.8142C190.5 49.7199 189.193 49.1538 188.395 49.9024L183.458 54.5318C183.134 54.836 182.706 55.0053 182.261 55.0053H179.25C177.455 55.0053 176 56.4604 176 58.2553V61.7473C176 63.5422 177.455 64.9973 179.25 64.9973H182.262C182.706 64.9973 183.134 65.1664 183.458 65.4703L188.395 70.0964C189.194 70.8446 190.5 70.2785 190.5 69.1843V50.8142ZM184.484 55.626L189 51.3914V68.6074L184.484 64.3757C183.882 63.8114 183.087 63.4973 182.262 63.4973H179.25C178.284 63.4973 177.5 62.7138 177.5 61.7473V58.2553C177.5 57.2888 178.284 56.5053 179.25 56.5053H182.261C183.087 56.5053 183.882 56.1909 184.484 55.626ZM196.702 51.2522C196.429 50.9412 195.955 50.9109 195.644 51.1844C195.333 51.458 195.302 51.9319 195.576 52.2429C197.397 54.3128 198.5 57.0266 198.5 60C198.5 62.9733 197.397 65.6871 195.576 67.757C195.302 68.068 195.333 68.5419 195.644 68.8155C195.955 69.0891 196.429 69.0587 196.702 68.7477C198.754 66.4145 200 63.3518 200 60C200 56.6482 198.754 53.5854 196.702 51.2522ZM194.353 54.3029C194.104 53.9716 193.634 53.9045 193.303 54.1532C192.972 54.4018 192.904 54.8719 193.153 55.2032C194.156 56.5397 194.75 58.1994 194.75 60C194.75 61.8006 194.156 63.4602 193.153 64.7968C192.904 65.1281 192.972 65.5982 193.303 65.8468C193.634 66.0954 194.104 66.0284 194.353 65.6971C195.544 64.1098 196.25 62.1363 196.25 60C196.25 57.8637 195.544 55.8901 194.353 54.3029Z" fill="#594E90"/>
<path d="M922.602 58.098C922.602 58.91 922.322 59.5867 921.762 60.128C921.211 60.66 920.367 60.926 919.228 60.926H917.352V65H916.078V55.242H919.228C920.329 55.242 921.165 55.508 921.734 56.04C922.313 56.572 922.602 57.258 922.602 58.098ZM919.228 59.876C919.937 59.876 920.46 59.722 920.796 59.414C921.132 59.106 921.3 58.6673 921.3 58.098C921.3 56.894 920.609 56.292 919.228 56.292H917.352V59.876H919.228ZM925.459 54.64V65H924.185V54.64H925.459ZM927.155 61.136C927.155 60.352 927.313 59.666 927.631 59.078C927.948 58.4807 928.382 58.0187 928.933 57.692C929.493 57.3653 930.113 57.202 930.795 57.202C931.467 57.202 932.05 57.3467 932.545 57.636C933.039 57.9253 933.408 58.2893 933.651 58.728V57.328H934.939V65H933.651V63.572C933.399 64.02 933.021 64.3933 932.517 64.692C932.022 64.9813 931.443 65.126 930.781 65.126C930.099 65.126 929.483 64.958 928.933 64.622C928.382 64.286 927.948 63.8147 927.631 63.208C927.313 62.6013 927.155 61.9107 927.155 61.136ZM933.651 61.15C933.651 60.5713 933.534 60.0673 933.301 59.638C933.067 59.2087 932.75 58.882 932.349 58.658C931.957 58.4247 931.523 58.308 931.047 58.308C930.571 58.308 930.137 58.42 929.745 58.644C929.353 58.868 929.04 59.1947 928.807 59.624C928.573 60.0533 928.457 60.5573 928.457 61.136C928.457 61.724 928.573 62.2373 928.807 62.676C929.04 63.1053 929.353 63.4367 929.745 63.67C930.137 63.894 930.571 64.006 931.047 64.006C931.523 64.006 931.957 63.894 932.349 63.67C932.75 63.4367 933.067 63.1053 933.301 62.676C933.534 62.2373 933.651 61.7287 933.651 61.15ZM943.7 57.328L939.08 68.612H937.764L939.276 64.916L936.182 57.328H937.596L940.004 63.544L942.384 57.328H943.7ZM946.254 58.756C946.516 58.2987 946.898 57.9253 947.402 57.636C947.906 57.3467 948.48 57.202 949.124 57.202C949.815 57.202 950.436 57.3653 950.986 57.692C951.537 58.0187 951.971 58.4807 952.288 59.078C952.606 59.666 952.764 60.352 952.764 61.136C952.764 61.9107 952.606 62.6013 952.288 63.208C951.971 63.8147 951.532 64.286 950.972 64.622C950.422 64.958 949.806 65.126 949.124 65.126C948.462 65.126 947.878 64.9813 947.374 64.692C946.88 64.4027 946.506 64.034 946.254 63.586V65H944.98V54.64H946.254V58.756ZM951.462 61.136C951.462 60.5573 951.346 60.0533 951.112 59.624C950.879 59.1947 950.562 58.868 950.16 58.644C949.768 58.42 949.334 58.308 948.858 58.308C948.392 58.308 947.958 58.4247 947.556 58.658C947.164 58.882 946.847 59.2133 946.604 59.652C946.371 60.0813 946.254 60.5807 946.254 61.15C946.254 61.7287 946.371 62.2373 946.604 62.676C946.847 63.1053 947.164 63.4367 947.556 63.67C947.958 63.894 948.392 64.006 948.858 64.006C949.334 64.006 949.768 63.894 950.16 63.67C950.562 63.4367 950.879 63.1053 951.112 62.676C951.346 62.2373 951.462 61.724 951.462 61.136ZM953.965 61.136C953.965 60.352 954.124 59.666 954.441 59.078C954.759 58.4807 955.193 58.0187 955.743 57.692C956.303 57.3653 956.924 57.202 957.605 57.202C958.277 57.202 958.861 57.3467 959.355 57.636C959.85 57.9253 960.219 58.2893 960.461 58.728V57.328H961.749V65H960.461V63.572C960.209 64.02 959.831 64.3933 959.327 64.692C958.833 64.9813 958.254 65.126 957.591 65.126C956.91 65.126 956.294 64.958 955.743 64.622C955.193 64.286 954.759 63.8147 954.441 63.208C954.124 62.6013 953.965 61.9107 953.965 61.136ZM960.461 61.15C960.461 60.5713 960.345 60.0673 960.111 59.638C959.878 59.2087 959.561 58.882 959.159 58.658C958.767 58.4247 958.333 58.308 957.857 58.308C957.381 58.308 956.947 58.42 956.555 58.644C956.163 58.868 955.851 59.1947 955.617 59.624C955.384 60.0533 955.267 60.5573 955.267 61.136C955.267 61.724 955.384 62.2373 955.617 62.676C955.851 63.1053 956.163 63.4367 956.555 63.67C956.947 63.894 957.381 64.006 957.857 64.006C958.333 64.006 958.767 63.894 959.159 63.67C959.561 63.4367 959.878 63.1053 960.111 62.676C960.345 62.2373 960.461 61.7287 960.461 61.15ZM963.426 61.15C963.426 60.3567 963.585 59.666 963.902 59.078C964.22 58.4807 964.658 58.0187 965.218 57.692C965.788 57.3653 966.436 57.202 967.164 57.202C968.107 57.202 968.882 57.4307 969.488 57.888C970.104 58.3453 970.51 58.98 970.706 59.792H969.334C969.204 59.3253 968.947 58.9567 968.564 58.686C968.191 58.4153 967.724 58.28 967.164 58.28C966.436 58.28 965.848 58.532 965.4 59.036C964.952 59.5307 964.728 60.2353 964.728 61.15C964.728 62.074 964.952 62.788 965.4 63.292C965.848 63.796 966.436 64.048 967.164 64.048C967.724 64.048 968.191 63.9173 968.564 63.656C968.938 63.3947 969.194 63.0213 969.334 62.536H970.706C970.501 63.32 970.09 63.95 969.474 64.426C968.858 64.8927 968.088 65.126 967.164 65.126C966.436 65.126 965.788 64.9627 965.218 64.636C964.658 64.3093 964.22 63.8473 963.902 63.25C963.585 62.6527 963.426 61.9527 963.426 61.15ZM976.69 65L973.68 61.612V65H972.406V54.64H973.68V60.73L976.634 57.328H978.412L974.8 61.15L978.426 65H976.69ZM986.06 65.126C985.472 65.126 984.944 65.028 984.478 64.832C984.011 64.6267 983.642 64.3467 983.372 63.992C983.101 63.628 982.952 63.2127 982.924 62.746H984.24C984.277 63.1287 984.454 63.4413 984.772 63.684C985.098 63.9267 985.523 64.048 986.046 64.048C986.531 64.048 986.914 63.9407 987.194 63.726C987.474 63.5113 987.614 63.2407 987.614 62.914C987.614 62.578 987.464 62.3307 987.166 62.172C986.867 62.004 986.405 61.8407 985.78 61.682C985.21 61.5327 984.744 61.3833 984.38 61.234C984.025 61.0753 983.717 60.8467 983.456 60.548C983.204 60.24 983.078 59.8387 983.078 59.344C983.078 58.952 983.194 58.5927 983.428 58.266C983.661 57.9393 983.992 57.6827 984.422 57.496C984.851 57.3 985.341 57.202 985.892 57.202C986.741 57.202 987.427 57.4167 987.95 57.846C988.472 58.2753 988.752 58.8633 988.79 59.61H987.516C987.488 59.2087 987.324 58.8867 987.026 58.644C986.736 58.4013 986.344 58.28 985.85 58.28C985.392 58.28 985.028 58.378 984.758 58.574C984.487 58.77 984.352 59.0267 984.352 59.344C984.352 59.596 984.431 59.806 984.59 59.974C984.758 60.1327 984.963 60.2633 985.206 60.366C985.458 60.4593 985.803 60.5667 986.242 60.688C986.792 60.8373 987.24 60.9867 987.586 61.136C987.931 61.276 988.225 61.4907 988.468 61.78C988.72 62.0693 988.85 62.4473 988.86 62.914C988.86 63.334 988.743 63.712 988.51 64.048C988.276 64.384 987.945 64.65 987.516 64.846C987.096 65.0327 986.61 65.126 986.06 65.126ZM991.932 58.742C992.184 58.3033 992.557 57.9393 993.052 57.65C993.556 57.3513 994.139 57.202 994.802 57.202C995.483 57.202 996.099 57.3653 996.65 57.692C997.21 58.0187 997.649 58.4807 997.966 59.078C998.283 59.666 998.442 60.352 998.442 61.136C998.442 61.9107 998.283 62.6013 997.966 63.208C997.649 63.8147 997.21 64.286 996.65 64.622C996.099 64.958 995.483 65.126 994.802 65.126C994.149 65.126 993.57 64.9813 993.066 64.692C992.571 64.3933 992.193 64.0247 991.932 63.586V68.64H990.658V57.328H991.932V58.742ZM997.14 61.136C997.14 60.5573 997.023 60.0533 996.79 59.624C996.557 59.1947 996.239 58.868 995.838 58.644C995.446 58.42 995.012 58.308 994.536 58.308C994.069 58.308 993.635 58.4247 993.234 58.658C992.842 58.882 992.525 59.2133 992.282 59.652C992.049 60.0813 991.932 60.5807 991.932 61.15C991.932 61.7287 992.049 62.2373 992.282 62.676C992.525 63.1053 992.842 63.4367 993.234 63.67C993.635 63.894 994.069 64.006 994.536 64.006C995.012 64.006 995.446 63.894 995.838 63.67C996.239 63.4367 996.557 63.1053 996.79 62.676C997.023 62.2373 997.14 61.724 997.14 61.136ZM1007.12 60.87C1007.12 61.1127 1007.11 61.3693 1007.08 61.64H1000.95C1000.99 62.396 1001.25 62.9887 1001.72 63.418C1002.19 63.838 1002.77 64.048 1003.44 64.048C1003.99 64.048 1004.45 63.922 1004.81 63.67C1005.18 63.4087 1005.44 63.0633 1005.59 62.634H1006.97C1006.76 63.3713 1006.35 63.9733 1005.73 64.44C1005.12 64.8973 1004.35 65.126 1003.44 65.126C1002.71 65.126 1002.06 64.9627 1001.48 64.636C1000.91 64.3093 1000.46 63.8473 1000.13 63.25C999.806 62.6433 999.643 61.9433 999.643 61.15C999.643 60.3567 999.802 59.6613 1000.12 59.064C1000.44 58.4667 1000.88 58.0093 1001.45 57.692C1002.03 57.3653 1002.69 57.202 1003.44 57.202C1004.17 57.202 1004.81 57.3607 1005.37 57.678C1005.93 57.9953 1006.36 58.434 1006.66 58.994C1006.97 59.5447 1007.12 60.17 1007.12 60.87ZM1005.8 60.604C1005.8 60.1187 1005.7 59.7033 1005.48 59.358C1005.27 59.0033 1004.97 58.7373 1004.6 58.56C1004.24 58.3733 1003.83 58.28 1003.38 58.28C1002.74 58.28 1002.19 58.4853 1001.73 58.896C1001.28 59.3067 1001.02 59.876 1000.96 60.604H1005.8ZM1015.8 60.87C1015.8 61.1127 1015.79 61.3693 1015.76 61.64H1009.63C1009.67 62.396 1009.93 62.9887 1010.4 63.418C1010.87 63.838 1011.45 64.048 1012.12 64.048C1012.67 64.048 1013.13 63.922 1013.49 63.67C1013.86 63.4087 1014.13 63.0633 1014.27 62.634H1015.65C1015.44 63.3713 1015.03 63.9733 1014.41 64.44C1013.8 64.8973 1013.03 65.126 1012.12 65.126C1011.39 65.126 1010.74 64.9627 1010.16 64.636C1009.59 64.3093 1009.14 63.8473 1008.81 63.25C1008.49 62.6433 1008.32 61.9433 1008.32 61.15C1008.32 60.3567 1008.48 59.6613 1008.8 59.064C1009.12 58.4667 1009.56 58.0093 1010.13 57.692C1010.71 57.3653 1011.37 57.202 1012.12 57.202C1012.85 57.202 1013.49 57.3607 1014.05 57.678C1014.61 57.9953 1015.04 58.434 1015.34 58.994C1015.65 59.5447 1015.8 60.17 1015.8 60.87ZM1014.48 60.604C1014.48 60.1187 1014.38 59.7033 1014.16 59.358C1013.95 59.0033 1013.65 58.7373 1013.28 58.56C1012.92 58.3733 1012.51 58.28 1012.06 58.28C1011.42 58.28 1010.87 58.4853 1010.41 58.896C1009.96 59.3067 1009.71 59.876 1009.64 60.604H1014.48ZM1017.01 61.136C1017.01 60.352 1017.16 59.666 1017.48 59.078C1017.8 58.4807 1018.23 58.0187 1018.78 57.692C1019.34 57.3653 1019.97 57.202 1020.66 57.202C1021.26 57.202 1021.81 57.342 1022.33 57.622C1022.84 57.8927 1023.23 58.252 1023.5 58.7V54.64H1024.79V65H1023.5V63.558C1023.25 64.0153 1022.88 64.3933 1022.38 64.692C1021.89 64.9813 1021.31 65.126 1020.65 65.126C1019.96 65.126 1019.34 64.958 1018.78 64.622C1018.23 64.286 1017.8 63.8147 1017.48 63.208C1017.16 62.6013 1017.01 61.9107 1017.01 61.136ZM1023.5 61.15C1023.5 60.5713 1023.39 60.0673 1023.15 59.638C1022.92 59.2087 1022.6 58.882 1022.2 58.658C1021.81 58.4247 1021.37 58.308 1020.9 58.308C1020.42 58.308 1019.99 58.42 1019.6 58.644C1019.2 58.868 1018.89 59.1947 1018.66 59.624C1018.42 60.0533 1018.31 60.5573 1018.31 61.136C1018.31 61.724 1018.42 62.2373 1018.66 62.676C1018.89 63.1053 1019.2 63.4367 1019.6 63.67C1019.99 63.894 1020.42 64.006 1020.9 64.006C1021.37 64.006 1021.81 63.894 1022.2 63.67C1022.6 63.4367 1022.92 63.1053 1023.15 62.676C1023.39 62.2373 1023.5 61.7287 1023.5 61.15Z" fill="#594E90"/>
<path d="M1051.5 54.75C1051.5 54.4212 1051.29 54.1308 1050.97 54.0336C1050.66 53.9364 1050.32 54.0551 1050.13 54.3265C1050.07 54.419 1050.01 54.5127 1049.94 54.6076C1049.44 55.3618 1048.89 56.1915 1047.36 57.1069C1047.01 57.32 1046.89 57.7807 1047.11 58.1358C1047.32 58.491 1047.78 58.6062 1048.14 58.3931C1048.95 57.9023 1049.55 57.4168 1050 56.9588L1050 65.25C1050 65.6643 1050.34 66.0001 1050.75 66C1051.16 65.9999 1051.5 65.6642 1051.5 65.25L1051.5 54.75ZM1055.28 60.2196C1054.99 59.9267 1054.51 59.9267 1054.22 60.2196C1053.93 60.5125 1053.93 60.9874 1054.22 61.2803L1055.94 62.9999L1054.22 64.7195C1053.93 65.0124 1053.93 65.4873 1054.22 65.7802C1054.51 66.0731 1054.99 66.0731 1055.28 65.7802L1057 64.0605L1058.72 65.7802C1059.01 66.0731 1059.49 66.0731 1059.78 65.7802C1060.07 65.4873 1060.07 65.0124 1059.78 64.7195L1058.06 62.9999L1059.78 61.2803C1060.07 60.9874 1060.07 60.5125 1059.78 60.2196C1059.49 59.9267 1059.01 59.9267 1058.72 60.2196L1057 61.9392L1055.28 60.2196Z" fill="#594E90"/>
<path d="M1066.22 55.4697C1066.51 55.1768 1066.99 55.1768 1067.28 55.4697L1076 64.1893L1084.72 55.4697C1085.01 55.1768 1085.49 55.1768 1085.78 55.4697C1086.07 55.7626 1086.07 56.2374 1085.78 56.5303L1076.53 65.7803C1076.24 66.0732 1075.76 66.0732 1075.47 65.7803L1066.22 56.5303C1065.93 56.2374 1065.93 55.7626 1066.22 55.4697Z" fill="#594E90"/>
</g>
<defs>
<filter id="filter0_d_303_3143" x="0" y="0" width="1153" height="267" filterUnits="userSpaceOnUse" color-interpolation-filters="sRGB">
<feFlood flood-opacity="0" result="BackgroundImageFix"/>
<feColorMatrix in="SourceAlpha" type="matrix" values="0 0 0 0 0 0 0 0 0 0 0 0 0 0 0 0 0 0 127 0" result="hardAlpha"/>
<feOffset dy="4"/>
<feGaussianBlur stdDeviation="13.5"/>
<feColorMatrix type="matrix" values="0 0 0 0 0.86737 0 0 0 0 0.933685 0 0 0 0 1 0 0 0 0.71 0"/>
<feBlend mode="normal" in2="BackgroundImageFix" result="effect1_dropShadow_303_3143"/>
<feBlend mode="normal" in="SourceGraphic" in2="effect1_dropShadow_303_3143" result="shape"/>
</filter>
</defs>
</svg>
