<svg width="383" height="461" viewBox="0 0 383 461" fill="none" xmlns="http://www.w3.org/2000/svg">
<g filter="url(#filter0_d_1193_8669)">
<g clip-path="url(#clip0_1193_8669)">
<rect width="146.989" height="249.643" rx="10" transform="matrix(0.965926 0.258819 -0.269316 0.963052 187.234 42)" fill="white"/>
<path d="M211.793 154.864L214.941 143.607L214.885 143.592L210.677 145.113L211.316 142.828L215.569 141.288L217.975 141.933L214.18 155.504L211.793 154.864ZM219.915 146.779C220.265 145.525 221.006 144.618 222.136 144.059C223.267 143.492 224.538 143.398 225.946 143.775C227.298 144.138 228.309 144.803 228.978 145.771C229.653 146.74 229.836 147.777 229.528 148.88C229.316 149.639 228.901 150.299 228.284 150.862C227.675 151.42 226.743 152.06 225.486 152.781L221.19 155.199L221.177 155.246L227.497 156.939L226.942 158.924L217.377 156.361L217.835 154.724L224.232 151.101C225.227 150.518 225.922 150.04 226.316 149.667C226.711 149.295 226.98 148.854 227.122 148.347C227.28 147.782 227.186 147.245 226.842 146.735C226.505 146.227 225.999 145.882 225.326 145.702C224.616 145.512 223.962 145.576 223.366 145.895C222.776 146.215 222.388 146.711 222.2 147.382L222.19 147.419L219.907 146.808L219.915 146.779ZM233.79 161.052C232.13 160.607 231.001 159.627 230.404 158.112C229.815 156.593 229.826 154.739 230.438 152.551C231.046 150.375 232.002 148.785 233.304 147.779C234.606 146.773 236.083 146.492 237.737 146.935C239.391 147.378 240.514 148.356 241.105 149.869C241.697 151.376 241.689 153.217 241.081 155.393C240.471 157.575 239.516 159.176 238.217 160.196C236.919 161.209 235.444 161.495 233.79 161.052ZM234.345 159.067C235.244 159.308 236.067 159.047 236.815 158.283C237.569 157.522 238.169 156.341 238.616 154.742C239.06 153.156 239.155 151.85 238.9 150.825C238.648 149.794 238.075 149.159 237.182 148.919C236.289 148.68 235.46 148.94 234.693 149.698C233.933 150.458 233.333 151.625 232.893 153.199C232.446 154.798 232.348 156.116 232.598 157.154C232.857 158.187 233.439 158.824 234.345 159.067ZM243.62 163.392L241.186 162.74L244.981 149.169L247.415 149.821L245.639 156.169L245.724 156.192L252.933 151.3L255.734 152.05L248.807 156.664L252.345 165.73L249.383 164.937L246.616 157.826L244.84 159.028L243.62 163.392Z" fill="#151522"/>
<path d="M207.225 103.027C209.581 103.659 211.7 102.717 212.522 100.701L210.725 100.22C210.158 101.296 208.973 101.752 207.679 101.405C205.938 100.939 205.254 99.2239 205.897 96.9244C206.538 94.632 208.019 93.4972 209.753 93.9616C211.04 94.3066 211.803 95.3601 211.716 96.6486L213.513 97.1301C213.894 94.9501 212.527 92.961 210.206 92.3393C207.313 91.564 204.953 93.1228 204.028 96.431C203.106 99.725 204.331 102.252 207.225 103.027ZM213.536 104.445L215.29 104.916L216.543 100.436C216.853 99.3291 217.705 98.7539 218.859 99.0629C219.877 99.3359 220.247 100.079 219.92 101.25L218.644 105.814L220.398 106.284L221.791 101.304C222.304 99.4704 221.591 98.1573 219.935 97.7137C218.782 97.4047 217.809 97.7049 217.198 98.4739L217.071 98.4398L218.254 94.2076L216.528 93.7451L213.536 104.445ZM225.473 106.302C224.695 106.093 224.245 105.556 224.426 104.907C224.602 104.279 225.16 104.05 226.161 104.25L227.94 104.605L227.769 105.219C227.518 106.114 226.534 106.586 225.473 106.302ZM224.572 107.539C225.584 107.81 226.555 107.6 227.196 106.968L227.316 107L227.02 108.059L228.711 108.512L230.184 103.243C230.642 101.606 229.794 100.34 227.806 99.8076C225.967 99.3147 224.444 99.8392 223.922 101.163L225.577 101.606C225.886 101.128 226.517 100.994 227.323 101.21C228.271 101.464 228.662 102.023 228.451 102.778L228.27 103.427L226.241 103.012C224.328 102.621 223.049 103.143 222.658 104.539C222.264 105.95 223.079 107.139 224.572 107.539ZM230.826 109.078L232.581 109.548L233.827 105.091C234.129 104.011 235.119 103.518 236.258 103.824C236.555 103.903 237.008 104.078 237.129 104.163L237.582 102.541C237.433 102.448 237.13 102.336 236.875 102.268C235.878 102.001 234.885 102.341 234.46 103.046L234.34 103.014L234.675 101.815L232.984 101.362L230.826 109.078ZM240.453 101.331L239.911 103.271L238.687 102.943L238.296 104.339L239.52 104.667L238.342 108.878C237.924 110.374 238.464 111.163 240.24 111.639C240.579 111.73 240.915 111.782 241.183 111.8L241.566 110.432C241.348 110.396 241.209 110.374 240.962 110.308C240.226 110.111 239.995 109.685 240.208 108.923L241.267 105.136L242.923 105.579L243.313 104.183L241.658 103.739L242.2 101.799L240.453 101.331ZM255.58 115.711L258.427 105.533L256.609 105.046L255.431 109.257L250.465 107.926L251.642 103.715L249.817 103.226L246.971 113.404L248.796 113.893L250.025 109.499L254.991 110.83L253.762 115.224L255.58 115.711ZM262.982 110.727C264.036 111.009 264.524 111.928 264.24 113.08L260.597 112.104C260.99 110.997 261.935 110.446 262.982 110.727ZM263.56 115.567C263.146 116.07 262.456 116.227 261.585 115.993C260.432 115.684 259.914 114.681 260.231 113.386L260.256 113.294L265.661 114.743L265.819 114.178C266.5 111.745 265.585 109.93 263.378 109.339C261.135 108.738 259.305 109.923 258.611 112.406C257.917 114.889 258.869 116.759 261.147 117.37C262.972 117.859 264.498 117.327 265.223 116.013L263.56 115.567ZM269.463 118.089C268.685 117.881 268.235 117.343 268.416 116.694C268.592 116.066 269.15 115.837 270.151 116.037L271.93 116.392L271.759 117.006C271.508 117.902 270.525 118.373 269.463 118.089ZM268.562 119.326C269.574 119.597 270.545 119.387 271.186 118.755L271.306 118.788L271.01 119.846L272.701 120.299L274.175 115.03C274.632 113.393 273.785 112.127 271.797 111.595C269.957 111.102 268.434 111.626 267.912 112.95L269.567 113.393C269.876 112.915 270.507 112.781 271.313 112.997C272.261 113.251 272.652 113.81 272.441 114.565L272.26 115.214L270.231 114.799C268.318 114.408 267.039 114.93 266.648 116.326C266.254 117.737 267.07 118.926 268.562 119.326ZM277.582 121.743C278.658 122.031 279.689 121.769 280.365 121.04L280.485 121.073L280.144 122.293L281.842 122.748L284.834 112.048L283.079 111.577L281.902 115.788L281.781 115.756C281.608 114.8 280.873 114.057 279.811 113.773C277.859 113.249 276.198 114.457 275.515 116.898C274.829 119.352 275.623 121.218 277.582 121.743ZM279.94 115.407C281.143 115.729 281.617 116.887 281.187 118.425C280.753 119.977 279.753 120.725 278.543 120.401C277.341 120.079 276.874 118.945 277.31 117.386C277.744 115.835 278.744 115.086 279.94 115.407ZM289.116 117.729C290.17 118.012 290.658 118.931 290.374 120.083L286.731 119.107C287.124 117.999 288.069 117.449 289.116 117.729ZM289.694 122.57C289.279 123.073 288.589 123.229 287.719 122.996C286.566 122.687 286.048 121.684 286.364 120.389L286.39 120.297L291.795 121.745L291.953 121.181C292.633 118.747 291.719 116.933 289.512 116.341C287.269 115.74 285.439 116.926 284.745 119.409C284.051 121.892 285.003 123.762 287.281 124.372C289.106 124.861 290.631 124.33 291.356 123.015L289.694 122.57ZM292.602 125.631L294.357 126.101L295.603 121.643C295.905 120.564 296.895 120.071 298.034 120.376C298.331 120.456 298.784 120.63 298.904 120.716L299.358 119.094C299.209 119.001 298.906 118.889 298.651 118.821C297.654 118.553 296.661 118.894 296.236 119.599L296.116 119.567L296.451 118.368L294.76 117.915L292.602 125.631Z" fill="#171725"/>
<path fill-rule="evenodd" clip-rule="evenodd" d="M226.274 281.387L239.174 235.255C239.627 233.636 241.31 232.677 242.934 233.112C244.558 233.547 245.507 235.212 245.054 236.831L232.154 282.962L226.274 281.387Z" fill="#429E55"/>
<path fill-rule="evenodd" clip-rule="evenodd" d="M216.818 278.853L225.373 248.263C225.825 246.644 227.509 245.684 229.132 246.12C230.756 246.555 231.705 248.22 231.253 249.839L222.698 280.429L216.818 278.853Z" fill="#96C0FF"/>
<path fill-rule="evenodd" clip-rule="evenodd" d="M209.061 276.775L220.172 237.043C220.625 235.424 222.308 234.464 223.932 234.899C225.556 235.334 226.505 237 226.053 238.618L214.941 278.35L209.061 276.775Z" fill="#EA714A"/>
<path fill-rule="evenodd" clip-rule="evenodd" d="M199.606 274.241L205.604 252.793C206.057 251.174 207.74 250.215 209.364 250.65C210.988 251.085 211.937 252.75 211.484 254.369L205.486 275.817L199.606 274.241Z" fill="#96C0FF"/>
<path fill-rule="evenodd" clip-rule="evenodd" d="M191.85 272.163L201.256 238.526C201.709 236.907 203.392 235.947 205.016 236.382C206.64 236.817 207.589 238.482 207.136 240.101L197.73 273.739L191.85 272.163Z" fill="#EA714A"/>
<path fill-rule="evenodd" clip-rule="evenodd" d="M182.395 269.629L189.245 245.134C189.697 243.515 191.381 242.556 193.004 242.991C194.628 243.426 195.577 245.091 195.125 246.71L188.275 271.205L182.395 269.629Z" fill="#96C0FF"/>
<path fill-rule="evenodd" clip-rule="evenodd" d="M174.637 267.551L186.6 224.772C187.053 223.153 188.736 222.193 190.36 222.628C191.984 223.063 192.933 224.729 192.48 226.347L180.517 269.127L174.637 267.551Z" fill="#EA714A"/>
<path fill-rule="evenodd" clip-rule="evenodd" d="M165.182 265.018L175.441 228.333C175.894 226.714 177.577 225.754 179.201 226.189C180.824 226.624 181.774 228.29 181.321 229.908L171.062 266.593L165.182 265.018Z" fill="#96C0FF"/>
<path fill-rule="evenodd" clip-rule="evenodd" d="M243.417 285.98L256.299 239.917C256.762 238.26 258.485 237.278 260.146 237.724C261.808 238.169 262.779 239.873 262.316 241.529L249.434 287.593L243.417 285.98Z" fill="#429E55"/>
<path fill-rule="evenodd" clip-rule="evenodd" d="M233.963 283.447L239.941 262.068C240.405 260.411 242.127 259.429 243.789 259.874C245.45 260.32 246.421 262.023 245.958 263.68L239.979 285.06L233.963 283.447Z" fill="#96C0FF"/>
<path fill-rule="evenodd" clip-rule="evenodd" d="M157.425 262.939L167.684 226.254C168.137 224.635 169.82 223.675 171.444 224.11C173.068 224.545 174.017 226.21 173.564 227.829L163.305 264.514L157.425 262.939Z" fill="#0066FF"/>
<path fill-rule="evenodd" clip-rule="evenodd" d="M147.971 260.405L153.968 238.957C154.421 237.339 156.104 236.379 157.728 236.814C159.352 237.249 160.301 238.914 159.848 240.533L153.851 261.981L147.971 260.405Z" fill="#96C0FF"/>
<path d="M183.906 185.752L188.753 179.027L187.773 178.764L183.823 184.434L183.74 184.411L183.29 177.563L182.31 177.3L182.982 185.504L183.906 185.752ZM187.885 186.818L188.778 187.057L190.337 181.481L189.445 181.242L187.885 186.818ZM190.208 180.228C190.55 180.32 190.908 180.116 191.004 179.774C191.099 179.433 190.897 179.079 190.555 178.987C190.212 178.895 189.854 179.099 189.759 179.441C189.663 179.782 189.865 180.137 190.208 180.228ZM194.077 183.222C194.964 183.46 195.373 184.27 195.118 185.264L192.036 184.438C192.38 183.468 193.185 182.983 194.077 183.222ZM194.587 187.062C194.216 187.491 193.655 187.624 192.934 187.431C191.984 187.177 191.562 186.313 191.824 185.199L191.835 185.157L195.856 186.235L195.951 185.893C196.436 184.16 195.817 182.844 194.307 182.439C192.772 182.028 191.468 182.901 190.977 184.655C190.484 186.419 191.142 187.796 192.693 188.212C193.917 188.54 194.942 188.186 195.479 187.301L194.587 187.062ZM205.144 185.448L204.246 185.208L201.899 189.372L201.816 189.35L201.813 184.556L200.957 184.326L198.46 188.45L198.377 188.428L198.524 183.674L197.621 183.433L197.628 189.428L198.531 189.67L200.983 185.69L201.066 185.712L201.11 190.361L202.018 190.605L205.144 185.448ZM205.625 187.217C205.399 188.024 205.751 188.602 206.728 189.137L207.623 189.626C208.179 189.931 208.397 190.268 208.29 190.65C208.147 191.163 207.507 191.375 206.755 191.173C206.039 190.981 205.677 190.562 205.658 190.051L204.74 189.805C204.579 190.757 205.269 191.581 206.514 191.915C207.785 192.256 208.948 191.828 209.227 190.829C209.451 190.027 209.07 189.436 208.088 188.9L207.284 188.463C206.67 188.126 206.426 187.804 206.533 187.422C206.671 186.925 207.284 186.728 207.948 186.906C208.623 187.087 208.976 187.498 208.971 187.975L209.853 188.211C209.99 187.264 209.337 186.466 208.165 186.152C206.977 185.834 205.884 186.292 205.625 187.217Z" fill="#999999"/>
<path d="M215.597 194.432C217.149 194.848 218.502 194.098 218.925 192.583C219.336 191.114 218.628 189.818 217.206 189.437C216.516 189.252 215.928 189.322 215.446 189.649L215.363 189.627L216.246 187.289L219.69 188.212L219.923 187.379L215.747 186.26L214.154 190.381L215.031 190.616C215.486 190.165 216.131 190.01 216.811 190.192C217.792 190.455 218.271 191.334 217.984 192.358C217.698 193.383 216.838 193.886 215.836 193.618C214.954 193.381 214.462 192.671 214.604 191.842L213.686 191.596C213.409 192.906 214.181 194.053 215.597 194.432ZM222.248 192.328L223.197 192.582C224.261 192.867 224.769 193.582 224.528 194.445C224.299 195.263 223.435 195.66 222.45 195.395C221.485 195.137 220.954 194.444 221.093 193.625L220.191 193.383C219.901 194.679 220.713 195.803 222.233 196.21C223.712 196.606 225.136 195.96 225.48 194.728C225.765 193.709 225.345 192.841 224.364 192.439L224.387 192.356C225.262 192.379 225.937 191.859 226.186 190.97C226.49 189.883 225.69 188.735 224.382 188.385C222.956 188.002 221.804 188.55 221.349 189.818L222.257 190.062C222.559 189.281 223.258 188.956 224.119 189.187C224.98 189.418 225.414 190.079 225.202 190.839C224.985 191.615 224.23 192.002 223.379 191.774L222.471 191.531L222.248 192.328ZM230.809 192.086C231.104 191.031 230.652 190.115 229.718 189.864C228.784 189.614 227.912 190.181 227.618 191.231C227.323 192.286 227.779 193.209 228.713 193.459C229.647 193.71 230.514 193.141 230.809 192.086ZM228.898 192.797C228.436 192.674 228.256 192.142 228.448 191.454C228.641 190.766 229.066 190.401 229.533 190.527C230 190.652 230.174 191.165 229.979 191.864C229.788 192.547 229.355 192.92 228.898 192.797ZM227.512 197.436L231.059 194.622L235.073 191.438L234.128 191.185L230.504 194.056L226.557 197.18L227.512 197.436ZM233.987 197.375C234.282 196.319 233.83 195.403 232.896 195.153C231.962 194.903 231.09 195.47 230.796 196.52C230.501 197.575 230.957 198.498 231.891 198.748C232.825 198.998 233.692 198.43 233.987 197.375ZM232.076 198.086C231.614 197.962 231.434 197.43 231.626 196.742C231.819 196.054 232.244 195.69 232.711 195.815C233.178 195.94 233.352 196.454 233.157 197.152C232.966 197.835 232.532 198.208 232.076 198.086Z" fill="#EA714A"/>
<path d="M253.893 203.973L249.827 196.681L242.534 200.929" stroke="#57805F" stroke-opacity="0.99" stroke-width="2" stroke-linecap="round" stroke-linejoin="round"/>
</g>
</g>
<defs>
<filter id="filter0_d_1193_8669" x="0.00195312" y="-18" width="409.213" height="478.463" filterUnits="userSpaceOnUse" color-interpolation-filters="sRGB">
<feFlood flood-opacity="0" result="BackgroundImageFix"/>
<feColorMatrix in="SourceAlpha" type="matrix" values="0 0 0 0 0 0 0 0 0 0 0 0 0 0 0 0 0 0 127 0" result="hardAlpha"/>
<feOffset dx="-20" dy="40"/>
<feGaussianBlur stdDeviation="50"/>
<feColorMatrix type="matrix" values="0 0 0 0 0.917647 0 0 0 0 0.443137 0 0 0 0 0.290196 0 0 0 0.1 0"/>
<feBlend mode="normal" in2="BackgroundImageFix" result="effect1_dropShadow_1193_8669"/>
<feBlend mode="normal" in="SourceGraphic" in2="effect1_dropShadow_1193_8669" result="shape"/>
</filter>
<clipPath id="clip0_1193_8669">
<rect width="146.989" height="249.643" fill="white" transform="matrix(0.965926 0.258819 -0.269316 0.963052 187.234 42)"/>
</clipPath>
</defs>
</svg>
