<svg width="28" height="28" viewBox="0 0 28 28" fill="white" xmlns="http://www.w3.org/2000/svg">
<path d="M12.1999 10.1371L9.31245 7.24957C8.62878 6.5659 7.52045 6.5659 6.83795 7.24957V7.24957C6.15428 7.93323 6.15428 9.04157 6.83795 9.72407L9.72545 12.6116" stroke="#707070" fill="white" stroke-width="1.5" stroke-linecap="round" stroke-linejoin="round"/>
<path d="M10.1368 8.07563C9.45311 7.39196 9.45311 6.28363 10.1368 5.60113V5.60113C10.8204 4.91746 11.9288 4.91746 12.6113 5.60113L14.6739 7.6638" stroke="#707070" fill="white" stroke-width="1.5" stroke-linecap="round" stroke-linejoin="round"/>
<path d="M7.24928 15.0874L6.18294 16.1537C5.80961 16.527 5.59961 17.0334 5.59961 17.5619V17.5619C5.59961 18.0904 5.80961 18.5967 6.18294 18.97L8.89894 21.686C11.6324 24.4195 16.0646 24.4195 18.7981 21.686L21.2726 19.2115C24.0061 16.478 24.0061 12.0459 21.2726 9.31237L17.9733 6.01303L18.7981 6.83787L16.7354 4.7752C16.0518 4.09153 14.9434 4.09153 14.2609 4.7752V4.7752C13.5773 5.45887 13.5773 6.5672 14.2609 7.2497L15.4988 8.48753" stroke="#707070" fill="white" stroke-width="1.5" stroke-linecap="round" stroke-linejoin="round"/>
<path d="M8.90086 16.7369L5.18853 13.0246C4.50486 12.3409 4.50486 11.2326 5.18853 10.5501V10.5501C5.8722 9.86644 6.98053 9.86644 7.66303 10.5501" stroke="#707070" fill="white" stroke-width="1.5" stroke-linecap="round" stroke-linejoin="round"/>
</svg>
