<svg width="26" height="26" viewBox="0 0 26 26" fill="none" xmlns="http://www.w3.org/2000/svg">
<path d="M21.0035 8.99818H17.0019C16.4494 8.99818 16.0015 8.55028 16.0015 7.99776V3.99609" stroke="#707070" stroke-width="1.5" stroke-linecap="round" stroke-linejoin="round"/>
<rect x="3.99634" y="8.99854" width="10.0042" height="10.0042" rx="3" stroke="#707070" stroke-width="1.5" stroke-linecap="round" stroke-linejoin="round"/>
<path d="M6.74756 12.25L7.24777 15.7515H7.5769L8.9985 12.7502L10.4201 15.7515H10.7492L11.2494 12.25" stroke="#707070" stroke-width="1.5" stroke-linecap="round" stroke-linejoin="round"/>
<path d="M6.99756 8.99818V5.99693C6.99756 4.8919 7.89336 3.99609 8.99839 3.99609H16.1734C16.704 3.99609 17.2128 4.20708 17.588 4.58234L20.4171 7.41152C20.7924 7.78666 21.0034 8.29549 21.0034 8.82611V20.0028C21.0034 21.1078 20.1076 22.0036 19.0026 22.0036H8.99839C7.89336 22.0036 6.99756 21.1078 6.99756 20.0028V19.0023" stroke="#707070" stroke-width="1.5" stroke-linecap="round" stroke-linejoin="round"/>
</svg>
