<svg width="1031" height="2" viewBox="0 0 1031 2" fill="none" xmlns="http://www.w3.org/2000/svg">
<rect width="1031" height="2" rx="1" fill="#EEF3F7" fill-opacity="0.7"/>
<rect width="38.7837" height="2" rx="1" transform="matrix(-1 0 0 1 109.887 0)" fill="#109BE8"/>
<rect width="12.9279" height="2" rx="1" transform="matrix(-1 0 0 1 129.279 0)" fill="#109BE8"/>
<rect width="12.9279" height="2" rx="1" transform="matrix(-1 0 0 1 206.847 0)" fill="#109BE8"/>
<rect width="117.967" height="2" rx="1" transform="matrix(-1 0 0 1 437.933 0)" fill="#109BE8"/>
<rect width="66.2555" height="2" rx="1" transform="matrix(-1 0 0 1 565.596 0)" fill="#109BE8"/>
<rect width="22.6238" height="2" rx="1" transform="matrix(-1 0 0 1 599.531 0)" fill="#109BE8"/>
<rect width="53.3276" height="2" rx="1" transform="matrix(-1 0 0 1 657.707 0)" fill="#109BE8"/>
<rect width="90.4953" height="2" rx="1" transform="matrix(-1 0 0 1 791.834 0)" fill="#109BE8"/>
<rect width="33.9357" height="2" rx="1" transform="matrix(-1 0 0 1 922.729 0)" fill="#109BE8"/>
<rect width="48.4796" height="2" rx="1" transform="matrix(-1 0 0 1 1016.46 0)" fill="#109BE8"/>
</svg>
