<svg width="9" height="10" viewBox="0 0 9 10" fill="none" xmlns="http://www.w3.org/2000/svg">
<path fill-rule="evenodd" clip-rule="evenodd" d="M0.5 0.5C0.223858 0.5 0 0.723858 0 1V9C0 9.27614 0.223858 9.5 0.5 9.5C0.776142 9.5 1 9.27614 1 9V1C1 0.723858 0.776142 0.5 0.5 0.5Z" fill="#333131"/>
<path fill-rule="evenodd" clip-rule="evenodd" d="M1.69613 5L7.5 1.63288V8.36712L1.69613 5ZM0.903571 4.3037C0.365476 4.61588 0.365476 5.38412 0.903571 5.6963L7.26721 9.38817C7.78744 9.68998 8.5 9.34512 8.5 8.69187V1.30813C8.5 0.654877 7.78744 0.310019 7.26721 0.611831L0.903571 4.3037Z" fill="#333131"/>
</svg>
