<svg id="Convirza_logo_color" xmlns="http://www.w3.org/2000/svg" width="265.812" height="68.512" viewBox="0 0 265.812 68.512">
  <rect width="68.512" height="13.93" rx="6.965" transform="translate(31.983) rotate(90)" fill="#dd5418"/>
  <rect width="42.865" height="13.93" rx="6.965" transform="translate(50.036 12.823) rotate(90)" fill="#dd5418"/>
  <rect width="42.482" height="13.93" rx="6.965" transform="translate(13.93 13.015) rotate(90)" fill="#dd5418"/>
  <path d="M109.378,75.531a20.1,20.1,0,0,0,8.016-1.6v4a23.712,23.712,0,0,1-8.474,1.541c-6.127,0-13.4-2.511-13.4-14.727,0-12.159,7.272-14.728,13.4-14.728a23.745,23.745,0,0,1,8.474,1.6v3.939a21.126,21.126,0,0,0-8.016-1.6c-6.814,0-9.735,3.254-9.735,10.79C99.644,72.334,102.564,75.531,109.378,75.531Z" transform="translate(-35.381 -30.486)" fill="#fff"/>
  <path d="M152.148,64.742c0,12.159-7.329,14.727-13.456,14.727s-13.4-2.569-13.4-14.727,7.272-14.728,13.4-14.728S152.148,52.583,152.148,64.742Zm-4.123,0c0-7.649-2.806-10.96-9.333-10.96-6.47,0-9.276,3.311-9.276,10.96s2.806,10.96,9.276,10.96C145.219,75.7,148.025,72.391,148.025,64.742Z" transform="translate(-38.757 -30.486)" fill="#fff"/>
  <path d="M186.429,60.461V79.013h-4.123V60.461c0-2.683-.8-6.337-7.673-6.337a26.926,26.926,0,0,0-7.5,1.142V79.013H163.01v-26.2a28.464,28.464,0,0,1,12.082-2.8C182.307,50.014,186.429,53.839,186.429,60.461Z" transform="translate(-43.034 -30.486)" fill="#fff"/>
  <path d="M221.088,50.6,210.094,79.081h-4.179L194.978,50.6h4.409l8.646,23.348L216.68,50.6Z" transform="translate(-46.66 -30.554)" fill="#fff"/>
  <path d="M237.27,50.6h-4.123V79.081h4.123Z" transform="translate(-50.988 -30.554)" fill="#fff"/>
  <path d="M251.284,55.5V79.021H247.16v-26.2a37.415,37.415,0,0,1,13.857-2.74v3.939A42.7,42.7,0,0,0,251.284,55.5Z" transform="translate(-52.577 -30.494)" fill="#fff"/>
  <path d="M290.986,54.192,275.3,75.142h15.689v3.939h-20.9V75.37l15.574-20.836H270.487V50.6h20.5Z" transform="translate(-55.177 -30.554)" fill="#fff"/>
  <path d="M324.468,61.888V70.45c0,7.878-8.017,9.019-11.738,9.019s-11.967-1.141-11.967-9.191c0-9.419,12.31-9.361,14.944-9.361a36.128,36.128,0,0,1,4.581.285c0-5.366-3.207-7.079-8.361-7.079a25.408,25.408,0,0,0-8.36,1.37v-4a25.862,25.862,0,0,1,8.589-1.484C320.174,50.014,324.468,54.124,324.468,61.888Zm-4.122,3.082a31.556,31.556,0,0,0-5.1-.343c-3.436,0-10.363.4-10.363,5.652,0,4.51,4.295,5.366,7.845,5.366s7.616-.856,7.616-5.195Z" transform="translate(-58.656 -30.486)" fill="#fff"/>
</svg>