<svg width="17" height="18" viewBox="0 0 17 18" fill="none" xmlns="http://www.w3.org/2000/svg">
<path d="M2.74609 0C1.7796 0 0.996094 0.783502 0.996094 1.75V16.25C0.996094 17.2165 1.7796 18 2.74609 18H6.24609C7.21259 18 7.99609 17.2165 7.99609 16.25V1.75C7.99609 0.783502 7.21259 0 6.24609 0H2.74609ZM2.49609 1.75C2.49609 1.61193 2.60802 1.5 2.74609 1.5H6.24609C6.38416 1.5 6.49609 1.61193 6.49609 1.75V16.25C6.49609 16.3881 6.38416 16.5 6.24609 16.5H2.74609C2.60802 16.5 2.49609 16.3881 2.49609 16.25V1.75ZM11.7461 0C10.7796 0 9.99609 0.783502 9.99609 1.75V16.25C9.99609 17.2165 10.7796 18 11.7461 18H15.2461C16.2126 18 16.9961 17.2165 16.9961 16.25V1.75C16.9961 0.783502 16.2126 0 15.2461 0H11.7461ZM11.4961 1.75C11.4961 1.61193 11.608 1.5 11.7461 1.5H15.2461C15.3842 1.5 15.4961 1.61193 15.4961 1.75V16.25C15.4961 16.3881 15.3842 16.5 15.2461 16.5H11.7461C11.608 16.5 11.4961 16.3881 11.4961 16.25V1.75Z" fill="#109BE8"/>
</svg>
