<svg width="16" height="16" viewBox="0 0 16 16" fill="none" xmlns="http://www.w3.org/2000/svg">
<path fill-rule="evenodd" clip-rule="evenodd" d="M12.1493 1.82381C12.2464 1.7267 12.4046 1.7267 12.5017 1.82381L14.1777 3.49981C14.2748 3.5969 14.2748 3.75498 14.1777 3.8521L14.1777 3.85215L12.84 5.18953L10.8118 3.16132L12.1493 1.82381ZM9.2562 2.59562C9.24374 2.60654 9.23155 2.61794 9.21967 2.62983C9.20779 2.64171 9.19638 2.6539 9.18546 2.66636L0.764086 11.0877L0.763305 11.0885C0.433497 11.417 0.25 11.8623 0.25 12.3255V15.0005C0.25 15.4147 0.585786 15.7505 1 15.7505H3.675C4.13818 15.7505 4.58359 15.5669 4.91206 15.2371L4.91274 15.2364L13.3655 6.78524C13.3671 6.78366 13.3687 6.78208 13.3703 6.78049C13.3719 6.77893 13.3734 6.77737 13.375 6.7758L15.2383 4.91286L15.2383 4.91281C15.9212 4.22991 15.9212 3.12204 15.2383 2.43915L13.5623 0.763146C12.8794 0.0802532 11.7716 0.0802532 11.0887 0.763146L9.2562 2.59562ZM11.7793 6.25008L3.85072 14.1771L3.84926 14.1786C3.8038 14.2243 3.7415 14.2505 3.675 14.2505H1.75V12.3255C1.75 12.259 1.77621 12.1967 1.82191 12.1512L1.82333 12.1498L9.75116 4.22198L11.7793 6.25008Z" fill="#707070"/>
</svg>
