<svg width="248" height="350" viewBox="0 0 248 350" fill="none" xmlns="http://www.w3.org/2000/svg">
<path d="M141.373 92.8091C143.634 93.5337 153.042 97.7733 157.068 99.8025C157.189 101.973 156.428 108.02 155.303 110.029C150.253 108.961 149.994 106.822 142.627 105.174C135.26 103.526 136.203 100.898 137.172 99.3631C130.254 103.631 124.885 102.112 125.926 101.879C126.967 101.646 138.546 91.9033 141.373 92.8091Z" fill="#FECBB5"/>
<path d="M137.17 99.3634C130.252 103.631 124.882 102.112 125.924 101.879C131.164 102.745 135.313 99.8028 137.488 98.9365C135.906 103.582 138.279 103.584 142.625 104.77C146.625 105.862 151.525 108.722 153.7 108.131L155.301 98.9365C155.959 99.253 156.555 99.5457 157.065 99.8028C157.186 101.973 156.426 108.02 155.301 110.029C150.251 108.962 149.991 106.823 142.625 105.174C135.258 103.526 136.201 100.898 137.17 99.3634Z" fill="#F1A089"/>
<path d="M180.625 92.8999C182.434 91.171 194.492 63.9142 200.521 53.6484L184.243 117.055L153.899 113.075L156.509 98.1047C173.39 95.6893 178.817 94.6288 180.625 92.8999Z" fill="#E36743"/>
<path d="M158.647 97.7964L155.879 113.333" stroke="white" stroke-width="2"/>
<path d="M200.521 53.6484L184.242 117.055L175.25 115.875L186.697 81.244C191.136 72.0406 196.91 59.797 200.521 53.6484Z" fill="#D5482A"/>
<path d="M213.821 36.2104L201.274 44.6867C204.261 45.8976 204.859 49.6817 204.859 51.9521C198.657 56.9447 200.79 66.3655 205.829 65.1673C210.868 63.9691 221.34 57.4201 222.503 47.4349C219.557 44.5592 214.919 37.8746 213.821 36.2104Z" fill="#FECBB5"/>
<path d="M213.821 36.2104L201.274 44.6867C203.871 45.7394 204.662 48.7367 204.825 50.9937C209.345 50.2269 212.706 40.8187 213.821 36.2104Z" fill="#F1A089"/>
<path d="M53.8347 204.053C53.8347 198.722 57.4821 194.588 60.0967 193.78L40.0202 177.922C37.6477 184.644 37.0516 188.301 29.8113 196.055C23.5893 202.718 13.0165 200.476 8.33945 202.718C0.676506 206.392 0.495842 211.768 1.3396 211.768C5.36196 211.566 23.9358 211.768 37.45 211.768C54.3547 211.768 53.8347 214.102 53.8347 204.053Z" fill="#FECBB5"/>
<path d="M53.8347 204.053C53.8347 198.722 57.4821 194.588 60.0967 193.78L40.0202 177.922C39.0585 180.647 38.3887 182.868 37.45 185.062L53.0673 201.449C53.6604 204.744 53.8581 211.295 49.904 211.137C45.9498 210.978 15.6567 211.071 1.00438 211.137C1.03355 211.536 1.16452 211.768 1.3396 211.768C5.36197 211.566 23.9358 211.768 37.45 211.768C54.3547 211.768 53.8347 214.102 53.8347 204.053Z" fill="#F1A089"/>
<path d="M112.76 103.1C137.333 114.173 203.708 149.653 230.61 163.094L169.374 202.401L106.134 150.042C93.888 163.082 79.3633 203.372 71.6541 212.52C49.9063 200.065 41.6069 182.612 29.5425 175.154C72.0647 112.809 88.1863 92.026 112.76 103.1Z" fill="#0B1F83"/>
<path d="M230.413 162.897L169.375 202.401L109.021 152.432C136.226 144.714 194.958 152.213 220.923 156.926C224.752 158.86 227.447 161.415 230.413 162.897Z" fill="#091259"/>
<path d="M31.518 172.259C44.3689 180.69 60.5809 205.205 70.4662 206.392C75.4089 203.624 95.7727 153.406 105.065 145.893C107.121 143.995 150.999 181.359 172.681 200.279" stroke="#4B4FE2" stroke-width="2"/>
<path d="M107.811 151.43L106.135 150.043C105.728 150.476 105.319 150.939 104.908 151.43C104.104 145.564 102.496 132.45 102.496 126.914C102.812 130.236 106.171 144.642 107.811 151.43Z" fill="#1A1454"/>
<path d="M137.565 324.202C135.164 319.982 134.329 309.284 134.532 306.653C131.903 306.653 118.095 305.687 113.241 305.687C114.455 315.4 113.848 319.042 98.7923 332.757C78.1356 351.573 97.8405 349.754 103.169 347.933C111.188 345.192 106.592 341.429 120.025 335.185C127.012 331.937 142.432 332.757 137.565 324.202Z" fill="#FECBB5"/>
<path d="M137.565 324.202C135.164 319.982 134.329 309.284 134.532 306.653C131.903 306.653 118.095 305.687 113.241 305.687C113.457 307.415 113.615 308.951 113.645 310.386L133.733 312.56C134.301 315.658 135.649 322.406 136.501 324.621C137.565 327.388 141.258 329.761 120.025 334.308C111.194 336.199 108.822 345.957 103.169 347.159C99.5297 347.933 95.774 349.447 90.131 347.159C92.3049 350.024 100.108 348.979 103.169 347.933C111.188 345.192 106.592 341.429 120.025 335.185C127.012 331.937 142.432 332.757 137.565 324.202Z" fill="#F1A089"/>
<path d="M202.647 212.082C240.675 212.565 232.982 182.908 230.412 159.733C112.974 145.893 88.2055 148.309 90.7279 184.885C92.9794 217.532 96.745 296.09 96.745 309.386C112.38 305.048 144.013 314.537 156.916 309.386C152.704 302.133 144.28 226.587 131.043 200.599C138.28 203.426 164.618 211.598 202.647 212.082Z" fill="#0B1F83"/>
<path d="M96.6124 302.675C112.181 299.511 139.267 308.803 148.757 303.861C147.373 299.116 134.127 206.546 125.032 195.715C121.869 191.959 174.677 210.779 202.647 208.368C223.293 206.589 234.364 201.646 226.258 159.246" stroke="#4B4FE2" stroke-width="2"/>
<path d="M131.047 200.598C132.008 200.974 133.305 201.443 134.922 201.976C130.309 198.703 116.733 188.993 116.733 179.108C114.953 188.4 130.836 205.039 134.922 209.898C133.679 206.372 132.388 203.231 131.047 200.598Z" fill="#1A1454"/>
<path d="M231.398 169.224C255.432 69.1774 253.159 65.9915 222.316 47.3081C205.626 77.5278 198.972 59.9646 204.809 52.1296C202.998 52.7323 201.791 52.7323 200.583 53.335C188.51 70.813 171.889 132.648 171.889 132.648C180.105 138.47 187.671 148.561 193.834 155.384C199.37 161.513 213.605 162.699 231.398 169.224Z" fill="#EC6C47"/>
<path d="M223.688 48.1401C216.175 60.2868 210.639 67.5335 204.115 64.7617C202.138 63.9217 200.161 58.5074 204.115 52.341" stroke="white" stroke-width="2"/>
<path d="M206.49 85.1969C214.715 59.4159 226.92 60.0881 231.995 63.6468C233.91 64.9901 240.496 67.9966 240.496 79.6613C240.496 94.6871 230.091 131.616 221.121 132.844C205.918 134.927 184.701 133.042 172.287 131.461C173.671 125.332 174.674 118.143 178.614 109.12C187.325 107.208 199.136 103.544 199.768 101.804C200.559 99.6295 201.943 97.4547 206.49 85.1969Z" fill="#D5482A"/>
<path d="M207.873 43.8663C196.196 51.5226 191.602 39.7162 186.783 23.0272L208.508 13.4907C215.698 18.855 219.55 36.21 207.873 43.8663Z" fill="#FECBB5"/>
<path d="M186.783 23.0272L208.508 13.4907C214.047 17.6238 217.606 28.8751 213.606 37.324C213.013 36.3452 211.906 34.1106 212.223 33.0035C212.618 31.6195 216.177 25.886 212.816 23.7112C209.455 21.5365 209.706 25.4906 211.036 29.0493C211.629 30.631 207.478 28.4562 205.896 26.0837C202.114 20.4114 202.337 29.0493 188.893 29.9515C188.18 27.7764 187.484 25.4534 186.783 23.0272Z" fill="#F1A089"/>
<path d="M183.629 24.9443C180.736 15.7697 187.712 12.9498 191.911 12.7145C192.86 9.50471 197.245 5.68324 200.339 5.68362C207.652 5.68454 210.474 10.8733 211.471 13.1953C221.426 17.1678 217.532 27.0249 215.791 29.7141C215.69 30.2653 215.448 34.2695 214.593 37.3526C212.813 36.1664 213.016 34.5915 212.643 33.5252C212.176 32.1923 213.777 31.2405 214.507 27.2783C215.237 23.3162 211.37 22.069 209.879 23.3971C208.387 24.7252 211.791 29.4495 210.068 29.1319C205.34 27.726 205.89 20.8805 201.07 24.8014C194.155 30.427 185.537 30.9955 183.629 24.9443Z" fill="#2C257C"/>
<path d="M201.068 24.8038C194.153 30.4294 185.535 30.9979 183.627 24.9467C182.56 21.5644 182.835 19.0457 183.818 17.2018C183.858 28.1134 195.335 26.8163 201.068 24.8038Z" fill="#1D1C57"/>
<rect width="55.4989" height="6.03177" transform="matrix(-0.89732 -0.441381 -0.441381 0.89732 165.389 122.387)" fill="#F4BD34"/>
<path d="M162.726 127.8L112.926 103.304L113.468 102.201L163.064 127.112L162.726 127.8Z" fill="#DB9C14"/>
<path d="M100.78 54.3872C99.6726 54.6593 99.0165 55.8009 99.3389 56.8948L113.008 103.271L118.865 101.831L105.145 55.2802C104.843 54.2548 103.787 53.6483 102.749 53.9034L100.78 54.3872Z" fill="#F4BD34"/>
<path d="M113.008 103.271L99.1486 56.2491C98.9299 55.507 99.375 54.7324 100.126 54.5478L114.361 102.938L113.008 103.271Z" fill="#DB9C14"/>
<path d="M150.323 108.812C155.125 113.755 161.147 115.184 163.557 115.676C163.804 117.774 163.986 122.805 162.747 126.136C141.512 127.659 146.02 123.063 135.864 118.38C125.707 113.698 128.034 109.367 132.043 111.937C136.051 114.508 146.37 116.752 146.37 113.306C146.37 112.679 136.635 108.677 137.885 108.813C139.134 108.948 146.804 104.725 150.323 108.812Z" fill="#FECBB5"/>
<path d="M162.743 126.136C141.508 127.659 146.016 123.063 135.86 118.381C130.834 116.064 128.865 113.833 128.644 112.481C131.269 117.82 139.265 118.381 141.835 120.785C148.162 127.069 156.334 126.04 159.629 124.739L161.009 115.052C162.046 115.354 162.923 115.547 163.553 115.676C163.8 117.775 163.982 122.805 162.743 126.136Z" fill="#F1A089"/>
<path d="M236.595 67.1357C223.477 55.1673 216.012 65.9542 212.404 75.0373C209.676 81.9048 203.236 105.608 201.232 106.161C199.228 106.714 173.029 111.627 163.23 113.4L160.217 129.686C182.534 131.495 218.719 135.42 224.153 127.876C232.11 116.831 246.536 76.6521 236.595 67.1357Z" fill="#EC6C47"/>
<path d="M166.103 112.876L163.233 129.934" stroke="white" stroke-width="2"/>
</svg>
