<svg width="19" height="19" viewBox="0 0 19 19" fill="none" xmlns="http://www.w3.org/2000/svg">
<path d="M13.2425 0.931886L18.0682 5.75765C19.3955 7.08491 19.0324 9.32243 17.3535 10.1619L12.4826 12.5973C12.3073 12.685 12.1732 12.8379 12.1092 13.0232L10.6699 17.1895C10.3684 18.0622 9.2574 18.3181 8.60453 17.6653L5.50002 14.5607L1.06074 19.0001H0L8.27878e-05 17.9394L4.43936 13.5001L1.33487 10.3956C0.682002 9.74272 0.937914 8.6317 1.81061 8.33022L5.97688 6.89096C6.16223 6.82694 6.31512 6.69287 6.40281 6.51748L8.83823 1.6466C9.67766 -0.0322767 11.9152 -0.395379 13.2425 0.931886ZM17.0076 6.81831L12.1818 1.99255C11.5785 1.38924 10.5614 1.55429 10.1799 2.31742L7.74446 7.18829C7.48138 7.71446 7.02269 8.11667 6.46666 8.30875L2.67812 9.61752L9.38261 16.322L10.6914 12.5335C10.8835 11.9774 11.2857 11.5188 11.8118 11.2557L16.6827 8.82023C17.4458 8.43866 17.6109 7.42161 17.0076 6.81831Z" fill="#594E90"/>
</svg>
