<svg width="24" height="24" viewBox="0 0 24 24" fill="none" xmlns="http://www.w3.org/2000/svg">
<path d="M11.9665 22.3319C17.8465 22.3319 22.6332 18.1452 22.6332 12.9985C22.6332 7.85188 17.8465 3.66521 11.9665 3.66521C10.8664 3.66648 9.77172 3.81902 8.71318 4.11854L5.02651 1.77188C4.92587 1.7073 4.80971 1.67099 4.6902 1.66674C4.5707 1.66249 4.45226 1.69046 4.34728 1.74772C4.2423 1.80498 4.15466 1.88943 4.09353 1.9922C4.0324 2.09498 4.00005 2.2123 3.99985 2.33188L3.99985 6.81854C3.16569 7.61876 2.50003 8.57776 2.04207 9.63909C1.5841 10.7004 1.34308 11.8427 1.33318 12.9985C1.29985 18.1452 6.08652 22.3319 11.9665 22.3319Z" fill="white"/>
<path fill-rule="evenodd" clip-rule="evenodd" d="M22.6332 12.9985C22.6332 18.1452 17.8465 22.3319 11.9665 22.3319C6.08652 22.3319 1.29985 18.1452 1.33318 12.9985C1.34308 11.8427 1.5841 10.7004 2.04207 9.63909C2.50003 8.57776 3.16569 7.61876 3.99985 6.81854L3.99985 2.33188C4.00005 2.2123 4.0324 2.09498 4.09353 1.9922C4.15466 1.88943 4.2423 1.80498 4.34728 1.74772C4.45226 1.69046 4.5707 1.66249 4.6902 1.66674C4.80971 1.67099 4.92587 1.7073 5.02651 1.77188L8.71318 4.11854C9.77172 3.81902 10.8664 3.66648 11.9665 3.66521C17.8465 3.66521 22.6332 7.85188 22.6332 12.9985ZM11.0202 7.30199C10.9781 7.4251 10.962 7.5556 10.973 7.68525V14.1986C10.962 14.3282 10.9781 14.4587 11.0202 14.5819C11.0623 14.705 11.1295 14.818 11.2176 14.9138C11.3056 15.0096 11.4126 15.086 11.5317 15.1384C11.6508 15.1907 11.7795 15.2177 11.9096 15.2177C12.0398 15.2177 12.1684 15.1907 12.2876 15.1384C12.4067 15.086 12.5137 15.0096 12.6017 14.9138C12.6898 14.818 12.757 14.705 12.7991 14.5819C12.8412 14.4587 12.8573 14.3282 12.8463 14.1986V7.68525C12.8573 7.5556 12.8412 7.4251 12.7991 7.30199C12.757 7.17888 12.6898 7.06585 12.6017 6.97006C12.5137 6.87426 12.4067 6.79779 12.2876 6.74548C12.1684 6.69317 12.0398 6.66616 11.9096 6.66616C11.7795 6.66616 11.6508 6.69317 11.5317 6.74548C11.4126 6.79779 11.3056 6.87426 11.2176 6.97006C11.1295 7.06585 11.0623 7.17888 11.0202 7.30199ZM11.2204 19.0418C11.4254 19.1788 11.6664 19.2519 11.913 19.2519V19.2453C12.2425 19.2453 12.5585 19.1148 12.7922 18.8825C13.0258 18.6501 13.1579 18.3347 13.1596 18.0053C13.1596 17.7587 13.0865 17.5177 12.9495 17.3126C12.8126 17.1076 12.6179 16.9478 12.3901 16.8535C12.1623 16.7591 11.9116 16.7344 11.6698 16.7825C11.4279 16.8306 11.2058 16.9494 11.0314 17.1237C10.8571 17.2981 10.7384 17.5202 10.6903 17.762C10.6422 18.0039 10.6668 18.2545 10.7612 18.4823C10.8556 18.7101 11.0154 18.9048 11.2204 19.0418Z" fill="#49E600"/>
</svg>
