<svg width="109" height="15" viewBox="0 0 109 15" fill="none" xmlns="http://www.w3.org/2000/svg">
<path d="M6.602 4.098C6.602 4.91 6.322 5.58667 5.762 6.128C5.21133 6.66 4.36667 6.926 3.228 6.926H1.352V11H0.0780001V1.242H3.228C4.32933 1.242 5.16467 1.508 5.734 2.04C6.31267 2.572 6.602 3.258 6.602 4.098ZM3.228 5.876C3.93733 5.876 4.46 5.722 4.796 5.414C5.132 5.106 5.3 4.66733 5.3 4.098C5.3 2.894 4.60933 2.292 3.228 2.292H1.352V5.876H3.228ZM9.45942 0.64V11H8.18542V0.64H9.45942ZM11.1547 7.136C11.1547 6.352 11.3134 5.666 11.6307 5.078C11.9481 4.48067 12.3821 4.01867 12.9327 3.692C13.4927 3.36533 14.1134 3.202 14.7947 3.202C15.4667 3.202 16.0501 3.34667 16.5447 3.636C17.0394 3.92533 17.4081 4.28933 17.6507 4.728V3.328H18.9387V11H17.6507V9.572C17.3987 10.02 17.0207 10.3933 16.5167 10.692C16.0221 10.9813 15.4434 11.126 14.7807 11.126C14.0994 11.126 13.4834 10.958 12.9327 10.622C12.3821 10.286 11.9481 9.81467 11.6307 9.208C11.3134 8.60133 11.1547 7.91067 11.1547 7.136ZM17.6507 7.15C17.6507 6.57133 17.5341 6.06733 17.3007 5.638C17.0674 5.20867 16.7501 4.882 16.3487 4.658C15.9567 4.42467 15.5227 4.308 15.0467 4.308C14.5707 4.308 14.1367 4.42 13.7447 4.644C13.3527 4.868 13.0401 5.19467 12.8067 5.624C12.5734 6.05333 12.4567 6.55733 12.4567 7.136C12.4567 7.724 12.5734 8.23733 12.8067 8.676C13.0401 9.10533 13.3527 9.43667 13.7447 9.67C14.1367 9.894 14.5707 10.006 15.0467 10.006C15.5227 10.006 15.9567 9.894 16.3487 9.67C16.7501 9.43667 17.0674 9.10533 17.3007 8.676C17.5341 8.23733 17.6507 7.72867 17.6507 7.15ZM27.6997 3.328L23.0797 14.612H21.7637L23.2757 10.916L20.1817 3.328H21.5957L24.0037 9.544L26.3837 3.328H27.6997ZM30.2543 4.756C30.5157 4.29867 30.8983 3.92533 31.4023 3.636C31.9063 3.34667 32.4803 3.202 33.1243 3.202C33.815 3.202 34.4357 3.36533 34.9863 3.692C35.537 4.01867 35.971 4.48067 36.2883 5.078C36.6057 5.666 36.7643 6.352 36.7643 7.136C36.7643 7.91067 36.6057 8.60133 36.2883 9.208C35.971 9.81467 35.5323 10.286 34.9723 10.622C34.4217 10.958 33.8057 11.126 33.1243 11.126C32.4617 11.126 31.8783 10.9813 31.3743 10.692C30.8797 10.4027 30.5063 10.034 30.2543 9.586V11H28.9803V0.64H30.2543V4.756ZM35.4623 7.136C35.4623 6.55733 35.3457 6.05333 35.1123 5.624C34.879 5.19467 34.5617 4.868 34.1603 4.644C33.7683 4.42 33.3343 4.308 32.8583 4.308C32.3917 4.308 31.9577 4.42467 31.5563 4.658C31.1643 4.882 30.847 5.21333 30.6043 5.652C30.371 6.08133 30.2543 6.58067 30.2543 7.15C30.2543 7.72867 30.371 8.23733 30.6043 8.676C30.847 9.10533 31.1643 9.43667 31.5563 9.67C31.9577 9.894 32.3917 10.006 32.8583 10.006C33.3343 10.006 33.7683 9.894 34.1603 9.67C34.5617 9.43667 34.879 9.10533 35.1123 8.676C35.3457 8.23733 35.4623 7.724 35.4623 7.136ZM37.9653 7.136C37.9653 6.352 38.1239 5.666 38.4413 5.078C38.7586 4.48067 39.1926 4.01867 39.7433 3.692C40.3033 3.36533 40.9239 3.202 41.6053 3.202C42.2773 3.202 42.8606 3.34667 43.3553 3.636C43.8499 3.92533 44.2186 4.28933 44.4613 4.728V3.328H45.7493V11H44.4613V9.572C44.2093 10.02 43.8313 10.3933 43.3273 10.692C42.8326 10.9813 42.2539 11.126 41.5913 11.126C40.9099 11.126 40.2939 10.958 39.7433 10.622C39.1926 10.286 38.7586 9.81467 38.4413 9.208C38.1239 8.60133 37.9653 7.91067 37.9653 7.136ZM44.4613 7.15C44.4613 6.57133 44.3446 6.06733 44.1113 5.638C43.8779 5.20867 43.5606 4.882 43.1593 4.658C42.7673 4.42467 42.3333 4.308 41.8573 4.308C41.3813 4.308 40.9473 4.42 40.5553 4.644C40.1633 4.868 39.8506 5.19467 39.6173 5.624C39.3839 6.05333 39.2673 6.55733 39.2673 7.136C39.2673 7.724 39.3839 8.23733 39.6173 8.676C39.8506 9.10533 40.1633 9.43667 40.5553 9.67C40.9473 9.894 41.3813 10.006 41.8573 10.006C42.3333 10.006 42.7673 9.894 43.1593 9.67C43.5606 9.43667 43.8779 9.10533 44.1113 8.676C44.3446 8.23733 44.4613 7.72867 44.4613 7.15ZM47.4262 7.15C47.4262 6.35667 47.5849 5.666 47.9022 5.078C48.2196 4.48067 48.6582 4.01867 49.2182 3.692C49.7876 3.36533 50.4362 3.202 51.1642 3.202C52.1069 3.202 52.8816 3.43067 53.4882 3.888C54.1042 4.34533 54.5102 4.98 54.7062 5.792H53.3342C53.2036 5.32533 52.9469 4.95667 52.5642 4.686C52.1909 4.41533 51.7242 4.28 51.1642 4.28C50.4362 4.28 49.8482 4.532 49.4002 5.036C48.9522 5.53067 48.7282 6.23533 48.7282 7.15C48.7282 8.074 48.9522 8.788 49.4002 9.292C49.8482 9.796 50.4362 10.048 51.1642 10.048C51.7242 10.048 52.1909 9.91733 52.5642 9.656C52.9376 9.39467 53.1942 9.02133 53.3342 8.536H54.7062C54.5009 9.32 54.0902 9.95 53.4742 10.426C52.8582 10.8927 52.0882 11.126 51.1642 11.126C50.4362 11.126 49.7876 10.9627 49.2182 10.636C48.6582 10.3093 48.2196 9.84733 47.9022 9.25C47.5849 8.65267 47.4262 7.95267 47.4262 7.15ZM60.6901 11L57.6801 7.612V11H56.4061V0.64H57.6801V6.73L60.6341 3.328H62.4121L58.8001 7.15L62.4261 11H60.6901ZM70.0596 11.126C69.4716 11.126 68.9443 11.028 68.4776 10.832C68.011 10.6267 67.6423 10.3467 67.3716 9.992C67.101 9.628 66.9516 9.21267 66.9236 8.746H68.2396C68.277 9.12867 68.4543 9.44133 68.7716 9.684C69.0983 9.92667 69.523 10.048 70.0456 10.048C70.531 10.048 70.9136 9.94067 71.1936 9.726C71.4736 9.51133 71.6136 9.24067 71.6136 8.914C71.6136 8.578 71.4643 8.33067 71.1656 8.172C70.867 8.004 70.405 7.84067 69.7796 7.682C69.2103 7.53267 68.7436 7.38333 68.3796 7.234C68.025 7.07533 67.717 6.84667 67.4556 6.548C67.2036 6.24 67.0776 5.83867 67.0776 5.344C67.0776 4.952 67.1943 4.59267 67.4276 4.266C67.661 3.93933 67.9923 3.68267 68.4216 3.496C68.851 3.3 69.341 3.202 69.8916 3.202C70.741 3.202 71.427 3.41667 71.9496 3.846C72.4723 4.27533 72.7523 4.86333 72.7896 5.61H71.5156C71.4876 5.20867 71.3243 4.88667 71.0256 4.644C70.7363 4.40133 70.3443 4.28 69.8496 4.28C69.3923 4.28 69.0283 4.378 68.7576 4.574C68.487 4.77 68.3516 5.02667 68.3516 5.344C68.3516 5.596 68.431 5.806 68.5896 5.974C68.7576 6.13267 68.963 6.26333 69.2056 6.366C69.4576 6.45933 69.803 6.56667 70.2416 6.688C70.7923 6.83733 71.2403 6.98667 71.5856 7.136C71.931 7.276 72.225 7.49067 72.4676 7.78C72.7196 8.06933 72.8503 8.44733 72.8596 8.914C72.8596 9.334 72.743 9.712 72.5096 10.048C72.2763 10.384 71.945 10.65 71.5156 10.846C71.0956 11.0327 70.6103 11.126 70.0596 11.126ZM75.9321 4.742C76.1841 4.30333 76.5574 3.93933 77.0521 3.65C77.5561 3.35133 78.1394 3.202 78.8021 3.202C79.4834 3.202 80.0994 3.36533 80.6501 3.692C81.2101 4.01867 81.6487 4.48067 81.9661 5.078C82.2834 5.666 82.4421 6.352 82.4421 7.136C82.4421 7.91067 82.2834 8.60133 81.9661 9.208C81.6487 9.81467 81.2101 10.286 80.6501 10.622C80.0994 10.958 79.4834 11.126 78.8021 11.126C78.1487 11.126 77.5701 10.9813 77.0661 10.692C76.5714 10.3933 76.1934 10.0247 75.9321 9.586V14.64H74.6581V3.328H75.9321V4.742ZM81.1401 7.136C81.1401 6.55733 81.0234 6.05333 80.7901 5.624C80.5567 5.19467 80.2394 4.868 79.8381 4.644C79.4461 4.42 79.0121 4.308 78.5361 4.308C78.0694 4.308 77.6354 4.42467 77.2341 4.658C76.8421 4.882 76.5247 5.21333 76.2821 5.652C76.0487 6.08133 75.9321 6.58067 75.9321 7.15C75.9321 7.72867 76.0487 8.23733 76.2821 8.676C76.5247 9.10533 76.8421 9.43667 77.2341 9.67C77.6354 9.894 78.0694 10.006 78.5361 10.006C79.0121 10.006 79.4461 9.894 79.8381 9.67C80.2394 9.43667 80.5567 9.10533 80.7901 8.676C81.0234 8.23733 81.1401 7.724 81.1401 7.136ZM91.119 6.87C91.119 7.11267 91.105 7.36933 91.077 7.64H84.945C84.9917 8.396 85.2483 8.98867 85.715 9.418C86.191 9.838 86.765 10.048 87.437 10.048C87.9877 10.048 88.445 9.922 88.809 9.67C89.1823 9.40867 89.4437 9.06333 89.593 8.634H90.965C90.7597 9.37133 90.349 9.97333 89.733 10.44C89.117 10.8973 88.3517 11.126 87.437 11.126C86.709 11.126 86.0557 10.9627 85.477 10.636C84.9077 10.3093 84.4597 9.84733 84.133 9.25C83.8063 8.64333 83.643 7.94333 83.643 7.15C83.643 6.35667 83.8017 5.66133 84.119 5.064C84.4363 4.46667 84.8797 4.00933 85.449 3.692C86.0277 3.36533 86.6903 3.202 87.437 3.202C88.165 3.202 88.809 3.36067 89.369 3.678C89.929 3.99533 90.3583 4.434 90.657 4.994C90.965 5.54467 91.119 6.17 91.119 6.87ZM89.803 6.604C89.803 6.11867 89.6957 5.70333 89.481 5.358C89.2663 5.00333 88.9723 4.73733 88.599 4.56C88.235 4.37333 87.829 4.28 87.381 4.28C86.737 4.28 86.1863 4.48533 85.729 4.896C85.281 5.30667 85.0243 5.876 84.959 6.604H89.803ZM99.8007 6.87C99.8007 7.11267 99.7867 7.36933 99.7587 7.64H93.6267C93.6733 8.396 93.93 8.98867 94.3967 9.418C94.8727 9.838 95.4467 10.048 96.1187 10.048C96.6693 10.048 97.1267 9.922 97.4907 9.67C97.864 9.40867 98.1253 9.06333 98.2747 8.634H99.6467C99.4413 9.37133 99.0307 9.97333 98.4147 10.44C97.7987 10.8973 97.0333 11.126 96.1187 11.126C95.3907 11.126 94.7373 10.9627 94.1587 10.636C93.5893 10.3093 93.1413 9.84733 92.8147 9.25C92.488 8.64333 92.3247 7.94333 92.3247 7.15C92.3247 6.35667 92.4833 5.66133 92.8007 5.064C93.118 4.46667 93.5613 4.00933 94.1307 3.692C94.7093 3.36533 95.372 3.202 96.1187 3.202C96.8467 3.202 97.4907 3.36067 98.0507 3.678C98.6107 3.99533 99.04 4.434 99.3387 4.994C99.6467 5.54467 99.8007 6.17 99.8007 6.87ZM98.4847 6.604C98.4847 6.11867 98.3773 5.70333 98.1627 5.358C97.948 5.00333 97.654 4.73733 97.2807 4.56C96.9167 4.37333 96.5107 4.28 96.0627 4.28C95.4187 4.28 94.868 4.48533 94.4107 4.896C93.9627 5.30667 93.706 5.876 93.6407 6.604H98.4847ZM101.006 7.136C101.006 6.352 101.165 5.666 101.482 5.078C101.8 4.48067 102.234 4.01867 102.784 3.692C103.344 3.36533 103.97 3.202 104.66 3.202C105.258 3.202 105.813 3.342 106.326 3.622C106.84 3.89267 107.232 4.252 107.502 4.7V0.64H108.79V11H107.502V9.558C107.25 10.0153 106.877 10.3933 106.382 10.692C105.888 10.9813 105.309 11.126 104.646 11.126C103.965 11.126 103.344 10.958 102.784 10.622C102.234 10.286 101.8 9.81467 101.482 9.208C101.165 8.60133 101.006 7.91067 101.006 7.136ZM107.502 7.15C107.502 6.57133 107.386 6.06733 107.152 5.638C106.919 5.20867 106.602 4.882 106.2 4.658C105.808 4.42467 105.374 4.308 104.898 4.308C104.422 4.308 103.988 4.42 103.596 4.644C103.204 4.868 102.892 5.19467 102.658 5.624C102.425 6.05333 102.308 6.55733 102.308 7.136C102.308 7.724 102.425 8.23733 102.658 8.676C102.892 9.10533 103.204 9.43667 103.596 9.67C103.988 9.894 104.422 10.006 104.898 10.006C105.374 10.006 105.808 9.894 106.2 9.67C106.602 9.43667 106.919 9.10533 107.152 8.676C107.386 8.23733 107.502 7.72867 107.502 7.15Z" fill="#594E90"/>
</svg>
