<svg width="1088" height="142" viewBox="0 0 1088 142" fill="none" xmlns="http://www.w3.org/2000/svg">
<rect width="1088" height="142" rx="12" fill="white"/>
<rect x="24" y="91" width="1031" height="2" rx="1" fill="#F5F5F5"/>
<rect x="24" y="91" width="71.1034" height="2" rx="1" fill="#59EB8B"/>
<rect x="133.887" y="91" width="6.46395" height="2" rx="1" fill="#59EB8B"/>
<rect x="153.279" y="91" width="64.6395" height="2" rx="1" fill="#59EB8B"/>
<rect x="230.847" y="91" width="113.119" height="2" rx="1" fill="#59EB8B"/>
<rect x="461.933" y="91" width="61.4075" height="2" rx="1" fill="#59EB8B"/>
<rect x="589.596" y="91" width="11.3119" height="2" rx="1" fill="#59EB8B"/>
<rect x="623.531" y="91" width="4.84796" height="2" rx="1" fill="#59EB8B"/>
<rect x="681.707" y="91" width="43.6317" height="2" rx="1" fill="#59EB8B"/>
<rect x="815.834" y="91" width="96.9592" height="2" rx="1" fill="#59EB8B"/>
<rect x="946.729" y="91" width="45.2477" height="2" rx="1" fill="#59EB8B"/>
<rect x="1040.46" y="91" width="14.5439" height="2" rx="1" fill="#59EB8B"/>
<rect x="24" y="64" width="1031" height="3" rx="1.5" fill="#F5F5F5"/>
<rect x="24" y="64" width="157" height="3" rx="1.5" fill="#D67339"/>
<rect x="177" y="62" width="7" height="7" rx="3.5" fill="#D67339"/>
<rect x="24" y="112" width="1031" height="2" rx="1" fill="#F5F5F5"/>
<rect width="38.7837" height="2" rx="1" transform="matrix(-1 0 0 1 133.887 112)" fill="#9DD3FF"/>
<rect width="12.9279" height="2" rx="1" transform="matrix(-1 0 0 1 153.279 112)" fill="#9DD3FF"/>
<rect width="12.9279" height="2" rx="1" transform="matrix(-1 0 0 1 230.847 112)" fill="#9DD3FF"/>
<rect width="117.967" height="2" rx="1" transform="matrix(-1 0 0 1 461.933 112)" fill="#9DD3FF"/>
<rect width="66.2555" height="2" rx="1" transform="matrix(-1 0 0 1 589.596 112)" fill="#9DD3FF"/>
<rect width="22.6238" height="2" rx="1" transform="matrix(-1 0 0 1 623.531 112)" fill="#9DD3FF"/>
<rect width="53.3276" height="2" rx="1" transform="matrix(-1 0 0 1 681.707 112)" fill="#9DD3FF"/>
<rect width="90.4953" height="2" rx="1" transform="matrix(-1 0 0 1 815.834 112)" fill="#9DD3FF"/>
<rect width="33.9357" height="2" rx="1" transform="matrix(-1 0 0 1 946.729 112)" fill="#9DD3FF"/>
<rect width="48.4796" height="2" rx="1" transform="matrix(-1 0 0 1 1040.46 112)" fill="#9DD3FF"/>
<path d="M28.28 80.03V85.18C28.28 85.7533 28.1033 86.2133 27.75 86.56C27.3967 86.9 26.93 87.07 26.35 87.07C25.7633 87.07 25.2933 86.8967 24.94 86.55C24.5867 86.1967 24.41 85.7167 24.41 85.11H25.32C25.3267 85.45 25.4133 85.7267 25.58 85.94C25.7533 86.1533 26.01 86.26 26.35 86.26C26.69 86.26 26.9433 86.16 27.11 85.96C27.2767 85.7533 27.36 85.4933 27.36 85.18V80.03H28.28ZM29.8327 84.24C29.8327 83.68 29.9461 83.19 30.1727 82.77C30.3994 82.3433 30.7094 82.0133 31.1027 81.78C31.5027 81.5467 31.9461 81.43 32.4327 81.43C32.9127 81.43 33.3294 81.5333 33.6827 81.74C34.0361 81.9467 34.2994 82.2067 34.4727 82.52V81.52H35.3927V87H34.4727V85.98C34.2927 86.3 34.0227 86.5667 33.6627 86.78C33.3094 86.9867 32.8961 87.09 32.4227 87.09C31.9361 87.09 31.4961 86.97 31.1027 86.73C30.7094 86.49 30.3994 86.1533 30.1727 85.72C29.9461 85.2867 29.8327 84.7933 29.8327 84.24ZM34.4727 84.25C34.4727 83.8367 34.3894 83.4767 34.2227 83.17C34.0561 82.8633 33.8294 82.63 33.5427 82.47C33.2627 82.3033 32.9527 82.22 32.6127 82.22C32.2727 82.22 31.9627 82.3 31.6827 82.46C31.4027 82.62 31.1794 82.8533 31.0127 83.16C30.8461 83.4667 30.7627 83.8267 30.7627 84.24C30.7627 84.66 30.8461 85.0267 31.0127 85.34C31.1794 85.6467 31.4027 85.8833 31.6827 86.05C31.9627 86.21 32.2727 86.29 32.6127 86.29C32.9527 86.29 33.2627 86.21 33.5427 86.05C33.8294 85.8833 34.0561 85.6467 34.2227 85.34C34.3894 85.0267 34.4727 84.6633 34.4727 84.25ZM39.7005 81.42C40.3672 81.42 40.9072 81.6233 41.3205 82.03C41.7339 82.43 41.9405 83.01 41.9405 83.77V87H41.0405V83.9C41.0405 83.3533 40.9039 82.9367 40.6305 82.65C40.3572 82.3567 39.9839 82.21 39.5105 82.21C39.0305 82.21 38.6472 82.36 38.3605 82.66C38.0805 82.96 37.9405 83.3967 37.9405 83.97V87H37.0305V81.52H37.9405V82.3C38.1205 82.02 38.3639 81.8033 38.6705 81.65C38.9839 81.4967 39.3272 81.42 39.7005 81.42ZM48.527 84.05C48.527 84.2233 48.517 84.4067 48.497 84.6H44.117C44.1504 85.14 44.3337 85.5633 44.667 85.87C45.007 86.17 45.417 86.32 45.897 86.32C46.2904 86.32 46.617 86.23 46.877 86.05C47.1437 85.8633 47.3304 85.6167 47.437 85.31H48.417C48.2704 85.8367 47.977 86.2667 47.537 86.6C47.097 86.9267 46.5504 87.09 45.897 87.09C45.377 87.09 44.9104 86.9733 44.497 86.74C44.0904 86.5067 43.7704 86.1767 43.537 85.75C43.3037 85.3167 43.187 84.8167 43.187 84.25C43.187 83.6833 43.3004 83.1867 43.527 82.76C43.7537 82.3333 44.0704 82.0067 44.477 81.78C44.8904 81.5467 45.3637 81.43 45.897 81.43C46.417 81.43 46.877 81.5433 47.277 81.77C47.677 81.9967 47.9837 82.31 48.197 82.71C48.417 83.1033 48.527 83.55 48.527 84.05ZM47.587 83.86C47.587 83.5133 47.5104 83.2167 47.357 82.97C47.2037 82.7167 46.9937 82.5267 46.727 82.4C46.467 82.2667 46.177 82.2 45.857 82.2C45.397 82.2 45.0037 82.3467 44.677 82.64C44.357 82.9333 44.1737 83.34 44.127 83.86H47.587ZM54.7642 80.03C55.5242 80.03 56.1809 80.1733 56.7342 80.46C57.2942 80.74 57.7209 81.1433 58.0142 81.67C58.3142 82.1967 58.4642 82.8167 58.4642 83.53C58.4642 84.2433 58.3142 84.8633 58.0142 85.39C57.7209 85.91 57.2942 86.31 56.7342 86.59C56.1809 86.8633 55.5242 87 54.7642 87H52.5942V80.03H54.7642ZM54.7642 86.25C55.6642 86.25 56.3509 86.0133 56.8242 85.54C57.2976 85.06 57.5342 84.39 57.5342 83.53C57.5342 82.6633 57.2942 81.9867 56.8142 81.5C56.3409 81.0133 55.6576 80.77 54.7642 80.77H53.5042V86.25H54.7642ZM62.1545 87.09C61.6412 87.09 61.1745 86.9733 60.7545 86.74C60.3412 86.5067 60.0145 86.1767 59.7745 85.75C59.5412 85.3167 59.4245 84.8167 59.4245 84.25C59.4245 83.69 59.5445 83.1967 59.7845 82.77C60.0312 82.3367 60.3645 82.0067 60.7845 81.78C61.2045 81.5467 61.6745 81.43 62.1945 81.43C62.7145 81.43 63.1845 81.5467 63.6045 81.78C64.0245 82.0067 64.3545 82.3333 64.5945 82.76C64.8412 83.1867 64.9645 83.6833 64.9645 84.25C64.9645 84.8167 64.8379 85.3167 64.5845 85.75C64.3379 86.1767 64.0012 86.5067 63.5745 86.74C63.1479 86.9733 62.6745 87.09 62.1545 87.09ZM62.1545 86.29C62.4812 86.29 62.7879 86.2133 63.0745 86.06C63.3612 85.9067 63.5912 85.6767 63.7645 85.37C63.9445 85.0633 64.0345 84.69 64.0345 84.25C64.0345 83.81 63.9479 83.4367 63.7745 83.13C63.6012 82.8233 63.3745 82.5967 63.0945 82.45C62.8145 82.2967 62.5112 82.22 62.1845 82.22C61.8512 82.22 61.5445 82.2967 61.2645 82.45C60.9912 82.5967 60.7712 82.8233 60.6045 83.13C60.4379 83.4367 60.3545 83.81 60.3545 84.25C60.3545 84.6967 60.4345 85.0733 60.5945 85.38C60.7612 85.6867 60.9812 85.9167 61.2545 86.07C61.5279 86.2167 61.8279 86.29 62.1545 86.29ZM71.261 84.05C71.261 84.2233 71.251 84.4067 71.231 84.6H66.851C66.8843 85.14 67.0677 85.5633 67.401 85.87C67.741 86.17 68.151 86.32 68.631 86.32C69.0243 86.32 69.351 86.23 69.611 86.05C69.8777 85.8633 70.0643 85.6167 70.171 85.31H71.151C71.0044 85.8367 70.711 86.2667 70.271 86.6C69.831 86.9267 69.2843 87.09 68.631 87.09C68.111 87.09 67.6443 86.9733 67.231 86.74C66.8243 86.5067 66.5043 86.1767 66.271 85.75C66.0377 85.3167 65.921 84.8167 65.921 84.25C65.921 83.6833 66.0343 83.1867 66.261 82.76C66.4877 82.3333 66.8043 82.0067 67.211 81.78C67.6243 81.5467 68.0977 81.43 68.631 81.43C69.151 81.43 69.611 81.5433 70.011 81.77C70.411 81.9967 70.7177 82.31 70.931 82.71C71.151 83.1033 71.261 83.55 71.261 84.05ZM70.321 83.86C70.321 83.5133 70.2443 83.2167 70.091 82.97C69.9377 82.7167 69.7277 82.5267 69.461 82.4C69.201 82.2667 68.911 82.2 68.591 82.2C68.131 82.2 67.7377 82.3467 67.411 82.64C67.091 82.9333 66.9077 83.34 66.861 83.86H70.321Z" fill="#90A0B7"/>
<path d="M992.62 76.31C992.62 75.1633 992.807 74.27 993.18 73.63C993.553 72.9833 994.207 72.66 995.14 72.66C996.067 72.66 996.717 72.9833 997.09 73.63C997.463 74.27 997.65 75.1633 997.65 76.31C997.65 77.4767 997.463 78.3833 997.09 79.03C996.717 79.6767 996.067 80 995.14 80C994.207 80 993.553 79.6767 993.18 79.03C992.807 78.3833 992.62 77.4767 992.62 76.31ZM996.75 76.31C996.75 75.73 996.71 75.24 996.63 74.84C996.557 74.4333 996.4 74.1067 996.16 73.86C995.927 73.6133 995.587 73.49 995.14 73.49C994.687 73.49 994.34 73.6133 994.1 73.86C993.867 74.1067 993.71 74.4333 993.63 74.84C993.557 75.24 993.52 75.73 993.52 76.31C993.52 76.91 993.557 77.4133 993.63 77.82C993.71 78.2267 993.867 78.5533 994.1 78.8C994.34 79.0467 994.687 79.17 995.14 79.17C995.587 79.17 995.927 79.0467 996.16 78.8C996.4 78.5533 996.557 78.2267 996.63 77.82C996.71 77.4133 996.75 76.91 996.75 76.31ZM998.999 76.31C998.999 75.1633 999.186 74.27 999.559 73.63C999.933 72.9833 1000.59 72.66 1001.52 72.66C1002.45 72.66 1003.1 72.9833 1003.47 73.63C1003.84 74.27 1004.03 75.1633 1004.03 76.31C1004.03 77.4767 1003.84 78.3833 1003.47 79.03C1003.1 79.6767 1002.45 80 1001.52 80C1000.59 80 999.933 79.6767 999.559 79.03C999.186 78.3833 998.999 77.4767 998.999 76.31ZM1003.13 76.31C1003.13 75.73 1003.09 75.24 1003.01 74.84C1002.94 74.4333 1002.78 74.1067 1002.54 73.86C1002.31 73.6133 1001.97 73.49 1001.52 73.49C1001.07 73.49 1000.72 73.6133 1000.48 73.86C1000.25 74.1067 1000.09 74.4333 1000.01 74.84C999.936 75.24 999.899 75.73 999.899 76.31C999.899 76.91 999.936 77.4133 1000.01 77.82C1000.09 78.2267 1000.25 78.5533 1000.48 78.8C1000.72 79.0467 1001.07 79.17 1001.52 79.17C1001.97 79.17 1002.31 79.0467 1002.54 78.8C1002.78 78.5533 1002.94 78.2267 1003.01 77.82C1003.09 77.4133 1003.13 76.91 1003.13 76.31ZM1005.82 80.06C1005.65 80.06 1005.5 80 1005.38 79.88C1005.26 79.76 1005.2 79.6133 1005.2 79.44C1005.2 79.2667 1005.26 79.12 1005.38 79C1005.5 78.88 1005.65 78.82 1005.82 78.82C1005.99 78.82 1006.13 78.88 1006.24 79C1006.36 79.12 1006.42 79.2667 1006.42 79.44C1006.42 79.6133 1006.36 79.76 1006.24 79.88C1006.13 80 1005.99 80.06 1005.82 80.06ZM1005.82 75.78C1005.65 75.78 1005.5 75.72 1005.38 75.6C1005.26 75.48 1005.2 75.3333 1005.2 75.16C1005.2 74.9867 1005.26 74.84 1005.38 74.72C1005.5 74.6 1005.65 74.54 1005.82 74.54C1005.99 74.54 1006.13 74.6 1006.24 74.72C1006.36 74.84 1006.42 74.9867 1006.42 75.16C1006.42 75.3333 1006.36 75.48 1006.24 75.6C1006.13 75.72 1005.99 75.78 1005.82 75.78ZM1007.59 74.59C1007.63 73.9767 1007.87 73.4967 1008.3 73.15C1008.72 72.8033 1009.28 72.63 1009.96 72.63C1010.41 72.63 1010.8 72.7133 1011.13 72.88C1011.46 73.04 1011.71 73.26 1011.88 73.54C1012.05 73.82 1012.14 74.1367 1012.14 74.49C1012.14 74.9033 1012.02 75.26 1011.78 75.56C1011.54 75.86 1011.24 76.0533 1010.86 76.14V76.19C1011.29 76.2967 1011.63 76.5067 1011.89 76.82C1012.14 77.1333 1012.27 77.5433 1012.27 78.05C1012.27 78.43 1012.18 78.7733 1012.01 79.08C1011.83 79.38 1011.57 79.6167 1011.23 79.79C1010.88 79.9633 1010.46 80.05 1009.98 80.05C1009.27 80.05 1008.69 79.8667 1008.24 79.5C1007.78 79.1267 1007.53 78.6 1007.48 77.92H1008.36C1008.4 78.32 1008.57 78.6467 1008.85 78.9C1009.13 79.1533 1009.5 79.28 1009.97 79.28C1010.43 79.28 1010.79 79.16 1011.03 78.92C1011.27 78.6733 1011.4 78.3567 1011.4 77.97C1011.4 77.47 1011.23 77.11 1010.9 76.89C1010.56 76.67 1010.06 76.56 1009.39 76.56H1009.16V75.8H1009.4C1010.01 75.7933 1010.47 75.6933 1010.79 75.5C1011.1 75.3 1011.26 74.9933 1011.26 74.58C1011.26 74.2267 1011.14 73.9433 1010.91 73.73C1010.68 73.5167 1010.35 73.41 1009.93 73.41C1009.51 73.41 1009.18 73.5167 1008.93 73.73C1008.67 73.9433 1008.52 74.23 1008.48 74.59H1007.59ZM1017.63 74.49C1017.48 73.75 1017.02 73.38 1016.26 73.38C1015.66 73.38 1015.22 73.61 1014.93 74.07C1014.63 74.5233 1014.49 75.2733 1014.5 76.32C1014.65 75.9733 1014.9 75.7033 1015.26 75.51C1015.62 75.31 1016.02 75.21 1016.46 75.21C1017.14 75.21 1017.69 75.4233 1018.1 75.85C1018.51 76.2767 1018.72 76.8667 1018.72 77.62C1018.72 78.0733 1018.63 78.48 1018.45 78.84C1018.27 79.2 1018.01 79.4867 1017.65 79.7C1017.29 79.9133 1016.86 80.02 1016.36 80.02C1015.67 80.02 1015.13 79.8667 1014.75 79.56C1014.36 79.2533 1014.09 78.83 1013.94 78.29C1013.78 77.75 1013.71 77.0833 1013.71 76.29C1013.71 73.8433 1014.56 72.62 1016.27 72.62C1016.92 72.62 1017.43 72.7967 1017.81 73.15C1018.18 73.5033 1018.4 73.95 1018.47 74.49H1017.63ZM1016.27 75.98C1015.98 75.98 1015.71 76.04 1015.46 76.16C1015.2 76.2733 1015 76.45 1014.84 76.69C1014.68 76.9233 1014.61 77.21 1014.61 77.55C1014.61 78.0567 1014.75 78.47 1015.05 78.79C1015.34 79.1033 1015.76 79.26 1016.31 79.26C1016.77 79.26 1017.14 79.1167 1017.42 78.83C1017.7 78.5367 1017.84 78.1433 1017.84 77.65C1017.84 77.13 1017.7 76.7233 1017.44 76.43C1017.17 76.13 1016.78 75.98 1016.27 75.98ZM1026.36 70.58L1023.62 81.7H1022.72L1025.45 70.58H1026.36ZM1030.43 76.31C1030.43 75.1633 1030.62 74.27 1030.99 73.63C1031.37 72.9833 1032.02 72.66 1032.95 72.66C1033.88 72.66 1034.53 72.9833 1034.9 73.63C1035.28 74.27 1035.46 75.1633 1035.46 76.31C1035.46 77.4767 1035.28 78.3833 1034.9 79.03C1034.53 79.6767 1033.88 80 1032.95 80C1032.02 80 1031.37 79.6767 1030.99 79.03C1030.62 78.3833 1030.43 77.4767 1030.43 76.31ZM1034.56 76.31C1034.56 75.73 1034.52 75.24 1034.44 74.84C1034.37 74.4333 1034.21 74.1067 1033.97 73.86C1033.74 73.6133 1033.4 73.49 1032.95 73.49C1032.5 73.49 1032.15 73.6133 1031.91 73.86C1031.68 74.1067 1031.52 74.4333 1031.44 74.84C1031.37 75.24 1031.33 75.73 1031.33 76.31C1031.33 76.91 1031.37 77.4133 1031.44 77.82C1031.52 78.2267 1031.68 78.5533 1031.91 78.8C1032.15 79.0467 1032.5 79.17 1032.95 79.17C1033.4 79.17 1033.74 79.0467 1033.97 78.8C1034.21 78.5533 1034.37 78.2267 1034.44 77.82C1034.52 77.4133 1034.56 76.91 1034.56 76.31ZM1036.59 78.39V77.7L1040.1 72.84H1041.19V77.6H1042.19V78.39H1041.19V80H1040.29V78.39H1036.59ZM1040.33 73.79L1037.64 77.6H1040.33V73.79ZM1043.64 80.06C1043.47 80.06 1043.32 80 1043.2 79.88C1043.08 79.76 1043.02 79.6133 1043.02 79.44C1043.02 79.2667 1043.08 79.12 1043.2 79C1043.32 78.88 1043.47 78.82 1043.64 78.82C1043.81 78.82 1043.95 78.88 1044.06 79C1044.18 79.12 1044.24 79.2667 1044.24 79.44C1044.24 79.6133 1044.18 79.76 1044.06 79.88C1043.95 80 1043.81 80.06 1043.64 80.06ZM1043.64 75.78C1043.47 75.78 1043.32 75.72 1043.2 75.6C1043.08 75.48 1043.02 75.3333 1043.02 75.16C1043.02 74.9867 1043.08 74.84 1043.2 74.72C1043.32 74.6 1043.47 74.54 1043.64 74.54C1043.81 74.54 1043.95 74.6 1044.06 74.72C1044.18 74.84 1044.24 74.9867 1044.24 75.16C1044.24 75.3333 1044.18 75.48 1044.06 75.6C1043.95 75.72 1043.81 75.78 1043.64 75.78ZM1045.19 73.6V72.77H1047.07V80H1046.15V73.6H1045.19ZM1048.62 79.27C1049.47 78.59 1050.13 78.0333 1050.61 77.6C1051.09 77.16 1051.5 76.7033 1051.82 76.23C1052.16 75.75 1052.32 75.28 1052.32 74.82C1052.32 74.3867 1052.22 74.0467 1052 73.8C1051.8 73.5467 1051.46 73.42 1050.99 73.42C1050.54 73.42 1050.19 73.5633 1049.93 73.85C1049.69 74.13 1049.55 74.5067 1049.53 74.98H1048.65C1048.68 74.2333 1048.91 73.6567 1049.33 73.25C1049.76 72.8433 1050.31 72.64 1050.98 72.64C1051.67 72.64 1052.21 72.83 1052.61 73.21C1053.02 73.59 1053.22 74.1133 1053.22 74.78C1053.22 75.3333 1053.06 75.8733 1052.72 76.4C1052.4 76.92 1052.02 77.38 1051.6 77.78C1051.18 78.1733 1050.65 78.6333 1049.99 79.16H1053.43V79.92H1048.62V79.27Z" fill="#90A0B7"/>
<path d="M30.25 108H29.34L25.68 102.45V108H24.77V101.02H25.68L29.34 106.56V101.02H30.25V108ZM31.5612 105.24C31.5612 104.68 31.6746 104.19 31.9012 103.77C32.1279 103.343 32.4379 103.013 32.8312 102.78C33.2312 102.547 33.6746 102.43 34.1612 102.43C34.6413 102.43 35.0579 102.533 35.4113 102.74C35.7646 102.947 36.0279 103.207 36.2013 103.52V102.52H37.1213V108H36.2013V106.98C36.0213 107.3 35.7513 107.567 35.3913 107.78C35.0379 107.987 34.6246 108.09 34.1513 108.09C33.6646 108.09 33.2246 107.97 32.8312 107.73C32.4379 107.49 32.1279 107.153 31.9012 106.72C31.6746 106.287 31.5612 105.793 31.5612 105.24ZM36.2013 105.25C36.2013 104.837 36.1179 104.477 35.9513 104.17C35.7846 103.863 35.5579 103.63 35.2713 103.47C34.9913 103.303 34.6812 103.22 34.3413 103.22C34.0013 103.22 33.6913 103.3 33.4113 103.46C33.1312 103.62 32.9079 103.853 32.7413 104.16C32.5746 104.467 32.4912 104.827 32.4912 105.24C32.4912 105.66 32.5746 106.027 32.7413 106.34C32.9079 106.647 33.1312 106.883 33.4113 107.05C33.6913 107.21 34.0013 107.29 34.3413 107.29C34.6812 107.29 34.9913 107.21 35.2713 107.05C35.5579 106.883 35.7846 106.647 35.9513 106.34C36.1179 106.027 36.2013 105.663 36.2013 105.25ZM45.3491 102.42C45.7757 102.42 46.1557 102.51 46.4891 102.69C46.8224 102.863 47.0857 103.127 47.2791 103.48C47.4724 103.833 47.5691 104.263 47.5691 104.77V108H46.6691V104.9C46.6691 104.353 46.5324 103.937 46.2591 103.65C45.9924 103.357 45.6291 103.21 45.1691 103.21C44.6957 103.21 44.3191 103.363 44.0391 103.67C43.7591 103.97 43.6191 104.407 43.6191 104.98V108H42.7191V104.9C42.7191 104.353 42.5824 103.937 42.3091 103.65C42.0424 103.357 41.6791 103.21 41.2191 103.21C40.7457 103.21 40.3691 103.363 40.0891 103.67C39.8091 103.97 39.6691 104.407 39.6691 104.98V108H38.7591V102.52H39.6691V103.31C39.8491 103.023 40.0891 102.803 40.3891 102.65C40.6957 102.497 41.0324 102.42 41.3991 102.42C41.8591 102.42 42.2657 102.523 42.6191 102.73C42.9724 102.937 43.2357 103.24 43.4091 103.64C43.5624 103.253 43.8157 102.953 44.1691 102.74C44.5224 102.527 44.9157 102.42 45.3491 102.42ZM54.1618 105.05C54.1618 105.223 54.1518 105.407 54.1318 105.6H49.7518C49.7851 106.14 49.9685 106.563 50.3018 106.87C50.6418 107.17 51.0518 107.32 51.5318 107.32C51.9251 107.32 52.2518 107.23 52.5118 107.05C52.7785 106.863 52.9651 106.617 53.0718 106.31H54.0518C53.9051 106.837 53.6118 107.267 53.1718 107.6C52.7318 107.927 52.1851 108.09 51.5318 108.09C51.0118 108.09 50.5451 107.973 50.1318 107.74C49.7251 107.507 49.4051 107.177 49.1718 106.75C48.9385 106.317 48.8218 105.817 48.8218 105.25C48.8218 104.683 48.9351 104.187 49.1618 103.76C49.3885 103.333 49.7051 103.007 50.1118 102.78C50.5251 102.547 50.9985 102.43 51.5318 102.43C52.0518 102.43 52.5118 102.543 52.9118 102.77C53.3118 102.997 53.6185 103.31 53.8318 103.71C54.0518 104.103 54.1618 104.55 54.1618 105.05ZM53.2218 104.86C53.2218 104.513 53.1451 104.217 52.9918 103.97C52.8385 103.717 52.6285 103.527 52.3618 103.4C52.1018 103.267 51.8118 103.2 51.4918 103.2C51.0318 103.2 50.6385 103.347 50.3118 103.64C49.9918 103.933 49.8085 104.34 49.7618 104.86H53.2218ZM60.439 108.07C59.979 108.07 59.5657 107.99 59.199 107.83C58.839 107.663 58.5557 107.437 58.349 107.15C58.1423 106.857 58.0357 106.52 58.029 106.14H58.999C59.0323 106.467 59.1657 106.743 59.399 106.97C59.639 107.19 59.9857 107.3 60.439 107.3C60.8723 107.3 61.2123 107.193 61.459 106.98C61.7123 106.76 61.839 106.48 61.839 106.14C61.839 105.873 61.7657 105.657 61.619 105.49C61.4723 105.323 61.289 105.197 61.069 105.11C60.849 105.023 60.5523 104.93 60.179 104.83C59.719 104.71 59.349 104.59 59.069 104.47C58.7957 104.35 58.559 104.163 58.359 103.91C58.1657 103.65 58.069 103.303 58.069 102.87C58.069 102.49 58.1657 102.153 58.359 101.86C58.5523 101.567 58.8223 101.34 59.169 101.18C59.5223 101.02 59.9257 100.94 60.379 100.94C61.0323 100.94 61.5657 101.103 61.979 101.43C62.399 101.757 62.6357 102.19 62.689 102.73H61.689C61.6557 102.463 61.5157 102.23 61.269 102.03C61.0223 101.823 60.6957 101.72 60.289 101.72C59.909 101.72 59.599 101.82 59.359 102.02C59.119 102.213 58.999 102.487 58.999 102.84C58.999 103.093 59.069 103.3 59.209 103.46C59.3557 103.62 59.5323 103.743 59.739 103.83C59.9523 103.91 60.249 104.003 60.629 104.11C61.089 104.237 61.459 104.363 61.739 104.49C62.019 104.61 62.259 104.8 62.459 105.06C62.659 105.313 62.759 105.66 62.759 106.1C62.759 106.44 62.669 106.76 62.489 107.06C62.309 107.36 62.0423 107.603 61.689 107.79C61.3357 107.977 60.919 108.07 60.439 108.07ZM69.0581 102.52V108H68.1481V107.19C67.9748 107.47 67.7315 107.69 67.4181 107.85C67.1115 108.003 66.7715 108.08 66.3981 108.08C65.9715 108.08 65.5881 107.993 65.2481 107.82C64.9081 107.64 64.6381 107.373 64.4381 107.02C64.2448 106.667 64.1481 106.237 64.1481 105.73V102.52H65.0481V105.61C65.0481 106.15 65.1848 106.567 65.4581 106.86C65.7315 107.147 66.1048 107.29 66.5781 107.29C67.0648 107.29 67.4481 107.14 67.7281 106.84C68.0081 106.54 68.1481 106.103 68.1481 105.53V102.52H69.0581ZM71.6046 103.41C71.7646 103.097 71.9913 102.853 72.2846 102.68C72.5846 102.507 72.9479 102.42 73.3746 102.42V103.36H73.1346C72.1146 103.36 71.6046 103.913 71.6046 105.02V108H70.6946V102.52H71.6046V103.41ZM77.1951 102.42C77.8617 102.42 78.4017 102.623 78.8151 103.03C79.2284 103.43 79.4351 104.01 79.4351 104.77V108H78.5351V104.9C78.5351 104.353 78.3984 103.937 78.1251 103.65C77.8517 103.357 77.4784 103.21 77.0051 103.21C76.5251 103.21 76.1417 103.36 75.8551 103.66C75.5751 103.96 75.4351 104.397 75.4351 104.97V108H74.5251V102.52H75.4351V103.3C75.6151 103.02 75.8584 102.803 76.1651 102.65C76.4784 102.497 76.8217 102.42 77.1951 102.42ZM80.6816 105.24C80.6816 104.68 80.7949 104.19 81.0216 103.77C81.2482 103.343 81.5582 103.013 81.9516 102.78C82.3516 102.547 82.7949 102.43 83.2816 102.43C83.7616 102.43 84.1782 102.533 84.5316 102.74C84.8849 102.947 85.1482 103.207 85.3216 103.52V102.52H86.2416V108H85.3216V106.98C85.1416 107.3 84.8716 107.567 84.5116 107.78C84.1582 107.987 83.7449 108.09 83.2716 108.09C82.7849 108.09 82.3449 107.97 81.9516 107.73C81.5582 107.49 81.2482 107.153 81.0216 106.72C80.7949 106.287 80.6816 105.793 80.6816 105.24ZM85.3216 105.25C85.3216 104.837 85.2382 104.477 85.0716 104.17C84.9049 103.863 84.6782 103.63 84.3916 103.47C84.1116 103.303 83.8016 103.22 83.4616 103.22C83.1216 103.22 82.8116 103.3 82.5316 103.46C82.2516 103.62 82.0282 103.853 81.8616 104.16C81.6949 104.467 81.6116 104.827 81.6116 105.24C81.6116 105.66 81.6949 106.027 81.8616 106.34C82.0282 106.647 82.2516 106.883 82.5316 107.05C82.8116 107.21 83.1216 107.29 83.4616 107.29C83.8016 107.29 84.1116 107.21 84.3916 107.05C84.6782 106.883 84.9049 106.647 85.0716 106.34C85.2382 106.027 85.3216 105.663 85.3216 105.25ZM94.4694 102.42C94.896 102.42 95.276 102.51 95.6094 102.69C95.9427 102.863 96.206 103.127 96.3994 103.48C96.5927 103.833 96.6894 104.263 96.6894 104.77V108H95.7894V104.9C95.7894 104.353 95.6527 103.937 95.3794 103.65C95.1127 103.357 94.7494 103.21 94.2894 103.21C93.816 103.21 93.4394 103.363 93.1594 103.67C92.8794 103.97 92.7394 104.407 92.7394 104.98V108H91.8394V104.9C91.8394 104.353 91.7027 103.937 91.4294 103.65C91.1627 103.357 90.7994 103.21 90.3394 103.21C89.866 103.21 89.4894 103.363 89.2094 103.67C88.9294 103.97 88.7894 104.407 88.7894 104.98V108H87.8794V102.52H88.7894V103.31C88.9694 103.023 89.2094 102.803 89.5094 102.65C89.816 102.497 90.1527 102.42 90.5194 102.42C90.9794 102.42 91.386 102.523 91.7394 102.73C92.0927 102.937 92.356 103.24 92.5294 103.64C92.6827 103.253 92.936 102.953 93.2894 102.74C93.6427 102.527 94.036 102.42 94.4694 102.42ZM103.282 105.05C103.282 105.223 103.272 105.407 103.252 105.6H98.8721C98.9054 106.14 99.0888 106.563 99.4221 106.87C99.7621 107.17 100.172 107.32 100.652 107.32C101.045 107.32 101.372 107.23 101.632 107.05C101.899 106.863 102.085 106.617 102.192 106.31H103.172C103.025 106.837 102.732 107.267 102.292 107.6C101.852 107.927 101.305 108.09 100.652 108.09C100.132 108.09 99.6654 107.973 99.2521 107.74C98.8454 107.507 98.5254 107.177 98.2921 106.75C98.0588 106.317 97.9421 105.817 97.9421 105.25C97.9421 104.683 98.0554 104.187 98.2821 103.76C98.5088 103.333 98.8254 103.007 99.2321 102.78C99.6454 102.547 100.119 102.43 100.652 102.43C101.172 102.43 101.632 102.543 102.032 102.77C102.432 102.997 102.739 103.31 102.952 103.71C103.172 104.103 103.282 104.55 103.282 105.05ZM102.342 104.86C102.342 104.513 102.265 104.217 102.112 103.97C101.959 103.717 101.749 103.527 101.482 103.4C101.222 103.267 100.932 103.2 100.612 103.2C100.152 103.2 99.7588 103.347 99.4321 103.64C99.1121 103.933 98.9288 104.34 98.8821 104.86H102.342Z" fill="#90A0B7"/>
<path d="M76 38C76 40.3734 76.7038 42.6935 78.0224 44.6668C79.3409 46.6402 81.2151 48.1783 83.4078 49.0866C85.6005 49.9948 88.0133 50.2324 90.3411 49.7694C92.6689 49.3064 94.8071 48.1635 96.4853 46.4853C98.1635 44.8071 99.3064 42.6689 99.7694 40.3411C100.232 38.0133 99.9948 35.6005 99.0866 33.4078C98.1783 31.2151 96.6402 29.3409 94.6668 28.0224C92.6935 26.7038 90.3734 26 88 26H84V21L78 27L84 33V28H88C89.9778 28 91.9112 28.5865 93.5557 29.6853C95.2002 30.7841 96.4819 32.3459 97.2388 34.1732C97.9957 36.0004 98.1937 38.0111 97.8079 39.9509C97.422 41.8907 96.4696 43.6725 95.0711 45.0711C93.6725 46.4696 91.8907 47.422 89.9509 47.8079C88.0111 48.1937 86.0004 47.9957 84.1732 47.2388C82.3459 46.4819 80.7841 45.2002 79.6853 43.5557C78.5865 41.9112 78 39.9778 78 38H76Z" fill="#949494"/>
<path d="M91.6299 42.13C91.188 42.1408 90.7497 42.0484 90.3499 41.86C89.9948 41.6798 89.6893 41.4155 89.4599 41.09C89.2084 40.7103 89.0319 40.286 88.9399 39.84C88.8217 39.288 88.7647 38.7246 88.7699 38.16C88.7658 37.5955 88.8228 37.0323 88.9399 36.48C89.0337 36.0346 89.2101 35.6106 89.4599 35.23C89.6893 34.9046 89.9948 34.6402 90.3499 34.46C90.7497 34.2716 91.188 34.1792 91.6299 34.19C92.0453 34.1584 92.462 34.2337 92.8401 34.4088C93.2182 34.5838 93.5452 34.8528 93.7899 35.19C94.3055 36.0769 94.5489 37.0958 94.4899 38.12C94.5489 39.1442 94.3055 40.1631 93.7899 41.05C93.5545 41.402 93.2315 41.6866 92.8528 41.876C92.4741 42.0653 92.0526 42.1529 91.6299 42.13ZM91.6299 40.91C91.8315 40.9221 92.0323 40.8768 92.2093 40.7795C92.3863 40.6821 92.5321 40.5367 92.6299 40.36C92.8688 39.8923 92.9955 39.3753 92.9999 38.85V37.47C93.0215 36.9542 92.9222 36.4406 92.7099 35.97C92.5981 35.7988 92.4453 35.6581 92.2655 35.5607C92.0857 35.4633 91.8844 35.4123 91.6799 35.4123C91.4753 35.4123 91.2741 35.4633 91.0942 35.5607C90.9144 35.6581 90.7616 35.7988 90.6499 35.97C90.4375 36.4406 90.3382 36.9542 90.3599 37.47V38.85C90.3392 39.3689 90.4385 39.8856 90.6499 40.36C90.7452 40.5343 90.8877 40.6783 91.061 40.7756C91.2342 40.8728 91.4314 40.9194 91.6299 40.91Z" fill="#949494"/>
<path d="M82.6297 42V40.82H84.6297V35.63L82.7697 36.63L82.2197 35.57L84.5397 34.27H85.9997V40.77H87.7797V42H82.6297Z" fill="#949494"/>
<path d="M146 38C146 39.9778 145.414 41.9112 144.315 43.5557C143.216 45.2002 141.654 46.4819 139.827 47.2388C138 47.9957 135.989 48.1937 134.049 47.8079C132.109 47.422 130.327 46.4696 128.929 45.0711C127.53 43.6725 126.578 41.8907 126.192 39.9509C125.806 38.0111 126.004 36.0004 126.761 34.1732C127.518 32.3459 128.8 30.7841 130.444 29.6853C132.089 28.5865 134.022 28 136 28H140V33L146 27L140 21V26H136C133.627 26 131.307 26.7038 129.333 28.0224C127.36 29.3409 125.822 31.2151 124.913 33.4078C124.005 35.6005 123.768 38.0133 124.231 40.3411C124.694 42.6689 125.836 44.8071 127.515 46.4853C129.193 48.1635 131.331 49.3064 133.659 49.7694C135.987 50.2324 138.399 49.9948 140.592 49.0866C142.785 48.1783 144.659 46.6402 145.978 44.6668C147.296 42.6935 148 40.3734 148 38H146Z" fill="#949494"/>
<path d="M139.63 42.13C139.188 42.1408 138.75 42.0484 138.35 41.86C137.995 41.6798 137.689 41.4155 137.46 41.09C137.208 40.7103 137.032 40.286 136.94 39.84C136.822 39.288 136.765 38.7246 136.77 38.16C136.766 37.5955 136.823 37.0323 136.94 36.48C137.034 36.0346 137.21 35.6106 137.46 35.23C137.689 34.9046 137.995 34.6402 138.35 34.46C138.75 34.2716 139.188 34.1792 139.63 34.19C140.045 34.1584 140.462 34.2337 140.84 34.4088C141.218 34.5838 141.545 34.8528 141.79 35.19C142.306 36.0769 142.549 37.0958 142.49 38.12C142.549 39.1442 142.306 40.1631 141.79 41.05C141.554 41.402 141.232 41.6866 140.853 41.876C140.474 42.0653 140.053 42.1529 139.63 42.13ZM139.63 40.91C139.831 40.9221 140.032 40.8768 140.209 40.7795C140.386 40.6821 140.532 40.5367 140.63 40.36C140.869 39.8923 140.996 39.3753 141 38.85V37.47C141.021 36.9542 140.922 36.4406 140.71 35.97C140.598 35.7988 140.445 35.6581 140.265 35.5607C140.086 35.4633 139.884 35.4123 139.68 35.4123C139.475 35.4123 139.274 35.4633 139.094 35.5607C138.914 35.6581 138.762 35.7988 138.65 35.97C138.438 36.4406 138.338 36.9542 138.36 37.47V38.85C138.339 39.3689 138.438 39.8856 138.65 40.36C138.745 40.5343 138.888 40.6783 139.061 40.7756C139.234 40.8728 139.431 40.9194 139.63 40.91Z" fill="#949494"/>
<path d="M130.63 42V40.82H132.63V35.63L130.77 36.63L130.22 35.57L132.54 34.27H134V40.77H135.78V42H130.63Z" fill="#949494"/>
<path d="M188.809 42.4445C188.615 42.4471 188.425 42.3859 188.269 42.2704C188.113 42.1549 187.999 41.9913 187.944 41.8047C187.89 41.6182 187.898 41.419 187.967 41.2375C188.037 41.056 188.164 40.9024 188.329 40.8C189.138 40.2952 189.802 39.5894 190.257 38.7516C190.712 37.9137 190.943 36.9722 190.926 36.0189C190.909 35.0656 190.645 34.1329 190.16 33.3118C189.676 32.4907 188.987 31.8091 188.16 31.3334C188.054 31.2778 187.96 31.2013 187.884 31.1085C187.809 31.0157 187.752 30.9085 187.719 30.7934C187.685 30.6783 187.676 30.5576 187.69 30.4386C187.705 30.3196 187.743 30.2047 187.803 30.1009C187.863 29.9971 187.943 29.9065 188.039 29.8346C188.135 29.7627 188.245 29.7109 188.361 29.6824C188.477 29.6539 188.598 29.6492 188.717 29.6686C188.835 29.6881 188.948 29.7313 189.049 29.7956C190.137 30.4264 191.044 31.3277 191.681 32.412C192.318 33.4963 192.664 34.7268 192.685 35.9842C192.707 37.2417 192.403 38.4833 191.803 39.5887C191.204 40.6941 190.328 41.6258 189.263 42.2934C189.128 42.3842 188.971 42.4364 188.809 42.4445Z" fill="#949494"/>
<path d="M190.773 47.7155C190.574 47.7143 190.381 47.6464 190.225 47.5225C190.069 47.3987 189.96 47.2262 189.913 47.0325C189.867 46.8389 189.888 46.6354 189.971 46.4546C190.054 46.2738 190.196 46.1263 190.373 46.0355C192.238 45.1167 193.806 43.6909 194.897 41.9216C195.988 40.1523 196.559 38.1113 196.543 36.0326C196.527 33.9538 195.926 31.9217 194.808 30.1692C193.69 28.4167 192.1 27.0148 190.222 26.1244C190.113 26.0757 190.016 26.0058 189.935 25.9187C189.854 25.8317 189.792 25.7293 189.751 25.6177C189.71 25.506 189.692 25.3874 189.698 25.2687C189.704 25.15 189.734 25.0338 189.786 24.9268C189.838 24.8198 189.91 24.7243 189.999 24.6459C190.089 24.5675 190.193 24.5077 190.305 24.4702C190.418 24.4327 190.537 24.4182 190.656 24.4275C190.774 24.4368 190.89 24.4697 190.995 24.5244C193.177 25.5545 195.024 27.1787 196.325 29.2107C197.626 31.2427 198.328 33.6003 198.35 36.013C198.373 38.4258 197.715 40.7959 196.451 42.8516C195.188 44.9073 193.371 46.5654 191.208 47.6355C191.072 47.6985 190.922 47.726 190.773 47.7155Z" fill="#949494"/>
<path d="M184 48.4978C183.765 48.498 183.533 48.4517 183.316 48.3617C183.099 48.2717 182.903 48.1397 182.737 47.9734L176.124 41.3334H171.555C171.084 41.3334 170.631 41.1461 170.298 40.8127C169.965 40.4793 169.777 40.0271 169.777 39.5556V32.4445C169.777 31.973 169.965 31.5208 170.298 31.1874C170.631 30.854 171.084 30.6667 171.555 30.6667H176.195L182.711 24.0978C182.956 23.8394 183.274 23.6607 183.622 23.585C183.97 23.5093 184.333 23.54 184.664 23.6732C184.995 23.8064 185.278 24.036 185.476 24.332C185.675 24.628 185.78 24.9769 185.777 25.3334V46.6667C185.777 47.0192 185.673 47.3637 185.476 47.6565C185.28 47.9493 185.001 48.1772 184.675 48.3111C184.465 48.4176 184.235 48.481 184 48.4978ZM171.555 32.4445V39.5556H176.497C176.615 39.5561 176.731 39.5799 176.84 39.6257C176.948 39.6714 177.046 39.7383 177.128 39.8223L184 46.72V25.3334L177.2 32.1778C177.117 32.2618 177.019 32.3286 176.911 32.3744C176.802 32.4202 176.686 32.444 176.568 32.4445H171.555Z" fill="#949494"/>
<path d="M865.516 36.084C865.516 36.78 865.276 37.36 864.796 37.824C864.324 38.28 863.6 38.508 862.624 38.508H861.016V42H859.924V33.636H862.624C863.568 33.636 864.284 33.864 864.772 34.32C865.268 34.776 865.516 35.364 865.516 36.084ZM862.624 37.608C863.232 37.608 863.68 37.476 863.968 37.212C864.256 36.948 864.4 36.572 864.4 36.084C864.4 35.052 863.808 34.536 862.624 34.536H861.016V37.608H862.624ZM868.085 33.12V42H866.993V33.12H868.085ZM869.658 38.688C869.658 38.016 869.794 37.428 870.066 36.924C870.338 36.412 870.71 36.016 871.182 35.736C871.662 35.456 872.194 35.316 872.778 35.316C873.354 35.316 873.854 35.44 874.278 35.688C874.702 35.936 875.018 36.248 875.226 36.624V35.424H876.33V42H875.226V40.776C875.01 41.16 874.686 41.48 874.254 41.736C873.83 41.984 873.334 42.108 872.766 42.108C872.182 42.108 871.654 41.964 871.182 41.676C870.71 41.388 870.338 40.984 870.066 40.464C869.794 39.944 869.658 39.352 869.658 38.688ZM875.226 38.7C875.226 38.204 875.126 37.772 874.926 37.404C874.726 37.036 874.454 36.756 874.11 36.564C873.774 36.364 873.402 36.264 872.994 36.264C872.586 36.264 872.214 36.36 871.878 36.552C871.542 36.744 871.274 37.024 871.074 37.392C870.874 37.76 870.774 38.192 870.774 38.688C870.774 39.192 870.874 39.632 871.074 40.008C871.274 40.376 871.542 40.66 871.878 40.86C872.214 41.052 872.586 41.148 872.994 41.148C873.402 41.148 873.774 41.052 874.11 40.86C874.454 40.66 874.726 40.376 874.926 40.008C875.126 39.632 875.226 39.196 875.226 38.7ZM883.96 35.424L880 45.096H878.872L880.168 41.928L877.516 35.424H878.728L880.792 40.752L882.832 35.424H883.96ZM886.269 36.648C886.493 36.256 886.821 35.936 887.253 35.688C887.685 35.44 888.177 35.316 888.729 35.316C889.321 35.316 889.853 35.456 890.325 35.736C890.797 36.016 891.169 36.412 891.441 36.924C891.713 37.428 891.849 38.016 891.849 38.688C891.849 39.352 891.713 39.944 891.441 40.464C891.169 40.984 890.793 41.388 890.313 41.676C889.841 41.964 889.313 42.108 888.729 42.108C888.161 42.108 887.661 41.984 887.229 41.736C886.805 41.488 886.485 41.172 886.269 40.788V42H885.177V33.12H886.269V36.648ZM890.733 38.688C890.733 38.192 890.633 37.76 890.433 37.392C890.233 37.024 889.961 36.744 889.617 36.552C889.281 36.36 888.909 36.264 888.501 36.264C888.101 36.264 887.729 36.364 887.385 36.564C887.049 36.756 886.777 37.04 886.569 37.416C886.369 37.784 886.269 38.212 886.269 38.7C886.269 39.196 886.369 39.632 886.569 40.008C886.777 40.376 887.049 40.66 887.385 40.86C887.729 41.052 888.101 41.148 888.501 41.148C888.909 41.148 889.281 41.052 889.617 40.86C889.961 40.66 890.233 40.376 890.433 40.008C890.633 39.632 890.733 39.192 890.733 38.688ZM892.999 38.688C892.999 38.016 893.135 37.428 893.407 36.924C893.679 36.412 894.051 36.016 894.523 35.736C895.003 35.456 895.535 35.316 896.119 35.316C896.695 35.316 897.195 35.44 897.619 35.688C898.043 35.936 898.359 36.248 898.567 36.624V35.424H899.671V42H898.567V40.776C898.351 41.16 898.027 41.48 897.595 41.736C897.171 41.984 896.675 42.108 896.107 42.108C895.523 42.108 894.995 41.964 894.523 41.676C894.051 41.388 893.679 40.984 893.407 40.464C893.135 39.944 892.999 39.352 892.999 38.688ZM898.567 38.7C898.567 38.204 898.467 37.772 898.267 37.404C898.067 37.036 897.795 36.756 897.451 36.564C897.115 36.364 896.743 36.264 896.335 36.264C895.927 36.264 895.555 36.36 895.219 36.552C894.883 36.744 894.615 37.024 894.415 37.392C894.215 37.76 894.115 38.192 894.115 38.688C894.115 39.192 894.215 39.632 894.415 40.008C894.615 40.376 894.883 40.66 895.219 40.86C895.555 41.052 895.927 41.148 896.335 41.148C896.743 41.148 897.115 41.052 897.451 40.86C897.795 40.66 898.067 40.376 898.267 40.008C898.467 39.632 898.567 39.196 898.567 38.7ZM901.228 38.7C901.228 38.02 901.364 37.428 901.636 36.924C901.908 36.412 902.284 36.016 902.764 35.736C903.252 35.456 903.808 35.316 904.432 35.316C905.24 35.316 905.904 35.512 906.424 35.904C906.952 36.296 907.3 36.84 907.468 37.536H906.292C906.18 37.136 905.96 36.82 905.632 36.588C905.312 36.356 904.912 36.24 904.432 36.24C903.808 36.24 903.304 36.456 902.92 36.888C902.536 37.312 902.344 37.916 902.344 38.7C902.344 39.492 902.536 40.104 902.92 40.536C903.304 40.968 903.808 41.184 904.432 41.184C904.912 41.184 905.312 41.072 905.632 40.848C905.952 40.624 906.172 40.304 906.292 39.888H907.468C907.292 40.56 906.94 41.1 906.412 41.508C905.884 41.908 905.224 42.108 904.432 42.108C903.808 42.108 903.252 41.968 902.764 41.688C902.284 41.408 901.908 41.012 901.636 40.5C901.364 39.988 901.228 39.388 901.228 38.7ZM912.717 42L910.137 39.096V42H909.045V33.12H910.137V38.34L912.669 35.424H914.193L911.097 38.7L914.205 42H912.717ZM920.988 42.108C920.484 42.108 920.032 42.024 919.632 41.856C919.232 41.68 918.916 41.44 918.684 41.136C918.452 40.824 918.324 40.468 918.3 40.068H919.428C919.46 40.396 919.612 40.664 919.884 40.872C920.164 41.08 920.528 41.184 920.976 41.184C921.392 41.184 921.72 41.092 921.96 40.908C922.2 40.724 922.32 40.492 922.32 40.212C922.32 39.924 922.192 39.712 921.936 39.576C921.68 39.432 921.284 39.292 920.748 39.156C920.26 39.028 919.86 38.9 919.548 38.772C919.244 38.636 918.98 38.44 918.756 38.184C918.54 37.92 918.432 37.576 918.432 37.152C918.432 36.816 918.532 36.508 918.732 36.228C918.932 35.948 919.216 35.728 919.584 35.568C919.952 35.4 920.372 35.316 920.844 35.316C921.572 35.316 922.16 35.5 922.608 35.868C923.056 36.236 923.296 36.74 923.328 37.38H922.236C922.212 37.036 922.072 36.76 921.816 36.552C921.568 36.344 921.232 36.24 920.808 36.24C920.416 36.24 920.104 36.324 919.872 36.492C919.64 36.66 919.524 36.88 919.524 37.152C919.524 37.368 919.592 37.548 919.728 37.692C919.872 37.828 920.048 37.94 920.256 38.028C920.472 38.108 920.768 38.2 921.144 38.304C921.616 38.432 922 38.56 922.296 38.688C922.592 38.808 922.844 38.992 923.052 39.24C923.268 39.488 923.38 39.812 923.388 40.212C923.388 40.572 923.288 40.896 923.088 41.184C922.888 41.472 922.604 41.7 922.236 41.868C921.876 42.028 921.46 42.108 920.988 42.108ZM926.142 36.636C926.358 36.26 926.678 35.948 927.102 35.7C927.534 35.444 928.034 35.316 928.602 35.316C929.186 35.316 929.714 35.456 930.186 35.736C930.666 36.016 931.042 36.412 931.314 36.924C931.586 37.428 931.722 38.016 931.722 38.688C931.722 39.352 931.586 39.944 931.314 40.464C931.042 40.984 930.666 41.388 930.186 41.676C929.714 41.964 929.186 42.108 928.602 42.108C928.042 42.108 927.546 41.984 927.114 41.736C926.69 41.48 926.366 41.164 926.142 40.788V45.12H925.05V35.424H926.142V36.636ZM930.606 38.688C930.606 38.192 930.506 37.76 930.306 37.392C930.106 37.024 929.834 36.744 929.49 36.552C929.154 36.36 928.782 36.264 928.374 36.264C927.974 36.264 927.602 36.364 927.258 36.564C926.922 36.756 926.65 37.04 926.442 37.416C926.242 37.784 926.142 38.212 926.142 38.7C926.142 39.196 926.242 39.632 926.442 40.008C926.65 40.376 926.922 40.66 927.258 40.86C927.602 41.052 927.974 41.148 928.374 41.148C928.782 41.148 929.154 41.052 929.49 40.86C929.834 40.66 930.106 40.376 930.306 40.008C930.506 39.632 930.606 39.192 930.606 38.688ZM939.279 38.46C939.279 38.668 939.267 38.888 939.243 39.12H933.987C934.027 39.768 934.247 40.276 934.647 40.644C935.055 41.004 935.547 41.184 936.123 41.184C936.595 41.184 936.987 41.076 937.299 40.86C937.619 40.636 937.843 40.34 937.971 39.972H939.147C938.971 40.604 938.619 41.12 938.091 41.52C937.563 41.912 936.907 42.108 936.123 42.108C935.499 42.108 934.939 41.968 934.443 41.688C933.955 41.408 933.571 41.012 933.291 40.5C933.011 39.98 932.871 39.38 932.871 38.7C932.871 38.02 933.007 37.424 933.279 36.912C933.551 36.4 933.931 36.008 934.419 35.736C934.915 35.456 935.483 35.316 936.123 35.316C936.747 35.316 937.299 35.452 937.779 35.724C938.259 35.996 938.627 36.372 938.883 36.852C939.147 37.324 939.279 37.86 939.279 38.46ZM938.151 38.232C938.151 37.816 938.059 37.46 937.875 37.164C937.691 36.86 937.439 36.632 937.119 36.48C936.807 36.32 936.459 36.24 936.075 36.24C935.523 36.24 935.051 36.416 934.659 36.768C934.275 37.12 934.055 37.608 933.999 38.232H938.151ZM946.841 38.46C946.841 38.668 946.829 38.888 946.805 39.12H941.549C941.589 39.768 941.809 40.276 942.209 40.644C942.617 41.004 943.109 41.184 943.685 41.184C944.157 41.184 944.549 41.076 944.861 40.86C945.181 40.636 945.405 40.34 945.533 39.972H946.709C946.533 40.604 946.181 41.12 945.653 41.52C945.125 41.912 944.469 42.108 943.685 42.108C943.061 42.108 942.501 41.968 942.005 41.688C941.517 41.408 941.133 41.012 940.853 40.5C940.573 39.98 940.433 39.38 940.433 38.7C940.433 38.02 940.569 37.424 940.841 36.912C941.113 36.4 941.493 36.008 941.981 35.736C942.477 35.456 943.045 35.316 943.685 35.316C944.309 35.316 944.861 35.452 945.341 35.724C945.821 35.996 946.189 36.372 946.445 36.852C946.709 37.324 946.841 37.86 946.841 38.46ZM945.713 38.232C945.713 37.816 945.621 37.46 945.437 37.164C945.253 36.86 945.001 36.632 944.681 36.48C944.369 36.32 944.021 36.24 943.637 36.24C943.085 36.24 942.613 36.416 942.221 36.768C941.837 37.12 941.617 37.608 941.561 38.232H945.713ZM947.994 38.688C947.994 38.016 948.13 37.428 948.402 36.924C948.674 36.412 949.046 36.016 949.518 35.736C949.998 35.456 950.534 35.316 951.126 35.316C951.638 35.316 952.114 35.436 952.554 35.676C952.994 35.908 953.33 36.216 953.562 36.6V33.12H954.666V42H953.562V40.764C953.346 41.156 953.026 41.48 952.602 41.736C952.178 41.984 951.682 42.108 951.114 42.108C950.53 42.108 949.998 41.964 949.518 41.676C949.046 41.388 948.674 40.984 948.402 40.464C948.13 39.944 947.994 39.352 947.994 38.688ZM953.562 38.7C953.562 38.204 953.462 37.772 953.262 37.404C953.062 37.036 952.79 36.756 952.446 36.564C952.11 36.364 951.738 36.264 951.33 36.264C950.922 36.264 950.55 36.36 950.214 36.552C949.878 36.744 949.61 37.024 949.41 37.392C949.21 37.76 949.11 38.192 949.11 38.688C949.11 39.192 949.21 39.632 949.41 40.008C949.61 40.376 949.878 40.66 950.214 40.86C950.55 41.052 950.922 41.148 951.33 41.148C951.738 41.148 952.11 41.052 952.446 40.86C952.79 40.66 953.062 40.376 953.262 40.008C953.462 39.632 953.562 39.196 953.562 38.7Z" fill="#4C4C4C"/>
<path d="M968.456 34.32V33.324H970.712V42H969.608V34.32H968.456ZM976.32 42L974.76 39.552L973.26 42H972.12L974.244 38.736L972.12 35.424H973.356L974.916 37.86L976.404 35.424H977.544L975.432 38.676L977.556 42H976.32Z" fill="#4C4C4C"/>
<path d="M986.667 34L992 39.3333L997.334 34" stroke="#4C4C4C" stroke-width="2" stroke-linecap="round" stroke-linejoin="round"/>
<path d="M123.967 133.332C129.847 133.332 134.633 129.145 134.633 123.999C134.633 118.852 129.847 114.665 123.967 114.665C122.866 114.666 121.772 114.819 120.713 115.119L117.027 112.772C116.926 112.707 116.81 112.671 116.69 112.667C116.571 112.662 116.452 112.69 116.347 112.748C116.242 112.805 116.155 112.889 116.094 112.992C116.032 113.095 116 113.212 116 113.332L116 117.819C115.166 118.619 114.5 119.578 114.042 120.639C113.584 121.7 113.343 122.843 113.333 123.999C113.3 129.145 118.087 133.332 123.967 133.332Z" fill="white"/>
<path fill-rule="evenodd" clip-rule="evenodd" d="M134.633 123.999C134.633 129.145 129.847 133.332 123.967 133.332C118.087 133.332 113.3 129.145 113.333 123.999C113.343 122.843 113.584 121.7 114.042 120.639C114.5 119.578 115.166 118.619 116 117.819L116 113.332C116 113.212 116.032 113.095 116.094 112.992C116.155 112.889 116.242 112.805 116.347 112.748C116.452 112.69 116.571 112.662 116.69 112.667C116.81 112.671 116.926 112.707 117.027 112.772L120.713 115.119C121.772 114.819 122.866 114.666 123.967 114.665C129.847 114.665 134.633 118.852 134.633 123.999ZM123.02 118.302C122.978 118.425 122.962 118.556 122.973 118.685V125.199C122.962 125.328 122.978 125.459 123.02 125.582C123.062 125.705 123.13 125.818 123.218 125.914C123.306 126.01 123.413 126.086 123.532 126.138C123.651 126.191 123.78 126.218 123.91 126.218C124.04 126.218 124.168 126.191 124.288 126.138C124.407 126.086 124.514 126.01 124.602 125.914C124.69 125.818 124.757 125.705 124.799 125.582C124.841 125.459 124.857 125.328 124.846 125.199V118.685C124.857 118.556 124.841 118.425 124.799 118.302C124.757 118.179 124.69 118.066 124.602 117.97C124.514 117.874 124.407 117.798 124.288 117.745C124.168 117.693 124.04 117.666 123.91 117.666C123.78 117.666 123.651 117.693 123.532 117.745C123.413 117.798 123.306 117.874 123.218 117.97C123.13 118.066 123.062 118.179 123.02 118.302ZM123.22 130.042C123.425 130.179 123.666 130.252 123.913 130.252V130.245C124.242 130.245 124.559 130.115 124.792 129.882C125.026 129.65 125.158 129.335 125.16 129.005C125.16 128.759 125.087 128.518 124.95 128.313C124.813 128.108 124.618 127.948 124.39 127.853C124.162 127.759 123.912 127.734 123.67 127.783C123.428 127.831 123.206 127.949 123.031 128.124C122.857 128.298 122.738 128.52 122.69 128.762C122.642 129.004 122.667 129.255 122.761 129.482C122.856 129.71 123.015 129.905 123.22 130.042Z" fill="#EB3C3C"/>
<path d="M368.967 133.332C374.847 133.332 379.633 129.145 379.633 123.999C379.633 118.852 374.847 114.665 368.967 114.665C367.866 114.666 366.772 114.819 365.713 115.119L362.027 112.772C361.926 112.707 361.81 112.671 361.69 112.667C361.571 112.662 361.452 112.69 361.347 112.748C361.242 112.805 361.155 112.889 361.094 112.992C361.032 113.095 361 113.212 361 113.332L361 117.819C360.166 118.619 359.5 119.578 359.042 120.639C358.584 121.7 358.343 122.843 358.333 123.999C358.3 129.145 363.087 133.332 368.967 133.332Z" fill="white"/>
<path fill-rule="evenodd" clip-rule="evenodd" d="M379.633 123.999C379.633 129.145 374.847 133.332 368.967 133.332C363.087 133.332 358.3 129.145 358.333 123.999C358.343 122.843 358.584 121.7 359.042 120.639C359.5 119.578 360.166 118.619 361 117.819L361 113.332C361 113.212 361.032 113.095 361.094 112.992C361.155 112.889 361.242 112.805 361.347 112.748C361.452 112.69 361.571 112.662 361.69 112.667C361.81 112.671 361.926 112.707 362.027 112.772L365.713 115.119C366.772 114.819 367.866 114.666 368.967 114.665C374.847 114.665 379.633 118.852 379.633 123.999ZM368.02 118.302C367.978 118.425 367.962 118.556 367.973 118.685V125.199C367.962 125.328 367.978 125.459 368.02 125.582C368.062 125.705 368.13 125.818 368.218 125.914C368.306 126.01 368.413 126.086 368.532 126.138C368.651 126.191 368.78 126.218 368.91 126.218C369.04 126.218 369.168 126.191 369.288 126.138C369.407 126.086 369.514 126.01 369.602 125.914C369.69 125.818 369.757 125.705 369.799 125.582C369.841 125.459 369.857 125.328 369.846 125.199V118.685C369.857 118.556 369.841 118.425 369.799 118.302C369.757 118.179 369.69 118.066 369.602 117.97C369.514 117.874 369.407 117.798 369.288 117.745C369.168 117.693 369.04 117.666 368.91 117.666C368.78 117.666 368.651 117.693 368.532 117.745C368.413 117.798 368.306 117.874 368.218 117.97C368.13 118.066 368.062 118.179 368.02 118.302ZM368.22 130.042C368.425 130.179 368.666 130.252 368.913 130.252V130.245C369.242 130.245 369.559 130.115 369.792 129.882C370.026 129.65 370.158 129.335 370.16 129.005C370.16 128.759 370.087 128.518 369.95 128.313C369.813 128.108 369.618 127.948 369.39 127.853C369.162 127.759 368.912 127.734 368.67 127.783C368.428 127.831 368.206 127.949 368.031 128.124C367.857 128.298 367.738 128.52 367.69 128.762C367.642 129.004 367.667 129.255 367.761 129.482C367.856 129.71 368.015 129.905 368.22 130.042Z" fill="#F4BF03"/>
<path d="M551.967 133.332C557.847 133.332 562.633 129.145 562.633 123.999C562.633 118.852 557.847 114.665 551.967 114.665C550.866 114.666 549.772 114.819 548.713 115.119L545.027 112.772C544.926 112.707 544.81 112.671 544.69 112.667C544.571 112.662 544.452 112.69 544.347 112.748C544.242 112.805 544.155 112.889 544.094 112.992C544.032 113.095 544 113.212 544 113.332L544 117.819C543.166 118.619 542.5 119.578 542.042 120.639C541.584 121.7 541.343 122.843 541.333 123.999C541.3 129.145 546.087 133.332 551.967 133.332Z" fill="white"/>
<path fill-rule="evenodd" clip-rule="evenodd" d="M562.633 123.999C562.633 129.145 557.847 133.332 551.967 133.332C546.087 133.332 541.3 129.145 541.333 123.999C541.343 122.843 541.584 121.7 542.042 120.639C542.5 119.578 543.166 118.619 544 117.819L544 113.332C544 113.212 544.032 113.095 544.094 112.992C544.155 112.889 544.242 112.805 544.347 112.748C544.452 112.69 544.571 112.662 544.69 112.667C544.81 112.671 544.926 112.707 545.027 112.772L548.713 115.119C549.772 114.819 550.866 114.666 551.967 114.665C557.847 114.665 562.633 118.852 562.633 123.999ZM551.02 118.302C550.978 118.425 550.962 118.556 550.973 118.685V125.199C550.962 125.328 550.978 125.459 551.02 125.582C551.062 125.705 551.13 125.818 551.218 125.914C551.306 126.01 551.413 126.086 551.532 126.138C551.651 126.191 551.78 126.218 551.91 126.218C552.04 126.218 552.168 126.191 552.288 126.138C552.407 126.086 552.514 126.01 552.602 125.914C552.69 125.818 552.757 125.705 552.799 125.582C552.841 125.459 552.857 125.328 552.846 125.199V118.685C552.857 118.556 552.841 118.425 552.799 118.302C552.757 118.179 552.69 118.066 552.602 117.97C552.514 117.874 552.407 117.798 552.288 117.745C552.168 117.693 552.04 117.666 551.91 117.666C551.78 117.666 551.651 117.693 551.532 117.745C551.413 117.798 551.306 117.874 551.218 117.97C551.13 118.066 551.062 118.179 551.02 118.302ZM551.22 130.042C551.425 130.179 551.666 130.252 551.913 130.252V130.245C552.242 130.245 552.559 130.115 552.792 129.882C553.026 129.65 553.158 129.335 553.16 129.005C553.16 128.759 553.087 128.518 552.95 128.313C552.813 128.108 552.618 127.948 552.39 127.853C552.162 127.759 551.912 127.734 551.67 127.783C551.428 127.831 551.206 127.949 551.031 128.124C550.857 128.298 550.738 128.52 550.69 128.762C550.642 129.004 550.667 129.255 550.761 129.482C550.856 129.71 551.015 129.905 551.22 130.042Z" fill="#49E600"/>
<path d="M33 45.0979V26.9021C33 26.5094 33.432 26.27 33.765 26.4781L48.3216 35.576C48.6349 35.7718 48.6349 36.2282 48.3216 36.424L33.765 45.5219C33.432 45.73 33 45.4906 33 45.0979Z" stroke="#949494" stroke-width="2"/>
<path d="M1042 41L1046 37M1042 41V29V41ZM1042 41L1038 37L1042 41Z" stroke="#949494" stroke-width="2" stroke-linecap="round" stroke-linejoin="round"/>
<path d="M1032 43L1032.62 45.485C1032.73 45.9177 1032.98 46.3018 1033.33 46.5763C1033.68 46.8508 1034.12 46.9999 1034.56 47H1049.44C1049.88 46.9999 1050.32 46.8508 1050.67 46.5763C1051.02 46.3018 1051.27 45.9177 1051.38 45.485L1052 43" stroke="#949494" stroke-width="2" stroke-linecap="round" stroke-linejoin="round"/>
</svg>
