<svg width="16" height="16" viewBox="0 0 16 16" fill="none" xmlns="http://www.w3.org/2000/svg">
<path fill-rule="evenodd" clip-rule="evenodd" d="M8.75003 1.26318C8.75003 0.84897 8.41424 0.513184 8.00003 0.513184C7.58581 0.513184 7.25003 0.84897 7.25003 1.26318V7.25003H1.26318C0.84897 7.25003 0.513184 7.58581 0.513184 8.00003C0.513184 8.41424 0.84897 8.75003 1.26318 8.75003H7.25003V14.7369C7.25003 15.1511 7.58581 15.4869 8.00003 15.4869C8.41424 15.4869 8.75003 15.1511 8.75003 14.7369V8.75003H14.7369C15.1511 8.75003 15.4869 8.41424 15.4869 8.00003C15.4869 7.58581 15.1511 7.25003 14.7369 7.25003H8.75003V1.26318Z" fill="#585556"/>
</svg>
