<svg width="780" height="24" viewBox="0 0 780 24" fill="none" xmlns="http://www.w3.org/2000/svg">
<rect width="780" height="2" rx="1" fill="#E8EAED"/>
<rect width="29.3417" height="2" rx="1" transform="matrix(-1 0 0 1 83.1348 0)" fill="#707070"/>
<rect width="9.78053" height="2" rx="1" transform="matrix(-1 0 0 1 97.8057 0)" fill="#707070"/>
<rect width="9.78055" height="2" rx="1" transform="matrix(-1 0 0 1 156.489 0)" fill="#707070"/>
<rect width="89.2477" height="2" rx="1" transform="matrix(-1 0 0 1 331.316 0)" fill="#707070"/>
<rect width="50.1254" height="2" rx="1" transform="matrix(-1 0 0 1 427.9 0)" fill="#707070"/>
<rect width="17.116" height="2" rx="1" transform="matrix(-1 0 0 1 453.574 0)" fill="#707070"/>
<rect width="40.3448" height="2" rx="1" transform="matrix(-1 0 0 1 497.586 0)" fill="#707070"/>
<rect width="68.4641" height="2" rx="1" transform="matrix(-1 0 0 1 599.06 0)" fill="#707070"/>
<rect width="25.6741" height="2" rx="1" transform="matrix(-1 0 0 1 698.088 0)" fill="#707070"/>
<rect width="36.677" height="2" rx="1" transform="matrix(-1 0 0 1 768.997 0)" fill="#707070"/>
<path d="M416.967 22.3319C422.847 22.3319 427.634 18.1453 427.634 12.9986C427.634 7.85194 422.847 3.66527 416.967 3.66527C415.867 3.66654 414.772 3.81908 413.714 4.1186L410.027 1.77194C409.926 1.70737 409.81 1.67105 409.691 1.6668C409.571 1.66255 409.453 1.69052 409.348 1.74778C409.243 1.80504 409.155 1.88949 409.094 1.99226C409.033 2.09504 409.001 2.21236 409 2.33194L409 6.8186C408.166 7.61882 407.501 8.57782 407.043 9.63916C406.585 10.7005 406.344 11.8427 406.334 12.9986C406.3 18.1453 411.087 22.3319 416.967 22.3319Z" fill="white"/>
<path fill-rule="evenodd" clip-rule="evenodd" d="M427.634 12.9986C427.634 18.1453 422.847 22.3319 416.967 22.3319C411.087 22.3319 406.3 18.1453 406.334 12.9986C406.344 11.8427 406.585 10.7005 407.043 9.63916C407.501 8.57782 408.166 7.61882 409 6.8186L409 2.33194C409.001 2.21236 409.033 2.09504 409.094 1.99226C409.155 1.88949 409.243 1.80504 409.348 1.74778C409.453 1.69052 409.571 1.66255 409.691 1.6668C409.81 1.67105 409.926 1.70737 410.027 1.77194L413.714 4.1186C414.772 3.81908 415.867 3.66654 416.967 3.66527C422.847 3.66527 427.634 7.85194 427.634 12.9986ZM416.021 7.30205C415.979 7.42516 415.963 7.55567 415.973 7.68531V14.1986C415.963 14.3283 415.979 14.4588 416.021 14.5819C416.063 14.705 416.13 14.818 416.218 14.9138C416.306 15.0096 416.413 15.0861 416.532 15.1384C416.651 15.1907 416.78 15.2177 416.91 15.2177C417.04 15.2177 417.169 15.1907 417.288 15.1384C417.407 15.0861 417.514 15.0096 417.602 14.9138C417.69 14.818 417.757 14.705 417.8 14.5819C417.842 14.4588 417.858 14.3283 417.847 14.1986V7.68531C417.858 7.55567 417.842 7.42516 417.8 7.30205C417.757 7.17894 417.69 7.06591 417.602 6.97012C417.514 6.87432 417.407 6.79785 417.288 6.74554C417.169 6.69323 417.04 6.66622 416.91 6.66622C416.78 6.66622 416.651 6.69323 416.532 6.74554C416.413 6.79785 416.306 6.87432 416.218 6.97012C416.13 7.06591 416.063 7.17894 416.021 7.30205ZM416.221 19.0419C416.426 19.1789 416.667 19.252 416.913 19.252V19.2453C417.243 19.2453 417.559 19.1149 417.793 18.8825C418.026 18.6502 418.158 18.3348 418.16 18.0053C418.16 17.7587 418.087 17.5177 417.95 17.3127C417.813 17.1077 417.618 16.9479 417.391 16.8535C417.163 16.7592 416.912 16.7345 416.67 16.7826C416.428 16.8307 416.206 16.9494 416.032 17.1238C415.858 17.2981 415.739 17.5203 415.691 17.7621C415.643 18.0039 415.667 18.2546 415.762 18.4824C415.856 18.7102 416.016 18.9049 416.221 19.0419Z" fill="#EB3C3C"/>
</svg>
