<svg width="24" height="24" viewBox="0 0 24 24" fill="none" xmlns="http://www.w3.org/2000/svg">
<path d="M12 7.25C12.4142 7.25 12.75 7.58579 12.75 8V16C12.75 16.4142 12.4142 16.75 12 16.75C11.5858 16.75 11.25 16.4142 11.25 16V8C11.25 7.58579 11.5858 7.25 12 7.25Z" fill="#707070"/>
<path d="M9.75 9.33301C9.75 8.91879 9.41421 8.58301 9 8.58301C8.58579 8.58301 8.25 8.91879 8.25 9.33301V14.666C8.25 15.0802 8.58579 15.416 9 15.416C9.41421 15.416 9.75 15.0802 9.75 14.666V9.33301Z" fill="#707070"/>
<path d="M6.75 11.1108C6.75 10.6966 6.41421 10.3608 6 10.3608C5.58579 10.3608 5.25 10.6966 5.25 11.1108V12.8888C5.25 13.3031 5.58579 13.6388 6 13.6388C6.41421 13.6388 6.75 13.3031 6.75 12.8888V11.1108Z" fill="#707070"/>
<path d="M15.75 9.33301C15.75 8.91879 15.4142 8.58301 15 8.58301C14.5858 8.58301 14.25 8.91879 14.25 9.33301V14.666C14.25 15.0802 14.5858 15.416 15 15.416C15.4142 15.416 15.75 15.0802 15.75 14.666V9.33301Z" fill="#707070"/>
<path d="M18 10.3608C18.4142 10.3608 18.75 10.6966 18.75 11.1108V12.8888C18.75 13.3031 18.4142 13.6388 18 13.6388C17.5858 13.6388 17.25 13.3031 17.25 12.8888V11.1108C17.25 10.6966 17.5858 10.3608 18 10.3608Z" fill="#707070"/>
<path fill-rule="evenodd" clip-rule="evenodd" d="M18.8943 18.8943C22.7019 15.0867 22.7019 8.91332 18.8943 5.10571C15.0867 1.2981 8.91332 1.2981 5.10571 5.10571C1.2981 8.9133 1.2981 15.0867 5.10571 18.8943C8.9133 22.7019 15.0867 22.7019 18.8943 18.8943ZM6.16637 6.16637C9.3882 2.94454 14.6118 2.94455 17.8336 6.16637C21.0551 9.38823 21.0553 14.6119 17.8336 17.8336C14.6118 21.0554 9.38818 21.0554 6.16637 17.8336C2.94454 14.6118 2.94455 9.38818 6.16637 6.16637Z" fill="#707070"/>
</svg>
