<svg width="9" height="10" viewBox="0 0 9 10" fill="none" xmlns="http://www.w3.org/2000/svg">
<path fill-rule="evenodd" clip-rule="evenodd" d="M8 0.5C8.27614 0.5 8.5 0.723858 8.5 1V9C8.5 9.27614 8.27614 9.5 8 9.5C7.72386 9.5 7.5 9.27614 7.5 9V1C7.5 0.723858 7.72386 0.5 8 0.5Z" fill="#333131"/>
<path fill-rule="evenodd" clip-rule="evenodd" d="M6.80387 5L1 1.63288V8.36712L6.80387 5ZM7.59643 4.3037C8.13452 4.61588 8.13452 5.38412 7.59643 5.6963L1.23279 9.38817C0.712564 9.68998 0 9.34512 0 8.69187V1.30813C0 0.654877 0.712564 0.310019 1.23279 0.611831L7.59643 4.3037Z" fill="#333131"/>
</svg>
