<svg width="26" height="26" viewBox="0 0 26 26" fill="none" xmlns="http://www.w3.org/2000/svg">
<path d="M21.0034 9.99859V5.99693C21.0034 4.8919 20.1076 3.99609 19.0026 3.99609H5.99717C4.89214 3.99609 3.99634 4.8919 3.99634 5.99693V20.0028C3.99634 21.1078 4.89214 22.0036 5.99717 22.0036H10.9993" stroke="#707070" stroke-width="1.5" stroke-linecap="round" stroke-linejoin="round"/>
<path d="M7.99805 7.99826H17.0018" stroke="#707070" stroke-width="1.5" stroke-linecap="round" stroke-linejoin="round"/>
<path d="M7.99805 11.9997H13.0001" stroke="#707070" stroke-width="1.5" stroke-linecap="round" stroke-linejoin="round"/>
<path d="M7.99805 16.0012H10.9993" stroke="#707070" stroke-width="1.5" stroke-linecap="round" stroke-linejoin="round"/>
<path d="M22.0039 22.0039L20.3643 20.3643" stroke="#707070" stroke-width="1.5" stroke-linecap="round" stroke-linejoin="round"/>
<path d="M17.726 14.0005C19.7836 14.0005 21.4516 15.6685 21.4516 17.726C21.4516 19.7836 19.7836 21.4516 17.726 21.4516C15.6685 21.4516 14.0005 19.7836 14.0005 17.726C14.0006 15.6685 15.6685 14.0006 17.726 14.0005" stroke="#707070" stroke-width="1.5" stroke-linecap="round" stroke-linejoin="round"/>
</svg>
