<svg width="57" height="56" viewBox="0 0 57 56" fill="none" xmlns="http://www.w3.org/2000/svg">
<path d="M56.7144 28C56.7144 12.536 44.1783 0 28.7144 0C13.2504 0 0.714355 12.536 0.714355 28C0.714355 43.464 13.2504 56 28.7144 56C44.1783 56 56.7144 43.464 56.7144 28ZM3.79436 28C3.79436 14.2371 14.9514 3.08 28.7144 3.08C42.4773 3.08 53.6344 14.2371 53.6344 28C53.6344 41.7629 42.4773 52.92 28.7144 52.92C14.9514 52.92 3.79436 41.7629 3.79436 28Z" fill="#F0F0F0"/>
<path d="M28.7144 -6.40548e-06C13.2504 -5.72952e-06 0.714354 12.536 0.714354 28C0.714355 43.464 13.2504 56 28.7144 56C44.1783 56 56.7144 43.464 56.7144 28C56.7144 12.536 44.1783 -7.08143e-06 28.7144 -6.40548e-06ZM28.7144 52.92C14.9514 52.92 3.79436 41.7629 3.79436 28C3.79436 14.2371 14.9514 3.08 28.7144 3.08C42.4773 3.07999 53.6344 14.2371 53.6344 28C53.6344 41.7629 42.4773 52.92 28.7144 52.92Z" fill="#66CB9F"/>
<path d="M19.2381 21.9091H17.6529L14.3802 24.0824V25.6932L17.5762 23.571H17.6529V35H19.2381V21.9091ZM27.2729 35.179C30.1622 35.179 31.8241 32.7308 31.8241 28.4545C31.8241 24.2102 30.1366 21.7301 27.2729 21.7301C24.4093 21.7301 22.7218 24.2102 22.7218 28.4545C22.7218 32.7308 24.3837 35.179 27.2729 35.179ZM27.2729 33.7727C25.3681 33.7727 24.2559 31.8615 24.2559 28.4545C24.2559 25.054 25.3809 23.1108 27.2729 23.1108C29.165 23.1108 30.29 25.054 30.29 28.4545C30.29 31.8615 29.1778 33.7727 27.2729 33.7727ZM38.5229 35.179C41.4122 35.179 43.0741 32.7308 43.0741 28.4545C43.0741 24.2102 41.3866 21.7301 38.5229 21.7301C35.6593 21.7301 33.9718 24.2102 33.9718 28.4545C33.9718 32.7308 35.6337 35.179 38.5229 35.179ZM38.5229 33.7727C36.6181 33.7727 35.5059 31.8615 35.5059 28.4545C35.5059 25.054 36.6309 23.1108 38.5229 23.1108C40.415 23.1108 41.54 25.054 41.54 28.4545C41.54 31.8615 40.4278 33.7727 38.5229 33.7727Z" fill="#2B2A29"/>
</svg>
