<svg width="140" height="140" viewBox="0 0 140 140" fill="none" xmlns="http://www.w3.org/2000/svg">
<path d="M52.1396 88.5966C61.9833 88.5966 69.0572 83.3338 69.0785 76.2599C69.0572 70.8054 64.8597 66.3523 59.6183 65.4787V65.1804C64.1779 64.2429 67.4379 60.3011 67.4592 55.5071C67.4379 48.7528 60.9606 43.767 52.1396 43.767C43.2972 43.767 36.82 48.7528 36.8413 55.5071C36.82 60.2798 40.0373 64.2429 44.6822 65.1804V65.4787C39.3555 66.3523 35.2006 70.8054 35.2219 76.2599C35.2006 83.3338 42.2958 88.5966 52.1396 88.5966ZM52.1396 81.821C47.7504 81.821 44.81 79.2216 44.81 75.5355C44.81 71.7642 47.8995 69.0369 52.1396 69.0369C56.3583 69.0369 59.4691 71.7642 59.4691 75.5355C59.4691 79.2429 56.5075 81.821 52.1396 81.821ZM52.1396 62.3253C48.4535 62.3253 45.8327 59.9176 45.8327 56.4659C45.8327 53.0568 48.4109 50.7131 52.1396 50.7131C55.8469 50.7131 58.4464 53.0781 58.4464 56.4659C58.4464 59.9176 55.8043 62.3253 52.1396 62.3253ZM77.255 88H86.7791L104.89 52.0128V44.3636H74.272V51.9062H95.3445V52.2045L77.255 88Z" fill="#718096"/>
<path d="M37.0284 103.406H39.7472V111H41.0597V103.406H43.7827V102.273H37.0284V103.406ZM47.2308 111.132C49.076 111.132 50.282 109.781 50.282 107.757C50.282 105.72 49.076 104.369 47.2308 104.369C45.3857 104.369 44.1797 105.72 44.1797 107.757C44.1797 109.781 45.3857 111.132 47.2308 111.132ZM47.2351 110.062C46.0291 110.062 45.4666 109.01 45.4666 107.753C45.4666 106.5 46.0291 105.435 47.2351 105.435C48.4325 105.435 48.995 106.5 48.995 107.753C48.995 109.01 48.4325 110.062 47.2351 110.062ZM55.0096 104.455H53.6673V102.886H52.3931V104.455H51.4343V105.477H52.3931V109.342C52.3888 110.531 53.2965 111.107 54.3022 111.085C54.707 111.081 54.9798 111.004 55.1289 110.949L54.8988 109.896C54.8136 109.913 54.6559 109.952 54.4513 109.952C54.038 109.952 53.6673 109.815 53.6673 109.078V105.477H55.0096V104.455ZM58.5739 111.145C59.6562 111.145 60.2656 110.595 60.5085 110.105H60.5597V111H61.804V106.653C61.804 104.749 60.304 104.369 59.2642 104.369C58.0795 104.369 56.9886 104.847 56.5625 106.04L57.7599 106.312C57.9474 105.848 58.4247 105.401 59.2812 105.401C60.1037 105.401 60.5256 105.831 60.5256 106.572V106.602C60.5256 107.067 60.0483 107.058 58.8722 107.195C57.6321 107.339 56.3622 107.663 56.3622 109.151C56.3622 110.438 57.3295 111.145 58.5739 111.145ZM58.8509 110.122C58.1307 110.122 57.6108 109.798 57.6108 109.168C57.6108 108.486 58.2159 108.243 58.9531 108.145C59.3665 108.089 60.3466 107.979 60.5298 107.795V108.639C60.5298 109.415 59.9119 110.122 58.8509 110.122ZM65.0252 102.273H63.7511V111H65.0252V102.273ZM75.32 106.053C75.0558 105.034 74.2589 104.369 72.8441 104.369C71.3654 104.369 70.3171 105.149 70.3171 106.308C70.3171 107.237 70.8796 107.855 72.1069 108.128L73.2148 108.371C73.8455 108.511 74.1396 108.793 74.1396 109.202C74.1396 109.709 73.5984 110.105 72.7631 110.105C72.0004 110.105 71.5103 109.777 71.3569 109.134L70.1254 109.321C70.3384 110.48 71.3015 111.132 72.7717 111.132C74.3526 111.132 75.4478 110.293 75.4478 109.108C75.4478 108.183 74.8597 107.612 73.658 107.335L72.6183 107.097C71.8981 106.926 71.587 106.683 71.5913 106.24C71.587 105.737 72.1325 105.379 72.8569 105.379C73.6495 105.379 74.016 105.818 74.1651 106.257L75.32 106.053ZM79.8558 111.132C81.4027 111.132 82.4041 110.203 82.5447 108.929H81.3047C81.1428 109.636 80.593 110.054 79.8643 110.054C78.7862 110.054 78.0916 109.155 78.0916 107.727C78.0916 106.325 78.799 105.443 79.8643 105.443C80.674 105.443 81.1683 105.955 81.3047 106.568H82.5447C82.4084 105.247 81.3303 104.369 79.843 104.369C77.9979 104.369 76.8047 105.759 76.8047 107.757C76.8047 109.73 77.9553 111.132 79.8558 111.132ZM86.9144 111.132C88.7596 111.132 89.9656 109.781 89.9656 107.757C89.9656 105.72 88.7596 104.369 86.9144 104.369C85.0692 104.369 83.8633 105.72 83.8633 107.757C83.8633 109.781 85.0692 111.132 86.9144 111.132ZM86.9187 110.062C85.7127 110.062 85.1502 109.01 85.1502 107.753C85.1502 106.5 85.7127 105.435 86.9187 105.435C88.1161 105.435 88.6786 106.5 88.6786 107.753C88.6786 109.01 88.1161 110.062 86.9187 110.062ZM91.6378 111H92.9119V107.003C92.9119 106.146 93.5724 105.528 94.4759 105.528C94.7401 105.528 95.0384 105.575 95.1406 105.605V104.386C95.0128 104.369 94.7614 104.357 94.5994 104.357C93.8324 104.357 93.1761 104.791 92.9375 105.494H92.8693V104.455H91.6378V111ZM99.0799 111.132C100.507 111.132 101.517 110.429 101.807 109.364L100.601 109.146C100.371 109.764 99.8171 110.08 99.0927 110.08C98.0018 110.08 97.2688 109.372 97.2347 108.111H101.888V107.659C101.888 105.294 100.473 104.369 98.9904 104.369C97.1665 104.369 95.9648 105.759 95.9648 107.77C95.9648 109.803 97.1495 111.132 99.0799 111.132ZM97.239 107.156C97.2901 106.227 97.9634 105.422 98.9989 105.422C99.9876 105.422 100.635 106.155 100.64 107.156H97.239Z" fill="#192A3E"/>
<path d="M70 2C70 0.895431 70.8958 -0.00298307 72 0.0285663C85.1449 0.404173 97.9334 4.47624 108.89 11.7971C120.401 19.4888 129.373 30.4213 134.672 43.2122C139.97 56.003 141.356 70.0777 138.655 83.6563C135.954 97.235 129.287 109.708 119.497 119.497C109.708 129.287 97.235 135.954 83.6563 138.655C70.0777 141.356 56.003 139.97 43.2122 134.672C30.4213 129.373 19.4888 120.401 11.7971 108.89C4.47624 97.9334 0.404172 85.1449 0.0285662 72C-0.00298308 70.8958 0.895431 70 2 70H5.7C6.80457 70 7.69665 70.8958 7.7321 71.9998C8.10524 83.6215 11.7247 94.9219 18.1994 104.612C25.0451 114.857 34.775 122.842 46.1588 127.558C57.5427 132.273 70.0691 133.507 82.1541 131.103C94.2391 128.699 105.34 122.766 114.053 114.053C122.766 105.34 128.699 94.2391 131.103 82.1541C133.507 70.0691 132.273 57.5427 127.558 46.1588C122.842 34.775 114.857 25.0451 104.612 18.1994C94.9219 11.7247 83.6215 8.10524 71.9998 7.7321C70.8958 7.69665 70 6.80457 70 5.7V2Z" fill="#66CB9F"/>
</svg>
