<svg width="26" height="26" viewBox="0 0 26 26" fill="none" xmlns="http://www.w3.org/2000/svg">
<path fill-rule="evenodd" clip-rule="evenodd" d="M13.8005 3.99634C14.2226 3.99634 14.5992 4.26137 14.7419 4.65861L15.2501 6.0742C15.3308 6.29681 15.4874 6.48385 15.6923 6.60242L17.1999 7.47279C17.4046 7.59091 17.6446 7.63273 17.8772 7.59083L19.3578 7.32372C19.7736 7.24812 20.192 7.44192 20.4033 7.80793L21.2036 9.1885C21.4154 9.55351 21.3754 10.0122 21.1035 10.335L20.1321 11.4835C19.9791 11.664 19.8951 11.893 19.895 12.1297V13.8705C19.8951 14.1071 19.9791 14.3361 20.1321 14.5167L21.1035 15.6652C21.3754 15.988 21.4154 16.4467 21.2036 16.8117L20.4033 18.1923C20.1922 18.5579 19.7743 18.7516 19.3588 18.6765L17.8782 18.4093C17.6456 18.3674 17.4056 18.4093 17.2009 18.5274L15.6933 19.3978C15.4884 19.5163 15.3318 19.7034 15.2511 19.926L14.7429 21.3416C14.6001 21.7392 14.223 22.0042 13.8005 22.0038H12.1998C11.7777 22.0038 11.4011 21.7388 11.2584 21.3416L10.7502 19.926C10.6696 19.7037 10.5134 19.5167 10.309 19.3978L8.80042 18.5274C8.59569 18.4093 8.35576 18.3674 8.12314 18.4093L6.64252 18.6765C6.22675 18.7521 5.80832 18.5583 5.59709 18.1923L4.79675 16.8117C4.58495 16.4467 4.62498 15.988 4.8968 15.6652L5.8682 14.5167C6.02119 14.3361 6.1052 14.1071 6.1053 13.8705V12.1297C6.1052 11.893 6.02119 11.664 5.8682 11.4835L4.9068 10.335C4.63498 10.0122 4.59496 9.55351 4.80676 9.1885L5.60709 7.80793C5.81819 7.44232 6.23609 7.24858 6.65153 7.32372L8.13214 7.59083C8.36476 7.63273 8.6047 7.59091 8.80942 7.47279L10.3181 6.60242C10.5225 6.48347 10.6786 6.29652 10.7592 6.0742L11.2674 4.65861C11.409 4.26446 11.7811 4.00017 12.1998 3.99634H13.8005Z" stroke="#707070" stroke-width="1.5" stroke-linecap="round" stroke-linejoin="round"/>
<circle cx="13.0002" cy="13.0002" r="2.75115" stroke="#707070" stroke-width="1.5" stroke-linecap="round" stroke-linejoin="round"/>
</svg>
