<svg width="24" height="22" viewBox="0 0 24 22" fill="none" xmlns="http://www.w3.org/2000/svg">
<path d="M14.5 1.81425C14.5 0.719865 13.1932 0.153843 12.395 0.902438L7.45826 5.53182C7.13388 5.836 6.70587 6.00529 6.26119 6.00529H3.25C1.45508 6.00529 0 7.46036 0 9.25529V12.7473C0 14.5422 1.45507 15.9973 3.25 15.9973H6.26174C6.70619 15.9973 7.134 16.1664 7.45832 16.4703L12.3953 21.0964C13.1937 21.8446 14.5 21.2785 14.5 20.1843V1.81425ZM8.48431 6.62599L13 2.39141V19.6074L8.48396 15.3757C7.88165 14.8114 7.08715 14.4973 6.26174 14.4973H3.25C2.2835 14.4973 1.5 13.7138 1.5 12.7473V9.25529C1.5 8.28879 2.2835 7.50529 3.25 7.50529H6.26119C7.08703 7.50529 7.8819 7.1909 8.48431 6.62599ZM20.7021 2.25221C20.4285 1.9412 19.9546 1.91085 19.6436 2.18443C19.3326 2.45801 19.3022 2.93192 19.5758 3.24293C21.3966 5.31284 22.5 8.02663 22.5 11C22.5 13.9733 21.3966 16.6871 19.5758 18.757C19.3022 19.068 19.3326 19.5419 19.6436 19.8155C19.9546 20.0891 20.4285 20.0587 20.7021 19.7477C22.7545 17.4145 24 14.3518 24 11C24 7.64816 22.7545 4.58543 20.7021 2.25221ZM18.3528 5.30286C18.1042 4.97156 17.6341 4.90454 17.3028 5.15316C16.9715 5.40178 16.9045 5.8719 17.1531 6.2032C18.1561 7.53971 18.75 9.1994 18.75 11C18.75 12.8006 18.1561 14.4602 17.1531 15.7968C16.9045 16.1281 16.9715 16.5982 17.3028 16.8468C17.6341 17.0954 18.1042 17.0284 18.3528 16.6971C19.544 15.1098 20.25 13.1363 20.25 11C20.25 8.86368 19.544 6.89012 18.3528 5.30286Z" fill="#594E90"/>
</svg>
