<svg width="18" height="19" viewBox="0 0 18 19" fill="none" xmlns="http://www.w3.org/2000/svg">
<path fill-rule="evenodd" clip-rule="evenodd" d="M5.75 5C5.75 3.20507 7.20507 1.75 9 1.75C10.7949 1.75 12.25 3.20507 12.25 5C12.25 6.79493 10.7949 8.25 9 8.25C7.20507 8.25 5.75 6.79493 5.75 5ZM9 0.25C6.37665 0.25 4.25 2.37665 4.25 5C4.25 7.62335 6.37665 9.75 9 9.75C11.6234 9.75 13.75 7.62335 13.75 5C13.75 2.37665 11.6234 0.25 9 0.25ZM5.25 12.25C2.48858 12.25 0.25 14.4886 0.25 17.25V18C0.25 18.4142 0.585786 18.75 1 18.75C1.41421 18.75 1.75 18.4142 1.75 18V17.25C1.75 15.317 3.317 13.75 5.25 13.75H12.75C14.683 13.75 16.25 15.317 16.25 17.25V18C16.25 18.4142 16.5858 18.75 17 18.75C17.4142 18.75 17.75 18.4142 17.75 18V17.25C17.75 14.4886 15.5114 12.25 12.75 12.25H5.25Z" fill="#585556"/>
</svg>
