<svg width="24" height="24" viewBox="0 0 24 24" fill="none" xmlns="http://www.w3.org/2000/svg">
<path fill-rule="evenodd" clip-rule="evenodd" d="M9.2251 6.452V6.452C9.2251 4.92 10.4671 3.677 12.0001 3.677V3.677C13.5321 3.677 14.7751 4.919 14.7751 6.452V6.452C14.7751 7.984 13.5331 9.227 12.0001 9.227V9.227C10.4671 9.225 9.2251 7.983 9.2251 6.452Z" stroke="#707070" stroke-width="1.5" stroke-linecap="round" stroke-linejoin="round"/>
<path fill-rule="evenodd" clip-rule="evenodd" d="M2.5 17.5479V17.5479C2.5 16.0159 3.742 14.7729 5.275 14.7729V14.7729C6.807 14.7729 8.05 16.0149 8.05 17.5479V17.5479C8.049 19.0799 6.808 20.3229 5.275 20.3229V20.3229C3.742 20.3229 2.5 19.0809 2.5 17.5479Z" stroke="#707070" stroke-width="1.5" stroke-linecap="round" stroke-linejoin="round"/>
<path fill-rule="evenodd" clip-rule="evenodd" d="M15.9509 17.5479V17.5479C15.9509 16.0159 17.1929 14.7729 18.7259 14.7729V14.7729C20.2579 14.7729 21.5009 16.0149 21.5009 17.5479V17.5479C21.5009 19.0799 20.2589 20.3229 18.7259 20.3229V20.3229C17.1919 20.3229 15.9509 19.0809 15.9509 17.5479H15.9509Z" stroke="#707070" stroke-width="1.5" stroke-linecap="round" stroke-linejoin="round"/>
<path d="M8.48998 11.9199L6.47998 15.0599" stroke="#707070" stroke-width="1.5" stroke-linecap="round" stroke-linejoin="round"/>
<path d="M13.5 8.78003L15.51 11.92" stroke="#707070" stroke-width="1.5" stroke-linecap="round" stroke-linejoin="round"/>
<path d="M15.95 17.55H12" stroke="#707070" stroke-width="1.5" stroke-linecap="round" stroke-linejoin="round"/>
</svg>
