<svg width="61" height="9" viewBox="0 0 61 9" fill="none" xmlns="http://www.w3.org/2000/svg">
<path d="M5.21973 4.4209C5.21973 5.65462 5.02441 6.57585 4.63379 7.18457C4.24642 7.79329 3.65234 8.09766 2.85156 8.09766C2.08333 8.09766 1.49902 7.78678 1.09863 7.16504C0.698242 6.54004 0.498047 5.62533 0.498047 4.4209C0.498047 3.17741 0.691732 2.25456 1.0791 1.65234C1.46647 1.05013 2.05729 0.749023 2.85156 0.749023C3.6263 0.749023 4.21387 1.06315 4.61426 1.69141C5.0179 2.31966 5.21973 3.22949 5.21973 4.4209ZM1.31836 4.4209C1.31836 5.45931 1.44043 6.21615 1.68457 6.69141C1.92871 7.16341 2.31771 7.39941 2.85156 7.39941C3.39193 7.39941 3.78255 7.16016 4.02344 6.68164C4.26758 6.19987 4.38965 5.44629 4.38965 4.4209C4.38965 3.39551 4.26758 2.64518 4.02344 2.16992C3.78255 1.69141 3.39193 1.45215 2.85156 1.45215C2.31771 1.45215 1.92871 1.68815 1.68457 2.16016C1.44043 2.62891 1.31836 3.38249 1.31836 4.4209ZM11.0424 4.4209C11.0424 5.65462 10.8471 6.57585 10.4564 7.18457C10.0691 7.79329 9.475 8.09766 8.67422 8.09766C7.90599 8.09766 7.32168 7.78678 6.92129 7.16504C6.5209 6.54004 6.3207 5.62533 6.3207 4.4209C6.3207 3.17741 6.51439 2.25456 6.90176 1.65234C7.28913 1.05013 7.87995 0.749023 8.67422 0.749023C9.44896 0.749023 10.0365 1.06315 10.4369 1.69141C10.8406 2.31966 11.0424 3.22949 11.0424 4.4209ZM7.14102 4.4209C7.14102 5.45931 7.26309 6.21615 7.50723 6.69141C7.75137 7.16341 8.14036 7.39941 8.67422 7.39941C9.21458 7.39941 9.60521 7.16016 9.84609 6.68164C10.0902 6.19987 10.2123 5.44629 10.2123 4.4209C10.2123 3.39551 10.0902 2.64518 9.84609 2.16992C9.60521 1.69141 9.21458 1.45215 8.67422 1.45215C8.14036 1.45215 7.75137 1.68815 7.50723 2.16016C7.26309 2.62891 7.14102 3.38249 7.14102 4.4209ZM12.3875 7.48242C12.3875 7.26432 12.4363 7.09993 12.534 6.98926C12.6349 6.87533 12.7781 6.81836 12.9637 6.81836C13.1525 6.81836 13.299 6.87533 13.4031 6.98926C13.5105 7.09993 13.5643 7.26432 13.5643 7.48242C13.5643 7.69401 13.5105 7.85677 13.4031 7.9707C13.2957 8.08464 13.1492 8.1416 12.9637 8.1416C12.7977 8.1416 12.6593 8.09115 12.5486 7.99023C12.4412 7.88607 12.3875 7.7168 12.3875 7.48242ZM12.3875 3.1709C12.3875 2.73145 12.5796 2.51172 12.9637 2.51172C13.3641 2.51172 13.5643 2.73145 13.5643 3.1709C13.5643 3.38249 13.5105 3.54525 13.4031 3.65918C13.2957 3.77311 13.1492 3.83008 12.9637 3.83008C12.7977 3.83008 12.6593 3.77962 12.5486 3.67871C12.4412 3.57454 12.3875 3.40527 12.3875 3.1709ZM19.3234 2.54102C19.3234 2.99674 19.1949 3.36947 18.9377 3.65918C18.6838 3.94889 18.3225 4.14258 17.8537 4.24023V4.2793C18.4266 4.35091 18.8514 4.5332 19.1281 4.82617C19.4048 5.11914 19.5432 5.50326 19.5432 5.97852C19.5432 6.65885 19.3072 7.18294 18.8352 7.55078C18.3632 7.91536 17.6926 8.09766 16.8234 8.09766C16.4458 8.09766 16.0992 8.06836 15.7834 8.00977C15.4709 7.95443 15.1665 7.85514 14.8703 7.71191V6.94043C15.1796 7.09342 15.5083 7.21061 15.8566 7.29199C16.2082 7.37012 16.5402 7.40918 16.8527 7.40918C18.0865 7.40918 18.7033 6.92578 18.7033 5.95898C18.7033 5.0931 18.023 4.66016 16.6623 4.66016H15.9592V3.96191H16.6721C17.2287 3.96191 17.6698 3.83984 17.9953 3.5957C18.3208 3.34831 18.4836 3.00651 18.4836 2.57031C18.4836 2.22201 18.3632 1.94857 18.1223 1.75C17.8846 1.55143 17.5607 1.45215 17.1506 1.45215C16.8381 1.45215 16.5435 1.49447 16.2668 1.5791C15.9901 1.66374 15.6743 1.81999 15.3195 2.04785L14.9094 1.50098C15.2023 1.26986 15.5393 1.08919 15.9201 0.958984C16.3042 0.825521 16.7079 0.758789 17.1311 0.758789C17.8244 0.758789 18.3632 0.918294 18.7473 1.2373C19.1314 1.55306 19.3234 1.98763 19.3234 2.54102ZM20.8053 4.94824C20.8053 3.54525 21.0771 2.49707 21.6207 1.80371C22.1676 1.1071 22.9749 0.758789 24.0426 0.758789C24.4104 0.758789 24.7001 0.789714 24.9117 0.851562V1.5498C24.6611 1.46842 24.3746 1.42773 24.0523 1.42773C23.2874 1.42773 22.7031 1.66699 22.2994 2.14551C21.8958 2.62077 21.6744 3.36947 21.6354 4.3916H21.6939C22.052 3.83171 22.6184 3.55176 23.3932 3.55176C24.0344 3.55176 24.539 3.74544 24.9068 4.13281C25.2779 4.52018 25.4635 5.0459 25.4635 5.70996C25.4635 6.45215 25.26 7.03646 24.8531 7.46289C24.4495 7.88607 23.9026 8.09766 23.2125 8.09766C22.4736 8.09766 21.8876 7.82096 21.4547 7.26758C21.0217 6.71094 20.8053 5.93783 20.8053 4.94824ZM23.2027 7.40918C23.665 7.40918 24.023 7.26432 24.277 6.97461C24.5341 6.68164 24.6627 6.26009 24.6627 5.70996C24.6627 5.23796 24.5439 4.86686 24.3062 4.59668C24.0686 4.3265 23.7138 4.19141 23.2418 4.19141C22.9488 4.19141 22.6803 4.25163 22.4361 4.37207C22.192 4.49251 21.9967 4.65853 21.8502 4.87012C21.707 5.08171 21.6354 5.30143 21.6354 5.5293C21.6354 5.86458 21.7005 6.17708 21.8307 6.4668C21.9609 6.75651 22.1448 6.986 22.3824 7.15527C22.6233 7.32454 22.8967 7.40918 23.2027 7.40918ZM32.3236 0.861328L29.6625 8H28.852L31.5131 0.861328H32.3236ZM40.4436 4.4209C40.4436 5.65462 40.2482 6.57585 39.8576 7.18457C39.4702 7.79329 38.8762 8.09766 38.0754 8.09766C37.3072 8.09766 36.7229 7.78678 36.3225 7.16504C35.9221 6.54004 35.7219 5.62533 35.7219 4.4209C35.7219 3.17741 35.9156 2.25456 36.3029 1.65234C36.6903 1.05013 37.2811 0.749023 38.0754 0.749023C38.8501 0.749023 39.4377 1.06315 39.8381 1.69141C40.2417 2.31966 40.4436 3.22949 40.4436 4.4209ZM36.5422 4.4209C36.5422 5.45931 36.6643 6.21615 36.9084 6.69141C37.1525 7.16341 37.5415 7.39941 38.0754 7.39941C38.6158 7.39941 39.0064 7.16016 39.2473 6.68164C39.4914 6.19987 39.6135 5.44629 39.6135 4.4209C39.6135 3.39551 39.4914 2.64518 39.2473 2.16992C39.0064 1.69141 38.6158 1.45215 38.0754 1.45215C37.5415 1.45215 37.1525 1.68815 36.9084 2.16016C36.6643 2.62891 36.5422 3.38249 36.5422 4.4209ZM46.5641 6.35938H45.5045V8H44.7281V6.35938H41.2564V5.65137L44.6451 0.822266H45.5045V5.62207H46.5641V6.35938ZM44.7281 5.62207V3.24902C44.7281 2.78353 44.7444 2.25781 44.777 1.67188H44.7379C44.5816 1.98438 44.4352 2.24316 44.2984 2.44824L42.067 5.62207H44.7281ZM47.6113 7.48242C47.6113 7.26432 47.6602 7.09993 47.7578 6.98926C47.8587 6.87533 48.002 6.81836 48.1875 6.81836C48.3763 6.81836 48.5228 6.87533 48.627 6.98926C48.7344 7.09993 48.7881 7.26432 48.7881 7.48242C48.7881 7.69401 48.7344 7.85677 48.627 7.9707C48.5195 8.08464 48.373 8.1416 48.1875 8.1416C48.0215 8.1416 47.8831 8.09115 47.7725 7.99023C47.665 7.88607 47.6113 7.7168 47.6113 7.48242ZM47.6113 3.1709C47.6113 2.73145 47.8034 2.51172 48.1875 2.51172C48.5879 2.51172 48.7881 2.73145 48.7881 3.1709C48.7881 3.38249 48.7344 3.54525 48.627 3.65918C48.5195 3.77311 48.373 3.83008 48.1875 3.83008C48.0215 3.83008 47.8831 3.77962 47.7725 3.67871C47.665 3.57454 47.6113 3.40527 47.6113 3.1709ZM53.1264 8H52.3354V2.91211C52.3354 2.48893 52.3484 2.08854 52.3744 1.71094C52.3061 1.7793 52.2296 1.85091 52.1449 1.92578C52.0603 2.00065 51.6729 2.31803 50.9828 2.87793L50.5531 2.32129L52.4428 0.861328H53.1264V8ZM60.6385 8H55.9461V7.30176L57.826 5.41211C58.3989 4.83268 58.7765 4.41927 58.9588 4.17188C59.1411 3.92448 59.2778 3.68359 59.3689 3.44922C59.4601 3.21484 59.5057 2.96257 59.5057 2.69238C59.5057 2.31152 59.3901 2.01042 59.159 1.78906C58.9279 1.56445 58.6072 1.45215 58.1971 1.45215C57.9008 1.45215 57.6193 1.50098 57.3523 1.59863C57.0887 1.69629 56.7941 1.8737 56.4686 2.13086L56.0389 1.5791C56.6964 1.03223 57.4126 0.758789 58.1873 0.758789C58.8579 0.758789 59.3836 0.931315 59.7645 1.27637C60.1453 1.61816 60.3357 2.07878 60.3357 2.6582C60.3357 3.11068 60.2088 3.55827 59.9549 4.00098C59.701 4.44368 59.2257 5.00358 58.5291 5.68066L56.9666 7.20898V7.24805H60.6385V8Z" fill="#594E90"/>
</svg>
