<svg width="20" height="20" viewBox="0 0 20 20" fill="none" xmlns="http://www.w3.org/2000/svg">
<path d="M10 5.25C10.4142 5.25 10.75 5.58579 10.75 6V14C10.75 14.4142 10.4142 14.75 10 14.75C9.58579 14.75 9.25 14.4142 9.25 14V6C9.25 5.58579 9.58579 5.25 10 5.25Z" fill="#707070"/>
<path d="M7.75 7.33301C7.75 6.91879 7.41421 6.58301 7 6.58301C6.58579 6.58301 6.25 6.91879 6.25 7.33301V12.666C6.25 13.0802 6.58579 13.416 7 13.416C7.41421 13.416 7.75 13.0802 7.75 12.666V7.33301Z" fill="#707070"/>
<path d="M4.75 9.11084C4.75 8.69663 4.41421 8.36084 4 8.36084C3.58579 8.36084 3.25 8.69663 3.25 9.11084V10.8888C3.25 11.3031 3.58579 11.6388 4 11.6388C4.41421 11.6388 4.75 11.3031 4.75 10.8888V9.11084Z" fill="#707070"/>
<path d="M13.75 7.33301C13.75 6.91879 13.4142 6.58301 13 6.58301C12.5858 6.58301 12.25 6.91879 12.25 7.33301V12.666C12.25 13.0802 12.5858 13.416 13 13.416C13.4142 13.416 13.75 13.0802 13.75 12.666V7.33301Z" fill="#707070"/>
<path d="M16 8.36084C16.4142 8.36084 16.75 8.69663 16.75 9.11084V10.8888C16.75 11.3031 16.4142 11.6388 16 11.6388C15.5858 11.6388 15.25 11.3031 15.25 10.8888V9.11084C15.25 8.69663 15.5858 8.36084 16 8.36084Z" fill="#707070"/>
<path fill-rule="evenodd" clip-rule="evenodd" d="M16.8943 16.8943C20.7019 13.0867 20.7019 6.91332 16.8943 3.10571C13.0867 -0.701905 6.91332 -0.701902 3.10571 3.10571C-0.701905 6.9133 -0.701902 13.0867 3.10571 16.8943C6.9133 20.7019 13.0867 20.7019 16.8943 16.8943ZM4.16637 4.16637C7.3882 0.944543 12.6118 0.944545 15.8336 4.16637C19.0551 7.38823 19.0553 12.6119 15.8336 15.8336C12.6118 19.0554 7.38818 19.0554 4.16637 15.8336C0.944543 12.6118 0.944546 7.38818 4.16637 4.16637Z" fill="#707070"/>
</svg>
