<svg width="18" height="18" viewBox="0 0 18 18" fill="none" xmlns="http://www.w3.org/2000/svg">
<path d="M7.82936 10.0988C7.51733 9.82641 7.04354 9.85853 6.77112 10.1706C6.49871 10.4826 6.53083 10.9564 6.84286 11.2288L7.82936 10.0988ZM13.9952 10.6638L14.4885 11.2288C14.5012 11.2177 14.5136 11.2061 14.5255 11.1941L13.9952 10.6638ZM8.47539 1.80482C8.17942 2.09459 8.17439 2.56944 8.46416 2.86542C8.75394 3.16139 9.22879 3.16642 9.52476 2.87665L8.47539 1.80482ZM10.1708 7.90079C10.4828 8.17321 10.9566 8.14109 11.229 7.82906C11.5014 7.51703 11.4693 7.04325 11.1573 6.77083L10.1708 7.90079ZM4.00495 7.33581L3.5117 6.77083C3.49895 6.78196 3.48658 6.79352 3.47461 6.80549L4.00495 7.33581ZM9.52476 16.1949C9.82074 15.9051 9.82577 15.4302 9.536 15.1343C9.24622 14.8383 8.77137 14.8332 8.47539 15.123L9.52476 16.1949ZM6.84286 11.2288C9.03281 13.1407 12.2985 13.1407 14.4885 11.2288L13.502 10.0988C11.8771 11.5174 9.45418 11.5174 7.82936 10.0988L6.84286 11.2288ZM14.5255 11.1941L16.1895 9.53016L15.1289 8.4695L13.4649 10.1335L14.5255 11.1941ZM16.1951 9.52452C18.2885 7.38632 18.2703 3.96139 16.1544 1.84548L15.0938 2.90614C16.6283 4.44064 16.6414 6.92448 15.1233 8.47515L16.1951 9.52452ZM16.1544 1.84548C14.0385 -0.270436 10.6136 -0.28857 8.47539 1.80482L9.52476 2.87665C11.0754 1.35848 13.5593 1.37163 15.0938 2.90614L16.1544 1.84548ZM11.1573 6.77083C8.96735 4.85892 5.70165 4.85892 3.5117 6.77083L4.4982 7.90079C6.12302 6.48226 8.54598 6.48226 10.1708 7.90079L11.1573 6.77083ZM3.47461 6.80549L1.81064 8.46951L2.87131 9.53016L4.53529 7.86613L3.47461 6.80549ZM1.80506 8.47515C-0.288326 10.6133 -0.270192 14.0383 1.84572 16.1542L2.90638 15.0935C1.37187 13.559 1.35872 11.0752 2.87689 9.52452L1.80506 8.47515ZM1.84572 16.1542C3.96163 18.2701 7.38656 18.2882 9.52476 16.1949L8.47539 15.123C6.92473 16.6412 4.44089 16.628 2.90638 15.0935L1.84572 16.1542Z" fill="white"/>
</svg>
