<svg width="16" height="16" viewBox="0 0 16 16" fill="none" xmlns="http://www.w3.org/2000/svg">
<path fill-rule="evenodd" clip-rule="evenodd" d="M6.71659 3.54935C6.88983 3.63261 7 3.80779 7 4V12C7 12.1922 6.88983 12.3674 6.71659 12.4506C6.54336 12.5339 6.33774 12.5105 6.18765 12.3904L3.82461 10.5H1.5C1.22386 10.5 1 10.2761 1 10V6C1 5.72385 1.22386 5.5 1.5 5.5H3.82461L6.18765 3.60956C6.33774 3.48949 6.54336 3.46609 6.71659 3.54935ZM6 5.04031L4.31235 6.39043C4.22369 6.46136 4.11354 6.5 4 6.5H2V9.5H4C4.11354 9.5 4.22369 9.53864 4.31235 9.60956L6 10.9597V5.04031Z" fill="#333131"/>
<path d="M11.5355 14.0104C13.0737 12.4722 14.0251 10.3472 14.0251 8C14.0251 5.65279 13.0737 3.52779 11.5355 1.98959L10.8284 2.6967C12.1857 4.05393 13.0251 5.92893 13.0251 8C13.0251 10.0711 12.1857 11.9461 10.8284 13.3033L11.5355 14.0104Z" fill="#333131"/>
<path d="M10.1213 12.5962C11.2976 11.4199 12.0251 9.79493 12.0251 8C12.0251 6.20508 11.2976 4.58008 10.1213 3.40381L9.41421 4.11091C10.4095 5.10622 11.0251 6.48122 11.0251 8C11.0251 9.51878 10.4095 10.8938 9.41421 11.8891L10.1213 12.5962Z" fill="#333131"/>
<path d="M8.70711 11.182C9.52145 10.3676 10.0251 9.24264 10.0251 8C10.0251 6.75736 9.52145 5.63236 8.70711 4.81802L8 5.52513C8.63338 6.1585 9.02513 7.0335 9.02513 8C9.02513 8.9665 8.63338 9.8415 8 10.4749L8.70711 11.182Z" fill="#333131"/>
</svg>
